<svg width="1525" height="401" viewBox="0 0 1525 401" fill="none" xmlns="http://www.w3.org/2000/svg">
<g clip-path="url(#clip0_300_312)">
<rect width="1525" height="401" fill="white"/>
<path opacity="0.1" d="M-3.0816e-05 401.999H477.401C485.711 358.857 470.872 325.413 432.884 301.665C383.797 271.031 356.493 291.751 279.805 287.417C203.057 283.083 253.332 129.317 161.805 42.2229C106.801 -10.1009 52.8665 -12.6142 -3.0816e-05 34.6831V401.999Z" fill="#00A4D6"/>
<path opacity="0.1" d="M-2.37034e-05 401.999H531C529.259 364.28 509.968 340.394 473.128 330.34C417.808 315.32 255.172 343.817 198.19 330.34C141.208 316.923 162.22 251.142 84.9979 231.432C50.7297 222.685 22.397 230.977 -2.37034e-05 256.307V401.999Z" fill="#00A4D6"/>
<path d="M277.846 335.209C277.885 335.209 277.965 335.189 278.083 335.149C279.27 336.455 281.645 337.405 286.453 337.346C299.748 337.049 306.634 332.3 303.25 328.144C302.063 326.66 298.324 327.075 294.644 327.966C300.342 324.522 304.853 320.188 302.716 315.558C297.968 304.871 284.375 314.964 279.092 321.791C294.762 302.081 297.71 290.425 287.936 286.823C274.878 281.955 269.417 313.836 268.943 317.042C269.358 313.955 273.394 285.22 258.377 286.585C247.812 287.575 245.042 298.697 250.067 319.951L245.141 336.693L277.846 335.209Z" fill="#78E2FF"/>
<path d="M277.846 335.209C277.885 335.209 277.965 335.189 278.083 335.149C279.27 336.455 281.645 337.405 286.453 337.346C299.748 337.049 306.634 332.3 303.25 328.144C302.063 326.66 298.324 327.075 294.644 327.966C300.342 324.522 304.853 320.188 302.716 315.558C297.968 304.871 284.375 314.964 279.092 321.791C294.762 302.081 297.71 290.425 287.936 286.823C274.878 281.955 269.417 313.836 268.943 317.042C269.358 313.955 273.394 285.22 258.377 286.585C247.812 287.575 245.042 298.697 250.067 319.951L245.141 336.693L277.846 335.209Z" fill="url(#paint0_linear_300_312)"/>
<g style="mix-blend-mode:multiply" opacity="0.2">
<path d="M269.477 337.583C280.438 333.348 284.593 329.39 281.942 325.709C280.28 323.414 277.846 324.225 274.641 328.144C278.875 322.602 279.152 318.981 275.472 317.279C271.673 315.538 268.745 317.853 266.687 324.225C268.112 318.645 267.38 315.458 264.491 314.667C261.563 313.875 260 316.666 259.802 323.038C256.043 318.011 253.055 317.497 250.839 321.494C248.781 325.175 250.839 330.657 257.012 337.939" fill="#00A4D6"/>
</g>
<path d="M208.637 336.693C210.338 304.277 205.906 287.575 195.341 286.585C180.324 285.22 184.36 313.955 184.835 317.042C184.301 313.836 178.84 281.955 165.782 286.823C156.008 290.425 158.956 302.081 174.626 321.791C169.343 314.964 153.792 303.149 149.043 313.836C146.728 318.942 152.783 324.047 159.727 328.025C154.504 327.431 147.678 327.431 147.975 330.459C148.647 337.544 168.868 339.622 208.637 336.693Z" fill="#78E2FF"/>
<path d="M208.637 336.693C210.338 304.277 205.906 287.575 195.341 286.585C180.324 285.22 184.36 313.955 184.835 317.042C184.301 313.836 178.84 281.955 165.782 286.823C156.008 290.425 158.956 302.081 174.626 321.791C169.343 314.964 153.792 303.149 149.043 313.836C146.728 318.942 152.783 324.047 159.727 328.025C154.504 327.431 147.678 327.431 147.975 330.459C148.647 337.544 168.868 339.622 208.637 336.693Z" fill="url(#paint1_linear_300_312)"/>
<g style="mix-blend-mode:multiply" opacity="0.2">
<path d="M197.004 339.009C203.137 331.726 205.195 326.264 203.177 322.623C200.921 318.625 197.934 319.14 194.214 324.166C193.977 317.755 192.414 314.944 189.525 315.736C186.636 316.528 185.884 319.733 187.269 325.354C185.251 318.942 182.323 316.626 178.485 318.408C174.844 320.109 175.141 323.731 179.375 329.272C176.13 325.354 173.677 324.542 172.015 326.838C169.364 330.519 173.538 334.477 184.539 338.712" fill="#00A4D6"/>
</g>
<g opacity="0.2">
<path opacity="0.2" fill-rule="evenodd" clip-rule="evenodd" d="M370.441 218.253C370.441 219.638 370.58 220.984 370.857 222.29C372.103 228.049 375.961 232.917 381.125 235.47C383.677 236.776 386.586 237.488 389.672 237.488C400.297 237.488 408.904 228.88 408.904 218.253C408.904 213.028 406.767 208.279 403.384 204.835C399.882 201.273 395.014 199.077 389.672 199.077C383.915 199.077 378.751 201.63 375.19 205.667C372.222 209.051 370.441 213.444 370.441 218.253ZM373.706 218.253C373.706 214.275 375.19 210.594 377.682 207.804C380.591 204.42 384.865 202.342 389.672 202.342C394.124 202.342 398.16 204.182 401.069 207.091C403.859 210.001 405.639 213.919 405.639 218.253C405.639 227.099 398.457 234.223 389.672 234.223C387.12 234.223 384.687 233.629 382.55 232.561C378.276 230.423 375.13 226.386 374.062 221.637C373.824 220.529 373.706 219.401 373.706 218.253V218.253Z" fill="#18BDF7"/>
</g>
<path opacity="0.2" d="M370.857 222.289C372.104 228.047 375.962 232.915 381.126 235.468L382.55 232.559C378.277 230.422 375.131 226.385 374.062 221.636L370.857 222.289Z" fill="#18BDF7"/>
<g opacity="0.3">
<path opacity="0.3" d="M375.19 205.666L377.683 207.804C380.592 204.42 384.865 202.342 389.673 202.342C394.125 202.342 398.161 204.182 401.069 207.091L403.384 204.835C399.882 201.273 395.015 199.077 389.673 199.077C383.915 199.077 378.751 201.629 375.19 205.666V205.666Z" fill="#4A63FE"/>
</g>
<g opacity="0.8">
<g opacity="0.2">
<path opacity="0.2" fill-rule="evenodd" clip-rule="evenodd" d="M259.564 51.0693C259.564 51.9796 259.643 52.8702 259.801 53.7409C260.632 57.5999 263.185 60.8058 266.627 62.4681C268.348 63.3587 270.307 63.8336 272.325 63.8336C279.389 63.8336 285.087 58.1342 285.087 51.0693C285.087 47.5665 283.722 44.42 281.466 42.1046C279.092 39.7298 275.887 38.2456 272.325 38.2456C268.467 38.2456 265.025 39.9673 262.71 42.6389C260.751 44.8949 259.564 47.8634 259.564 51.0693V51.0693ZM261.701 51.0693C261.701 48.3977 262.71 45.9636 264.312 44.0638C266.271 41.8671 269.12 40.4423 272.325 40.4423C275.293 40.4423 277.964 41.689 279.923 43.6482C281.763 45.548 282.95 48.1602 282.95 51.0693C282.95 56.8875 278.202 61.6963 272.325 61.6963C270.604 61.6963 269.001 61.2808 267.577 60.5683C264.728 59.1435 262.65 56.4719 261.938 53.266C261.78 52.5535 261.701 51.8213 261.701 51.0693V51.0693Z" fill="#18BDF7"/>
</g>
<path opacity="0.2" d="M259.801 53.7406C260.632 57.5994 263.185 60.8052 266.627 62.4674L267.577 60.5677C264.728 59.1429 262.651 56.4714 261.938 53.2656L259.801 53.7406Z" fill="#18BDF7"/>
<g opacity="0.3">
<path opacity="0.3" d="M262.71 42.6387L264.313 44.0635C266.272 41.867 269.121 40.4422 272.326 40.4422C275.294 40.4422 277.965 41.6889 279.924 43.648L281.467 42.1044C279.093 39.7298 275.887 38.2456 272.326 38.2456C268.468 38.2456 265.025 39.9672 262.71 42.6387V42.6387Z" fill="#4A63FE"/>
</g>
</g>
<path opacity="0.2" fill-rule="evenodd" clip-rule="evenodd" d="M404.097 270.853L401.663 270.556C401.505 271.387 401.406 272.258 401.366 273.168C401.406 274.078 401.505 274.949 401.663 275.78L404.097 275.424C404.334 276.414 404.71 277.324 405.224 278.155L403.266 279.58C404.215 281.064 405.521 282.37 407.005 283.32L408.43 281.361C409.261 281.876 410.171 282.252 411.16 282.489L410.804 284.864C411.635 285.062 412.505 285.161 413.416 285.161C414.326 285.161 415.196 285.062 416.027 284.864L415.671 282.489C416.66 282.252 417.57 281.876 418.401 281.361L419.885 283.32C421.369 282.37 422.616 281.064 423.565 279.58L421.607 278.155C422.121 277.324 422.497 276.414 422.734 275.424L425.168 275.78C425.366 274.949 425.465 274.078 425.465 273.168C425.465 272.258 425.366 271.387 425.168 270.556L422.734 270.853C422.497 269.903 422.121 269.012 421.607 268.181L423.565 266.697C422.616 265.213 421.369 263.966 419.885 263.016L418.401 264.975C417.57 264.461 416.66 264.085 415.671 263.847L416.027 261.413C415.196 261.215 414.326 261.116 413.416 261.116C412.505 261.116 411.635 261.215 410.804 261.413L411.16 263.847C410.171 264.085 409.261 264.461 408.43 264.975L407.005 263.016C405.521 263.966 404.215 265.213 403.266 266.697L405.224 268.181C404.71 269.012 404.334 269.903 404.097 270.853ZM407.064 273.168C407.064 269.606 409.914 266.756 413.416 266.756C416.977 266.756 419.826 269.606 419.826 273.168C419.826 276.671 416.977 279.521 413.416 279.521C409.914 279.521 407.064 276.671 407.064 273.168Z" fill="#00A4D6"/>
<path opacity="0.1" fill-rule="evenodd" clip-rule="evenodd" d="M30.5685 89.4798L26.9478 89.0048C26.651 90.2515 26.5323 91.5577 26.5323 92.9232C26.5323 94.2886 26.651 95.5948 26.9478 96.8415L30.5685 96.3072C30.9247 97.7914 31.4588 99.1569 32.2305 100.404L29.3221 102.6C30.7466 104.797 32.6459 106.697 34.9015 108.122L37.0384 105.213C38.2848 105.984 39.65 106.578 41.1339 106.934L40.5997 110.496C41.8462 110.793 43.2114 110.971 44.5172 110.971C45.8824 110.971 47.1882 110.793 48.4941 110.496L47.9598 106.934C49.3844 106.578 50.7496 105.984 51.9961 105.213L54.1922 108.122C56.4478 106.697 58.3472 104.797 59.7717 102.6L56.8633 100.404C57.5755 99.1569 58.1691 97.7914 58.5253 96.3072L62.146 96.8415C62.4428 95.5948 62.5615 94.2886 62.5615 92.9232C62.5615 91.5577 62.4428 90.2515 62.146 89.0048L58.5253 89.4798C58.1691 88.0549 57.5755 86.6894 56.8633 85.4427L59.7717 83.246C58.3472 81.0494 56.4478 79.1496 54.1922 77.7247L51.9961 80.6338C50.7496 79.862 49.3844 79.2683 47.9598 78.9121L48.4941 75.3499C47.1882 75.0531 45.8824 74.875 44.5172 74.875C43.2114 74.875 41.8462 75.0531 40.5997 75.3499L41.1339 78.9121C39.65 79.2683 38.2848 79.862 37.0384 80.6338L34.9015 77.7247C32.6459 79.1496 30.7466 81.0494 29.3221 83.246L32.2305 85.4427C31.4588 86.6894 30.9247 88.0549 30.5685 89.4798ZM34.9609 92.9232C34.9609 87.6393 39.2345 83.3648 44.5172 83.3648C49.7999 83.3648 54.1329 87.6393 54.1329 92.9232C54.1329 98.207 49.7999 102.482 44.5172 102.482C39.2345 102.482 34.9609 98.207 34.9609 92.9232Z" fill="#00A4D6"/>
<path opacity="0.1" d="M307.286 28.1525C307.286 30.8834 309.542 33.1393 312.272 33.1393C315.003 33.1393 317.199 30.8834 317.199 28.1525C317.199 25.4217 315.003 23.2251 312.272 23.2251C309.542 23.2251 307.286 25.4217 307.286 28.1525Z" stroke="#00A4D6" stroke-width="2.03625"/>
<path opacity="0.5" d="M115.804 46.1411C115.804 48.872 118 51.0685 120.73 51.0685C123.461 51.0685 125.657 48.872 125.657 46.1411C125.657 43.4102 123.461 41.1543 120.73 41.1543C118 41.1543 115.804 43.4102 115.804 46.1411Z" stroke="#00A4D6" stroke-width="0.509063"/>
<path opacity="0.1" d="M239.265 82.5927C239.265 86.8671 242.767 90.3697 247.041 90.3697C251.314 90.3697 254.757 86.8671 254.757 82.5927C254.757 78.3183 251.314 74.875 247.041 74.875C242.767 74.875 239.265 78.3183 239.265 82.5927Z" stroke="#00A4D6" stroke-width="3.2071"/>
<path opacity="0.1" d="M18.7571 198.066C18.7571 202.341 22.2591 205.843 26.5327 205.843C30.8064 205.843 34.249 202.341 34.249 198.066C34.249 193.792 30.8064 190.349 26.5327 190.349C22.2591 190.349 18.7571 193.792 18.7571 198.066Z" stroke="#00A4D6" stroke-width="3.2071"/>
<path d="M65.826 106.104V291.751C65.826 296.204 69.4468 299.766 73.8391 299.766H380.117C384.569 299.766 388.13 296.204 388.13 291.751V106.104C388.13 101.651 384.569 98.0894 380.117 98.0894H73.8391C69.4468 98.0894 65.826 101.651 65.826 106.104V106.104Z" fill="#4A63FE"/>
<path d="M194.213 334.021H259.802L252.679 305.999L251.017 299.646L247.931 287.357H206.084L202.939 299.646L201.336 305.999L194.213 334.021Z" fill="#4A63FE"/>
<path d="M201.336 305.998H252.679L251.017 299.646H202.939L201.336 305.998Z" fill="#425DE2"/>
<path d="M169.047 341.739H284.969C287.759 341.739 290.015 339.483 290.015 336.693C290.015 333.902 287.759 331.646 284.969 331.646H169.047C166.257 331.646 164.002 333.902 164.002 336.693C164.002 339.483 166.257 341.739 169.047 341.739Z" fill="#425DE2"/>
<g opacity="0.2">
<path opacity="0.2" d="M65.8851 267.647H388.723V126.764H65.8851V267.647Z" fill="#60F4DF"/>
</g>
<path d="M227.037 290.622C231.073 290.622 234.457 287.297 234.457 283.201C234.457 279.105 231.073 275.78 227.037 275.78C222.941 275.78 219.558 279.105 219.558 283.201C219.558 287.297 222.941 290.622 227.037 290.622Z" fill="#3B5BD1"/>
<path opacity="0.2" d="M76.9851 217.658H273.157C275.294 217.658 277.075 215.877 277.075 213.74V134.423C277.075 132.227 275.294 130.505 273.157 130.505H76.9851C74.789 130.505 73.0676 132.227 73.0676 134.423V213.74C73.0676 215.877 74.789 217.658 76.9851 217.658Z" fill="white"/>
<path opacity="0.4" d="M78.5284 177.169V210.297C78.5284 211.721 79.7155 212.968 81.1994 212.968H269.655C271.139 212.968 272.326 211.721 272.326 210.297V137.51C254.935 137.51 246.269 144.041 241.164 152.59C240.848 153.144 240.551 153.698 240.274 154.252C231.667 170.519 234.22 192.842 215.344 192.842C214.632 192.842 213.959 192.763 213.326 192.605C212.93 192.486 212.555 192.347 212.198 192.189C199.496 186.846 201.455 148.85 178.84 149.087C174.032 149.147 170.412 151.046 167.563 153.955C167.286 154.272 167.009 154.589 166.732 154.905C156.641 166.779 156.463 193.258 140.912 198.067C135.332 199.788 130.346 197.473 125.479 193.555C125.163 193.317 124.846 193.06 124.529 192.783C114.201 184.234 103.933 169.569 87.966 173.132C87.4912 173.25 87.0163 173.369 86.5415 173.488C84.0485 174.26 81.3775 175.447 78.5284 177.169V177.169Z" fill="white"/>
<path opacity="0.8" d="M78.5284 170.46C81.9117 170.52 84.464 171.648 86.5415 173.488C90.3996 176.932 92.4771 182.75 94.4952 188.39C97.5223 196.939 100.668 205.725 109.75 205.725C110.264 205.725 110.779 205.706 111.293 205.666C117.229 205.072 121.621 200.204 125.479 193.555C127.853 189.458 130.05 184.649 132.305 179.722C138.597 165.889 145.185 151.522 157.175 151.225C157.334 151.225 157.472 151.225 157.591 151.225C161.271 151.225 164.239 152.59 166.732 154.906C171.836 159.536 175.101 167.907 178.247 176.1C182.936 188.212 187.803 200.738 198.725 201.035C206.56 201.154 210.121 198.186 213.326 192.605C214.573 190.408 215.76 187.796 217.125 184.828C219.618 179.425 222.704 172.716 227.809 164.88C231.192 159.596 235.585 156.271 240.274 154.253C252.857 148.791 267.696 152.768 272.326 154.312V153.065C267.34 151.462 253.51 147.959 241.164 152.59C235.822 154.609 230.718 158.23 226.8 164.227C221.636 172.123 218.55 178.891 216.057 184.353C214.632 187.44 213.445 190.052 212.198 192.189C209.171 197.414 205.847 199.967 198.725 199.848C188.575 199.61 184.123 187.974 179.374 175.685C176.11 167.314 172.845 158.824 167.563 153.956C164.773 151.403 161.39 149.919 157.175 150.037C144.354 150.394 137.706 165.058 131.237 179.247C129.04 184.056 126.904 188.805 124.529 192.783C120.849 199.254 116.694 203.885 111.174 204.479C101.796 205.369 98.7688 196.939 95.623 188.034C93.6642 182.453 91.6461 176.753 87.966 173.132C85.6511 170.817 82.6239 169.332 78.5284 169.273V170.46Z" fill="white"/>
<g opacity="0.5">
<path opacity="0.5" d="M76.3913 240.396H177.594C179.434 240.396 180.917 238.912 180.917 237.072V224.604C180.917 222.823 179.434 221.339 177.594 221.339H76.3913C74.5512 221.339 73.0673 222.823 73.0673 224.604V237.072C73.0673 238.912 74.5512 240.396 76.3913 240.396Z" fill="#9CD7FF"/>
</g>
<path opacity="0.2" d="M76.3918 263.491H177.594C179.434 263.491 180.918 262.007 180.918 260.166V247.699C180.918 245.858 179.434 244.374 177.594 244.374H76.3918C74.5518 244.374 73.0679 245.858 73.0679 247.699V260.166C73.0679 262.007 74.5518 263.491 76.3918 263.491Z" fill="white"/>
<g opacity="0.2">
<path opacity="0.2" d="M284.256 172.657H376.555C378.692 172.657 380.473 170.936 380.473 168.798V134.424C380.473 132.227 378.692 130.505 376.555 130.505H284.256C282.06 130.505 280.339 132.227 280.339 134.424V168.798C280.339 170.936 282.06 172.657 284.256 172.657Z" fill="#9CD7FF"/>
</g>
<g opacity="0.3">
<path opacity="0.3" d="M294.465 169.094H299.392C299.926 169.094 300.401 168.678 300.401 168.085V142.081C300.401 141.547 299.926 141.072 299.392 141.072H294.465C293.931 141.072 293.456 141.547 293.456 142.081V168.085C293.456 168.678 293.931 169.094 294.465 169.094Z" fill="white"/>
<path opacity="0.3" d="M285.027 169.094H289.776C290.37 169.094 290.904 168.619 290.904 168.026V135.61C290.904 135.016 290.37 134.542 289.776 134.542H285.027C284.434 134.542 283.959 135.016 283.959 135.61V168.026C283.959 168.619 284.434 169.094 285.027 169.094Z" fill="white"/>
<path opacity="0.3" d="M370.679 169.094H375.427C376.021 169.094 376.496 168.619 376.496 168.026V135.61C376.496 135.016 376.021 134.542 375.427 134.542H370.679C370.085 134.542 369.551 135.016 369.551 135.61V168.026C369.551 168.619 370.085 169.094 370.679 169.094Z" fill="white"/>
<path opacity="0.3" d="M361.004 169.095H366.049C366.584 169.095 366.999 168.679 366.999 168.145V143.685C366.999 143.15 366.584 142.735 366.049 142.735H361.004C360.47 142.735 360.054 143.15 360.054 143.685V168.145C360.054 168.679 360.47 169.095 361.004 169.095Z" fill="white"/>
<path opacity="0.3" d="M351.626 169.094H356.374C356.968 169.094 357.502 168.619 357.502 168.026V135.61C357.502 135.016 356.968 134.542 356.374 134.542H351.626C351.032 134.542 350.557 135.016 350.557 135.61V168.026C350.557 168.619 351.032 169.094 351.626 169.094Z" fill="white"/>
<path opacity="0.3" d="M341.831 169.095H347.173C347.589 169.095 347.945 168.738 347.945 168.263V150.809C347.945 150.393 347.589 150.037 347.173 150.037H341.831C341.416 150.037 341.06 150.393 341.06 150.809V168.263C341.06 168.738 341.416 169.095 341.831 169.095Z" fill="white"/>
<path opacity="0.3" d="M332.631 169.094H337.38C337.973 169.094 338.448 168.619 338.448 168.026V135.61C338.448 135.016 337.973 134.542 337.38 134.542H332.631C332.038 134.542 331.504 135.016 331.504 135.61V168.026C331.504 168.619 332.038 169.094 332.631 169.094Z" fill="white"/>
<path opacity="0.3" d="M323.016 169.094H327.942C328.476 169.094 328.951 168.678 328.951 168.085V142.081C328.951 141.547 328.476 141.072 327.942 141.072H323.016C322.422 141.072 322.007 141.547 322.007 142.081V168.085C322.007 168.678 322.422 169.094 323.016 169.094Z" fill="white"/>
<path opacity="0.3" d="M313.578 169.094H318.327C318.92 169.094 319.395 168.619 319.395 168.026V135.61C319.395 135.016 318.92 134.542 318.327 134.542H313.578C312.985 134.542 312.51 135.016 312.51 135.61V168.026C312.51 168.619 312.985 169.094 313.578 169.094Z" fill="white"/>
<path opacity="0.3" d="M303.902 169.095H308.948C309.482 169.095 309.897 168.679 309.897 168.145V143.685C309.897 143.15 309.482 142.735 308.948 142.735H303.902C303.428 142.735 302.953 143.15 302.953 143.685V168.145C302.953 168.679 303.428 169.095 303.902 169.095Z" fill="white"/>
</g>
<path opacity="0.2" d="M284.256 218.074H376.555C378.692 218.074 380.473 216.352 380.473 214.155V179.781C380.473 177.644 378.692 175.922 376.555 175.922H284.256C282.06 175.922 280.339 177.644 280.339 179.781V214.155C280.339 216.352 282.06 218.074 284.256 218.074Z" fill="white"/>
<path opacity="0.2" d="M284.256 263.491H376.555C378.692 263.491 380.473 261.769 380.473 259.572V225.198C380.473 223.061 378.692 221.339 376.555 221.339H284.256C282.06 221.339 280.339 223.061 280.339 225.198V259.572C280.339 261.769 282.06 263.491 284.256 263.491Z" fill="white"/>
<path opacity="0.5" d="M283.485 183.283C283.485 184.292 284.376 185.124 285.385 185.124C285.662 185.124 285.919 185.084 286.156 185.005L301.411 202.281C301.233 202.519 301.114 202.875 301.114 203.231C301.114 204.24 302.004 205.071 303.013 205.071C304.082 205.071 304.913 204.24 304.913 203.231C304.913 202.875 304.834 202.578 304.675 202.341L321.058 186.192C321.335 186.351 321.631 186.43 321.948 186.43C322.265 186.43 322.561 186.351 322.838 186.192L344.147 209.168C344.068 209.366 344.028 209.564 344.028 209.762C344.028 210.771 344.859 211.602 345.928 211.602C346.937 211.602 347.827 210.771 347.827 209.762C347.827 209.485 347.768 209.227 347.649 208.99L359.402 193.732C359.56 193.772 359.738 193.791 359.936 193.791C360.213 193.791 360.47 193.752 360.708 193.673L373.647 210.415C373.469 210.712 373.35 211.068 373.35 211.424C373.35 212.493 374.181 213.324 375.19 213.324C376.259 213.324 377.09 212.493 377.09 211.424C377.09 210.415 376.259 209.524 375.19 209.524C374.993 209.564 374.775 209.623 374.538 209.702L361.598 192.842C361.717 192.545 361.835 192.248 361.835 191.951C361.835 190.882 361.004 190.051 359.936 190.051C358.927 190.051 358.036 190.882 358.036 191.951C358.036 192.307 358.215 192.723 358.393 193.02L346.818 208.099C346.541 207.941 346.244 207.862 345.928 207.862C345.512 207.862 345.156 207.981 344.859 208.218L323.669 185.361C323.788 185.124 323.847 184.846 323.847 184.53C323.847 183.521 323.016 182.689 321.948 182.689C320.939 182.689 320.108 183.521 320.108 184.53C320.108 184.807 320.167 185.064 320.286 185.302L303.785 201.509C303.548 201.391 303.29 201.331 303.013 201.331C302.776 201.331 302.539 201.391 302.301 201.509L286.987 184.174C287.165 183.936 287.284 183.58 287.284 183.283C287.284 182.214 286.453 181.383 285.385 181.383C284.376 181.383 283.485 182.214 283.485 183.283V183.283Z" fill="white"/>
<path opacity="0.3" d="M293.813 228.047H375.131C376.021 228.047 376.793 227.335 376.793 226.385V226.207C376.793 225.257 376.021 224.485 375.131 224.485H293.813C292.863 224.485 292.092 225.257 292.092 226.207V226.385C292.092 227.335 292.863 228.047 293.813 228.047Z" fill="white"/>
<path opacity="0.3" d="M302.242 234.4H375.19C376.081 234.4 376.793 233.687 376.793 232.797V232.5C376.793 231.61 376.081 230.838 375.19 230.838H302.242C301.351 230.838 300.639 231.61 300.639 232.5V232.797C300.639 233.687 301.351 234.4 302.242 234.4Z" fill="white"/>
<path opacity="0.3" d="M285.266 240.812H375.012C376.021 240.812 376.793 239.98 376.793 239.031C376.793 238.021 376.021 237.25 375.012 237.25H285.266C284.316 237.25 283.485 238.021 283.485 239.031C283.485 239.98 284.316 240.812 285.266 240.812Z" fill="white"/>
<path opacity="0.3" d="M310.552 247.165H375.309C376.14 247.165 376.793 246.452 376.793 245.621V245.087C376.793 244.256 376.14 243.603 375.309 243.603H310.552C309.721 243.603 309.008 244.256 309.008 245.087V245.621C309.008 246.452 309.721 247.165 310.552 247.165Z" fill="white"/>
<path opacity="0.3" d="M292.923 253.517H375.072C376.021 253.517 376.793 252.745 376.793 251.795V251.676C376.793 250.726 376.021 249.955 375.072 249.955H292.923C291.973 249.955 291.201 250.726 291.201 251.676V251.795C291.201 252.745 291.973 253.517 292.923 253.517Z" fill="white"/>
<path opacity="0.3" d="M285.266 259.869H375.012C376.021 259.869 376.793 259.038 376.793 258.088C376.793 257.079 376.021 256.307 375.012 256.307H285.266C284.316 256.307 283.485 257.079 283.485 258.088C283.485 259.038 284.316 259.869 285.266 259.869Z" fill="white"/>
<g opacity="0.5">
<path opacity="0.5" d="M234.635 242.415C234.635 254.051 244.073 263.491 255.706 263.491C267.34 263.491 276.778 254.051 276.778 242.415C276.778 230.779 267.34 221.339 255.706 221.339C254.044 221.339 252.422 221.517 250.839 221.873C242.114 223.951 235.466 231.491 234.694 240.753C234.655 241.307 234.635 241.861 234.635 242.415V242.415Z" fill="#9CD7FF"/>
</g>
<path d="M234.694 240.753L255.707 242.415L250.839 221.874C242.114 223.951 235.466 231.491 234.694 240.753V240.753Z" fill="#9CD7FF"/>
<g opacity="0.5">
<path opacity="0.5" d="M187.743 224.664H228.283C229.055 224.664 229.648 224.07 229.648 223.298C229.648 222.527 229.055 221.874 228.283 221.874H187.743C186.971 221.874 186.318 222.527 186.318 223.298C186.318 224.07 186.971 224.664 187.743 224.664Z" fill="#9CD7FF"/>
</g>
<g opacity="0.5">
<path opacity="0.5" d="M193.738 230.185H228.402C229.114 230.185 229.648 229.591 229.648 228.879V228.701C229.648 227.988 229.114 227.395 228.402 227.395H193.738C193.026 227.395 192.432 227.988 192.432 228.701V228.879C192.432 229.591 193.026 230.185 193.738 230.185Z" fill="#9CD7FF"/>
</g>
<g opacity="0.5">
<path opacity="0.5" d="M201.988 235.707H228.521C229.174 235.707 229.648 235.232 229.648 234.579V234.044C229.648 233.451 229.174 232.917 228.521 232.917H201.988C201.395 232.917 200.861 233.451 200.861 234.044V234.579C200.861 235.232 201.395 235.707 201.988 235.707Z" fill="#9CD7FF"/>
</g>
<g opacity="0.5">
<path opacity="0.5" d="M187.743 241.227H228.283C229.055 241.227 229.648 240.633 229.648 239.861C229.648 239.09 229.055 238.437 228.283 238.437H187.743C186.971 238.437 186.318 239.09 186.318 239.861C186.318 240.633 186.971 241.227 187.743 241.227Z" fill="#9CD7FF"/>
</g>
<g opacity="0.5">
<path opacity="0.5" d="M192.373 246.749H228.343C229.055 246.749 229.648 246.155 229.648 245.443V245.324C229.648 244.552 229.055 243.958 228.343 243.958H192.373C191.661 243.958 191.067 244.552 191.067 245.324V245.443C191.067 246.155 191.661 246.749 192.373 246.749Z" fill="#9CD7FF"/>
</g>
<g opacity="0.5">
<path opacity="0.5" d="M187.743 252.27H228.283C229.055 252.27 229.648 251.676 229.648 250.904C229.648 250.133 229.055 249.479 228.283 249.479H187.743C186.971 249.479 186.318 250.133 186.318 250.904C186.318 251.676 186.971 252.27 187.743 252.27Z" fill="#9CD7FF"/>
</g>
<g opacity="0.5">
<path opacity="0.5" d="M195.875 257.791H228.402C229.114 257.791 229.648 257.257 229.648 256.544V256.307C229.648 255.594 229.114 255.06 228.402 255.06H195.875C195.222 255.06 194.628 255.594 194.628 256.307V256.544C194.628 257.257 195.222 257.791 195.875 257.791Z" fill="#9CD7FF"/>
</g>
<g opacity="0.5">
<path opacity="0.5" d="M187.743 263.313H228.283C229.055 263.313 229.648 262.719 229.648 261.947C229.648 261.176 229.055 260.582 228.283 260.582H187.743C186.971 260.582 186.318 261.176 186.318 261.947C186.318 262.719 186.971 263.313 187.743 263.313Z" fill="#9CD7FF"/>
</g>
<g style="mix-blend-mode:overlay">
<path style="mix-blend-mode:overlay" d="M65.8246 106.104V291.75C65.8246 296.203 69.4454 299.765 73.8377 299.765H380.115C384.567 299.765 388.128 296.203 388.128 291.75V106.104C388.128 101.651 384.567 98.0889 380.115 98.0889H73.8377C69.4454 98.0889 65.8246 101.651 65.8246 106.104V106.104Z" fill="url(#paint2_linear_300_312)"/>
</g>
<g style="mix-blend-mode:multiply" opacity="0.3">
<g style="mix-blend-mode:multiply" opacity="0.3">
<path d="M284.019 199.135C282.832 198.779 283.544 200.382 283.9 200.856C283.841 201.213 283.96 201.628 284.197 201.984C284.85 202.994 287.343 203.884 288.115 203.647C289.302 204.478 302.716 213.561 308.118 214.571C308.77 214.749 311.56 215.046 314.884 215.283C314.924 215.719 314.983 216.095 315.062 216.411C315.339 216.372 315.814 216.352 316.487 216.352L312.451 240.277C312.332 240.812 312.688 241.287 313.222 241.405L322.422 242.949C320.998 247.224 319.455 252.982 319.098 258.979C318.683 266.578 318.564 270.912 319.158 276.374C319.158 276.374 319.158 276.394 319.158 276.433C318.861 280.351 318.742 284.032 318.861 287.713C318.98 289.851 319.217 294.363 319.514 299.765H328.892C328.694 295.886 328.121 292.304 327.171 289.019C328.002 286.565 328.971 283.755 330.079 280.589V281.064C330.079 281.262 330.079 281.46 330.079 281.658C330.079 282.053 330.079 282.469 330.079 282.904C330.079 283.063 330.079 283.221 330.079 283.379C330.119 283.894 330.139 284.389 330.139 284.864C330.139 284.982 330.139 285.101 330.139 285.22C330.139 285.616 330.158 285.992 330.198 286.348C330.198 286.506 330.198 286.645 330.198 286.763C330.238 287.199 330.277 287.634 330.317 288.069C330.356 288.307 330.376 288.564 330.376 288.841C330.376 288.841 330.376 288.901 330.435 288.96C330.475 289.475 330.534 290.029 330.614 290.622C330.97 293.056 331.504 296.203 332.216 299.765H342.01C341.97 299.528 341.931 299.31 341.891 299.112C341.298 294.125 339.398 289.376 339.161 287.654C339.042 286.882 339.873 281.895 340.823 276.493C341.258 276.255 341.654 275.998 342.01 275.721C341.951 271.149 343.256 265.331 343.85 261.353C344.147 259.632 345.868 254.823 346.105 253.101C346.402 250.964 346.402 248.945 346.165 246.986L361.063 249.539C361.597 249.598 362.072 249.242 362.132 248.767L366.524 223.001C366.643 222.467 366.287 221.992 365.752 221.873L348.124 218.905C347.589 216.292 346.818 213.621 346.165 211.662C346.521 211.009 346.996 210.296 347.411 209.524C348.302 207.743 348.361 205.547 347.471 203.766C346.758 202.4 345.334 201.628 344.74 200.203C344.147 198.719 344.206 196.998 344.562 195.454C344.918 193.495 345.631 191.654 345.868 189.754C346.046 188.448 345.987 187.083 345.749 185.777C345.571 184.886 345.215 182.452 342.841 181.977C342.96 180.671 341.238 179.306 339.754 178.534C338.211 177.762 336.49 177.643 334.768 177.584C328.061 177.406 325.865 183.58 326.637 184.411C326.577 184.53 326.518 184.589 326.459 184.708C326.162 185.242 325.687 185.658 325.39 186.252C324.975 187.083 324.737 188.33 324.084 191.239C323.61 193.139 324.203 194.385 324.915 194.979C326.637 196.344 328.061 197.651 328.417 198.363C328.952 199.313 328.892 201.45 328.833 202.4C328.239 203.172 327.29 203.587 326.637 204.3C326.637 204.339 326.617 204.379 326.577 204.419C326.459 204.617 326.34 204.814 326.221 205.012C325.628 204.894 324.084 204.834 322.66 205.725C320.958 206.714 318.347 207.506 314.825 208.099C314.825 208.258 314.825 208.475 314.825 208.753C311.56 208.753 308.889 208.693 308.474 208.456C306.752 207.387 293.991 203.706 290.133 200.797C290.073 200.56 290.073 200.382 290.073 200.322C289.776 199.55 289.42 199.194 288.767 198.66C288.213 198.145 287.64 197.651 287.046 197.176C286.927 197.057 286.453 196.404 286.274 196.463C286.037 196.523 285.859 196.938 286.096 197.532C286.334 198.066 286.69 198.126 286.571 198.363C285.087 198.066 283.9 197.354 283.188 196.107C282.594 195.216 282.12 195.335 282.179 195.81C282.535 197.116 282.832 198.304 284.019 199.135V199.135Z" fill="#5FB0E7"/>
</g>
</g>
<g style="mix-blend-mode:multiply" opacity="0.5">
<path d="M305.09 342.926C305.09 344.589 316.902 345.895 331.504 345.895C346.046 345.895 357.858 344.589 357.858 342.926C357.858 341.323 346.046 339.958 331.504 339.958C316.902 339.958 305.09 341.323 305.09 342.926Z" fill="#00A4D6"/>
</g>
<path d="M333.344 288.07C333.997 295.551 339.339 319.001 341.238 333.962C341.476 335.743 346.284 334.972 345.69 329.807C345.096 324.582 345.69 305.109 344.918 299.113C344.325 294.126 342.425 289.376 342.188 287.655C341.951 285.933 346.224 262.957 346.818 261.295C347.411 259.573 346.165 256.961 347.352 253.339C348.895 248.352 348.697 243.504 346.758 238.794L334.175 248.887C333.344 266.935 332.691 280.59 333.344 288.07V288.07Z" fill="#FFE1BD"/>
<path d="M333.522 263.55C333.106 274.415 332.869 282.786 333.344 288.07C333.522 289.969 333.997 292.879 334.59 296.381C334.669 296.223 334.709 296.065 334.709 295.906C334.828 293.532 334.649 291.157 334.828 288.782C335.124 284.211 336.49 279.758 338.864 276.018L333.818 263.61C333.7 263.57 333.601 263.55 333.522 263.55V263.55Z" fill="#FCCB95"/>
<path d="M340.526 329.153C341.199 332.794 341.436 334.832 341.238 335.268C340.882 335.98 339.755 337.939 338.627 338.651C337.38 339.364 334.709 340.254 334.531 340.551C334.294 340.907 334.294 341.382 334.65 341.679C335.6 342.451 337.262 342.866 338.389 342.688C341.951 342.213 342.366 340.611 344.444 340.432C344.8 340.373 345.453 340.967 346.462 340.432C347.471 339.958 348.005 339.067 347.946 338.177C347.827 336.692 346.996 335.446 346.462 334.318C346.066 333.566 345.769 331.508 345.571 328.144" fill="#FFE1BD"/>
<path d="M338.568 343.342C339.695 343.282 340.645 343.104 341.535 342.689C341.892 342.511 342.07 341.976 342.366 341.679C342.426 341.62 343.494 341.026 344.088 340.908C344.523 340.828 344.919 340.789 345.275 340.789L345.394 341.976C345.948 342.055 346.422 342.055 346.818 341.976C347.451 341.858 347.887 341.719 348.124 341.561C348.065 340.789 348.302 340.077 348.421 339.72C348.539 339.186 348.302 338.296 348.183 337.761C348.005 337.227 347.234 335.446 346.877 335.208C346.818 335.565 345.987 337.702 344.147 338.117C342.841 338.414 341.179 339.898 338.924 339.958C338.271 340.017 337.559 339.186 337.974 339.008C338.39 338.77 337.262 339.067 336.55 339.364C335.837 339.661 334.65 340.433 334.294 340.611C334.057 340.789 334.116 341.501 334.353 341.917C334.769 342.689 336.193 343.401 338.568 343.342V343.342Z" fill="#594A5F"/>
<path d="M316.131 341.917C317.021 342.808 318.683 343.461 319.87 343.461C323.61 343.52 324.263 342.036 326.459 342.155C326.815 342.155 327.409 342.808 328.536 342.452C329.605 342.155 330.258 341.324 330.317 340.433C330.376 338.949 329.189 337.524 328.774 336.337C328.418 335.387 328.655 332.3 328.715 331.053C329.249 324.522 332.038 307.424 331.979 301.784C331.94 297.351 331.346 293.096 330.198 289.02C336.609 270.378 340.032 260.483 340.467 259.335C341.12 257.613 344.859 256.96 345.75 252.448C346.779 247.343 345.868 242.079 343.019 236.656L327.409 248.411C323.076 265.747 321.532 276.908 321.889 287.714C322.126 293.947 323.847 319.951 324.025 330.637C324.025 332.181 324.025 335.862 323.729 336.574C323.432 337.287 321.889 339.008 320.583 339.483C319.277 340.018 316.428 340.493 316.131 340.789C315.894 341.086 315.775 341.561 316.131 341.917Z" fill="#FFE1BD"/>
<path d="M319.989 344.114C321.176 344.292 321.947 344.232 323.016 343.935C323.431 343.876 323.788 343.46 324.084 343.223C324.5 342.926 325.331 342.57 326.043 342.57C326.478 342.53 326.874 342.55 327.23 342.629L327.171 343.817C327.725 343.975 328.219 344.054 328.655 344.054C329.327 344.015 329.802 343.935 330.079 343.817C330.079 343.045 330.435 342.333 330.613 342.036C330.792 341.501 330.673 340.611 330.613 340.077C330.495 339.483 329.545 337.643 329.248 337.346C329.13 337.702 328.358 339.72 326.399 339.839C325.034 339.898 323.075 341.086 320.76 340.848C320.107 340.789 319.455 339.898 319.929 339.72C320.345 339.602 319.158 339.661 318.386 339.899C317.614 340.077 316.309 340.67 315.893 340.789C315.656 340.908 315.596 341.62 315.774 342.095C316.131 342.926 317.496 343.876 319.989 344.114V344.114Z" fill="#594A5F"/>
<path d="M292.863 201.629C293.457 201.807 293.101 200.501 293.101 200.323C292.804 199.551 292.448 199.195 291.795 198.66C291.241 198.146 290.667 197.651 290.073 197.176C289.955 197.057 289.48 196.404 289.302 196.464C289.064 196.523 288.886 196.939 289.124 197.532C289.361 198.067 289.717 198.126 289.599 198.363C288.115 198.067 286.928 197.354 286.215 196.107C285.622 195.217 285.147 195.336 285.266 195.811C285.562 197.117 285.859 198.304 287.046 199.135C285.918 198.779 286.571 200.382 286.928 200.857C286.868 201.213 287.046 201.629 287.224 201.985C287.877 202.994 290.43 203.885 291.201 203.647" fill="#FFE1BD"/>
<path d="M330.911 208.397C318.723 208.872 312.253 208.892 311.501 208.456C309.78 207.388 296.662 203.648 292.982 200.679C291.518 201.075 290.885 202.045 291.083 203.588C300.698 210.198 307.386 213.859 311.145 214.571C312.57 214.868 323.016 215.877 328.833 215.936" fill="#FFE1BD"/>
<path d="M345.512 213.206V221.695L351.507 220.745C350.953 217.223 349.845 213.245 348.183 208.812" fill="#F9B253"/>
<path d="M316.249 241.405L364.09 249.539C364.624 249.598 365.099 249.242 365.158 248.767L369.551 223.001C369.67 222.467 369.313 221.992 368.779 221.873L320.938 213.739C320.463 213.68 319.929 214.036 319.87 214.511L315.477 240.277C315.418 240.812 315.715 241.287 316.249 241.405Z" fill="#2C1E56"/>
<path d="M317.911 239.743L363.081 247.639C363.496 247.699 363.912 247.402 364.031 246.927L367.829 224.485C367.889 224.01 367.592 223.595 367.176 223.535L322.006 215.639C321.532 215.58 321.116 215.877 320.997 216.352L317.199 238.793C317.139 239.268 317.436 239.684 317.911 239.743Z" fill="#39297F"/>
<path d="M360.707 245.502L361.42 245.621C361.835 245.74 362.191 245.443 362.251 245.087L365.574 225.732C365.634 225.317 365.337 224.961 364.981 224.901L364.209 224.782C363.853 224.723 363.438 224.961 363.378 225.376L360.114 244.671C360.054 245.087 360.292 245.443 360.707 245.502V245.502Z" fill="#4C4199"/>
<path d="M356.612 244.731L357.384 244.849C357.799 244.909 358.155 244.671 358.215 244.256L361.479 224.961C361.539 224.545 361.301 224.189 360.945 224.13L360.173 224.011C359.758 223.892 359.402 224.189 359.342 224.545L356.078 243.9C355.959 244.315 356.256 244.671 356.612 244.731Z" fill="#4C4199"/>
<path d="M352.575 243.959L353.347 244.078C353.703 244.137 354.119 243.9 354.178 243.484L357.443 224.189C357.502 223.774 357.265 223.417 356.849 223.358L356.077 223.18C355.721 223.121 355.365 223.417 355.306 223.774L351.982 243.128C351.923 243.544 352.219 243.9 352.575 243.959V243.959Z" fill="#4C4199"/>
<path d="M348.54 243.187L349.252 243.306C349.668 243.365 350.024 243.128 350.083 242.712L353.407 223.358C353.466 223.002 353.17 222.645 352.813 222.586L352.042 222.408C351.686 222.349 351.27 222.645 351.211 223.002L347.946 242.356C347.887 242.772 348.124 243.128 348.54 243.187V243.187Z" fill="#4C4199"/>
<path d="M344.444 242.414L345.216 242.533C345.631 242.592 345.987 242.355 346.047 241.939L349.311 222.585C349.371 222.229 349.133 221.873 348.777 221.754L348.005 221.635C347.59 221.576 347.234 221.873 347.174 222.229L343.91 241.583C343.791 241.999 344.088 242.355 344.444 242.414Z" fill="#4C4199"/>
<path d="M340.408 241.643L341.179 241.761C341.535 241.821 341.951 241.583 342.01 241.168L345.275 221.813C345.334 221.457 345.097 221.042 344.681 220.982L343.909 220.864C343.553 220.804 343.197 221.101 343.138 221.457L339.814 240.812C339.755 241.168 340.051 241.583 340.408 241.643Z" fill="#4C4199"/>
<path d="M336.371 240.871L337.083 240.99C337.499 241.049 337.855 240.812 337.914 240.396L341.238 221.042C341.297 220.686 341.001 220.27 340.644 220.211L339.873 220.092C339.517 220.033 339.101 220.27 339.042 220.686L335.777 240.04C335.718 240.396 335.955 240.812 336.371 240.871V240.871Z" fill="#4C4199"/>
<path d="M332.276 240.099L333.048 240.218C333.463 240.277 333.819 239.98 333.879 239.624L337.143 220.27C337.203 219.914 336.965 219.498 336.609 219.439L335.837 219.32C335.422 219.261 335.066 219.498 335.006 219.914L331.742 239.268C331.623 239.624 331.92 240.04 332.276 240.099Z" fill="#4C4199"/>
<path d="M328.239 239.328L329.011 239.446C329.367 239.506 329.782 239.209 329.842 238.853L333.106 219.498C333.166 219.083 332.928 218.727 332.513 218.667L331.741 218.549C331.385 218.489 331.029 218.727 330.969 219.142L327.645 238.497C327.586 238.853 327.883 239.209 328.239 239.328Z" fill="#4C4199"/>
<path d="M324.203 238.496L324.916 238.674C325.331 238.734 325.687 238.437 325.747 238.081L329.071 218.726C329.13 218.311 328.833 217.955 328.477 217.895L327.705 217.777C327.349 217.717 326.934 217.955 326.874 218.37L323.61 237.725C323.55 238.081 323.788 238.437 324.203 238.496V238.496Z" fill="#4C4199"/>
<path d="M320.108 237.725L320.879 237.903C321.295 237.962 321.651 237.665 321.71 237.309L324.975 217.955C325.034 217.539 324.797 217.183 324.441 217.124L323.669 217.005C323.253 216.946 322.897 217.183 322.838 217.599L319.573 236.894C319.455 237.309 319.751 237.666 320.108 237.725V237.725Z" fill="#4C4199"/>
<path d="M328.002 235.944C327.883 236.894 322.778 247.58 322.125 258.979C321.71 266.578 321.591 270.912 322.185 276.374C327.527 279.521 339.279 279.877 345.096 275.721C344.978 271.15 346.283 265.331 346.877 261.354C347.174 259.632 348.895 254.823 349.132 253.101C350.023 246.512 348.361 240.337 344.028 236.597" fill="#594A5F"/>
<path d="M328.121 225.674C328.358 227.752 328.121 230.839 327.824 234.342C327.824 234.935 327.527 236.063 327.586 236.657C327.586 236.974 327.725 237.271 328.002 237.548C328.655 238.141 329.842 238.497 331.148 238.735C335.422 239.507 342.247 238.972 344.147 239.388C345.928 239.744 347.768 239.151 347.768 238.023C347.768 237.251 347.055 236.835 346.996 235.351C346.877 232.086 346.996 224.605 347.59 221.28C348.836 214.275 349.192 210.119 348.302 202.342L335.243 198.602C334.234 198.78 334.65 201.867 333.641 201.986C332.929 202.104 328.774 206.082 327.586 210.713C326.874 211.9 326.399 212.909 326.103 213.741C325.509 215.284 325.568 216.472 326.103 217.896C327.112 220.627 327.824 222.587 328.121 225.674Z" fill="#F9B253"/>
<path d="M328.121 225.673C328.358 227.751 328.121 230.838 327.824 234.341C327.824 234.934 327.527 236.062 327.586 236.656C327.586 236.973 327.725 237.27 328.002 237.547V237.487C327.646 236.656 328.536 232.322 328.952 229.947C329.367 227.513 329.249 222.823 328.417 219.855C327.824 217.876 327.428 216.431 327.23 215.521C326.795 214.848 326.419 214.254 326.102 213.74C325.508 215.283 325.568 216.471 326.102 217.896C327.111 220.627 327.824 222.586 328.121 225.673V225.673Z" fill="#F29127"/>
<path d="M329.545 205.072C328.239 204.756 326.953 204.973 325.687 205.725C323.986 206.715 321.374 207.506 317.852 208.1C317.615 212.098 317.714 214.868 318.149 216.412C319.296 216.214 321.592 216.313 325.034 216.709C328.635 217.104 332.83 218.49 337.618 220.865" fill="#F9B253"/>
<path d="M328.418 186.252C328.002 187.083 327.765 188.33 327.112 191.239C326.637 193.139 327.231 194.386 328.002 194.979C329.664 196.345 331.089 197.651 331.445 198.363C331.88 199.194 332.019 200.698 331.86 202.875L342.604 203.291C342.366 200.758 342.564 198.66 343.197 196.998C344.147 194.445 346.581 190.052 346.64 186.43C346.699 182.809 342.544 179.721 337.677 179.246C332.81 178.772 330.792 182.215 329.486 184.708C329.189 185.243 328.714 185.658 328.418 186.252V186.252Z" fill="#FFE1BD"/>
<path d="M329.605 204.419C328.952 205.25 328.537 206.378 328.655 207.447C328.774 208.753 329.783 209.762 330.258 210.95C331.03 213.028 329.724 213.324 330.614 215.402C332.276 219.024 334.472 219.914 337.025 221.28C338.449 222.052 339.636 222.348 341.239 222.586C342.841 222.823 345.156 222.289 346.343 221.22C349.371 218.549 348.718 215.284 348.658 214.571C348.362 212.434 349.489 211.247 350.439 209.525C351.389 207.744 351.448 205.547 350.498 203.766C349.786 202.401 348.362 201.629 347.768 200.204C347.174 198.72 347.234 196.998 347.59 195.454C347.946 193.495 348.658 191.655 348.896 189.755C349.074 188.449 349.074 187.083 348.777 185.777C348.599 184.887 348.243 182.453 345.869 181.978C345.987 180.672 344.266 179.306 342.782 178.534C341.239 177.762 339.517 177.644 337.796 177.584C331.089 177.406 328.893 183.581 329.664 184.412C330.317 183.343 330.911 182.868 332.573 182.571C332.692 182.868 331.979 184.115 331.801 184.412C330.495 187.083 331.089 187.44 331.208 188.924C331.326 190.467 332.098 188.211 332.395 187.974C332.751 187.618 333.107 187.677 333.641 187.974C334.294 188.389 334.116 189.161 333.879 189.874C333.582 190.646 333.048 191.299 332.454 191.952C330.792 193.851 330.851 195.395 332.039 197.77C332.335 198.304 332.632 198.838 332.692 199.432C332.81 200.382 332.454 201.569 331.92 202.341C331.326 203.172 330.317 203.529 329.664 204.3C329.664 204.34 329.645 204.38 329.605 204.419V204.419Z" fill="#00215B"/>
<g style="mix-blend-mode:multiply" opacity="0.3">
<g style="mix-blend-mode:multiply" opacity="0.3">
<path d="M96.6322 299.765H109.156C110.047 298.4 110.818 297.272 111.353 296.381L111.412 296.322C111.649 295.926 111.827 295.55 111.946 295.194C111.986 295.115 112.025 295.055 112.065 295.016C112.144 294.778 112.203 294.58 112.243 294.422C112.243 294.303 112.263 294.165 112.302 294.007C112.302 294.007 112.302 293.987 112.302 293.947C112.777 291.572 113.905 287.476 115.27 282.667C116.101 284.804 116.873 286.764 117.526 288.426C118.831 294.244 118.772 292.938 118.238 297.509C118.198 297.866 118.179 298.143 118.179 298.341C118.139 298.459 118.119 298.578 118.119 298.697C118.04 299.053 117.961 299.409 117.882 299.765H127.735C127.913 296.025 128.091 292.997 128.21 291.038C128.21 290.563 128.15 286.348 128.21 285.932C128.21 285.161 128.091 284.567 127.913 284.151C127.616 280.411 127.141 273.643 126.726 267.647C126.607 266.222 126.488 264.797 126.429 263.491C126.132 259.691 125.954 256.723 125.895 256.01C125.895 255.496 125.915 255.001 125.954 254.526C127.537 254.447 128.566 254.17 129.041 253.695C128.803 253.22 128.744 249.658 128.507 244.374C128.427 243.147 128.328 241.821 128.21 240.396C128.091 238.615 127.972 236.716 127.735 234.756C127.695 234.163 127.636 233.589 127.557 233.035C129.575 232.916 131.83 232.738 134.027 232.441C137.667 231.887 142.119 231.333 147.382 230.779L147.322 230.007C148.331 230.066 149.103 230.185 149.578 230.304C149.993 230.422 150.409 230.422 150.824 230.363C151.715 230.126 153.258 229.829 153.911 229.473C155.217 228.819 155.276 228.582 155.87 227.87C156.384 227.236 156.661 226.702 156.701 226.267C156.819 225.792 156.463 225.851 155.929 226.326L157.71 221.339L159.016 217.658L160.737 212.968L163.586 205.072C163.705 204.656 163.527 204.241 163.111 204.122L162.814 204.003C162.399 203.884 161.983 204.063 161.865 204.419L158.778 212.968L157.116 217.658L155.751 221.339L153.97 226.267H129.872C129.793 226.267 129.733 226.286 129.694 226.326L127.082 226.267C126.924 226.227 126.785 226.207 126.666 226.207C126.587 225.653 126.488 225.099 126.37 224.545C126.726 224.545 127.141 224.545 127.497 224.545C132.285 224.664 137.212 224.703 142.277 224.664L142.336 224.248C143.108 224.367 143.464 224.426 143.761 224.723C144.117 224.96 144.889 225.376 145.898 225.554C146.907 225.732 146.966 225.376 146.907 225.198C146.848 224.96 146.135 224.901 145.838 224.723C145.601 224.545 145.423 224.307 145.542 224.07C145.898 223.951 146.313 224.011 146.61 224.07C146.966 224.248 147.322 224.486 147.441 224.604C147.797 224.842 148.45 225.673 148.866 225.792C149.103 225.851 149.281 225.851 149.4 225.792C149.697 226.088 149.993 226.267 150.231 226.267C150.27 226.267 150.31 226.247 150.35 226.207C150.587 226.089 149.815 225.139 148.866 224.129C147.797 223.239 146.61 222.111 146.017 222.051C145.126 221.992 143.642 222.111 142.693 222.111L142.752 221.814L140.971 221.339C134.858 219.617 128.981 218.43 125.657 217.836C125.42 217.797 125.183 217.757 124.945 217.717C124.945 217.678 124.925 217.658 124.886 217.658C124.53 216.035 124.094 214.472 123.58 212.968C122.333 208.99 120.731 205.309 118.713 202.282C118.673 202.123 118.594 201.985 118.475 201.866C118.357 201.668 118.198 201.47 118 201.272C117.763 200.956 117.486 200.659 117.17 200.382C117.209 199.155 117.209 198.284 117.17 197.769C116.972 197.69 116.714 197.591 116.398 197.473C116.457 197.057 116.576 196.582 116.754 196.048C118.653 196.76 120.493 197.235 121.799 197.057C122.116 197.017 122.413 196.938 122.69 196.82C123.639 195.81 124.411 194.623 125.123 193.257C125.202 193.099 125.281 192.941 125.361 192.783C125.519 192.783 125.697 192.802 125.895 192.842C126.429 192.842 126.904 192.723 127.082 192.367C127.082 192.248 127.141 192.011 127.141 191.773C127.141 191.476 127.082 191.12 127.082 190.705C126.963 190.111 126.845 189.398 126.726 188.924C126.726 188.844 126.726 188.785 126.726 188.745C126.726 188.152 126.548 187.439 126.726 186.786C126.785 186.549 127.201 186.311 127.319 186.193C128.21 184.827 128.091 183.937 128.032 183.58C128.427 183.58 128.843 183.561 129.278 183.521C129.793 183.481 130.287 183.363 130.762 183.165C132.958 182.334 134.739 180.078 135.095 175.269C134.897 175.348 134.62 175.387 134.264 175.387C133.908 175.427 133.492 175.407 133.018 175.328C131.415 175.15 129.338 174.497 127.319 173.547C125.717 172.775 118.713 166.601 114.083 172.241C111.946 171.825 109.038 173.606 107.969 178.118C107.89 178.395 107.831 178.692 107.791 179.009C106.96 184.174 108.86 191.358 110.64 192.07C110.799 193.495 110.7 194.722 110.344 195.751C110.344 195.751 109.631 196.226 109.216 197.532C107.732 199.372 106.367 201.332 105.239 203.528C105.041 203.885 104.863 204.241 104.705 204.597C103.636 207.031 102.924 209.762 102.805 212.968C102.766 213.324 102.746 213.68 102.746 214.037C102.746 215.264 102.805 216.471 102.924 217.658C103.003 218.885 103.102 220.112 103.221 221.339C103.814 226.326 104.705 230.779 104.527 233.866C104.408 235.35 103.933 237.844 103.34 240.396C103.043 241.762 102.746 243.127 102.39 244.374C101.796 246.828 101.203 249.084 100.609 251.142C101.242 250.865 101.955 250.707 102.746 250.667C102.39 252.983 102.509 255.179 102.746 257.02C102.865 257.851 102.983 258.563 103.102 259.216C103.221 259.81 103.339 260.582 103.458 261.176C103.537 261.571 103.597 261.928 103.636 262.244C103.636 262.6 103.636 263.016 103.636 263.491C103.577 264.619 103.577 266.044 103.577 267.647C103.518 273.346 103.399 281.48 103.34 287.298C103.34 287.417 103.102 291.81 98.8285 296.916C98.591 297.193 98.3536 297.47 98.1161 297.747C98.1161 297.747 98.0964 297.767 98.0568 297.806C98.0568 297.806 98.0766 297.806 98.1161 297.806C97.7006 298.281 97.2852 298.756 96.929 299.29C96.8499 299.449 96.7509 299.607 96.6322 299.765V299.765Z" fill="#5FB0E7"/>
</g>
</g>
<g opacity="0.5">
<path opacity="0.5" d="M112.837 339.008C91.9433 339.008 75.0268 339.958 75.0268 341.086C75.0268 342.154 91.9433 343.104 112.837 343.104C133.73 343.104 150.646 342.154 150.646 341.086C150.646 339.958 133.73 339.008 112.837 339.008Z" fill="#00A4D6"/>
</g>
<path d="M124.766 330.875C125.083 335.03 125.36 337.266 125.597 337.583C125.954 338.117 128.921 337.998 129.159 337.049C129.357 336.257 129.376 334.061 129.218 330.459" fill="#FFE1BD"/>
<path d="M124.766 338.475C124.766 339.147 124.865 340.058 125.063 341.206H128.684L128.862 340.612C129.613 341.008 130.306 341.206 130.939 341.206H133.966C136.222 341.206 137.528 340.909 137.528 340.493C137.765 338.89 135.094 338.95 134.441 338.95C132.423 338.95 130.286 338 129.811 336.991C129.455 336.278 129.574 336.041 129.158 336.219C128.921 336.258 128.723 336.436 128.565 336.753C128.209 337.465 127.437 337.881 126.665 337.762C126.25 337.703 125.775 337.525 125.478 337.169C125.004 337.367 124.766 337.802 124.766 338.475V338.475Z" fill="#3A3A3A"/>
<path d="M88.8561 328.678C87.2732 331.726 86.5214 333.467 86.6006 333.902C86.7786 334.496 89.6871 335.565 90.1619 334.674C90.4389 334.081 90.9137 332.913 91.5864 331.172" fill="#FFE1BD"/>
<path d="M85.5322 334.378C85.2552 335.011 84.9387 335.941 84.5825 337.168L87.3129 338.831L87.8471 338.415C88.2429 339.088 88.7375 339.602 89.3311 339.959C89.9246 340.315 91.2898 340.908 92.0021 341.087C94.5544 341.621 96.4538 341.383 96.6912 341.027C97.5222 339.543 94.1983 338.771 93.5453 338.534C91.6459 337.762 90.815 335.981 90.7556 334.853C90.6963 334.081 90.9337 333.963 90.4588 333.903C89.9048 333.824 89.4695 334.2 89.153 335.031C89.0936 335.031 87.1349 334.675 86.66 333.428C86.1456 333.428 85.7697 333.745 85.5322 334.378V334.378Z" fill="#3A3A3A"/>
<path d="M127.972 267.291C129.238 256.882 129.772 249.599 129.574 245.443C128.862 245.641 126.962 245.641 123.876 245.443C119.958 245.166 115.566 243.939 110.699 241.762C104.467 247.758 105.654 255.417 106.366 259.217C106.524 260.008 106.702 261.018 106.9 262.244L127.972 267.291Z" fill="#594A5F"/>
<path d="M87.2536 329.924C89.153 331.072 90.7161 331.844 91.9428 332.24L92.4176 331.468C92.6946 330.914 93.0111 330.34 93.3672 329.746C93.3672 329.746 93.3672 329.707 93.3672 329.627C94.4357 327.846 95.5634 325.887 96.8099 323.869C96.8099 323.869 96.8099 323.849 96.8099 323.809C103.339 313.123 111.649 301.13 114.617 296.381L114.676 296.321C114.914 295.926 115.092 295.55 115.21 295.193C115.25 295.114 115.289 295.055 115.329 295.015C115.388 294.778 115.448 294.54 115.507 294.422C115.507 294.303 115.527 294.164 115.566 294.006C115.566 294.006 115.566 293.986 115.566 293.947C115.685 293.056 115.448 292.344 114.973 291.869C114.854 291.75 114.735 291.631 114.617 291.513C113.014 290.385 109.809 290.622 107.197 292.462C107.039 292.581 106.9 292.7 106.782 292.819C106.703 292.858 106.623 292.898 106.544 292.937C104.348 294.54 101.974 296.618 100.193 299.29C94.1982 308.373 90.6369 322.147 87.2536 329.924V329.924Z" fill="#594A5F"/>
<path d="M106.544 293.888C106.425 298.875 108.265 300.003 110.284 299.528C110.64 299.449 110.996 299.31 111.352 299.112C112.717 298.459 114.023 297.212 114.735 296.084C114.735 296.084 114.795 296.084 114.795 296.025C114.913 295.787 115.091 295.491 115.21 295.194C115.25 295.115 115.289 295.055 115.329 295.016C115.388 294.778 115.448 294.541 115.507 294.422C115.507 294.303 115.527 294.165 115.566 294.006C115.566 294.006 115.566 293.987 115.566 293.947C116.1 291.454 117.228 287.179 118.653 282.192C119.484 279.402 120.374 276.314 121.205 273.227C123.876 264.025 126.428 254.942 126.369 252.329C126.072 242.771 115.032 250.37 109.749 254.11C107.494 255.713 106.96 258.385 106.9 260.938C106.841 263.253 106.663 286.467 106.544 292.938C106.544 293.096 106.544 293.254 106.544 293.413C106.544 293.571 106.544 293.729 106.544 293.888V293.888Z" fill="#594A5F"/>
<path d="M106.604 287.297C106.445 290.582 104.684 294.085 101.321 297.805C106.188 296.341 108.76 295.47 109.037 295.193C109.453 294.778 111.293 290.088 111.233 289.553C111.194 289.197 109.651 288.445 106.604 287.297V287.297Z" fill="#594A5F"/>
<path d="M93.3666 329.627C94.435 327.846 95.5628 325.887 96.8093 323.869C96.8093 323.869 96.8093 323.849 96.8093 323.809C103.338 313.123 111.648 301.13 114.616 296.381L114.675 296.321C114.913 295.926 115.091 295.55 115.21 295.193C115.249 295.114 115.289 295.055 115.328 295.015C115.388 294.778 115.447 294.54 115.506 294.422C115.506 294.303 115.526 294.164 115.566 294.006C115.566 294.006 115.566 293.986 115.566 293.947C116.1 291.453 117.228 287.179 118.652 282.192L110.342 259.81H107.315C109.571 266.696 111.173 271.703 112.123 274.83C113.488 279.461 113.904 286.763 114.023 289.435C114.26 295.253 107.078 305.167 105.06 308.789C102.864 312.707 94.1382 328.143 93.3666 329.627V329.627Z" fill="#4C4051"/>
<path d="M124.707 334.793C124.826 334.793 124.964 334.793 125.123 334.793C127.141 334.833 128.743 334.714 129.931 334.437V333.606C129.634 320.07 131.177 298.044 131.474 291.038C131.474 290.563 131.415 286.348 131.474 285.933C131.593 279.936 125.538 285.28 123.401 290.029C122.887 291.098 122.471 292.305 122.155 293.651C121.739 295.194 121.739 296.916 121.383 298.697C119.068 309.265 123.758 326.125 124.707 334.793V334.793Z" fill="#594A5F"/>
<path d="M110.402 262.185C110.402 262.303 120.315 286.942 122.273 292.285C122.57 293.057 123.461 293.65 124.648 293.947C127.319 294.6 131.236 293.472 131.414 288.188C131.454 287.595 131.434 286.961 131.355 286.288C130.939 282.014 129.396 258.266 129.159 256.01C128.921 253.695 128.387 250.37 127.2 250.014C121.086 248.055 108.622 253.636 110.402 262.185V262.185Z" fill="#594A5F"/>
<path d="M120.73 288.07C122.095 294.363 122.095 292.819 121.502 297.509C121.145 300.557 121.64 299.231 122.986 293.532L121.739 290.326L120.73 288.07Z" fill="#594A5F"/>
<path d="M148.449 224.308C148.805 223.952 149.458 223.952 149.874 224.07C150.23 224.248 150.586 224.486 150.705 224.605C151.061 224.842 151.714 225.673 152.129 225.792C152.446 225.871 152.664 225.851 152.782 225.733C151.991 224.862 151.575 224.407 151.536 224.367C151.417 224.308 150.527 223.714 150.408 223.655C150.408 223.655 150.388 223.655 150.349 223.655V223.358C150.072 223.239 149.894 223.14 149.814 223.061C149.735 222.982 149.241 223.021 148.331 223.18C148.054 224.288 148.093 224.664 148.449 224.308Z" fill="#F4D4B3"/>
<path d="M141.149 223.536C143.641 223.971 145.145 224.209 145.66 224.248C146.372 224.367 146.728 224.426 147.025 224.723C147.381 224.961 148.153 225.376 149.162 225.554C150.171 225.732 150.23 225.376 150.171 225.198C150.111 224.961 149.399 224.901 149.102 224.723C148.805 224.486 148.627 224.129 148.984 223.892C149.34 223.655 149.993 223.595 150.824 224.189C151.833 224.961 153.139 226.563 153.613 226.207C153.851 226.089 153.079 225.139 152.129 224.129C151.061 223.239 149.874 222.111 149.28 222.052C148.153 221.933 146.075 222.17 145.303 222.052C144.829 221.972 143.78 221.676 142.158 221.161" fill="#FFE1BD"/>
<path d="M126.369 217.421L127.14 223.773L127.2 224.426C127.398 224.426 127.595 224.446 127.793 224.486C128.802 224.486 129.752 224.545 130.761 224.545C135.549 224.664 140.476 224.703 145.541 224.664L146.016 221.814C139.249 219.855 132.542 218.49 128.921 217.836C127.853 217.639 127.002 217.5 126.369 217.421V217.421Z" fill="#F9B253"/>
<path d="M157.709 227.276L158.006 227.395C158.362 227.514 158.837 227.335 158.956 226.92L166.85 205.072C166.969 204.656 166.791 204.241 166.375 204.122L166.079 204.003C165.663 203.885 165.247 204.063 165.129 204.419L157.234 226.326C157.116 226.682 157.294 227.098 157.709 227.276V227.276Z" fill="#1C44B5"/>
<path d="M133.136 228.167H157.947C158.481 228.167 158.837 227.751 158.837 227.276V227.158C158.837 226.683 158.481 226.267 157.947 226.267H133.136C132.661 226.267 132.245 226.683 132.245 227.158V227.276C132.245 227.751 132.661 228.167 133.136 228.167Z" fill="#1C44B5"/>
<path d="M126.369 217.421L127.141 223.773C127.339 224.011 127.556 224.248 127.794 224.486C128.803 224.486 129.753 224.545 130.762 224.545C130.287 221.873 129.278 218.786 128.922 217.836C127.853 217.639 127.003 217.5 126.369 217.421V217.421Z" fill="#F29127"/>
<path d="M103.874 251.142C107.138 249.777 112.005 251.261 121.146 253.517C127.28 255.021 130.999 255.081 132.305 253.695C131.949 252.983 132.008 244.849 130.999 234.757C130.821 232.56 130.524 230.304 130.168 227.989C128.803 218.668 126.37 208.753 121.74 201.866C120.236 199.61 117.328 197.928 113.014 196.82C109.512 201.154 106.01 206.319 106.01 214.037C106.01 221.814 108.088 229.354 107.791 233.866C107.593 236.834 106.287 242.593 103.874 251.142V251.142Z" fill="#F9B253"/>
<path d="M123.164 234.637C125.004 234.875 127.794 234.934 130.999 234.756C130.821 232.56 130.524 230.304 130.168 227.988H129.871C128.209 227.929 126.725 226.801 126.31 225.138C125.657 222.823 124.648 219.202 123.105 214.393C121.245 208.654 119.365 205.665 117.466 205.428C114.656 204.003 113.192 204.814 113.073 207.862C112.895 212.315 117.763 233.984 123.164 234.637V234.637Z" fill="#F29127"/>
<path d="M112.599 259.395C112.678 259.276 112.48 257.99 112.005 255.536L107.91 253.577L106.01 257.02C107.197 260.582 108.82 262.739 110.877 263.491C111.906 260.879 112.48 259.513 112.599 259.395Z" fill="#594A5F"/>
<path d="M148.924 230.007C149.241 230.007 149.656 230.007 150.171 230.007C151.358 230.007 152.308 230.185 152.842 230.303C153.237 230.422 153.653 230.442 154.088 230.363C154.979 230.125 156.522 229.828 157.175 229.472C158.481 228.819 158.54 228.582 159.133 227.869C159.648 227.236 159.925 226.702 159.964 226.266C160.083 225.613 159.49 225.91 158.54 226.92C158.382 227.078 158.223 227.236 158.065 227.394C158.006 227.454 157.412 227.81 156.997 227.869H156.106C155.513 227.869 155.295 227.81 155.453 227.691C156.522 227.533 157.155 227.335 157.353 227.098C157.531 226.741 157.234 226.148 155.81 226.445C154.444 226.682 153.257 227.216 152.307 227.335C151.635 227.414 150.626 227.375 149.28 227.216L148.984 229.472C148.093 229.769 147.144 230.185 148.924 230.007V230.007Z" fill="#FFE1BD"/>
<path d="M113.192 206.141C112.955 208.575 118.237 232.204 123.639 232.857C126.488 233.213 131.83 233.213 137.291 232.441C140.931 231.887 145.383 231.333 150.646 230.779L150.527 226.801L130.346 226.267C128.625 226.207 127.2 225.02 126.725 223.417C126.132 221.102 125.123 217.421 123.58 212.612C121.72 206.873 119.84 203.885 117.941 203.647C115.052 202.816 113.469 203.647 113.192 206.141V206.141Z" fill="#F9B253"/>
<path d="M127.082 178.356C126.725 178.297 118.416 176.753 118.119 176.872C117.822 176.99 113.608 181.918 113.074 187.321C112.48 192.723 116.279 194.564 116.991 194.623C120.196 196.345 123.995 197.71 125.954 196.82C127.853 194.861 129.159 191.951 129.99 188.924C129.99 188.271 129.812 187.499 129.99 186.786C130.049 186.549 130.465 186.311 130.584 186.193C131.375 185.005 131.593 184.055 131.237 183.343C128.664 180.058 127.279 178.396 127.082 178.356V178.356Z" fill="#FFD1AB"/>
<path d="M119.247 185.421C120.711 185.104 121.463 183.976 121.502 182.037C121.621 179.187 121.977 179.068 123.758 180.671C125.479 182.274 137.35 188.567 138.359 175.269C137.054 175.744 133.73 175.031 130.584 173.547C128.981 172.775 121.977 166.601 117.347 172.241C115.092 171.825 111.946 173.844 111.056 179.009C110.225 184.174 112.124 191.358 113.905 192.07C115.092 192.604 115.685 191.417 116.101 188.924C116.279 187.677 112.955 185.183 116.457 182.037C117.881 181.027 120.909 182.809 119.247 185.421V185.421Z" fill="#2C1E56"/>
<path d="M113.904 192.07C114.141 194.563 113.805 196.206 112.895 196.997C114.28 198.699 116.575 199.669 119.78 199.906C119.028 198.759 119.464 196.681 121.086 193.673C122.709 190.625 120.315 190.091 113.904 192.07Z" fill="#FFD1AB"/>
<path d="M120.434 200.382C120.474 199.155 120.474 198.284 120.434 197.769C117.348 196.701 115.072 196.028 113.608 195.751C113.133 196.068 112.757 196.661 112.48 197.532C115.527 199.076 118.179 200.025 120.434 200.382V200.382Z" fill="#F9B253"/>
<path d="M127.971 192.664C129.356 193.021 130.148 192.922 130.346 192.368C130.544 191.814 130.385 190.389 129.871 188.093L127.971 192.664Z" fill="#FFD1AB"/>
<g style="mix-blend-mode:multiply">
<g style="mix-blend-mode:multiply">
<path d="M55.1418 165.711H156.344C158.184 165.711 159.668 164.226 159.668 162.386V117.384C159.668 115.544 158.184 114.06 156.344 114.06H55.1418C53.3018 114.06 51.8178 115.544 51.8178 117.384V162.386C51.8178 164.226 53.3018 165.711 55.1418 165.711Z" fill="#5FB0E7"/>
</g>
</g>
<path d="M54.1919 115.009V160.07C54.1919 161.851 55.6758 163.336 57.5159 163.336H158.718C160.558 163.336 162.042 161.851 162.042 160.07V115.009C162.042 113.169 160.558 111.685 158.718 111.685H57.5159C55.6758 111.685 54.1919 113.169 54.1919 115.009Z" fill="white"/>
<path d="M54.1919 115.009V121.48H162.042V115.009C162.042 113.169 160.558 111.685 158.718 111.685H57.5159C55.6758 111.685 54.1919 113.169 54.1919 115.009V115.009Z" fill="#AEC1FF"/>
<g opacity="0.5">
<path opacity="0.5" d="M58.4664 126.943V157.993H157.947V148.078C153.97 142.557 148.45 138.935 135.926 146.356C123.817 153.481 123.877 130.505 110.106 131.692C96.3356 132.88 92.6555 153.481 81.9714 137.748C74.8091 127.259 66.9741 123.658 58.4664 126.943V126.943Z" fill="#AEC1FF"/>
</g>
<path opacity="0.5" d="M138.359 128.07H157.946V126.764H138.359V128.07Z" fill="#AEC1FF"/>
<path opacity="0.5" d="M124.826 130.445H157.946V129.139H124.826V130.445Z" fill="#AEC1FF"/>
<path opacity="0.5" d="M133.076 132.82H157.946V131.514H133.076V132.82Z" fill="#AEC1FF"/>
<path opacity="0.5" d="M127.971 135.195H157.946V133.889H127.971V135.195Z" fill="#AEC1FF"/>
<path opacity="0.5" d="M138.359 137.569H157.946V136.263H138.359V137.569Z" fill="#AEC1FF"/>
<g style="mix-blend-mode:multiply">
<g style="mix-blend-mode:multiply">
<path d="M303.963 98.0889C308.474 110.26 320.227 118.987 334.057 118.987C347.827 118.987 359.58 110.26 364.091 98.0889H303.963Z" fill="#5FB0E7"/>
</g>
</g>
<path d="M337.261 84.5525L367.652 94.9421C368.779 91.6768 369.373 88.174 369.373 84.5525C369.373 77.7251 367.236 71.432 363.615 66.2075L337.261 84.5525Z" fill="#18BDF7"/>
<path d="M300.639 81.5844C300.639 89.9554 303.844 97.5547 309.127 103.313L332.691 81.5844V49.4658C315.003 49.4658 300.639 63.8331 300.639 81.5844Z" fill="#18BDF7"/>
<path d="M337.262 84.5537L363.616 66.2087C357.858 57.897 348.183 52.4351 337.262 52.4351V84.5537Z" fill="#F9B253"/>
<path d="M337.261 84.5527L313.697 106.282C319.573 112.634 327.942 116.612 337.261 116.612C339.319 116.612 341.317 116.414 343.256 116.018L337.261 84.5527Z" fill="#B8ECFF"/>
<path d="M337.261 84.5527L343.256 116.018C354.652 113.881 363.912 105.688 367.651 94.9423L337.261 84.5527Z" fill="#15A7CE"/>
<g style="mix-blend-mode:multiply">
<g style="mix-blend-mode:multiply">
<path d="M350.854 170.163V183.64C350.854 184.827 351.804 185.777 352.991 185.777H356.552C356.236 188.35 355.365 189.775 353.941 190.052C359.105 190.052 360.114 187.202 360.292 185.777H395.727C396.915 185.777 397.864 184.827 397.864 183.64V170.163C397.864 168.976 396.915 168.026 395.727 168.026H352.991C351.804 168.026 350.854 168.976 350.854 170.163V170.163Z" fill="#5FB0E7"/>
</g>
</g>
<path d="M351.685 169.095V182.572C351.685 183.759 352.635 184.709 353.762 184.709H357.324C357.047 187.282 356.196 188.706 354.772 188.983C359.936 188.983 360.885 186.134 361.063 184.709H396.558C397.686 184.709 398.636 183.759 398.636 182.572V169.095C398.636 167.907 397.686 166.958 396.558 166.958H353.762C352.635 166.958 351.685 167.907 351.685 169.095Z" fill="#EBFAFF"/>
<path d="M354.059 170.46H396.618C396.974 170.46 397.271 170.163 397.271 169.806V169.272C397.271 168.916 396.974 168.619 396.618 168.619H354.059C353.703 168.619 353.406 168.916 353.406 169.272V169.806C353.406 170.163 353.703 170.46 354.059 170.46Z" fill="#B2EBF9"/>
<path d="M354.059 173.547H396.618C396.974 173.547 397.271 173.251 397.271 172.894V172.36C397.271 172.004 396.974 171.707 396.618 171.707H354.059C353.703 171.707 353.406 172.004 353.406 172.36V172.894C353.406 173.251 353.703 173.547 354.059 173.547Z" fill="#B2EBF9"/>
<path d="M354.059 176.634H396.618C396.974 176.634 397.271 176.337 397.271 175.981V175.446C397.271 175.09 396.974 174.793 396.618 174.793H354.059C353.703 174.793 353.406 175.09 353.406 175.446V175.981C353.406 176.337 353.703 176.634 354.059 176.634Z" fill="#B2EBF9"/>
<path d="M354.059 179.721H396.618C396.974 179.721 397.271 179.424 397.271 179.068V178.534C397.271 178.178 396.974 177.881 396.618 177.881H354.059C353.703 177.881 353.406 178.178 353.406 178.534V179.068C353.406 179.424 353.703 179.721 354.059 179.721Z" fill="#B2EBF9"/>
<path d="M354.059 182.809H396.618C396.974 182.809 397.271 182.512 397.271 182.156V181.621C397.271 181.265 396.974 180.968 396.618 180.968H354.059C353.703 180.968 353.406 181.265 353.406 181.621V182.156C353.406 182.512 353.703 182.809 354.059 182.809Z" fill="#B2EBF9"/>
<g style="mix-blend-mode:multiply">
<g style="mix-blend-mode:multiply">
<path d="M104.408 174.735H61.6712C60.4841 174.735 59.5343 175.685 59.5343 176.872V190.349C59.5343 191.536 60.4841 192.486 61.6712 192.486H97.1068C97.2849 193.911 98.2939 196.761 103.399 196.761C102.014 196.484 101.163 195.059 100.846 192.486H104.408C105.595 192.486 106.544 191.536 106.544 190.349V176.872C106.544 175.685 105.595 174.735 104.408 174.735Z" fill="#5FB0E7"/>
</g>
</g>
<path d="M103.576 173.666H60.8397C59.712 173.666 58.7029 174.615 58.7029 175.803V189.28C58.7029 190.467 59.712 191.417 60.8397 191.417H96.2753C96.4533 192.842 97.4624 195.691 102.626 195.691C101.202 195.414 100.351 193.989 100.074 191.417H103.576C104.763 191.417 105.713 190.467 105.713 189.28V175.803C105.713 174.615 104.763 173.666 103.576 173.666V173.666Z" fill="#EBFAFF"/>
<path d="M73.6606 188.507V176.575C73.6606 175.981 73.1858 175.565 72.6516 175.565H61.1366C60.6023 175.565 60.1275 175.981 60.1275 176.575V188.507C60.1275 189.042 60.6023 189.517 61.1366 189.517H72.6516C73.1858 189.517 73.6606 189.042 73.6606 188.507Z" fill="#80D4DD"/>
<path d="M103.873 176.812V176.04C103.873 175.803 103.636 175.565 103.398 175.565H75.9756C75.7382 175.565 75.5008 175.803 75.5008 176.04V176.812C75.5008 177.05 75.7382 177.287 75.9756 177.287H103.398C103.636 177.287 103.873 177.05 103.873 176.812Z" fill="#80D4DD"/>
<path d="M97.7002 179.899V179.068C97.7002 178.831 97.4627 178.593 97.2253 178.593H75.9165C75.6791 178.593 75.501 178.831 75.501 179.068V179.899C75.501 180.137 75.6791 180.374 75.9165 180.374H97.2253C97.4627 180.374 97.7002 180.137 97.7002 179.899Z" fill="#80D4DD"/>
<path d="M103.873 182.868V182.155C103.873 181.859 103.636 181.621 103.398 181.621H75.9756C75.7382 181.621 75.5008 181.859 75.5008 182.155V182.868C75.5008 183.165 75.7382 183.402 75.9756 183.402H103.398C103.636 183.402 103.873 183.165 103.873 182.868Z" fill="#80D4DD"/>
<path d="M101.558 185.955V185.183C101.558 184.945 101.38 184.708 101.083 184.708H75.9751C75.6783 184.708 75.5002 184.945 75.5002 185.183V185.955C75.5002 186.252 75.6783 186.43 75.9751 186.43H101.083C101.38 186.43 101.558 186.252 101.558 185.955Z" fill="#80D4DD"/>
<path d="M86.3633 189.161V188.093C86.3633 187.914 86.1852 187.736 86.0072 187.736H75.7978C75.6198 187.736 75.5011 187.914 75.5011 188.093V189.161C75.5011 189.339 75.6198 189.517 75.7978 189.517H86.0072C86.1852 189.517 86.3633 189.339 86.3633 189.161Z" fill="#80D4DD"/>
<path d="M183.945 98.0886H227.097C227.057 97.6928 226.919 97.1783 226.681 96.545C225.553 93.9923 221.577 88.768 207.153 86.3933L200.03 84.9685C189.069 84.929 183.707 89.3023 183.945 98.0886Z" fill="#F9B253"/>
<path d="M198.25 98.0894H227.097C227.057 97.6936 226.919 97.1791 226.681 96.5459C225.613 96.249 224.248 96.249 223.239 96.5459C222.526 96.7438 221.933 96.9021 221.458 97.0208C211.407 97.0208 205.155 97.0208 202.701 97.0208C200.287 97.0208 198.804 97.377 198.25 98.0894Z" fill="#F29127"/>
<path d="M201.573 77.6665C201.059 81.6243 200.366 84.2562 199.496 85.5623C199.219 88.1744 201.177 89.5992 205.372 89.8367C206.5 89.9554 207.568 89.1242 207.805 87.9963C208.043 87.1652 208.34 86.2153 208.814 85.5623" fill="#FFE1BD"/>
<path d="M220.33 66.5049C217.955 72.2437 217.955 75.1526 220.33 75.2318C222.664 75.3109 223.753 72.7186 223.594 67.4548L220.33 66.5049Z" fill="#2C1E56"/>
<path d="M202.405 76.1817C202.346 77.3691 202.286 78.4377 202.345 79.1502C202.385 79.2689 202.405 79.3876 202.405 79.5064C202.444 79.5855 202.464 79.6845 202.464 79.8032C203.355 83.1872 207.628 87.9961 210.655 88.4117C211.051 88.4117 211.447 88.4117 211.842 88.4117C215.997 88.2336 218.49 84.7902 219.856 81.1093C219.935 80.9906 219.994 80.8719 220.034 80.7531C221.28 77.3097 221.696 73.8663 221.814 72.6196C221.814 72.3227 221.992 69.2355 221.399 68.2856C220.746 67.2764 212.436 66.3265 212.258 66.2671C212.139 66.2671 209.429 66.465 204.126 66.8608C203.256 70.4229 202.682 73.5299 202.405 76.1817V76.1817Z" fill="#FFE1BD"/>
<path d="M201.158 76.0634C201.039 77.2507 201.158 78.2006 201.217 78.9723C201.257 79.0911 201.277 79.2098 201.277 79.3286C201.87 82.7124 205.966 87.9367 210.655 88.4116C211.011 88.4512 211.347 88.471 211.664 88.471C216.709 88.7085 218.49 84.8496 219.855 81.1095C219.934 80.9908 219.994 80.8721 220.033 80.7533C218.846 82.6135 217.976 83.5634 217.422 83.603C216.531 83.7217 217.6 82.5937 215.225 81.7032C213.741 81.1095 211.427 81.1689 210.358 81.2876C209.349 81.4064 207.568 81.9407 206.975 82C206.817 82.0396 206.698 82.0396 206.619 82C205.788 81.5251 203.71 78.3193 203.413 76.5383C203.295 75.8259 201.811 75.9447 201.158 76.0634V76.0634Z" fill="#2C1E56"/>
<path d="M224.722 59.3217C224.722 59.1436 221.636 61.3402 215.7 59.6185C211.783 58.4707 208.993 58.5895 207.331 59.9747C205.748 59.8956 204.304 60.7663 202.998 62.587C201.039 65.3179 201.099 76.8355 201.158 77.6667C201.198 78.5374 202.187 78.8541 204.126 78.6166C202.464 74.6982 202.444 72.5808 204.066 72.2641C207.153 71.6704 204.719 77.0136 205.61 77.3699C206.322 77.6073 206.441 74.5201 208.459 68.1083C209.824 67.3365 212.258 67.9895 214.988 68.6426C221.636 70.2654 225.039 69.0582 225.197 65.0211C225.613 61.1621 224.663 59.4998 224.722 59.3217V59.3217Z" fill="#2C1E56"/>
<g style="mix-blend-mode:multiply">
<g style="mix-blend-mode:multiply">
<path d="M183.944 98.0889C184.261 105.015 185.844 110.675 188.693 115.068V115.128C188.732 115.167 188.772 115.207 188.812 115.246C188.851 115.326 188.891 115.385 188.93 115.425C190.236 117.384 197.3 127.892 201.929 132.048C205.293 135.135 208.894 138.42 212.732 141.903L212.97 141.725C213.682 142.437 214.453 143.209 214.632 143.506C215.047 144.219 215.403 146.831 216.175 147.128C216.234 147.187 216.412 147.187 216.531 147.187C216.768 147.424 217.184 147.662 217.599 147.662C218.43 147.84 219.617 147.543 219.914 147.424C220.211 147.662 220.448 148.018 220.983 148.256C221.992 148.79 223.001 149.502 223.832 149.799C224.663 150.037 224.781 149.799 224.603 149.265C224.425 148.731 222.823 147.84 222.288 147.365C221.695 146.95 220.745 145.703 220.389 144.872C220.033 144.1 220.033 143.684 220.389 143.684C220.745 143.684 221.814 144.337 222.645 144.515C223.476 144.693 223.891 144.515 223.476 144.04C223.119 143.506 221.932 142.141 220.567 141.784C219.202 141.428 218.786 141.428 217.837 140.656C217.362 140.3 216.768 139.528 216.294 138.816L216.65 138.519C210.595 130.089 205.313 122.608 200.802 116.078C200.623 115.9 200.505 115.721 200.327 115.484C196.469 107.766 196.112 101.592 196.172 99.2169C196.449 98.6232 196.825 98.2472 197.3 98.0889H183.944Z" fill="#5FB0E7"/>
</g>
</g>
<path d="M212.258 140.182C214.197 141.923 215.305 143.031 215.582 143.506C215.938 144.219 216.353 146.831 217.125 147.128C217.184 147.187 217.303 147.187 217.422 147.187C217.719 147.425 218.134 147.603 218.55 147.662C219.38 147.84 220.568 147.543 220.864 147.425C221.161 147.662 221.399 148.018 221.933 148.256C222.942 148.79 223.951 149.502 224.782 149.799C225.613 150.037 225.732 149.799 225.554 149.265C225.375 148.731 223.773 147.84 223.239 147.425C222.645 146.95 221.695 145.703 221.339 144.931C220.983 144.1 220.983 143.684 221.339 143.684C221.695 143.684 222.764 144.337 223.595 144.516C224.426 144.694 224.841 144.516 224.426 143.981C224.01 143.506 222.883 142.141 221.517 141.785C220.152 141.429 219.737 141.429 218.787 140.657C218.154 140.182 217.343 139.093 216.353 137.392L212.258 140.182Z" fill="#FFE1BD"/>
<path d="M189.761 115.246C189.801 115.325 189.84 115.385 189.88 115.424C191.186 117.324 198.249 127.892 202.819 132.048C206.183 135.135 209.804 138.42 213.682 141.903L217.599 138.519C211.545 130.088 206.262 122.608 201.751 116.077C201.573 115.899 201.454 115.662 201.276 115.484C197.418 107.706 197.062 101.591 197.062 99.1572C197.378 98.6031 197.774 98.2469 198.249 98.0885L196.943 93.814C194.925 94.566 193.342 95.1992 192.195 95.7138L189.405 94.3483L183.944 98.0885C184.894 105.015 186.793 110.675 189.642 115.068C189.682 115.147 189.721 115.207 189.761 115.246V115.246Z" fill="#F9B253"/>
<g style="mix-blend-mode:multiply">
<g style="mix-blend-mode:multiply">
<path d="M219.855 100.642C219.895 100.642 219.954 100.642 220.034 100.642C219.855 100.82 219.737 100.938 219.677 100.998C219.598 101.117 219.578 101.216 219.618 101.295C219.855 101.473 220.034 101.473 220.271 101.473C220.429 101.433 220.607 101.354 220.805 101.235C220.983 101.413 221.161 101.354 221.399 101.354C221.636 101.354 221.992 101.057 222.348 100.642C222.309 100.721 222.309 100.8 222.348 100.879C222.586 101.057 222.764 101.057 223.061 101.057C223.298 100.998 223.654 100.76 224.07 100.285C224.248 100.167 224.426 99.9292 224.663 99.6324C224.861 99.5137 225.039 99.3949 225.197 99.2762C225.494 99.0387 225.85 99.0387 225.969 99.0387C226.009 99.0387 226.028 99.0387 226.028 99.0387V98.9794C228.047 98.9794 228.996 98.0889 231.489 98.0889H220.152C220.152 98.0889 220.172 98.1087 220.212 98.1482C220.33 98.1482 220.627 98.2076 220.924 98.267C220.884 98.267 220.865 98.2868 220.865 98.3263C220.706 98.4846 220.548 98.6429 220.39 98.8013C219.974 99.3356 219.381 100.048 219.262 100.167C219.143 100.285 219.123 100.384 219.203 100.464C219.381 100.701 219.618 100.642 219.855 100.642V100.642Z" fill="#5FB0E7"/>
</g>
</g>
<path d="M220.33 100.641C220.369 100.641 220.429 100.641 220.508 100.641C220.33 100.819 220.211 100.938 220.151 100.997C220.072 101.116 220.053 101.215 220.092 101.294C220.33 101.472 220.508 101.472 220.745 101.472C220.903 101.433 221.081 101.354 221.279 101.235C221.457 101.413 221.635 101.354 221.873 101.354C222.11 101.354 222.466 101.057 222.823 100.641C222.823 100.72 222.823 100.8 222.823 100.879C223.06 101.057 223.238 101.057 223.535 101.057C223.772 100.997 224.128 100.76 224.544 100.285C224.722 100.166 224.9 99.9288 225.137 99.632C225.335 99.5133 225.513 99.3945 225.672 99.2758C225.968 99.0383 226.325 99.0383 226.443 99.0383C226.483 99.0383 226.503 99.0383 226.503 99.0383V98.979C228.58 98.979 229.47 98.0885 231.963 98.0885C228.085 96.1887 224.959 95.9117 222.585 97.2573C222.229 97.3167 221.517 97.4354 221.101 97.4354C220.092 97.4354 220.389 97.9697 220.686 98.1478C220.804 98.1478 221.101 98.2072 221.398 98.2666C221.358 98.2666 221.339 98.2864 221.339 98.3259C221.18 98.4842 221.042 98.6425 220.923 98.8009C220.448 99.3352 219.855 100.048 219.736 100.166C219.617 100.285 219.598 100.384 219.677 100.463C219.855 100.701 220.092 100.641 220.33 100.641V100.641Z" fill="#FFE1BD"/>
<path style="mix-blend-mode:multiply" opacity="0.5" d="M220.685 98.1483C220.804 98.1483 221.101 98.2077 221.398 98.267C221.952 97.7129 222.347 97.3765 222.585 97.2578C222.229 97.3172 221.516 97.4359 221.101 97.4359C220.092 97.4359 220.388 97.9702 220.685 98.1483Z" fill="url(#paint3_linear_300_312)"/>
<path d="M31.9925 340.907C31.9925 342.154 40.7179 343.104 51.4613 343.104C62.2048 343.104 70.9302 342.154 70.9302 340.907C70.9302 340.076 66.7752 339.364 60.6615 339.008L60.3647 340.195C60.1867 340.67 59.7712 341.026 59.237 341.026H44.9321C44.3979 341.026 43.9824 340.67 43.8044 340.195L43.5076 338.948C36.6816 339.245 31.9925 340.017 31.9925 340.907V340.907Z" fill="#00A4D6"/>
<path d="M59.2371 315.023C59.6724 310.393 62.9568 306.929 69.0903 304.634C75.1842 302.338 80.4075 302.556 84.7603 305.287C84.1667 299.667 81.4364 296.995 76.5691 297.272C71.7415 297.509 68.8529 299.192 67.9032 302.318C65.2915 299.587 62.8381 299.231 60.543 301.25C58.6436 302.912 57.8324 305.425 58.1094 308.79C56.3287 308.987 55.557 310.531 55.7945 313.42C55.834 313.974 55.9132 314.469 56.0319 314.905" fill="#61C5F2"/>
<path opacity="0.6" d="M59.2371 315.023C59.6724 310.393 62.9568 306.929 69.0903 304.634C75.1842 302.338 80.4075 302.556 84.7603 305.287C84.1667 299.667 81.4364 296.995 76.5691 297.272C71.7415 297.509 68.8529 299.192 67.9032 302.318C65.2915 299.587 62.8381 299.231 60.543 301.25C58.6436 302.912 57.8324 305.425 58.1094 308.79C56.3287 308.987 55.557 310.531 55.7945 313.42C55.834 313.974 55.9132 314.469 56.0319 314.905" fill="url(#paint4_linear_300_312)"/>
<path d="M54.1325 314.964C54.2513 293.176 65.1728 283.498 65.2915 283.439L64.9947 283.023C64.876 283.142 53.7764 292.938 53.6577 314.964H54.1325Z" fill="#39A7D8"/>
<path d="M64.6983 283.617C66.202 283.776 67.4089 283.499 68.319 282.786C69.0313 282.252 69.15 281.243 68.6158 280.53C68.0222 279.818 67.0131 279.699 66.3602 280.293C65.4105 281.005 64.8565 282.113 64.6983 283.617V283.617Z" fill="#39A7D8"/>
<path d="M63.8081 284.508C63.9268 286.052 64.4214 287.199 65.292 287.951C65.9449 288.545 66.9539 288.426 67.5474 287.773C68.141 287.12 68.0817 286.111 67.3694 285.517C66.4989 284.726 65.3117 284.389 63.8081 284.508Z" fill="#39A7D8"/>
<path d="M63.8677 284.567C63.6303 283.063 63.0565 281.955 62.1463 281.242C61.4341 280.708 60.425 280.886 59.8908 281.599C59.3566 282.311 59.4753 283.32 60.1876 283.854C61.1373 284.567 62.364 284.804 63.8677 284.567Z" fill="#39A7D8"/>
<path d="M60.4844 288.96C60.801 290.464 61.4341 291.533 62.3838 292.166C63.1554 292.641 64.1051 292.463 64.6393 291.75C65.1141 290.979 64.936 290.029 64.2238 289.494C63.2345 288.822 61.9881 288.643 60.4844 288.96Z" fill="#39A7D8"/>
<path d="M60.6025 288.959C60.1673 287.495 59.455 286.466 58.4657 285.872C57.6941 285.457 56.685 285.694 56.2695 286.466C55.7946 287.238 56.0914 288.247 56.863 288.662C57.8919 289.256 59.1384 289.355 60.6025 288.959Z" fill="#39A7D8"/>
<path d="M51.2837 314.964C53.7767 285.755 40.3028 271.388 40.1247 271.209L39.6498 271.684C39.7685 271.863 53.1237 285.992 50.5714 314.905L51.2837 314.964Z" fill="#258BAF"/>
<path d="M38.6405 267.409C37.8095 266.578 36.4443 266.638 35.6133 267.469C34.8417 268.359 34.8417 269.725 35.732 270.496C36.84 271.565 38.4228 272.08 40.4805 272.04C40.4013 270.061 39.788 268.518 38.6405 267.409V267.409Z" fill="#258BAF"/>
<path d="M36.6227 274.237C35.673 274.89 35.4357 276.255 36.1479 277.205C36.8009 278.155 38.166 278.392 39.1157 277.739C40.3424 276.829 41.1536 275.365 41.5493 273.346C39.5708 273.03 37.9286 273.326 36.6227 274.237Z" fill="#258BAF"/>
<path d="M46.3571 272.871C47.3661 272.277 47.7222 270.971 47.0693 269.962C46.4758 268.953 45.17 268.597 44.1609 269.25C42.8551 270.041 41.9449 271.426 41.4305 273.405C43.3694 273.88 45.0117 273.702 46.3571 272.871Z" fill="#258BAF"/>
<path d="M40.3617 279.936C39.3527 280.471 38.9372 281.777 39.5307 282.845C40.1243 283.854 41.4301 284.27 42.4392 283.676C43.7846 282.924 44.7541 281.579 45.3477 279.639C43.4087 279.046 41.7467 279.145 40.3617 279.936Z" fill="#258BAF"/>
<path d="M50.2153 279.699C51.2837 279.224 51.7586 277.977 51.2837 276.909C50.7495 275.781 49.503 275.365 48.4346 275.84C47.0496 276.473 45.9812 277.74 45.2294 279.639C47.1288 280.352 48.7907 280.372 50.2153 279.699Z" fill="#258BAF"/>
<path d="M43.1518 286.467C42.0834 286.942 41.5491 288.248 42.024 289.317C42.4988 290.385 43.8047 290.86 44.8731 290.385C46.2581 289.791 47.3463 288.545 48.1377 286.645C46.2779 285.893 44.6159 285.834 43.1518 286.467V286.467Z" fill="#258BAF"/>
<path d="M52.9456 287.179C54.0734 286.764 54.667 285.577 54.2515 284.449C53.836 283.321 52.6488 282.727 51.521 283.143C50.0965 283.657 48.9292 284.825 48.0191 286.645C49.7998 287.516 51.4419 287.694 52.9456 287.179V287.179Z" fill="#258BAF"/>
<path d="M45.1704 292.463C43.9833 292.76 43.3304 293.947 43.6272 295.075C43.8646 296.203 45.0517 296.916 46.1794 296.619C47.6831 296.263 48.9692 295.214 50.0376 293.472C48.3361 292.443 46.7137 292.107 45.1704 292.463Z" fill="#258BAF"/>
<path d="M54.7269 294.778C55.9141 294.6 56.6857 293.472 56.4483 292.344C56.2702 291.156 55.1425 290.385 53.9553 290.563C52.4516 290.84 51.1062 291.809 49.9191 293.472C51.5415 294.619 53.1441 295.055 54.7269 294.778Z" fill="#258BAF"/>
<path d="M46.2383 299.053C45.0512 299.231 44.2202 300.359 44.3983 301.487C44.5763 302.674 45.7041 303.505 46.8319 303.327C48.3752 303.09 49.7601 302.16 50.9868 300.537C49.3644 299.31 47.7816 298.815 46.2383 299.053Z" fill="#258BAF"/>
<path d="M55.4984 302.319C56.6856 302.2 57.5759 301.191 57.4571 300.003C57.3978 298.816 56.3888 297.926 55.2017 298.044C53.6584 298.163 52.214 298.994 50.8686 300.538C52.3723 301.844 53.9156 302.437 55.4984 302.319V302.319Z" fill="#258BAF"/>
<path d="M46.5352 307.602C45.3481 307.78 44.5765 308.849 44.7545 310.036C44.9326 311.223 46.001 311.995 47.1881 311.817C48.6918 311.579 50.057 310.649 51.2837 309.027C49.6613 307.839 48.0785 307.364 46.5352 307.602Z" fill="#258BAF"/>
<path d="M55.8543 310.808C56.9821 310.749 57.8725 309.68 57.8131 308.493C57.6944 307.306 56.6853 306.474 55.4982 306.534C53.955 306.652 52.5106 307.484 51.1652 309.027C52.7084 310.333 54.2715 310.927 55.8543 310.808V310.808Z" fill="#258BAF"/>
<path d="M48.5531 315.023C51.2044 306.434 49.7601 301.487 44.2202 300.181C43.9432 288.663 39.7091 284.349 31.5179 287.238C30.3308 282.766 27.363 280.629 22.6145 280.827C17.866 281.024 15.5907 283.419 15.7886 288.01C11.4358 288.683 9.2594 290.84 9.2594 294.481C30.588 288.465 42.1625 295.313 43.9827 315.023" fill="#61C5F2"/>
<path opacity="0.6" d="M48.5531 315.023C51.2044 306.434 49.7601 301.487 44.2202 300.181C43.9432 288.663 39.7091 284.349 31.5179 287.238C30.3308 282.766 27.363 280.629 22.6145 280.827C17.866 281.024 15.5907 283.419 15.7886 288.01C11.4358 288.683 9.2594 290.84 9.2594 294.481C30.588 288.465 42.1625 295.313 43.9827 315.023" fill="url(#paint5_linear_300_312)"/>
<path d="M64.1041 314.964H40.0649C38.581 314.964 37.5126 316.329 37.9281 317.754L43.8043 340.196C43.9823 340.671 44.3978 341.027 44.932 341.027H59.2369C59.7711 341.027 60.1866 340.671 60.3646 340.196L66.3002 317.754C66.6564 316.329 65.588 314.964 64.1041 314.964V314.964Z" stroke="#00BFD8" stroke-width="0.559969"/>
<path d="M43.6867 317.694L47.6636 338.711" stroke="#00BFD8" stroke-width="0.559969" stroke-linecap="round"/>
</g>
<defs>
<linearGradient id="paint0_linear_300_312" x1="-46330.4" y1="39196.9" x2="-43290.8" y2="35719.8" gradientUnits="userSpaceOnUse">
<stop stop-color="#288ACC"/>
<stop offset="1" stop-color="#288ACC" stop-opacity="0"/>
</linearGradient>
<linearGradient id="paint1_linear_300_312" x1="-53267.5" y1="34996.4" x2="-56711.7" y2="31140.3" gradientUnits="userSpaceOnUse">
<stop stop-color="#288ACC"/>
<stop offset="1" stop-color="#288ACC" stop-opacity="0"/>
</linearGradient>
<linearGradient id="paint2_linear_300_312" x1="-195154" y1="63848" x2="-370165" y2="63848" gradientUnits="userSpaceOnUse">
<stop stop-color="#288ACC"/>
<stop offset="1" stop-color="#288ACC" stop-opacity="0"/>
</linearGradient>
<linearGradient id="paint3_linear_300_312" x1="-1710.47" y1="414.862" x2="-1717.45" y2="414.862" gradientUnits="userSpaceOnUse">
<stop stop-color="#FF912A"/>
<stop offset="1" stop-color="#FF912A" stop-opacity="0"/>
</linearGradient>
<linearGradient id="paint4_linear_300_312" x1="-32340" y1="11876.7" x2="-33741.1" y2="11876.7" gradientUnits="userSpaceOnUse">
<stop stop-color="#288ACC"/>
<stop offset="1" stop-color="#288ACC" stop-opacity="0"/>
</linearGradient>
<linearGradient id="paint5_linear_300_312" x1="-47892.5" y1="21623.9" x2="-50473.4" y2="21623.9" gradientUnits="userSpaceOnUse">
<stop stop-color="#288ACC"/>
<stop offset="1" stop-color="#288ACC" stop-opacity="0"/>
</linearGradient>
<clipPath id="clip0_300_312">
<rect width="1525" height="401" fill="white"/>
</clipPath>
</defs>
</svg>
