<svg width="531" height="400" viewBox="0 0 531 400" fill="none" xmlns="http://www.w3.org/2000/svg">
<path opacity="0.1" d="M-3.0816e-05 400.999H477.401C485.711 357.857 470.872 324.413 432.884 300.665C383.797 270.031 356.493 290.751 279.805 286.417C203.057 282.083 253.332 128.317 161.805 41.2229C106.801 -11.1009 52.8665 -13.6142 -3.0816e-05 33.6831V400.999Z" fill="#00A4D6"/>
<path opacity="0.1" d="M-2.37034e-05 400.999H531C529.259 363.28 509.968 339.394 473.128 329.34C417.808 314.32 255.172 342.817 198.19 329.34C141.208 315.923 162.22 250.142 84.9979 230.432C50.7297 221.685 22.397 229.977 -2.37034e-05 255.307V400.999Z" fill="#00A4D6"/>
<path d="M277.846 334.209C277.885 334.209 277.965 334.189 278.083 334.149C279.27 335.455 281.645 336.405 286.453 336.346C299.748 336.049 306.634 331.3 303.25 327.144C302.063 325.66 298.324 326.075 294.644 326.966C300.342 323.522 304.853 319.188 302.716 314.558C297.968 303.871 284.375 313.964 279.092 320.791C294.762 301.081 297.71 289.425 287.936 285.823C274.878 280.955 269.417 312.836 268.943 316.042C269.358 312.955 273.394 284.22 258.377 285.585C247.812 286.575 245.042 297.697 250.067 318.951L245.141 335.693L277.846 334.209Z" fill="#78E2FF"/>
<path d="M277.846 334.209C277.885 334.209 277.965 334.189 278.083 334.149C279.27 335.455 281.645 336.405 286.453 336.346C299.748 336.049 306.634 331.3 303.25 327.144C302.063 325.66 298.324 326.075 294.644 326.966C300.342 323.522 304.853 319.188 302.716 314.558C297.968 303.871 284.375 313.964 279.092 320.791C294.762 301.081 297.71 289.425 287.936 285.823C274.878 280.955 269.417 312.836 268.943 316.042C269.358 312.955 273.394 284.22 258.377 285.585C247.812 286.575 245.042 297.697 250.067 318.951L245.141 335.693L277.846 334.209Z" fill="url(#paint0_linear_300_761)"/>
<g style="mix-blend-mode:multiply" opacity="0.2">
<path d="M269.477 336.583C280.438 332.348 284.593 328.39 281.942 324.709C280.28 322.414 277.846 323.225 274.641 327.144C278.875 321.602 279.152 317.981 275.472 316.279C271.673 314.538 268.745 316.853 266.687 323.225C268.112 317.645 267.38 314.458 264.491 313.667C261.563 312.875 260 315.666 259.802 322.038C256.043 317.011 253.055 316.497 250.839 320.494C248.781 324.175 250.839 329.657 257.012 336.939" fill="#00A4D6"/>
</g>
<path d="M208.637 335.693C210.338 303.277 205.906 286.575 195.341 285.585C180.324 284.22 184.36 312.955 184.835 316.042C184.301 312.836 178.84 280.955 165.782 285.823C156.008 289.425 158.956 301.081 174.626 320.791C169.343 313.964 153.792 302.149 149.043 312.836C146.728 317.942 152.783 323.047 159.727 327.025C154.504 326.431 147.678 326.431 147.975 329.459C148.647 336.544 168.868 338.622 208.637 335.693Z" fill="#78E2FF"/>
<path d="M208.637 335.693C210.338 303.277 205.906 286.575 195.341 285.585C180.324 284.22 184.36 312.955 184.835 316.042C184.301 312.836 178.84 280.955 165.782 285.823C156.008 289.425 158.956 301.081 174.626 320.791C169.343 313.964 153.792 302.149 149.043 312.836C146.728 317.942 152.783 323.047 159.727 327.025C154.504 326.431 147.678 326.431 147.975 329.459C148.647 336.544 168.868 338.622 208.637 335.693Z" fill="url(#paint1_linear_300_761)"/>
<g style="mix-blend-mode:multiply" opacity="0.2">
<path d="M197.004 338.009C203.137 330.726 205.195 325.264 203.177 321.623C200.921 317.625 197.934 318.14 194.214 323.166C193.977 316.755 192.414 313.944 189.525 314.736C186.636 315.528 185.884 318.733 187.269 324.354C185.251 317.942 182.323 315.626 178.485 317.408C174.844 319.109 175.141 322.731 179.375 328.272C176.13 324.354 173.677 323.542 172.015 325.838C169.364 329.519 173.538 333.477 184.539 337.712" fill="#00A4D6"/>
</g>
<g opacity="0.2">
<path opacity="0.2" fill-rule="evenodd" clip-rule="evenodd" d="M370.441 217.253C370.441 218.638 370.58 219.984 370.857 221.29C372.103 227.049 375.961 231.917 381.125 234.47C383.677 235.776 386.586 236.488 389.672 236.488C400.297 236.488 408.904 227.88 408.904 217.253C408.904 212.028 406.767 207.279 403.384 203.835C399.882 200.273 395.014 198.077 389.672 198.077C383.915 198.077 378.751 200.63 375.19 204.667C372.222 208.051 370.441 212.444 370.441 217.253ZM373.706 217.253C373.706 213.275 375.19 209.594 377.682 206.804C380.591 203.42 384.865 201.342 389.672 201.342C394.124 201.342 398.16 203.182 401.069 206.091C403.859 209.001 405.639 212.919 405.639 217.253C405.639 226.099 398.457 233.223 389.672 233.223C387.12 233.223 384.687 232.629 382.55 231.561C378.276 229.423 375.13 225.386 374.062 220.637C373.824 219.529 373.706 218.401 373.706 217.253V217.253Z" fill="#18BDF7"/>
</g>
<path opacity="0.2" d="M370.857 221.289C372.104 227.047 375.962 231.915 381.126 234.468L382.55 231.559C378.277 229.422 375.131 225.385 374.062 220.636L370.857 221.289Z" fill="#18BDF7"/>
<g opacity="0.3">
<path opacity="0.3" d="M375.19 204.666L377.683 206.804C380.592 203.42 384.865 201.342 389.673 201.342C394.125 201.342 398.161 203.182 401.069 206.091L403.384 203.835C399.882 200.273 395.015 198.077 389.673 198.077C383.915 198.077 378.751 200.629 375.19 204.666V204.666Z" fill="#4A63FE"/>
</g>
<g opacity="0.8">
<g opacity="0.2">
<path opacity="0.2" fill-rule="evenodd" clip-rule="evenodd" d="M259.564 50.0693C259.564 50.9796 259.643 51.8702 259.801 52.7409C260.632 56.5999 263.185 59.8058 266.627 61.4681C268.348 62.3587 270.307 62.8336 272.325 62.8336C279.389 62.8336 285.087 57.1342 285.087 50.0693C285.087 46.5665 283.722 43.42 281.466 41.1046C279.092 38.7298 275.887 37.2456 272.325 37.2456C268.467 37.2456 265.025 38.9673 262.71 41.6389C260.751 43.8949 259.564 46.8634 259.564 50.0693V50.0693ZM261.701 50.0693C261.701 47.3977 262.71 44.9636 264.312 43.0638C266.271 40.8671 269.12 39.4423 272.325 39.4423C275.293 39.4423 277.964 40.689 279.923 42.6482C281.763 44.548 282.95 47.1602 282.95 50.0693C282.95 55.8875 278.202 60.6963 272.325 60.6963C270.604 60.6963 269.001 60.2808 267.577 59.5683C264.728 58.1435 262.65 55.4719 261.938 52.266C261.78 51.5535 261.701 50.8213 261.701 50.0693V50.0693Z" fill="#18BDF7"/>
</g>
<path opacity="0.2" d="M259.801 52.7406C260.632 56.5994 263.185 59.8052 266.627 61.4674L267.577 59.5677C264.728 58.1429 262.651 55.4714 261.938 52.2656L259.801 52.7406Z" fill="#18BDF7"/>
<g opacity="0.3">
<path opacity="0.3" d="M262.71 41.6387L264.313 43.0635C266.272 40.867 269.121 39.4422 272.326 39.4422C275.294 39.4422 277.965 40.6889 279.924 42.648L281.467 41.1044C279.093 38.7298 275.887 37.2456 272.326 37.2456C268.468 37.2456 265.025 38.9672 262.71 41.6387V41.6387Z" fill="#4A63FE"/>
</g>
</g>
<path opacity="0.2" fill-rule="evenodd" clip-rule="evenodd" d="M404.097 269.853L401.663 269.556C401.505 270.387 401.406 271.258 401.366 272.168C401.406 273.078 401.505 273.949 401.663 274.78L404.097 274.424C404.334 275.414 404.71 276.324 405.224 277.155L403.266 278.58C404.215 280.064 405.521 281.37 407.005 282.32L408.43 280.361C409.261 280.876 410.171 281.252 411.16 281.489L410.804 283.864C411.635 284.062 412.505 284.161 413.416 284.161C414.326 284.161 415.196 284.062 416.027 283.864L415.671 281.489C416.66 281.252 417.57 280.876 418.401 280.361L419.885 282.32C421.369 281.37 422.616 280.064 423.565 278.58L421.607 277.155C422.121 276.324 422.497 275.414 422.734 274.424L425.168 274.78C425.366 273.949 425.465 273.078 425.465 272.168C425.465 271.258 425.366 270.387 425.168 269.556L422.734 269.853C422.497 268.903 422.121 268.012 421.607 267.181L423.565 265.697C422.616 264.213 421.369 262.966 419.885 262.016L418.401 263.975C417.57 263.461 416.66 263.085 415.671 262.847L416.027 260.413C415.196 260.215 414.326 260.116 413.416 260.116C412.505 260.116 411.635 260.215 410.804 260.413L411.16 262.847C410.171 263.085 409.261 263.461 408.43 263.975L407.005 262.016C405.521 262.966 404.215 264.213 403.266 265.697L405.224 267.181C404.71 268.012 404.334 268.903 404.097 269.853ZM407.064 272.168C407.064 268.606 409.914 265.756 413.416 265.756C416.977 265.756 419.826 268.606 419.826 272.168C419.826 275.671 416.977 278.521 413.416 278.521C409.914 278.521 407.064 275.671 407.064 272.168Z" fill="#00A4D6"/>
<path opacity="0.1" fill-rule="evenodd" clip-rule="evenodd" d="M30.5685 88.4798L26.9478 88.0048C26.651 89.2515 26.5323 90.5577 26.5323 91.9232C26.5323 93.2886 26.651 94.5948 26.9478 95.8415L30.5685 95.3072C30.9247 96.7914 31.4588 98.1569 32.2305 99.4036L29.3221 101.6C30.7466 103.797 32.6459 105.697 34.9015 107.122L37.0384 104.213C38.2848 104.984 39.65 105.578 41.1339 105.934L40.5997 109.496C41.8462 109.793 43.2114 109.971 44.5172 109.971C45.8824 109.971 47.1882 109.793 48.4941 109.496L47.9598 105.934C49.3844 105.578 50.7496 104.984 51.9961 104.213L54.1922 107.122C56.4478 105.697 58.3472 103.797 59.7717 101.6L56.8633 99.4036C57.5755 98.1569 58.1691 96.7914 58.5253 95.3072L62.146 95.8415C62.4428 94.5948 62.5615 93.2886 62.5615 91.9232C62.5615 90.5577 62.4428 89.2515 62.146 88.0048L58.5253 88.4798C58.1691 87.0549 57.5755 85.6894 56.8633 84.4427L59.7717 82.246C58.3472 80.0494 56.4478 78.1496 54.1922 76.7247L51.9961 79.6338C50.7496 78.862 49.3844 78.2683 47.9598 77.9121L48.4941 74.3499C47.1882 74.0531 45.8824 73.875 44.5172 73.875C43.2114 73.875 41.8462 74.0531 40.5997 74.3499L41.1339 77.9121C39.65 78.2683 38.2848 78.862 37.0384 79.6338L34.9015 76.7247C32.6459 78.1496 30.7466 80.0494 29.3221 82.246L32.2305 84.4427C31.4588 85.6894 30.9247 87.0549 30.5685 88.4798ZM34.9609 91.9232C34.9609 86.6393 39.2345 82.3648 44.5172 82.3648C49.7999 82.3648 54.1329 86.6393 54.1329 91.9232C54.1329 97.207 49.7999 101.482 44.5172 101.482C39.2345 101.482 34.9609 97.207 34.9609 91.9232Z" fill="#00A4D6"/>
<path opacity="0.1" d="M307.286 27.1525C307.286 29.8834 309.542 32.1393 312.272 32.1393C315.003 32.1393 317.199 29.8834 317.199 27.1525C317.199 24.4217 315.003 22.2251 312.272 22.2251C309.542 22.2251 307.286 24.4217 307.286 27.1525Z" stroke="#00A4D6" stroke-width="2.03625"/>
<path opacity="0.5" d="M115.804 45.1411C115.804 47.872 118 50.0685 120.73 50.0685C123.461 50.0685 125.657 47.872 125.657 45.1411C125.657 42.4102 123.461 40.1543 120.73 40.1543C118 40.1543 115.804 42.4102 115.804 45.1411Z" stroke="#00A4D6" stroke-width="0.509063"/>
<path opacity="0.1" d="M239.265 81.5927C239.265 85.8671 242.767 89.3697 247.041 89.3697C251.314 89.3697 254.757 85.8671 254.757 81.5927C254.757 77.3183 251.314 73.875 247.041 73.875C242.767 73.875 239.265 77.3183 239.265 81.5927Z" stroke="#00A4D6" stroke-width="3.2071"/>
<path opacity="0.1" d="M18.7571 197.066C18.7571 201.341 22.2591 204.843 26.5327 204.843C30.8064 204.843 34.249 201.341 34.249 197.066C34.249 192.792 30.8064 189.349 26.5327 189.349C22.2591 189.349 18.7571 192.792 18.7571 197.066Z" stroke="#00A4D6" stroke-width="3.2071"/>
<path d="M65.826 105.104V290.751C65.826 295.204 69.4468 298.766 73.8391 298.766H380.117C384.569 298.766 388.13 295.204 388.13 290.751V105.104C388.13 100.651 384.569 97.0894 380.117 97.0894H73.8391C69.4468 97.0894 65.826 100.651 65.826 105.104V105.104Z" fill="#4A63FE"/>
<path d="M194.213 333.021H259.802L252.679 304.999L251.017 298.646L247.931 286.357H206.084L202.939 298.646L201.336 304.999L194.213 333.021Z" fill="#4A63FE"/>
<path d="M201.336 304.998H252.679L251.017 298.646H202.939L201.336 304.998Z" fill="#425DE2"/>
<path d="M169.047 340.739H284.969C287.759 340.739 290.015 338.483 290.015 335.693C290.015 332.902 287.759 330.646 284.969 330.646H169.047C166.257 330.646 164.002 332.902 164.002 335.693C164.002 338.483 166.257 340.739 169.047 340.739Z" fill="#425DE2"/>
<g opacity="0.2">
<path opacity="0.2" d="M65.8851 266.647H388.723V125.764H65.8851V266.647Z" fill="#60F4DF"/>
</g>
<path d="M227.037 289.622C231.073 289.622 234.457 286.297 234.457 282.201C234.457 278.105 231.073 274.78 227.037 274.78C222.941 274.78 219.558 278.105 219.558 282.201C219.558 286.297 222.941 289.622 227.037 289.622Z" fill="#3B5BD1"/>
<path opacity="0.2" d="M76.9851 216.658H273.157C275.294 216.658 277.075 214.877 277.075 212.74V133.423C277.075 131.227 275.294 129.505 273.157 129.505H76.9851C74.789 129.505 73.0676 131.227 73.0676 133.423V212.74C73.0676 214.877 74.789 216.658 76.9851 216.658Z" fill="white"/>
<path opacity="0.4" d="M78.5284 176.169V209.297C78.5284 210.721 79.7155 211.968 81.1994 211.968H269.655C271.139 211.968 272.326 210.721 272.326 209.297V136.51C254.935 136.51 246.269 143.041 241.164 151.59C240.848 152.144 240.551 152.698 240.274 153.252C231.667 169.519 234.22 191.842 215.344 191.842C214.632 191.842 213.959 191.763 213.326 191.605C212.93 191.486 212.555 191.347 212.198 191.189C199.496 185.846 201.455 147.85 178.84 148.087C174.032 148.147 170.412 150.046 167.563 152.955C167.286 153.272 167.009 153.589 166.732 153.905C156.641 165.779 156.463 192.258 140.912 197.067C135.332 198.788 130.346 196.473 125.479 192.555C125.163 192.317 124.846 192.06 124.529 191.783C114.201 183.234 103.933 168.569 87.966 172.132C87.4912 172.25 87.0163 172.369 86.5415 172.488C84.0485 173.26 81.3775 174.447 78.5284 176.169V176.169Z" fill="white"/>
<path opacity="0.8" d="M78.5284 169.46C81.9117 169.52 84.464 170.648 86.5415 172.488C90.3996 175.932 92.4771 181.75 94.4952 187.39C97.5223 195.939 100.668 204.725 109.75 204.725C110.264 204.725 110.779 204.706 111.293 204.666C117.229 204.072 121.621 199.204 125.479 192.555C127.853 188.458 130.05 183.649 132.305 178.722C138.597 164.889 145.185 150.522 157.175 150.225C157.334 150.225 157.472 150.225 157.591 150.225C161.271 150.225 164.239 151.59 166.732 153.906C171.836 158.536 175.101 166.907 178.247 175.1C182.936 187.212 187.803 199.738 198.725 200.035C206.56 200.154 210.121 197.186 213.326 191.605C214.573 189.408 215.76 186.796 217.125 183.828C219.618 178.425 222.704 171.716 227.809 163.88C231.192 158.596 235.585 155.271 240.274 153.253C252.857 147.791 267.696 151.768 272.326 153.312V152.065C267.34 150.462 253.51 146.959 241.164 151.59C235.822 153.609 230.718 157.23 226.8 163.227C221.636 171.123 218.55 177.891 216.057 183.353C214.632 186.44 213.445 189.052 212.198 191.189C209.171 196.414 205.847 198.967 198.725 198.848C188.575 198.61 184.123 186.974 179.374 174.685C176.11 166.314 172.845 157.824 167.563 152.956C164.773 150.403 161.39 148.919 157.175 149.037C144.354 149.394 137.706 164.058 131.237 178.247C129.04 183.056 126.904 187.805 124.529 191.783C120.849 198.254 116.694 202.885 111.174 203.479C101.796 204.369 98.7688 195.939 95.623 187.034C93.6642 181.453 91.6461 175.753 87.966 172.132C85.6511 169.817 82.6239 168.332 78.5284 168.273V169.46Z" fill="white"/>
<g opacity="0.5">
<path opacity="0.5" d="M76.3913 239.396H177.594C179.434 239.396 180.917 237.912 180.917 236.072V223.604C180.917 221.823 179.434 220.339 177.594 220.339H76.3913C74.5512 220.339 73.0673 221.823 73.0673 223.604V236.072C73.0673 237.912 74.5512 239.396 76.3913 239.396Z" fill="#9CD7FF"/>
</g>
<path opacity="0.2" d="M76.3918 262.491H177.594C179.434 262.491 180.918 261.007 180.918 259.166V246.699C180.918 244.858 179.434 243.374 177.594 243.374H76.3918C74.5518 243.374 73.0679 244.858 73.0679 246.699V259.166C73.0679 261.007 74.5518 262.491 76.3918 262.491Z" fill="white"/>
<g opacity="0.2">
<path opacity="0.2" d="M284.256 171.657H376.555C378.692 171.657 380.473 169.936 380.473 167.798V133.424C380.473 131.227 378.692 129.505 376.555 129.505H284.256C282.06 129.505 280.339 131.227 280.339 133.424V167.798C280.339 169.936 282.06 171.657 284.256 171.657Z" fill="#9CD7FF"/>
</g>
<g opacity="0.3">
<path opacity="0.3" d="M294.465 168.094H299.392C299.926 168.094 300.401 167.678 300.401 167.085V141.081C300.401 140.547 299.926 140.072 299.392 140.072H294.465C293.931 140.072 293.456 140.547 293.456 141.081V167.085C293.456 167.678 293.931 168.094 294.465 168.094Z" fill="white"/>
<path opacity="0.3" d="M285.027 168.094H289.776C290.37 168.094 290.904 167.619 290.904 167.026V134.61C290.904 134.016 290.37 133.542 289.776 133.542H285.027C284.434 133.542 283.959 134.016 283.959 134.61V167.026C283.959 167.619 284.434 168.094 285.027 168.094Z" fill="white"/>
<path opacity="0.3" d="M370.679 168.094H375.427C376.021 168.094 376.496 167.619 376.496 167.026V134.61C376.496 134.016 376.021 133.542 375.427 133.542H370.679C370.085 133.542 369.551 134.016 369.551 134.61V167.026C369.551 167.619 370.085 168.094 370.679 168.094Z" fill="white"/>
<path opacity="0.3" d="M361.004 168.095H366.049C366.584 168.095 366.999 167.679 366.999 167.145V142.685C366.999 142.15 366.584 141.735 366.049 141.735H361.004C360.47 141.735 360.054 142.15 360.054 142.685V167.145C360.054 167.679 360.47 168.095 361.004 168.095Z" fill="white"/>
<path opacity="0.3" d="M351.626 168.094H356.374C356.968 168.094 357.502 167.619 357.502 167.026V134.61C357.502 134.016 356.968 133.542 356.374 133.542H351.626C351.032 133.542 350.557 134.016 350.557 134.61V167.026C350.557 167.619 351.032 168.094 351.626 168.094Z" fill="white"/>
<path opacity="0.3" d="M341.831 168.095H347.173C347.589 168.095 347.945 167.738 347.945 167.263V149.809C347.945 149.393 347.589 149.037 347.173 149.037H341.831C341.416 149.037 341.06 149.393 341.06 149.809V167.263C341.06 167.738 341.416 168.095 341.831 168.095Z" fill="white"/>
<path opacity="0.3" d="M332.631 168.094H337.38C337.973 168.094 338.448 167.619 338.448 167.026V134.61C338.448 134.016 337.973 133.542 337.38 133.542H332.631C332.038 133.542 331.504 134.016 331.504 134.61V167.026C331.504 167.619 332.038 168.094 332.631 168.094Z" fill="white"/>
<path opacity="0.3" d="M323.016 168.094H327.942C328.476 168.094 328.951 167.678 328.951 167.085V141.081C328.951 140.547 328.476 140.072 327.942 140.072H323.016C322.422 140.072 322.007 140.547 322.007 141.081V167.085C322.007 167.678 322.422 168.094 323.016 168.094Z" fill="white"/>
<path opacity="0.3" d="M313.578 168.094H318.327C318.92 168.094 319.395 167.619 319.395 167.026V134.61C319.395 134.016 318.92 133.542 318.327 133.542H313.578C312.985 133.542 312.51 134.016 312.51 134.61V167.026C312.51 167.619 312.985 168.094 313.578 168.094Z" fill="white"/>
<path opacity="0.3" d="M303.902 168.095H308.948C309.482 168.095 309.897 167.679 309.897 167.145V142.685C309.897 142.15 309.482 141.735 308.948 141.735H303.902C303.428 141.735 302.953 142.15 302.953 142.685V167.145C302.953 167.679 303.428 168.095 303.902 168.095Z" fill="white"/>
</g>
<path opacity="0.2" d="M284.256 217.074H376.555C378.692 217.074 380.473 215.352 380.473 213.155V178.781C380.473 176.644 378.692 174.922 376.555 174.922H284.256C282.06 174.922 280.339 176.644 280.339 178.781V213.155C280.339 215.352 282.06 217.074 284.256 217.074Z" fill="white"/>
<path opacity="0.2" d="M284.256 262.491H376.555C378.692 262.491 380.473 260.769 380.473 258.572V224.198C380.473 222.061 378.692 220.339 376.555 220.339H284.256C282.06 220.339 280.339 222.061 280.339 224.198V258.572C280.339 260.769 282.06 262.491 284.256 262.491Z" fill="white"/>
<path opacity="0.5" d="M283.485 182.283C283.485 183.292 284.376 184.124 285.385 184.124C285.662 184.124 285.919 184.084 286.156 184.005L301.411 201.281C301.233 201.519 301.114 201.875 301.114 202.231C301.114 203.24 302.004 204.071 303.013 204.071C304.082 204.071 304.913 203.24 304.913 202.231C304.913 201.875 304.834 201.578 304.675 201.341L321.058 185.192C321.335 185.351 321.631 185.43 321.948 185.43C322.265 185.43 322.561 185.351 322.838 185.192L344.147 208.168C344.068 208.366 344.028 208.564 344.028 208.762C344.028 209.771 344.859 210.602 345.928 210.602C346.937 210.602 347.827 209.771 347.827 208.762C347.827 208.485 347.768 208.227 347.649 207.99L359.402 192.732C359.56 192.772 359.738 192.791 359.936 192.791C360.213 192.791 360.47 192.752 360.708 192.673L373.647 209.415C373.469 209.712 373.35 210.068 373.35 210.424C373.35 211.493 374.181 212.324 375.19 212.324C376.259 212.324 377.09 211.493 377.09 210.424C377.09 209.415 376.259 208.524 375.19 208.524C374.993 208.564 374.775 208.623 374.538 208.702L361.598 191.842C361.717 191.545 361.835 191.248 361.835 190.951C361.835 189.882 361.004 189.051 359.936 189.051C358.927 189.051 358.036 189.882 358.036 190.951C358.036 191.307 358.215 191.723 358.393 192.02L346.818 207.099C346.541 206.941 346.244 206.862 345.928 206.862C345.512 206.862 345.156 206.981 344.859 207.218L323.669 184.361C323.788 184.124 323.847 183.846 323.847 183.53C323.847 182.521 323.016 181.689 321.948 181.689C320.939 181.689 320.108 182.521 320.108 183.53C320.108 183.807 320.167 184.064 320.286 184.302L303.785 200.509C303.548 200.391 303.29 200.331 303.013 200.331C302.776 200.331 302.539 200.391 302.301 200.509L286.987 183.174C287.165 182.936 287.284 182.58 287.284 182.283C287.284 181.214 286.453 180.383 285.385 180.383C284.376 180.383 283.485 181.214 283.485 182.283V182.283Z" fill="white"/>
<path opacity="0.3" d="M293.813 227.047H375.131C376.021 227.047 376.793 226.335 376.793 225.385V225.207C376.793 224.257 376.021 223.485 375.131 223.485H293.813C292.863 223.485 292.092 224.257 292.092 225.207V225.385C292.092 226.335 292.863 227.047 293.813 227.047Z" fill="white"/>
<path opacity="0.3" d="M302.242 233.4H375.19C376.081 233.4 376.793 232.687 376.793 231.797V231.5C376.793 230.61 376.081 229.838 375.19 229.838H302.242C301.351 229.838 300.639 230.61 300.639 231.5V231.797C300.639 232.687 301.351 233.4 302.242 233.4Z" fill="white"/>
<path opacity="0.3" d="M285.266 239.812H375.012C376.021 239.812 376.793 238.98 376.793 238.031C376.793 237.021 376.021 236.25 375.012 236.25H285.266C284.316 236.25 283.485 237.021 283.485 238.031C283.485 238.98 284.316 239.812 285.266 239.812Z" fill="white"/>
<path opacity="0.3" d="M310.552 246.165H375.309C376.14 246.165 376.793 245.452 376.793 244.621V244.087C376.793 243.256 376.14 242.603 375.309 242.603H310.552C309.721 242.603 309.008 243.256 309.008 244.087V244.621C309.008 245.452 309.721 246.165 310.552 246.165Z" fill="white"/>
<path opacity="0.3" d="M292.923 252.517H375.072C376.021 252.517 376.793 251.745 376.793 250.795V250.676C376.793 249.726 376.021 248.955 375.072 248.955H292.923C291.973 248.955 291.201 249.726 291.201 250.676V250.795C291.201 251.745 291.973 252.517 292.923 252.517Z" fill="white"/>
<path opacity="0.3" d="M285.266 258.869H375.012C376.021 258.869 376.793 258.038 376.793 257.088C376.793 256.079 376.021 255.307 375.012 255.307H285.266C284.316 255.307 283.485 256.079 283.485 257.088C283.485 258.038 284.316 258.869 285.266 258.869Z" fill="white"/>
<g opacity="0.5">
<path opacity="0.5" d="M234.635 241.415C234.635 253.051 244.073 262.491 255.706 262.491C267.34 262.491 276.778 253.051 276.778 241.415C276.778 229.779 267.34 220.339 255.706 220.339C254.044 220.339 252.422 220.517 250.839 220.873C242.114 222.951 235.466 230.491 234.694 239.753C234.655 240.307 234.635 240.861 234.635 241.415V241.415Z" fill="#9CD7FF"/>
</g>
<path d="M234.694 239.753L255.707 241.415L250.839 220.874C242.114 222.951 235.466 230.491 234.694 239.753V239.753Z" fill="#9CD7FF"/>
<g opacity="0.5">
<path opacity="0.5" d="M187.743 223.664H228.283C229.055 223.664 229.648 223.07 229.648 222.298C229.648 221.527 229.055 220.874 228.283 220.874H187.743C186.971 220.874 186.318 221.527 186.318 222.298C186.318 223.07 186.971 223.664 187.743 223.664Z" fill="#9CD7FF"/>
</g>
<g opacity="0.5">
<path opacity="0.5" d="M193.738 229.185H228.402C229.114 229.185 229.648 228.591 229.648 227.879V227.701C229.648 226.988 229.114 226.395 228.402 226.395H193.738C193.026 226.395 192.432 226.988 192.432 227.701V227.879C192.432 228.591 193.026 229.185 193.738 229.185Z" fill="#9CD7FF"/>
</g>
<g opacity="0.5">
<path opacity="0.5" d="M201.988 234.707H228.521C229.174 234.707 229.648 234.232 229.648 233.579V233.044C229.648 232.451 229.174 231.917 228.521 231.917H201.988C201.395 231.917 200.861 232.451 200.861 233.044V233.579C200.861 234.232 201.395 234.707 201.988 234.707Z" fill="#9CD7FF"/>
</g>
<g opacity="0.5">
<path opacity="0.5" d="M187.743 240.227H228.283C229.055 240.227 229.648 239.633 229.648 238.861C229.648 238.09 229.055 237.437 228.283 237.437H187.743C186.971 237.437 186.318 238.09 186.318 238.861C186.318 239.633 186.971 240.227 187.743 240.227Z" fill="#9CD7FF"/>
</g>
<g opacity="0.5">
<path opacity="0.5" d="M192.373 245.749H228.343C229.055 245.749 229.648 245.155 229.648 244.443V244.324C229.648 243.552 229.055 242.958 228.343 242.958H192.373C191.661 242.958 191.067 243.552 191.067 244.324V244.443C191.067 245.155 191.661 245.749 192.373 245.749Z" fill="#9CD7FF"/>
</g>
<g opacity="0.5">
<path opacity="0.5" d="M187.743 251.27H228.283C229.055 251.27 229.648 250.676 229.648 249.904C229.648 249.133 229.055 248.479 228.283 248.479H187.743C186.971 248.479 186.318 249.133 186.318 249.904C186.318 250.676 186.971 251.27 187.743 251.27Z" fill="#9CD7FF"/>
</g>
<g opacity="0.5">
<path opacity="0.5" d="M195.875 256.791H228.402C229.114 256.791 229.648 256.257 229.648 255.544V255.307C229.648 254.594 229.114 254.06 228.402 254.06H195.875C195.222 254.06 194.628 254.594 194.628 255.307V255.544C194.628 256.257 195.222 256.791 195.875 256.791Z" fill="#9CD7FF"/>
</g>
<g opacity="0.5">
<path opacity="0.5" d="M187.743 262.313H228.283C229.055 262.313 229.648 261.719 229.648 260.947C229.648 260.176 229.055 259.582 228.283 259.582H187.743C186.971 259.582 186.318 260.176 186.318 260.947C186.318 261.719 186.971 262.313 187.743 262.313Z" fill="#9CD7FF"/>
</g>
<g style="mix-blend-mode:overlay">
<path style="mix-blend-mode:overlay" d="M65.8246 105.104V290.75C65.8246 295.203 69.4454 298.765 73.8377 298.765H380.115C384.567 298.765 388.128 295.203 388.128 290.75V105.104C388.128 100.651 384.567 97.0889 380.115 97.0889H73.8377C69.4454 97.0889 65.8246 100.651 65.8246 105.104V105.104Z" fill="url(#paint2_linear_300_761)"/>
</g>
<g style="mix-blend-mode:multiply" opacity="0.3">
<g style="mix-blend-mode:multiply" opacity="0.3">
<path d="M284.019 198.135C282.832 197.779 283.544 199.382 283.9 199.856C283.841 200.213 283.96 200.628 284.197 200.984C284.85 201.994 287.343 202.884 288.115 202.647C289.302 203.478 302.716 212.561 308.118 213.571C308.77 213.749 311.56 214.046 314.884 214.283C314.924 214.719 314.983 215.095 315.062 215.411C315.339 215.372 315.814 215.352 316.487 215.352L312.451 239.277C312.332 239.812 312.688 240.287 313.222 240.405L322.422 241.949C320.998 246.224 319.455 251.982 319.098 257.979C318.683 265.578 318.564 269.912 319.158 275.374C319.158 275.374 319.158 275.394 319.158 275.433C318.861 279.351 318.742 283.032 318.861 286.713C318.98 288.851 319.217 293.363 319.514 298.765H328.892C328.694 294.886 328.121 291.304 327.171 288.019C328.002 285.565 328.971 282.755 330.079 279.589V280.064C330.079 280.262 330.079 280.46 330.079 280.658C330.079 281.053 330.079 281.469 330.079 281.904C330.079 282.063 330.079 282.221 330.079 282.379C330.119 282.894 330.139 283.389 330.139 283.864C330.139 283.982 330.139 284.101 330.139 284.22C330.139 284.616 330.158 284.992 330.198 285.348C330.198 285.506 330.198 285.645 330.198 285.763C330.238 286.199 330.277 286.634 330.317 287.069C330.356 287.307 330.376 287.564 330.376 287.841C330.376 287.841 330.376 287.901 330.435 287.96C330.475 288.475 330.534 289.029 330.614 289.622C330.97 292.056 331.504 295.203 332.216 298.765H342.01C341.97 298.528 341.931 298.31 341.891 298.112C341.298 293.125 339.398 288.376 339.161 286.654C339.042 285.882 339.873 280.895 340.823 275.493C341.258 275.255 341.654 274.998 342.01 274.721C341.951 270.149 343.256 264.331 343.85 260.353C344.147 258.632 345.868 253.823 346.105 252.101C346.402 249.964 346.402 247.945 346.165 245.986L361.063 248.539C361.597 248.598 362.072 248.242 362.132 247.767L366.524 222.001C366.643 221.467 366.287 220.992 365.752 220.873L348.124 217.905C347.589 215.292 346.818 212.621 346.165 210.662C346.521 210.009 346.996 209.296 347.411 208.524C348.302 206.743 348.361 204.547 347.471 202.766C346.758 201.4 345.334 200.628 344.74 199.203C344.147 197.719 344.206 195.998 344.562 194.454C344.918 192.495 345.631 190.654 345.868 188.754C346.046 187.448 345.987 186.083 345.749 184.777C345.571 183.886 345.215 181.452 342.841 180.977C342.96 179.671 341.238 178.306 339.754 177.534C338.211 176.762 336.49 176.643 334.768 176.584C328.061 176.406 325.865 182.58 326.637 183.411C326.577 183.53 326.518 183.589 326.459 183.708C326.162 184.242 325.687 184.658 325.39 185.252C324.975 186.083 324.737 187.33 324.084 190.239C323.61 192.139 324.203 193.385 324.915 193.979C326.637 195.344 328.061 196.651 328.417 197.363C328.952 198.313 328.892 200.45 328.833 201.4C328.239 202.172 327.29 202.587 326.637 203.3C326.637 203.339 326.617 203.379 326.577 203.419C326.459 203.617 326.34 203.814 326.221 204.012C325.628 203.894 324.084 203.834 322.66 204.725C320.958 205.714 318.347 206.506 314.825 207.099C314.825 207.258 314.825 207.475 314.825 207.753C311.56 207.753 308.889 207.693 308.474 207.456C306.752 206.387 293.991 202.706 290.133 199.797C290.073 199.56 290.073 199.382 290.073 199.322C289.776 198.55 289.42 198.194 288.767 197.66C288.213 197.145 287.64 196.651 287.046 196.176C286.927 196.057 286.453 195.404 286.274 195.463C286.037 195.523 285.859 195.938 286.096 196.532C286.334 197.066 286.69 197.126 286.571 197.363C285.087 197.066 283.9 196.354 283.188 195.107C282.594 194.216 282.12 194.335 282.179 194.81C282.535 196.116 282.832 197.304 284.019 198.135V198.135Z" fill="#5FB0E7"/>
</g>
</g>
<g style="mix-blend-mode:multiply" opacity="0.5">
<path d="M305.09 341.926C305.09 343.589 316.902 344.895 331.504 344.895C346.046 344.895 357.858 343.589 357.858 341.926C357.858 340.323 346.046 338.958 331.504 338.958C316.902 338.958 305.09 340.323 305.09 341.926Z" fill="#00A4D6"/>
</g>
<path d="M333.344 287.07C333.997 294.551 339.339 318.001 341.238 332.962C341.476 334.743 346.284 333.972 345.69 328.807C345.096 323.582 345.69 304.109 344.918 298.113C344.325 293.126 342.425 288.376 342.188 286.655C341.951 284.933 346.224 261.957 346.818 260.295C347.411 258.573 346.165 255.961 347.352 252.339C348.895 247.352 348.697 242.504 346.758 237.794L334.175 247.887C333.344 265.935 332.691 279.59 333.344 287.07V287.07Z" fill="#FFE1BD"/>
<path d="M333.522 262.55C333.106 273.415 332.869 281.786 333.344 287.07C333.522 288.969 333.997 291.879 334.59 295.381C334.669 295.223 334.709 295.065 334.709 294.906C334.828 292.532 334.649 290.157 334.828 287.782C335.124 283.211 336.49 278.758 338.864 275.018L333.818 262.61C333.7 262.57 333.601 262.55 333.522 262.55V262.55Z" fill="#FCCB95"/>
<path d="M340.526 328.153C341.199 331.794 341.436 333.832 341.238 334.268C340.882 334.98 339.755 336.939 338.627 337.651C337.38 338.364 334.709 339.254 334.531 339.551C334.294 339.907 334.294 340.382 334.65 340.679C335.6 341.451 337.262 341.866 338.389 341.688C341.951 341.213 342.366 339.611 344.444 339.432C344.8 339.373 345.453 339.967 346.462 339.432C347.471 338.958 348.005 338.067 347.946 337.177C347.827 335.692 346.996 334.446 346.462 333.318C346.066 332.566 345.769 330.508 345.571 327.144" fill="#FFE1BD"/>
<path d="M338.568 342.342C339.695 342.282 340.645 342.104 341.535 341.689C341.892 341.511 342.07 340.976 342.366 340.679C342.426 340.62 343.494 340.026 344.088 339.908C344.523 339.828 344.919 339.789 345.275 339.789L345.394 340.976C345.948 341.055 346.422 341.055 346.818 340.976C347.451 340.858 347.887 340.719 348.124 340.561C348.065 339.789 348.302 339.077 348.421 338.72C348.539 338.186 348.302 337.296 348.183 336.761C348.005 336.227 347.234 334.446 346.877 334.208C346.818 334.565 345.987 336.702 344.147 337.117C342.841 337.414 341.179 338.898 338.924 338.958C338.271 339.017 337.559 338.186 337.974 338.008C338.39 337.77 337.262 338.067 336.55 338.364C335.837 338.661 334.65 339.433 334.294 339.611C334.057 339.789 334.116 340.501 334.353 340.917C334.769 341.689 336.193 342.401 338.568 342.342V342.342Z" fill="#594A5F"/>
<path d="M316.131 340.917C317.021 341.808 318.683 342.461 319.87 342.461C323.61 342.52 324.263 341.036 326.459 341.155C326.815 341.155 327.409 341.808 328.536 341.452C329.605 341.155 330.258 340.324 330.317 339.433C330.376 337.949 329.189 336.524 328.774 335.337C328.418 334.387 328.655 331.3 328.715 330.053C329.249 323.522 332.038 306.424 331.979 300.784C331.94 296.351 331.346 292.096 330.198 288.02C336.609 269.378 340.032 259.483 340.467 258.335C341.12 256.613 344.859 255.96 345.75 251.448C346.779 246.343 345.868 241.079 343.019 235.656L327.409 247.411C323.076 264.747 321.532 275.908 321.889 286.714C322.126 292.947 323.847 318.951 324.025 329.637C324.025 331.181 324.025 334.862 323.729 335.574C323.432 336.287 321.889 338.008 320.583 338.483C319.277 339.018 316.428 339.493 316.131 339.789C315.894 340.086 315.775 340.561 316.131 340.917Z" fill="#FFE1BD"/>
<path d="M319.989 343.114C321.176 343.292 321.947 343.232 323.016 342.935C323.431 342.876 323.788 342.46 324.084 342.223C324.5 341.926 325.331 341.57 326.043 341.57C326.478 341.53 326.874 341.55 327.23 341.629L327.171 342.817C327.725 342.975 328.219 343.054 328.655 343.054C329.327 343.015 329.802 342.935 330.079 342.817C330.079 342.045 330.435 341.333 330.613 341.036C330.792 340.501 330.673 339.611 330.613 339.077C330.495 338.483 329.545 336.643 329.248 336.346C329.13 336.702 328.358 338.72 326.399 338.839C325.034 338.898 323.075 340.086 320.76 339.848C320.107 339.789 319.455 338.898 319.929 338.72C320.345 338.602 319.158 338.661 318.386 338.899C317.614 339.077 316.309 339.67 315.893 339.789C315.656 339.908 315.596 340.62 315.774 341.095C316.131 341.926 317.496 342.876 319.989 343.114V343.114Z" fill="#594A5F"/>
<path d="M292.863 200.629C293.457 200.807 293.101 199.501 293.101 199.323C292.804 198.551 292.448 198.195 291.795 197.66C291.241 197.146 290.667 196.651 290.073 196.176C289.955 196.057 289.48 195.404 289.302 195.464C289.064 195.523 288.886 195.939 289.124 196.532C289.361 197.067 289.717 197.126 289.599 197.363C288.115 197.067 286.928 196.354 286.215 195.107C285.622 194.217 285.147 194.336 285.266 194.811C285.562 196.117 285.859 197.304 287.046 198.135C285.918 197.779 286.571 199.382 286.928 199.857C286.868 200.213 287.046 200.629 287.224 200.985C287.877 201.994 290.43 202.885 291.201 202.647" fill="#FFE1BD"/>
<path d="M330.911 207.397C318.723 207.872 312.253 207.892 311.501 207.456C309.78 206.388 296.662 202.648 292.982 199.679C291.518 200.075 290.885 201.045 291.083 202.588C300.698 209.198 307.386 212.859 311.145 213.571C312.57 213.868 323.016 214.877 328.833 214.936" fill="#FFE1BD"/>
<path d="M345.512 212.206V220.695L351.507 219.745C350.953 216.223 349.845 212.245 348.183 207.812" fill="#F9B253"/>
<path d="M316.249 240.405L364.09 248.539C364.624 248.598 365.099 248.242 365.158 247.767L369.551 222.001C369.67 221.467 369.313 220.992 368.779 220.873L320.938 212.739C320.463 212.68 319.929 213.036 319.87 213.511L315.477 239.277C315.418 239.812 315.715 240.287 316.249 240.405Z" fill="#2C1E56"/>
<path d="M317.911 238.743L363.081 246.639C363.496 246.699 363.912 246.402 364.031 245.927L367.829 223.485C367.889 223.01 367.592 222.595 367.176 222.535L322.006 214.639C321.532 214.58 321.116 214.877 320.997 215.352L317.199 237.793C317.139 238.268 317.436 238.684 317.911 238.743Z" fill="#39297F"/>
<path d="M360.707 244.502L361.42 244.621C361.835 244.74 362.191 244.443 362.251 244.087L365.574 224.732C365.634 224.317 365.337 223.961 364.981 223.901L364.209 223.782C363.853 223.723 363.438 223.961 363.378 224.376L360.114 243.671C360.054 244.087 360.292 244.443 360.707 244.502V244.502Z" fill="#4C4199"/>
<path d="M356.612 243.731L357.384 243.849C357.799 243.909 358.155 243.671 358.215 243.256L361.479 223.961C361.539 223.545 361.301 223.189 360.945 223.13L360.173 223.011C359.758 222.892 359.402 223.189 359.342 223.545L356.078 242.9C355.959 243.315 356.256 243.671 356.612 243.731Z" fill="#4C4199"/>
<path d="M352.575 242.959L353.347 243.078C353.703 243.137 354.119 242.9 354.178 242.484L357.443 223.189C357.502 222.774 357.265 222.417 356.849 222.358L356.077 222.18C355.721 222.121 355.365 222.417 355.306 222.774L351.982 242.128C351.923 242.544 352.219 242.9 352.575 242.959V242.959Z" fill="#4C4199"/>
<path d="M348.54 242.187L349.252 242.306C349.668 242.365 350.024 242.128 350.083 241.712L353.407 222.358C353.466 222.002 353.17 221.645 352.813 221.586L352.042 221.408C351.686 221.349 351.27 221.645 351.211 222.002L347.946 241.356C347.887 241.772 348.124 242.128 348.54 242.187V242.187Z" fill="#4C4199"/>
<path d="M344.444 241.414L345.216 241.533C345.631 241.592 345.987 241.355 346.047 240.939L349.311 221.585C349.371 221.229 349.133 220.873 348.777 220.754L348.005 220.635C347.59 220.576 347.234 220.873 347.174 221.229L343.91 240.583C343.791 240.999 344.088 241.355 344.444 241.414Z" fill="#4C4199"/>
<path d="M340.408 240.643L341.179 240.761C341.535 240.821 341.951 240.583 342.01 240.168L345.275 220.813C345.334 220.457 345.097 220.042 344.681 219.982L343.909 219.864C343.553 219.804 343.197 220.101 343.138 220.457L339.814 239.812C339.755 240.168 340.051 240.583 340.408 240.643Z" fill="#4C4199"/>
<path d="M336.371 239.871L337.083 239.99C337.499 240.049 337.855 239.812 337.914 239.396L341.238 220.042C341.297 219.686 341.001 219.27 340.644 219.211L339.873 219.092C339.517 219.033 339.101 219.27 339.042 219.686L335.777 239.04C335.718 239.396 335.955 239.812 336.371 239.871V239.871Z" fill="#4C4199"/>
<path d="M332.276 239.099L333.048 239.218C333.463 239.277 333.819 238.98 333.879 238.624L337.143 219.27C337.203 218.914 336.965 218.498 336.609 218.439L335.837 218.32C335.422 218.261 335.066 218.498 335.006 218.914L331.742 238.268C331.623 238.624 331.92 239.04 332.276 239.099Z" fill="#4C4199"/>
<path d="M328.239 238.328L329.011 238.446C329.367 238.506 329.782 238.209 329.842 237.853L333.106 218.498C333.166 218.083 332.928 217.727 332.513 217.667L331.741 217.549C331.385 217.489 331.029 217.727 330.969 218.142L327.645 237.497C327.586 237.853 327.883 238.209 328.239 238.328Z" fill="#4C4199"/>
<path d="M324.203 237.496L324.916 237.674C325.331 237.734 325.687 237.437 325.747 237.081L329.071 217.726C329.13 217.311 328.833 216.955 328.477 216.895L327.705 216.777C327.349 216.717 326.934 216.955 326.874 217.37L323.61 236.725C323.55 237.081 323.788 237.437 324.203 237.496V237.496Z" fill="#4C4199"/>
<path d="M320.108 236.725L320.879 236.903C321.295 236.962 321.651 236.665 321.71 236.309L324.975 216.955C325.034 216.539 324.797 216.183 324.441 216.124L323.669 216.005C323.253 215.946 322.897 216.183 322.838 216.599L319.573 235.894C319.455 236.309 319.751 236.666 320.108 236.725V236.725Z" fill="#4C4199"/>
<path d="M328.002 234.944C327.883 235.894 322.778 246.58 322.125 257.979C321.71 265.578 321.591 269.912 322.185 275.374C327.527 278.521 339.279 278.877 345.096 274.721C344.978 270.15 346.283 264.331 346.877 260.354C347.174 258.632 348.895 253.823 349.132 252.101C350.023 245.512 348.361 239.337 344.028 235.597" fill="#594A5F"/>
<path d="M328.121 224.674C328.358 226.752 328.121 229.839 327.824 233.342C327.824 233.935 327.527 235.063 327.586 235.657C327.586 235.974 327.725 236.271 328.002 236.548C328.655 237.141 329.842 237.497 331.148 237.735C335.422 238.507 342.247 237.972 344.147 238.388C345.928 238.744 347.768 238.151 347.768 237.023C347.768 236.251 347.055 235.835 346.996 234.351C346.877 231.086 346.996 223.605 347.59 220.28C348.836 213.275 349.192 209.119 348.302 201.342L335.243 197.602C334.234 197.78 334.65 200.867 333.641 200.986C332.929 201.104 328.774 205.082 327.586 209.713C326.874 210.9 326.399 211.909 326.103 212.741C325.509 214.284 325.568 215.472 326.103 216.896C327.112 219.627 327.824 221.587 328.121 224.674Z" fill="#F9B253"/>
<path d="M328.121 224.673C328.358 226.751 328.121 229.838 327.824 233.341C327.824 233.934 327.527 235.062 327.586 235.656C327.586 235.973 327.725 236.27 328.002 236.547V236.487C327.646 235.656 328.536 231.322 328.952 228.947C329.367 226.513 329.249 221.823 328.417 218.855C327.824 216.876 327.428 215.431 327.23 214.521C326.795 213.848 326.419 213.254 326.102 212.74C325.508 214.283 325.568 215.471 326.102 216.896C327.111 219.627 327.824 221.586 328.121 224.673V224.673Z" fill="#F29127"/>
<path d="M329.545 204.072C328.239 203.756 326.953 203.973 325.687 204.725C323.986 205.715 321.374 206.506 317.852 207.1C317.615 211.098 317.714 213.868 318.149 215.412C319.296 215.214 321.592 215.313 325.034 215.709C328.635 216.104 332.83 217.49 337.618 219.865" fill="#F9B253"/>
<path d="M328.418 185.252C328.002 186.083 327.765 187.33 327.112 190.239C326.637 192.139 327.231 193.386 328.002 193.979C329.664 195.345 331.089 196.651 331.445 197.363C331.88 198.194 332.019 199.698 331.86 201.875L342.604 202.291C342.366 199.758 342.564 197.66 343.197 195.998C344.147 193.445 346.581 189.052 346.64 185.43C346.699 181.809 342.544 178.721 337.677 178.246C332.81 177.772 330.792 181.215 329.486 183.708C329.189 184.243 328.714 184.658 328.418 185.252V185.252Z" fill="#FFE1BD"/>
<path d="M329.605 203.419C328.952 204.25 328.537 205.378 328.655 206.447C328.774 207.753 329.783 208.762 330.258 209.95C331.03 212.028 329.724 212.324 330.614 214.402C332.276 218.024 334.472 218.914 337.025 220.28C338.449 221.052 339.636 221.348 341.239 221.586C342.841 221.823 345.156 221.289 346.343 220.22C349.371 217.549 348.718 214.284 348.658 213.571C348.362 211.434 349.489 210.247 350.439 208.525C351.389 206.744 351.448 204.547 350.498 202.766C349.786 201.401 348.362 200.629 347.768 199.204C347.174 197.72 347.234 195.998 347.59 194.454C347.946 192.495 348.658 190.655 348.896 188.755C349.074 187.449 349.074 186.083 348.777 184.777C348.599 183.887 348.243 181.453 345.869 180.978C345.987 179.672 344.266 178.306 342.782 177.534C341.239 176.762 339.517 176.644 337.796 176.584C331.089 176.406 328.893 182.581 329.664 183.412C330.317 182.343 330.911 181.868 332.573 181.571C332.692 181.868 331.979 183.115 331.801 183.412C330.495 186.083 331.089 186.44 331.208 187.924C331.326 189.467 332.098 187.211 332.395 186.974C332.751 186.618 333.107 186.677 333.641 186.974C334.294 187.389 334.116 188.161 333.879 188.874C333.582 189.646 333.048 190.299 332.454 190.952C330.792 192.851 330.851 194.395 332.039 196.77C332.335 197.304 332.632 197.838 332.692 198.432C332.81 199.382 332.454 200.569 331.92 201.341C331.326 202.172 330.317 202.529 329.664 203.3C329.664 203.34 329.645 203.38 329.605 203.419V203.419Z" fill="#00215B"/>
<g style="mix-blend-mode:multiply" opacity="0.3">
<g style="mix-blend-mode:multiply" opacity="0.3">
<path d="M96.6322 298.765H109.156C110.047 297.4 110.818 296.272 111.353 295.381L111.412 295.322C111.649 294.926 111.827 294.55 111.946 294.194C111.986 294.115 112.025 294.055 112.065 294.016C112.144 293.778 112.203 293.58 112.243 293.422C112.243 293.303 112.263 293.165 112.302 293.007C112.302 293.007 112.302 292.987 112.302 292.947C112.777 290.572 113.905 286.476 115.27 281.667C116.101 283.804 116.873 285.764 117.526 287.426C118.831 293.244 118.772 291.938 118.238 296.509C118.198 296.866 118.179 297.143 118.179 297.341C118.139 297.459 118.119 297.578 118.119 297.697C118.04 298.053 117.961 298.409 117.882 298.765H127.735C127.913 295.025 128.091 291.997 128.21 290.038C128.21 289.563 128.15 285.348 128.21 284.932C128.21 284.161 128.091 283.567 127.913 283.151C127.616 279.411 127.141 272.643 126.726 266.647C126.607 265.222 126.488 263.797 126.429 262.491C126.132 258.691 125.954 255.723 125.895 255.01C125.895 254.496 125.915 254.001 125.954 253.526C127.537 253.447 128.566 253.17 129.041 252.695C128.803 252.22 128.744 248.658 128.507 243.374C128.427 242.147 128.328 240.821 128.21 239.396C128.091 237.615 127.972 235.716 127.735 233.756C127.695 233.163 127.636 232.589 127.557 232.035C129.575 231.916 131.83 231.738 134.027 231.441C137.667 230.887 142.119 230.333 147.382 229.779L147.322 229.007C148.331 229.066 149.103 229.185 149.578 229.304C149.993 229.422 150.409 229.422 150.824 229.363C151.715 229.126 153.258 228.829 153.911 228.473C155.217 227.819 155.276 227.582 155.87 226.87C156.384 226.236 156.661 225.702 156.701 225.267C156.819 224.792 156.463 224.851 155.929 225.326L157.71 220.339L159.016 216.658L160.737 211.968L163.586 204.072C163.705 203.656 163.527 203.241 163.111 203.122L162.814 203.003C162.399 202.884 161.983 203.063 161.865 203.419L158.778 211.968L157.116 216.658L155.751 220.339L153.97 225.267H129.872C129.793 225.267 129.733 225.286 129.694 225.326L127.082 225.267C126.924 225.227 126.785 225.207 126.666 225.207C126.587 224.653 126.488 224.099 126.37 223.545C126.726 223.545 127.141 223.545 127.497 223.545C132.285 223.664 137.212 223.703 142.277 223.664L142.336 223.248C143.108 223.367 143.464 223.426 143.761 223.723C144.117 223.96 144.889 224.376 145.898 224.554C146.907 224.732 146.966 224.376 146.907 224.198C146.848 223.96 146.135 223.901 145.838 223.723C145.601 223.545 145.423 223.307 145.542 223.07C145.898 222.951 146.313 223.011 146.61 223.07C146.966 223.248 147.322 223.486 147.441 223.604C147.797 223.842 148.45 224.673 148.866 224.792C149.103 224.851 149.281 224.851 149.4 224.792C149.697 225.088 149.993 225.267 150.231 225.267C150.27 225.267 150.31 225.247 150.35 225.207C150.587 225.089 149.815 224.139 148.866 223.129C147.797 222.239 146.61 221.111 146.017 221.051C145.126 220.992 143.642 221.111 142.693 221.111L142.752 220.814L140.971 220.339C134.858 218.617 128.981 217.43 125.657 216.836C125.42 216.797 125.183 216.757 124.945 216.717C124.945 216.678 124.925 216.658 124.886 216.658C124.53 215.035 124.094 213.472 123.58 211.968C122.333 207.99 120.731 204.309 118.713 201.282C118.673 201.123 118.594 200.985 118.475 200.866C118.357 200.668 118.198 200.47 118 200.272C117.763 199.956 117.486 199.659 117.17 199.382C117.209 198.155 117.209 197.284 117.17 196.769C116.972 196.69 116.714 196.591 116.398 196.473C116.457 196.057 116.576 195.582 116.754 195.048C118.653 195.76 120.493 196.235 121.799 196.057C122.116 196.017 122.413 195.938 122.69 195.82C123.639 194.81 124.411 193.623 125.123 192.257C125.202 192.099 125.281 191.941 125.361 191.783C125.519 191.783 125.697 191.802 125.895 191.842C126.429 191.842 126.904 191.723 127.082 191.367C127.082 191.248 127.141 191.011 127.141 190.773C127.141 190.476 127.082 190.12 127.082 189.705C126.963 189.111 126.845 188.398 126.726 187.924C126.726 187.844 126.726 187.785 126.726 187.745C126.726 187.152 126.548 186.439 126.726 185.786C126.785 185.549 127.201 185.311 127.319 185.193C128.21 183.827 128.091 182.937 128.032 182.58C128.427 182.58 128.843 182.561 129.278 182.521C129.793 182.481 130.287 182.363 130.762 182.165C132.958 181.334 134.739 179.078 135.095 174.269C134.897 174.348 134.62 174.387 134.264 174.387C133.908 174.427 133.492 174.407 133.018 174.328C131.415 174.15 129.338 173.497 127.319 172.547C125.717 171.775 118.713 165.601 114.083 171.241C111.946 170.825 109.038 172.606 107.969 177.118C107.89 177.395 107.831 177.692 107.791 178.009C106.96 183.174 108.86 190.358 110.64 191.07C110.799 192.495 110.7 193.722 110.344 194.751C110.344 194.751 109.631 195.226 109.216 196.532C107.732 198.372 106.367 200.332 105.239 202.528C105.041 202.885 104.863 203.241 104.705 203.597C103.636 206.031 102.924 208.762 102.805 211.968C102.766 212.324 102.746 212.68 102.746 213.037C102.746 214.264 102.805 215.471 102.924 216.658C103.003 217.885 103.102 219.112 103.221 220.339C103.814 225.326 104.705 229.779 104.527 232.866C104.408 234.35 103.933 236.844 103.34 239.396C103.043 240.762 102.746 242.127 102.39 243.374C101.796 245.828 101.203 248.084 100.609 250.142C101.242 249.865 101.955 249.707 102.746 249.667C102.39 251.983 102.509 254.179 102.746 256.02C102.865 256.851 102.983 257.563 103.102 258.216C103.221 258.81 103.339 259.582 103.458 260.176C103.537 260.571 103.597 260.928 103.636 261.244C103.636 261.6 103.636 262.016 103.636 262.491C103.577 263.619 103.577 265.044 103.577 266.647C103.518 272.346 103.399 280.48 103.34 286.298C103.34 286.417 103.102 290.81 98.8285 295.916C98.591 296.193 98.3536 296.47 98.1161 296.747C98.1161 296.747 98.0964 296.767 98.0568 296.806C98.0568 296.806 98.0766 296.806 98.1161 296.806C97.7006 297.281 97.2852 297.756 96.929 298.29C96.8499 298.449 96.7509 298.607 96.6322 298.765V298.765Z" fill="#5FB0E7"/>
</g>
</g>
<g opacity="0.5">
<path opacity="0.5" d="M112.837 338.008C91.9433 338.008 75.0268 338.958 75.0268 340.086C75.0268 341.154 91.9433 342.104 112.837 342.104C133.73 342.104 150.646 341.154 150.646 340.086C150.646 338.958 133.73 338.008 112.837 338.008Z" fill="#00A4D6"/>
</g>
<path d="M124.766 329.875C125.083 334.03 125.36 336.266 125.597 336.583C125.954 337.117 128.921 336.998 129.159 336.049C129.357 335.257 129.376 333.061 129.218 329.459" fill="#FFE1BD"/>
<path d="M124.766 337.475C124.766 338.147 124.865 339.058 125.063 340.206H128.684L128.862 339.612C129.613 340.008 130.306 340.206 130.939 340.206H133.966C136.222 340.206 137.528 339.909 137.528 339.493C137.765 337.89 135.094 337.95 134.441 337.95C132.423 337.95 130.286 337 129.811 335.991C129.455 335.278 129.574 335.041 129.158 335.219C128.921 335.258 128.723 335.436 128.565 335.753C128.209 336.465 127.437 336.881 126.665 336.762C126.25 336.703 125.775 336.525 125.478 336.169C125.004 336.367 124.766 336.802 124.766 337.475V337.475Z" fill="#3A3A3A"/>
<path d="M88.8561 327.678C87.2732 330.726 86.5214 332.467 86.6006 332.902C86.7786 333.496 89.6871 334.565 90.1619 333.674C90.4389 333.081 90.9137 331.913 91.5864 330.172" fill="#FFE1BD"/>
<path d="M85.5322 333.378C85.2552 334.011 84.9387 334.941 84.5825 336.168L87.3129 337.831L87.8471 337.415C88.2429 338.088 88.7375 338.602 89.3311 338.959C89.9246 339.315 91.2898 339.908 92.0021 340.087C94.5544 340.621 96.4538 340.383 96.6912 340.027C97.5222 338.543 94.1983 337.771 93.5453 337.534C91.6459 336.762 90.815 334.981 90.7556 333.853C90.6963 333.081 90.9337 332.963 90.4588 332.903C89.9048 332.824 89.4695 333.2 89.153 334.031C89.0936 334.031 87.1349 333.675 86.66 332.428C86.1456 332.428 85.7697 332.745 85.5322 333.378V333.378Z" fill="#3A3A3A"/>
<path d="M127.972 266.291C129.238 255.882 129.772 248.599 129.574 244.443C128.862 244.641 126.962 244.641 123.876 244.443C119.958 244.166 115.566 242.939 110.699 240.762C104.467 246.758 105.654 254.417 106.366 258.217C106.524 259.008 106.702 260.018 106.9 261.244L127.972 266.291Z" fill="#594A5F"/>
<path d="M87.2536 328.924C89.153 330.072 90.7161 330.844 91.9428 331.24L92.4176 330.468C92.6946 329.914 93.0111 329.34 93.3672 328.746C93.3672 328.746 93.3672 328.707 93.3672 328.627C94.4357 326.846 95.5634 324.887 96.8099 322.869C96.8099 322.869 96.8099 322.849 96.8099 322.809C103.339 312.123 111.649 300.13 114.617 295.381L114.676 295.321C114.914 294.926 115.092 294.55 115.21 294.193C115.25 294.114 115.289 294.055 115.329 294.015C115.388 293.778 115.448 293.54 115.507 293.422C115.507 293.303 115.527 293.164 115.566 293.006C115.566 293.006 115.566 292.986 115.566 292.947C115.685 292.056 115.448 291.344 114.973 290.869C114.854 290.75 114.735 290.631 114.617 290.513C113.014 289.385 109.809 289.622 107.197 291.462C107.039 291.581 106.9 291.7 106.782 291.819C106.703 291.858 106.623 291.898 106.544 291.937C104.348 293.54 101.974 295.618 100.193 298.29C94.1982 307.373 90.6369 321.147 87.2536 328.924V328.924Z" fill="#594A5F"/>
<path d="M106.544 292.888C106.425 297.875 108.265 299.003 110.284 298.528C110.64 298.449 110.996 298.31 111.352 298.112C112.717 297.459 114.023 296.212 114.735 295.084C114.735 295.084 114.795 295.084 114.795 295.025C114.913 294.787 115.091 294.491 115.21 294.194C115.25 294.115 115.289 294.055 115.329 294.016C115.388 293.778 115.448 293.541 115.507 293.422C115.507 293.303 115.527 293.165 115.566 293.006C115.566 293.006 115.566 292.987 115.566 292.947C116.1 290.454 117.228 286.179 118.653 281.192C119.484 278.402 120.374 275.314 121.205 272.227C123.876 263.025 126.428 253.942 126.369 251.329C126.072 241.771 115.032 249.37 109.749 253.11C107.494 254.713 106.96 257.385 106.9 259.938C106.841 262.253 106.663 285.467 106.544 291.938C106.544 292.096 106.544 292.254 106.544 292.413C106.544 292.571 106.544 292.729 106.544 292.888V292.888Z" fill="#594A5F"/>
<path d="M106.604 286.297C106.445 289.582 104.684 293.085 101.321 296.805C106.188 295.341 108.76 294.47 109.037 294.193C109.453 293.778 111.293 289.088 111.233 288.553C111.194 288.197 109.651 287.445 106.604 286.297V286.297Z" fill="#594A5F"/>
<path d="M93.3666 328.627C94.435 326.846 95.5628 324.887 96.8093 322.869C96.8093 322.869 96.8093 322.849 96.8093 322.809C103.338 312.123 111.648 300.13 114.616 295.381L114.675 295.321C114.913 294.926 115.091 294.55 115.21 294.193C115.249 294.114 115.289 294.055 115.328 294.015C115.388 293.778 115.447 293.54 115.506 293.422C115.506 293.303 115.526 293.164 115.566 293.006C115.566 293.006 115.566 292.986 115.566 292.947C116.1 290.453 117.228 286.179 118.652 281.192L110.342 258.81H107.315C109.571 265.696 111.173 270.703 112.123 273.83C113.488 278.461 113.904 285.763 114.023 288.435C114.26 294.253 107.078 304.167 105.06 307.789C102.864 311.707 94.1382 327.143 93.3666 328.627V328.627Z" fill="#4C4051"/>
<path d="M124.707 333.793C124.826 333.793 124.964 333.793 125.123 333.793C127.141 333.833 128.743 333.714 129.931 333.437V332.606C129.634 319.07 131.177 297.044 131.474 290.038C131.474 289.563 131.415 285.348 131.474 284.933C131.593 278.936 125.538 284.28 123.401 289.029C122.887 290.098 122.471 291.305 122.155 292.651C121.739 294.194 121.739 295.916 121.383 297.697C119.068 308.265 123.758 325.125 124.707 333.793V333.793Z" fill="#594A5F"/>
<path d="M110.402 261.185C110.402 261.303 120.315 285.942 122.273 291.285C122.57 292.057 123.461 292.65 124.648 292.947C127.319 293.6 131.236 292.472 131.414 287.188C131.454 286.595 131.434 285.961 131.355 285.288C130.939 281.014 129.396 257.266 129.159 255.01C128.921 252.695 128.387 249.37 127.2 249.014C121.086 247.055 108.622 252.636 110.402 261.185V261.185Z" fill="#594A5F"/>
<path d="M120.73 287.07C122.095 293.363 122.095 291.819 121.502 296.509C121.145 299.557 121.64 298.231 122.986 292.532L121.739 289.326L120.73 287.07Z" fill="#594A5F"/>
<path d="M148.449 223.308C148.805 222.952 149.458 222.952 149.874 223.07C150.23 223.248 150.586 223.486 150.705 223.605C151.061 223.842 151.714 224.673 152.129 224.792C152.446 224.871 152.664 224.851 152.782 224.733C151.991 223.862 151.575 223.407 151.536 223.367C151.417 223.308 150.527 222.714 150.408 222.655C150.408 222.655 150.388 222.655 150.349 222.655V222.358C150.072 222.239 149.894 222.14 149.814 222.061C149.735 221.982 149.241 222.021 148.331 222.18C148.054 223.288 148.093 223.664 148.449 223.308Z" fill="#F4D4B3"/>
<path d="M141.149 222.536C143.641 222.971 145.145 223.209 145.66 223.248C146.372 223.367 146.728 223.426 147.025 223.723C147.381 223.961 148.153 224.376 149.162 224.554C150.171 224.732 150.23 224.376 150.171 224.198C150.111 223.961 149.399 223.901 149.102 223.723C148.805 223.486 148.627 223.129 148.984 222.892C149.34 222.655 149.993 222.595 150.824 223.189C151.833 223.961 153.139 225.563 153.613 225.207C153.851 225.089 153.079 224.139 152.129 223.129C151.061 222.239 149.874 221.111 149.28 221.052C148.153 220.933 146.075 221.17 145.303 221.052C144.829 220.972 143.78 220.676 142.158 220.161" fill="#FFE1BD"/>
<path d="M126.369 216.421L127.14 222.773L127.2 223.426C127.398 223.426 127.595 223.446 127.793 223.486C128.802 223.486 129.752 223.545 130.761 223.545C135.549 223.664 140.476 223.703 145.541 223.664L146.016 220.814C139.249 218.855 132.542 217.49 128.921 216.836C127.853 216.639 127.002 216.5 126.369 216.421V216.421Z" fill="#F9B253"/>
<path d="M157.709 226.276L158.006 226.395C158.362 226.514 158.837 226.335 158.956 225.92L166.85 204.072C166.969 203.656 166.791 203.241 166.375 203.122L166.079 203.003C165.663 202.885 165.247 203.063 165.129 203.419L157.234 225.326C157.116 225.682 157.294 226.098 157.709 226.276V226.276Z" fill="#1C44B5"/>
<path d="M133.136 227.167H157.947C158.481 227.167 158.837 226.751 158.837 226.276V226.158C158.837 225.683 158.481 225.267 157.947 225.267H133.136C132.661 225.267 132.245 225.683 132.245 226.158V226.276C132.245 226.751 132.661 227.167 133.136 227.167Z" fill="#1C44B5"/>
<path d="M126.369 216.421L127.141 222.773C127.339 223.011 127.556 223.248 127.794 223.486C128.803 223.486 129.753 223.545 130.762 223.545C130.287 220.873 129.278 217.786 128.922 216.836C127.853 216.639 127.003 216.5 126.369 216.421V216.421Z" fill="#F29127"/>
<path d="M103.874 250.142C107.138 248.777 112.005 250.261 121.146 252.517C127.28 254.021 130.999 254.081 132.305 252.695C131.949 251.983 132.008 243.849 130.999 233.757C130.821 231.56 130.524 229.304 130.168 226.989C128.803 217.668 126.37 207.753 121.74 200.866C120.236 198.61 117.328 196.928 113.014 195.82C109.512 200.154 106.01 205.319 106.01 213.037C106.01 220.814 108.088 228.354 107.791 232.866C107.593 235.834 106.287 241.593 103.874 250.142V250.142Z" fill="#F9B253"/>
<path d="M123.164 233.637C125.004 233.875 127.794 233.934 130.999 233.756C130.821 231.56 130.524 229.304 130.168 226.988H129.871C128.209 226.929 126.725 225.801 126.31 224.138C125.657 221.823 124.648 218.202 123.105 213.393C121.245 207.654 119.365 204.665 117.466 204.428C114.656 203.003 113.192 203.814 113.073 206.862C112.895 211.315 117.763 232.984 123.164 233.637V233.637Z" fill="#F29127"/>
<path d="M112.599 258.395C112.678 258.276 112.48 256.99 112.005 254.536L107.91 252.577L106.01 256.02C107.197 259.582 108.82 261.739 110.877 262.491C111.906 259.879 112.48 258.513 112.599 258.395Z" fill="#594A5F"/>
<path d="M148.924 229.007C149.241 229.007 149.656 229.007 150.171 229.007C151.358 229.007 152.308 229.185 152.842 229.303C153.237 229.422 153.653 229.442 154.088 229.363C154.979 229.125 156.522 228.828 157.175 228.472C158.481 227.819 158.54 227.582 159.133 226.869C159.648 226.236 159.925 225.702 159.964 225.266C160.083 224.613 159.49 224.91 158.54 225.92C158.382 226.078 158.223 226.236 158.065 226.394C158.006 226.454 157.412 226.81 156.997 226.869H156.106C155.513 226.869 155.295 226.81 155.453 226.691C156.522 226.533 157.155 226.335 157.353 226.098C157.531 225.741 157.234 225.148 155.81 225.445C154.444 225.682 153.257 226.216 152.307 226.335C151.635 226.414 150.626 226.375 149.28 226.216L148.984 228.472C148.093 228.769 147.144 229.185 148.924 229.007V229.007Z" fill="#FFE1BD"/>
<path d="M113.192 205.141C112.955 207.575 118.237 231.204 123.639 231.857C126.488 232.213 131.83 232.213 137.291 231.441C140.931 230.887 145.383 230.333 150.646 229.779L150.527 225.801L130.346 225.267C128.625 225.207 127.2 224.02 126.725 222.417C126.132 220.102 125.123 216.421 123.58 211.612C121.72 205.873 119.84 202.885 117.941 202.647C115.052 201.816 113.469 202.647 113.192 205.141V205.141Z" fill="#F9B253"/>
<path d="M127.082 177.356C126.725 177.297 118.416 175.753 118.119 175.872C117.822 175.99 113.608 180.918 113.074 186.321C112.48 191.723 116.279 193.564 116.991 193.623C120.196 195.345 123.995 196.71 125.954 195.82C127.853 193.861 129.159 190.951 129.99 187.924C129.99 187.271 129.812 186.499 129.99 185.786C130.049 185.549 130.465 185.311 130.584 185.193C131.375 184.005 131.593 183.055 131.237 182.343C128.664 179.058 127.279 177.396 127.082 177.356V177.356Z" fill="#FFD1AB"/>
<path d="M119.247 184.421C120.711 184.104 121.463 182.976 121.502 181.037C121.621 178.187 121.977 178.068 123.758 179.671C125.479 181.274 137.35 187.567 138.359 174.269C137.054 174.744 133.73 174.031 130.584 172.547C128.981 171.775 121.977 165.601 117.347 171.241C115.092 170.825 111.946 172.844 111.056 178.009C110.225 183.174 112.124 190.358 113.905 191.07C115.092 191.604 115.685 190.417 116.101 187.924C116.279 186.677 112.955 184.183 116.457 181.037C117.881 180.027 120.909 181.809 119.247 184.421V184.421Z" fill="#2C1E56"/>
<path d="M113.904 191.07C114.141 193.563 113.805 195.206 112.895 195.997C114.28 197.699 116.575 198.669 119.78 198.906C119.028 197.759 119.464 195.681 121.086 192.673C122.709 189.625 120.315 189.091 113.904 191.07Z" fill="#FFD1AB"/>
<path d="M120.434 199.382C120.474 198.155 120.474 197.284 120.434 196.769C117.348 195.701 115.072 195.028 113.608 194.751C113.133 195.068 112.757 195.661 112.48 196.532C115.527 198.076 118.179 199.025 120.434 199.382V199.382Z" fill="#F9B253"/>
<path d="M127.971 191.664C129.356 192.021 130.148 191.922 130.346 191.368C130.544 190.814 130.385 189.389 129.871 187.093L127.971 191.664Z" fill="#FFD1AB"/>
<g style="mix-blend-mode:multiply">
<g style="mix-blend-mode:multiply">
<path d="M55.1418 164.711H156.344C158.184 164.711 159.668 163.226 159.668 161.386V116.384C159.668 114.544 158.184 113.06 156.344 113.06H55.1418C53.3018 113.06 51.8178 114.544 51.8178 116.384V161.386C51.8178 163.226 53.3018 164.711 55.1418 164.711Z" fill="#5FB0E7"/>
</g>
</g>
<path d="M54.1919 114.009V159.07C54.1919 160.851 55.6758 162.336 57.5159 162.336H158.718C160.558 162.336 162.042 160.851 162.042 159.07V114.009C162.042 112.169 160.558 110.685 158.718 110.685H57.5159C55.6758 110.685 54.1919 112.169 54.1919 114.009Z" fill="white"/>
<path d="M54.1919 114.009V120.48H162.042V114.009C162.042 112.169 160.558 110.685 158.718 110.685H57.5159C55.6758 110.685 54.1919 112.169 54.1919 114.009V114.009Z" fill="#AEC1FF"/>
<g opacity="0.5">
<path opacity="0.5" d="M58.4664 125.943V156.993H157.947V147.078C153.97 141.557 148.45 137.935 135.926 145.356C123.817 152.481 123.877 129.505 110.106 130.692C96.3356 131.88 92.6555 152.481 81.9714 136.748C74.8091 126.259 66.9741 122.658 58.4664 125.943V125.943Z" fill="#AEC1FF"/>
</g>
<path opacity="0.5" d="M138.359 127.07H157.946V125.764H138.359V127.07Z" fill="#AEC1FF"/>
<path opacity="0.5" d="M124.826 129.445H157.946V128.139H124.826V129.445Z" fill="#AEC1FF"/>
<path opacity="0.5" d="M133.076 131.82H157.946V130.514H133.076V131.82Z" fill="#AEC1FF"/>
<path opacity="0.5" d="M127.971 134.195H157.946V132.889H127.971V134.195Z" fill="#AEC1FF"/>
<path opacity="0.5" d="M138.359 136.569H157.946V135.263H138.359V136.569Z" fill="#AEC1FF"/>
<g style="mix-blend-mode:multiply">
<g style="mix-blend-mode:multiply">
<path d="M303.963 97.0889C308.474 109.26 320.227 117.987 334.057 117.987C347.827 117.987 359.58 109.26 364.091 97.0889H303.963Z" fill="#5FB0E7"/>
</g>
</g>
<path d="M337.261 83.5525L367.652 93.9421C368.779 90.6768 369.373 87.174 369.373 83.5525C369.373 76.7251 367.236 70.432 363.615 65.2075L337.261 83.5525Z" fill="#18BDF7"/>
<path d="M300.639 80.5844C300.639 88.9554 303.844 96.5547 309.127 102.313L332.691 80.5844V48.4658C315.003 48.4658 300.639 62.8331 300.639 80.5844Z" fill="#18BDF7"/>
<path d="M337.262 83.5537L363.616 65.2087C357.858 56.897 348.183 51.4351 337.262 51.4351V83.5537Z" fill="#F9B253"/>
<path d="M337.261 83.5527L313.697 105.282C319.573 111.634 327.942 115.612 337.261 115.612C339.319 115.612 341.317 115.414 343.256 115.018L337.261 83.5527Z" fill="#B8ECFF"/>
<path d="M337.261 83.5527L343.256 115.018C354.652 112.881 363.912 104.688 367.651 93.9423L337.261 83.5527Z" fill="#15A7CE"/>
<g style="mix-blend-mode:multiply">
<g style="mix-blend-mode:multiply">
<path d="M350.854 169.163V182.64C350.854 183.827 351.804 184.777 352.991 184.777H356.552C356.236 187.35 355.365 188.775 353.941 189.052C359.105 189.052 360.114 186.202 360.292 184.777H395.727C396.915 184.777 397.864 183.827 397.864 182.64V169.163C397.864 167.976 396.915 167.026 395.727 167.026H352.991C351.804 167.026 350.854 167.976 350.854 169.163V169.163Z" fill="#5FB0E7"/>
</g>
</g>
<path d="M351.685 168.095V181.572C351.685 182.759 352.635 183.709 353.762 183.709H357.324C357.047 186.282 356.196 187.706 354.772 187.983C359.936 187.983 360.885 185.134 361.063 183.709H396.558C397.686 183.709 398.636 182.759 398.636 181.572V168.095C398.636 166.907 397.686 165.958 396.558 165.958H353.762C352.635 165.958 351.685 166.907 351.685 168.095Z" fill="#EBFAFF"/>
<path d="M354.059 169.46H396.618C396.974 169.46 397.271 169.163 397.271 168.806V168.272C397.271 167.916 396.974 167.619 396.618 167.619H354.059C353.703 167.619 353.406 167.916 353.406 168.272V168.806C353.406 169.163 353.703 169.46 354.059 169.46Z" fill="#B2EBF9"/>
<path d="M354.059 172.547H396.618C396.974 172.547 397.271 172.251 397.271 171.894V171.36C397.271 171.004 396.974 170.707 396.618 170.707H354.059C353.703 170.707 353.406 171.004 353.406 171.36V171.894C353.406 172.251 353.703 172.547 354.059 172.547Z" fill="#B2EBF9"/>
<path d="M354.059 175.634H396.618C396.974 175.634 397.271 175.337 397.271 174.981V174.446C397.271 174.09 396.974 173.793 396.618 173.793H354.059C353.703 173.793 353.406 174.09 353.406 174.446V174.981C353.406 175.337 353.703 175.634 354.059 175.634Z" fill="#B2EBF9"/>
<path d="M354.059 178.721H396.618C396.974 178.721 397.271 178.424 397.271 178.068V177.534C397.271 177.178 396.974 176.881 396.618 176.881H354.059C353.703 176.881 353.406 177.178 353.406 177.534V178.068C353.406 178.424 353.703 178.721 354.059 178.721Z" fill="#B2EBF9"/>
<path d="M354.059 181.809H396.618C396.974 181.809 397.271 181.512 397.271 181.156V180.621C397.271 180.265 396.974 179.968 396.618 179.968H354.059C353.703 179.968 353.406 180.265 353.406 180.621V181.156C353.406 181.512 353.703 181.809 354.059 181.809Z" fill="#B2EBF9"/>
<g style="mix-blend-mode:multiply">
<g style="mix-blend-mode:multiply">
<path d="M104.408 173.735H61.6712C60.4841 173.735 59.5343 174.685 59.5343 175.872V189.349C59.5343 190.536 60.4841 191.486 61.6712 191.486H97.1068C97.2849 192.911 98.2939 195.761 103.399 195.761C102.014 195.484 101.163 194.059 100.846 191.486H104.408C105.595 191.486 106.544 190.536 106.544 189.349V175.872C106.544 174.685 105.595 173.735 104.408 173.735Z" fill="#5FB0E7"/>
</g>
</g>
<path d="M103.576 172.666H60.8397C59.712 172.666 58.7029 173.615 58.7029 174.803V188.28C58.7029 189.467 59.712 190.417 60.8397 190.417H96.2753C96.4533 191.842 97.4624 194.691 102.626 194.691C101.202 194.414 100.351 192.989 100.074 190.417H103.576C104.763 190.417 105.713 189.467 105.713 188.28V174.803C105.713 173.615 104.763 172.666 103.576 172.666V172.666Z" fill="#EBFAFF"/>
<path d="M73.6606 187.507V175.575C73.6606 174.981 73.1858 174.565 72.6516 174.565H61.1366C60.6023 174.565 60.1275 174.981 60.1275 175.575V187.507C60.1275 188.042 60.6023 188.517 61.1366 188.517H72.6516C73.1858 188.517 73.6606 188.042 73.6606 187.507Z" fill="#80D4DD"/>
<path d="M103.873 175.812V175.04C103.873 174.803 103.636 174.565 103.398 174.565H75.9756C75.7382 174.565 75.5008 174.803 75.5008 175.04V175.812C75.5008 176.05 75.7382 176.287 75.9756 176.287H103.398C103.636 176.287 103.873 176.05 103.873 175.812Z" fill="#80D4DD"/>
<path d="M97.7002 178.899V178.068C97.7002 177.831 97.4627 177.593 97.2253 177.593H75.9165C75.6791 177.593 75.501 177.831 75.501 178.068V178.899C75.501 179.137 75.6791 179.374 75.9165 179.374H97.2253C97.4627 179.374 97.7002 179.137 97.7002 178.899Z" fill="#80D4DD"/>
<path d="M103.873 181.868V181.155C103.873 180.859 103.636 180.621 103.398 180.621H75.9756C75.7382 180.621 75.5008 180.859 75.5008 181.155V181.868C75.5008 182.165 75.7382 182.402 75.9756 182.402H103.398C103.636 182.402 103.873 182.165 103.873 181.868Z" fill="#80D4DD"/>
<path d="M101.558 184.955V184.183C101.558 183.945 101.38 183.708 101.083 183.708H75.9751C75.6783 183.708 75.5002 183.945 75.5002 184.183V184.955C75.5002 185.252 75.6783 185.43 75.9751 185.43H101.083C101.38 185.43 101.558 185.252 101.558 184.955Z" fill="#80D4DD"/>
<path d="M86.3633 188.161V187.093C86.3633 186.914 86.1852 186.736 86.0072 186.736H75.7978C75.6198 186.736 75.5011 186.914 75.5011 187.093V188.161C75.5011 188.339 75.6198 188.517 75.7978 188.517H86.0072C86.1852 188.517 86.3633 188.339 86.3633 188.161Z" fill="#80D4DD"/>
<path d="M183.945 97.0886H227.097C227.057 96.6928 226.919 96.1783 226.681 95.545C225.553 92.9923 221.577 87.768 207.153 85.3933L200.03 83.9685C189.069 83.929 183.707 88.3023 183.945 97.0886Z" fill="#F9B253"/>
<path d="M198.25 97.0894H227.097C227.057 96.6936 226.919 96.1791 226.681 95.5459C225.613 95.249 224.248 95.249 223.239 95.5459C222.526 95.7438 221.933 95.9021 221.458 96.0208C211.407 96.0208 205.155 96.0208 202.701 96.0208C200.287 96.0208 198.804 96.377 198.25 97.0894Z" fill="#F29127"/>
<path d="M201.573 76.6665C201.059 80.6243 200.366 83.2562 199.496 84.5623C199.219 87.1744 201.177 88.5992 205.372 88.8367C206.5 88.9554 207.568 88.1242 207.805 86.9963C208.043 86.1652 208.34 85.2153 208.814 84.5623" fill="#FFE1BD"/>
<path d="M220.33 65.5049C217.955 71.2437 217.955 74.1526 220.33 74.2318C222.664 74.3109 223.753 71.7186 223.594 66.4548L220.33 65.5049Z" fill="#2C1E56"/>
<path d="M202.405 75.1817C202.346 76.3691 202.286 77.4377 202.345 78.1502C202.385 78.2689 202.405 78.3876 202.405 78.5064C202.444 78.5855 202.464 78.6845 202.464 78.8032C203.355 82.1872 207.628 86.9961 210.655 87.4117C211.051 87.4117 211.447 87.4117 211.842 87.4117C215.997 87.2336 218.49 83.7902 219.856 80.1093C219.935 79.9906 219.994 79.8719 220.034 79.7531C221.28 76.3097 221.696 72.8663 221.814 71.6196C221.814 71.3227 221.992 68.2355 221.399 67.2856C220.746 66.2764 212.436 65.3265 212.258 65.2671C212.139 65.2671 209.429 65.465 204.126 65.8608C203.256 69.4229 202.682 72.5299 202.405 75.1817V75.1817Z" fill="#FFE1BD"/>
<path d="M201.158 75.0634C201.039 76.2507 201.158 77.2006 201.217 77.9723C201.257 78.0911 201.277 78.2098 201.277 78.3286C201.87 81.7124 205.966 86.9367 210.655 87.4116C211.011 87.4512 211.347 87.471 211.664 87.471C216.709 87.7085 218.49 83.8496 219.855 80.1095C219.934 79.9908 219.994 79.8721 220.033 79.7533C218.846 81.6135 217.976 82.5634 217.422 82.603C216.531 82.7217 217.6 81.5937 215.225 80.7032C213.741 80.1095 211.427 80.1689 210.358 80.2876C209.349 80.4064 207.568 80.9407 206.975 81C206.817 81.0396 206.698 81.0396 206.619 81C205.788 80.5251 203.71 77.3193 203.413 75.5383C203.295 74.8259 201.811 74.9447 201.158 75.0634V75.0634Z" fill="#2C1E56"/>
<path d="M224.722 58.3217C224.722 58.1436 221.636 60.3402 215.7 58.6185C211.783 57.4707 208.993 57.5895 207.331 58.9747C205.748 58.8956 204.304 59.7663 202.998 61.587C201.039 64.3179 201.099 75.8355 201.158 76.6667C201.198 77.5374 202.187 77.8541 204.126 77.6166C202.464 73.6982 202.444 71.5808 204.066 71.2641C207.153 70.6704 204.719 76.0136 205.61 76.3699C206.322 76.6073 206.441 73.5201 208.459 67.1083C209.824 66.3365 212.258 66.9895 214.988 67.6426C221.636 69.2654 225.039 68.0582 225.197 64.0211C225.613 60.1621 224.663 58.4998 224.722 58.3217V58.3217Z" fill="#2C1E56"/>
<g style="mix-blend-mode:multiply">
<g style="mix-blend-mode:multiply">
<path d="M183.944 97.0889C184.261 104.015 185.844 109.675 188.693 114.068V114.128C188.732 114.167 188.772 114.207 188.812 114.246C188.851 114.326 188.891 114.385 188.93 114.425C190.236 116.384 197.3 126.892 201.929 131.048C205.293 134.135 208.894 137.42 212.732 140.903L212.97 140.725C213.682 141.437 214.453 142.209 214.632 142.506C215.047 143.219 215.403 145.831 216.175 146.128C216.234 146.187 216.412 146.187 216.531 146.187C216.768 146.424 217.184 146.662 217.599 146.662C218.43 146.84 219.617 146.543 219.914 146.424C220.211 146.662 220.448 147.018 220.983 147.256C221.992 147.79 223.001 148.502 223.832 148.799C224.663 149.037 224.781 148.799 224.603 148.265C224.425 147.731 222.823 146.84 222.288 146.365C221.695 145.95 220.745 144.703 220.389 143.872C220.033 143.1 220.033 142.684 220.389 142.684C220.745 142.684 221.814 143.337 222.645 143.515C223.476 143.693 223.891 143.515 223.476 143.04C223.119 142.506 221.932 141.141 220.567 140.784C219.202 140.428 218.786 140.428 217.837 139.656C217.362 139.3 216.768 138.528 216.294 137.816L216.65 137.519C210.595 129.089 205.313 121.608 200.802 115.078C200.623 114.9 200.505 114.721 200.327 114.484C196.469 106.766 196.112 100.592 196.172 98.2169C196.449 97.6232 196.825 97.2472 197.3 97.0889H183.944Z" fill="#5FB0E7"/>
</g>
</g>
<path d="M212.258 139.182C214.197 140.923 215.305 142.031 215.582 142.506C215.938 143.219 216.353 145.831 217.125 146.128C217.184 146.187 217.303 146.187 217.422 146.187C217.719 146.425 218.134 146.603 218.55 146.662C219.38 146.84 220.568 146.543 220.864 146.425C221.161 146.662 221.399 147.018 221.933 147.256C222.942 147.79 223.951 148.502 224.782 148.799C225.613 149.037 225.732 148.799 225.554 148.265C225.375 147.731 223.773 146.84 223.239 146.425C222.645 145.95 221.695 144.703 221.339 143.931C220.983 143.1 220.983 142.684 221.339 142.684C221.695 142.684 222.764 143.337 223.595 143.516C224.426 143.694 224.841 143.516 224.426 142.981C224.01 142.506 222.883 141.141 221.517 140.785C220.152 140.429 219.737 140.429 218.787 139.657C218.154 139.182 217.343 138.093 216.353 136.392L212.258 139.182Z" fill="#FFE1BD"/>
<path d="M189.761 114.246C189.801 114.325 189.84 114.385 189.88 114.424C191.186 116.324 198.249 126.892 202.819 131.048C206.183 134.135 209.804 137.42 213.682 140.903L217.599 137.519C211.545 129.088 206.262 121.608 201.751 115.077C201.573 114.899 201.454 114.662 201.276 114.484C197.418 106.706 197.062 100.591 197.062 98.1572C197.378 97.6031 197.774 97.2469 198.249 97.0885L196.943 92.814C194.925 93.566 193.342 94.1992 192.195 94.7138L189.405 93.3483L183.944 97.0885C184.894 104.015 186.793 109.675 189.642 114.068C189.682 114.147 189.721 114.207 189.761 114.246V114.246Z" fill="#F9B253"/>
<g style="mix-blend-mode:multiply">
<g style="mix-blend-mode:multiply">
<path d="M219.855 99.6416C219.895 99.6416 219.954 99.6416 220.034 99.6416C219.855 99.8197 219.737 99.9385 219.677 99.9978C219.598 100.117 219.578 100.216 219.618 100.295C219.855 100.473 220.034 100.473 220.271 100.473C220.429 100.433 220.607 100.354 220.805 100.235C220.983 100.413 221.161 100.354 221.399 100.354C221.636 100.354 221.992 100.057 222.348 99.6416C222.309 99.7208 222.309 99.7999 222.348 99.8791C222.586 100.057 222.764 100.057 223.061 100.057C223.298 99.9978 223.654 99.7604 224.07 99.2854C224.248 99.1667 224.426 98.9292 224.663 98.6324C224.861 98.5137 225.039 98.3949 225.197 98.2762C225.494 98.0387 225.85 98.0387 225.969 98.0387C226.009 98.0387 226.028 98.0387 226.028 98.0387V97.9794C228.047 97.9794 228.996 97.0889 231.489 97.0889H220.152C220.152 97.0889 220.172 97.1087 220.212 97.1482C220.33 97.1482 220.627 97.2076 220.924 97.267C220.884 97.267 220.865 97.2868 220.865 97.3263C220.706 97.4846 220.548 97.6429 220.39 97.8013C219.974 98.3356 219.381 99.048 219.262 99.1667C219.143 99.2854 219.123 99.3844 219.203 99.4635C219.381 99.701 219.618 99.6416 219.855 99.6416V99.6416Z" fill="#5FB0E7"/>
</g>
</g>
<path d="M220.33 99.6412C220.369 99.6412 220.429 99.6412 220.508 99.6412C220.33 99.8193 220.211 99.9381 220.151 99.9974C220.072 100.116 220.053 100.215 220.092 100.294C220.33 100.472 220.508 100.472 220.745 100.472C220.903 100.433 221.081 100.354 221.279 100.235C221.457 100.413 221.635 100.354 221.873 100.354C222.11 100.354 222.466 100.057 222.823 99.6412C222.823 99.7204 222.823 99.7995 222.823 99.8787C223.06 100.057 223.238 100.057 223.535 100.057C223.772 99.9974 224.128 99.76 224.544 99.285C224.722 99.1663 224.9 98.9288 225.137 98.632C225.335 98.5133 225.513 98.3945 225.672 98.2758C225.968 98.0383 226.325 98.0383 226.443 98.0383C226.483 98.0383 226.503 98.0383 226.503 98.0383V97.979C228.58 97.979 229.47 97.0885 231.963 97.0885C228.085 95.1887 224.959 94.9117 222.585 96.2573C222.229 96.3167 221.517 96.4354 221.101 96.4354C220.092 96.4354 220.389 96.9697 220.686 97.1478C220.804 97.1478 221.101 97.2072 221.398 97.2666C221.358 97.2666 221.339 97.2864 221.339 97.3259C221.18 97.4842 221.042 97.6425 220.923 97.8009C220.448 98.3352 219.855 99.0476 219.736 99.1663C219.617 99.285 219.598 99.384 219.677 99.4631C219.855 99.7006 220.092 99.6412 220.33 99.6412V99.6412Z" fill="#FFE1BD"/>
<path style="mix-blend-mode:multiply" opacity="0.5" d="M220.685 97.1483C220.804 97.1483 221.101 97.2077 221.398 97.267C221.952 96.7129 222.347 96.3765 222.585 96.2578C222.229 96.3172 221.516 96.4359 221.101 96.4359C220.092 96.4359 220.388 96.9702 220.685 97.1483Z" fill="url(#paint3_linear_300_761)"/>
<path d="M31.9925 339.907C31.9925 341.154 40.7179 342.104 51.4613 342.104C62.2048 342.104 70.9302 341.154 70.9302 339.907C70.9302 339.076 66.7752 338.364 60.6615 338.008L60.3647 339.195C60.1867 339.67 59.7712 340.026 59.237 340.026H44.9321C44.3979 340.026 43.9824 339.67 43.8044 339.195L43.5076 337.948C36.6816 338.245 31.9925 339.017 31.9925 339.907V339.907Z" fill="#00A4D6"/>
<path d="M59.2371 314.023C59.6724 309.393 62.9568 305.929 69.0903 303.634C75.1842 301.338 80.4075 301.556 84.7603 304.287C84.1667 298.667 81.4364 295.995 76.5691 296.272C71.7415 296.509 68.8529 298.192 67.9032 301.318C65.2915 298.587 62.8381 298.231 60.543 300.25C58.6436 301.912 57.8324 304.425 58.1094 307.79C56.3287 307.987 55.557 309.531 55.7945 312.42C55.834 312.974 55.9132 313.469 56.0319 313.905" fill="#61C5F2"/>
<path opacity="0.6" d="M59.2371 314.023C59.6724 309.393 62.9568 305.929 69.0903 303.634C75.1842 301.338 80.4075 301.556 84.7603 304.287C84.1667 298.667 81.4364 295.995 76.5691 296.272C71.7415 296.509 68.8529 298.192 67.9032 301.318C65.2915 298.587 62.8381 298.231 60.543 300.25C58.6436 301.912 57.8324 304.425 58.1094 307.79C56.3287 307.987 55.557 309.531 55.7945 312.42C55.834 312.974 55.9132 313.469 56.0319 313.905" fill="url(#paint4_linear_300_761)"/>
<path d="M54.1325 313.964C54.2513 292.176 65.1728 282.498 65.2915 282.439L64.9947 282.023C64.876 282.142 53.7764 291.938 53.6577 313.964H54.1325Z" fill="#39A7D8"/>
<path d="M64.6983 282.617C66.202 282.776 67.4089 282.499 68.319 281.786C69.0313 281.252 69.15 280.243 68.6158 279.53C68.0222 278.818 67.0131 278.699 66.3602 279.293C65.4105 280.005 64.8565 281.113 64.6983 282.617V282.617Z" fill="#39A7D8"/>
<path d="M63.8081 283.508C63.9268 285.052 64.4214 286.199 65.292 286.951C65.9449 287.545 66.9539 287.426 67.5474 286.773C68.141 286.12 68.0817 285.111 67.3694 284.517C66.4989 283.726 65.3117 283.389 63.8081 283.508Z" fill="#39A7D8"/>
<path d="M63.8677 283.567C63.6303 282.063 63.0565 280.955 62.1463 280.242C61.4341 279.708 60.425 279.886 59.8908 280.599C59.3566 281.311 59.4753 282.32 60.1876 282.854C61.1373 283.567 62.364 283.804 63.8677 283.567Z" fill="#39A7D8"/>
<path d="M60.4844 287.96C60.801 289.464 61.4341 290.533 62.3838 291.166C63.1554 291.641 64.1051 291.463 64.6393 290.75C65.1141 289.979 64.936 289.029 64.2238 288.494C63.2345 287.822 61.9881 287.643 60.4844 287.96Z" fill="#39A7D8"/>
<path d="M60.6025 287.959C60.1673 286.495 59.455 285.466 58.4657 284.872C57.6941 284.457 56.685 284.694 56.2695 285.466C55.7946 286.238 56.0914 287.247 56.863 287.662C57.8919 288.256 59.1384 288.355 60.6025 287.959Z" fill="#39A7D8"/>
<path d="M51.2837 313.964C53.7767 284.755 40.3028 270.388 40.1247 270.209L39.6498 270.684C39.7685 270.863 53.1237 284.992 50.5714 313.905L51.2837 313.964Z" fill="#258BAF"/>
<path d="M38.6405 266.409C37.8095 265.578 36.4443 265.638 35.6133 266.469C34.8417 267.359 34.8417 268.725 35.732 269.496C36.84 270.565 38.4228 271.08 40.4805 271.04C40.4013 269.061 39.788 267.518 38.6405 266.409V266.409Z" fill="#258BAF"/>
<path d="M36.6227 273.237C35.673 273.89 35.4357 275.255 36.1479 276.205C36.8009 277.155 38.166 277.392 39.1157 276.739C40.3424 275.829 41.1536 274.365 41.5493 272.346C39.5708 272.03 37.9286 272.326 36.6227 273.237Z" fill="#258BAF"/>
<path d="M46.3571 271.871C47.3661 271.277 47.7222 269.971 47.0693 268.962C46.4758 267.953 45.17 267.597 44.1609 268.25C42.8551 269.041 41.9449 270.426 41.4305 272.405C43.3694 272.88 45.0117 272.702 46.3571 271.871Z" fill="#258BAF"/>
<path d="M40.3617 278.936C39.3527 279.471 38.9372 280.777 39.5307 281.845C40.1243 282.854 41.4301 283.27 42.4392 282.676C43.7846 281.924 44.7541 280.579 45.3477 278.639C43.4087 278.046 41.7467 278.145 40.3617 278.936Z" fill="#258BAF"/>
<path d="M50.2153 278.699C51.2837 278.224 51.7586 276.977 51.2837 275.909C50.7495 274.781 49.503 274.365 48.4346 274.84C47.0496 275.473 45.9812 276.74 45.2294 278.639C47.1288 279.352 48.7907 279.372 50.2153 278.699Z" fill="#258BAF"/>
<path d="M43.1518 285.467C42.0834 285.942 41.5491 287.248 42.024 288.317C42.4988 289.385 43.8047 289.86 44.8731 289.385C46.2581 288.791 47.3463 287.545 48.1377 285.645C46.2779 284.893 44.6159 284.834 43.1518 285.467V285.467Z" fill="#258BAF"/>
<path d="M52.9456 286.179C54.0734 285.764 54.667 284.577 54.2515 283.449C53.836 282.321 52.6488 281.727 51.521 282.143C50.0965 282.657 48.9292 283.825 48.0191 285.645C49.7998 286.516 51.4419 286.694 52.9456 286.179V286.179Z" fill="#258BAF"/>
<path d="M45.1704 291.463C43.9833 291.76 43.3304 292.947 43.6272 294.075C43.8646 295.203 45.0517 295.916 46.1794 295.619C47.6831 295.263 48.9692 294.214 50.0376 292.472C48.3361 291.443 46.7137 291.107 45.1704 291.463Z" fill="#258BAF"/>
<path d="M54.7269 293.778C55.9141 293.6 56.6857 292.472 56.4483 291.344C56.2702 290.156 55.1425 289.385 53.9553 289.563C52.4516 289.84 51.1062 290.809 49.9191 292.472C51.5415 293.619 53.1441 294.055 54.7269 293.778Z" fill="#258BAF"/>
<path d="M46.2383 298.053C45.0512 298.231 44.2202 299.359 44.3983 300.487C44.5763 301.674 45.7041 302.505 46.8319 302.327C48.3752 302.09 49.7601 301.16 50.9868 299.537C49.3644 298.31 47.7816 297.815 46.2383 298.053Z" fill="#258BAF"/>
<path d="M55.4984 301.319C56.6856 301.2 57.5759 300.191 57.4571 299.003C57.3978 297.816 56.3888 296.926 55.2017 297.044C53.6584 297.163 52.214 297.994 50.8686 299.538C52.3723 300.844 53.9156 301.437 55.4984 301.319V301.319Z" fill="#258BAF"/>
<path d="M46.5352 306.602C45.3481 306.78 44.5765 307.849 44.7545 309.036C44.9326 310.223 46.001 310.995 47.1881 310.817C48.6918 310.579 50.057 309.649 51.2837 308.027C49.6613 306.839 48.0785 306.364 46.5352 306.602Z" fill="#258BAF"/>
<path d="M55.8543 309.808C56.9821 309.749 57.8725 308.68 57.8131 307.493C57.6944 306.306 56.6853 305.474 55.4982 305.534C53.955 305.652 52.5106 306.484 51.1652 308.027C52.7084 309.333 54.2715 309.927 55.8543 309.808V309.808Z" fill="#258BAF"/>
<path d="M48.5531 314.023C51.2044 305.434 49.7601 300.487 44.2202 299.181C43.9432 287.663 39.7091 283.349 31.5179 286.238C30.3308 281.766 27.363 279.629 22.6145 279.827C17.866 280.024 15.5907 282.419 15.7886 287.01C11.4358 287.683 9.2594 289.84 9.2594 293.481C30.588 287.465 42.1625 294.313 43.9827 314.023" fill="#61C5F2"/>
<path opacity="0.6" d="M48.5531 314.023C51.2044 305.434 49.7601 300.487 44.2202 299.181C43.9432 287.663 39.7091 283.349 31.5179 286.238C30.3308 281.766 27.363 279.629 22.6145 279.827C17.866 280.024 15.5907 282.419 15.7886 287.01C11.4358 287.683 9.2594 289.84 9.2594 293.481C30.588 287.465 42.1625 294.313 43.9827 314.023" fill="url(#paint5_linear_300_761)"/>
<path d="M64.1041 313.964H40.0649C38.581 313.964 37.5126 315.329 37.9281 316.754L43.8043 339.196C43.9823 339.671 44.3978 340.027 44.932 340.027H59.2369C59.7711 340.027 60.1866 339.671 60.3646 339.196L66.3002 316.754C66.6564 315.329 65.588 313.964 64.1041 313.964V313.964Z" stroke="#00BFD8" stroke-width="0.559969"/>
<path d="M43.6867 316.694L47.6636 337.711" stroke="#00BFD8" stroke-width="0.559969" stroke-linecap="round"/>
<defs>
<linearGradient id="paint0_linear_300_761" x1="-46330.4" y1="39195.9" x2="-43290.8" y2="35718.8" gradientUnits="userSpaceOnUse">
<stop stop-color="#288ACC"/>
<stop offset="1" stop-color="#288ACC" stop-opacity="0"/>
</linearGradient>
<linearGradient id="paint1_linear_300_761" x1="-53267.5" y1="34995.4" x2="-56711.7" y2="31139.3" gradientUnits="userSpaceOnUse">
<stop stop-color="#288ACC"/>
<stop offset="1" stop-color="#288ACC" stop-opacity="0"/>
</linearGradient>
<linearGradient id="paint2_linear_300_761" x1="-195154" y1="63847" x2="-370165" y2="63847" gradientUnits="userSpaceOnUse">
<stop stop-color="#288ACC"/>
<stop offset="1" stop-color="#288ACC" stop-opacity="0"/>
</linearGradient>
<linearGradient id="paint3_linear_300_761" x1="-1710.47" y1="413.862" x2="-1717.45" y2="413.862" gradientUnits="userSpaceOnUse">
<stop stop-color="#FF912A"/>
<stop offset="1" stop-color="#FF912A" stop-opacity="0"/>
</linearGradient>
<linearGradient id="paint4_linear_300_761" x1="-32340" y1="11875.7" x2="-33741.1" y2="11875.7" gradientUnits="userSpaceOnUse">
<stop stop-color="#288ACC"/>
<stop offset="1" stop-color="#288ACC" stop-opacity="0"/>
</linearGradient>
<linearGradient id="paint5_linear_300_761" x1="-47892.5" y1="21622.9" x2="-50473.4" y2="21622.9" gradientUnits="userSpaceOnUse">
<stop stop-color="#288ACC"/>
<stop offset="1" stop-color="#288ACC" stop-opacity="0"/>
</linearGradient>
</defs>
</svg>
