<svg width="1525" height="620" viewBox="0 0 1525 620" fill="none" xmlns="http://www.w3.org/2000/svg">
<rect width="1525" height="620" fill="white"/>
<path opacity="0.1" d="M0.000100064 620H738.129C750.977 553.297 728.034 501.587 669.3 464.87C593.403 417.505 551.188 449.541 432.617 442.84C313.955 436.139 391.687 198.396 250.173 63.7364C165.13 -17.1635 81.7391 -21.0494 0.000100064 52.0788V620Z" fill="#00A4D6"/>
<path opacity="0.1" d="M1.42635e-05 620H821C818.308 561.681 788.482 524.75 731.521 509.206C645.989 485.983 394.532 530.043 306.43 509.206C218.328 488.461 250.815 386.755 131.419 356.28C78.4352 342.756 34.629 355.576 1.42635e-05 394.741V620Z" fill="#00A4D6"/>
<path d="M429.589 516.733C429.65 516.733 429.772 516.702 429.956 516.641C431.791 518.66 435.462 520.129 442.896 520.037C463.453 519.578 474.098 512.235 468.867 505.809C467.032 503.515 461.25 504.157 455.56 505.534C464.37 500.21 471.345 493.509 468.041 486.349C460.7 469.827 439.684 485.432 431.516 495.988C455.744 465.513 460.302 447.491 445.19 441.922C425 434.395 416.557 483.687 415.823 488.644C416.465 483.871 422.706 439.443 399.487 441.555C383.152 443.084 378.869 460.28 386.639 493.142L379.022 519.028L429.589 516.733Z" fill="#78E2FF"/>
<path d="M429.589 516.733C429.65 516.733 429.772 516.702 429.956 516.641C431.791 518.66 435.462 520.129 442.896 520.037C463.453 519.578 474.098 512.235 468.867 505.809C467.032 503.515 461.25 504.157 455.56 505.534C464.37 500.21 471.345 493.509 468.041 486.349C460.7 469.827 439.684 485.432 431.516 495.988C455.744 465.513 460.302 447.491 445.19 441.922C425 434.395 416.557 483.687 415.823 488.644C416.465 483.871 422.706 439.443 399.487 441.555C383.152 443.084 378.869 460.28 386.639 493.142L379.022 519.028L429.589 516.733Z" fill="url(#paint0_linear_300_312)"/>
<g style="mix-blend-mode:multiply" opacity="0.2">
<path d="M416.649 520.405C433.597 513.857 440.021 507.737 435.922 502.046C433.352 498.497 429.589 499.751 424.633 505.81C431.18 497.242 431.608 491.643 425.918 489.012C420.045 486.319 415.517 489.899 412.336 499.751C414.538 491.123 413.407 486.197 408.94 484.973C404.413 483.749 401.996 488.063 401.69 497.916C395.878 490.144 391.259 489.348 387.833 495.529C384.651 501.22 387.833 509.696 397.377 520.956" fill="#00A4D6"/>
</g>
<path d="M322.582 519.028C325.212 468.909 318.36 443.084 302.024 441.555C278.806 439.443 285.046 483.871 285.781 488.644C284.955 483.687 276.512 434.395 256.322 441.922C241.21 447.491 245.768 465.513 269.996 495.988C261.828 485.432 237.783 467.165 230.442 483.687C226.862 491.582 236.223 499.476 246.961 505.626C238.885 504.708 228.331 504.708 228.79 509.389C229.83 520.343 261.094 523.556 322.582 519.028Z" fill="#78E2FF"/>
<path d="M322.582 519.028C325.212 468.909 318.36 443.084 302.024 441.555C278.806 439.443 285.046 483.871 285.781 488.644C284.955 483.687 276.512 434.395 256.322 441.922C241.21 447.491 245.768 465.513 269.996 495.988C261.828 485.432 237.783 467.165 230.442 483.687C226.862 491.582 236.223 499.476 246.961 505.626C238.885 504.708 228.331 504.708 228.79 509.389C229.83 520.343 261.094 523.556 322.582 519.028Z" fill="url(#paint1_linear_300_312)"/>
<g style="mix-blend-mode:multiply" opacity="0.2">
<path d="M304.595 522.608C314.078 511.348 317.26 502.903 314.14 497.273C310.652 491.092 306.033 491.888 300.282 499.66C299.915 489.746 297.498 485.401 293.032 486.625C288.566 487.849 287.403 492.806 289.544 501.496C286.424 491.582 281.897 488.002 275.962 490.756C270.333 493.387 270.792 498.987 277.339 507.554C272.322 501.496 268.528 500.241 265.959 503.79C261.86 509.482 268.314 515.601 285.323 522.149" fill="#00A4D6"/>
</g>
<g opacity="0.2">
<path opacity="0.2" fill-rule="evenodd" clip-rule="evenodd" d="M572.754 335.902C572.754 338.044 572.968 340.124 573.397 342.144C575.324 351.048 581.289 358.575 589.273 362.522C593.22 364.541 597.717 365.643 602.489 365.643C618.916 365.643 632.223 352.333 632.223 335.902C632.223 327.824 628.919 320.481 623.688 315.157C618.274 309.649 610.748 306.253 602.489 306.253C593.587 306.253 585.603 310.2 580.096 316.442C575.508 321.674 572.754 328.467 572.754 335.902ZM577.802 335.902C577.802 329.752 580.096 324.061 583.951 319.746C588.447 314.514 595.055 311.302 602.489 311.302C609.372 311.302 615.612 314.147 620.109 318.645C624.422 323.143 627.176 329.201 627.176 335.902C627.176 349.579 616.071 360.594 602.489 360.594C598.543 360.594 594.78 359.676 591.476 358.024C584.868 354.719 580.004 348.478 578.352 341.134C577.985 339.421 577.802 337.677 577.802 335.902V335.902Z" fill="#18BDF7"/>
</g>
<path opacity="0.2" d="M573.397 342.144C575.324 351.047 581.289 358.574 589.274 362.521L591.476 358.023C584.868 354.719 580.004 348.477 578.353 341.134L573.397 342.144Z" fill="#18BDF7"/>
<g opacity="0.3">
<path opacity="0.3" d="M580.096 316.441L583.951 319.746C588.448 314.514 595.055 311.301 602.489 311.301C609.372 311.301 615.612 314.147 620.109 318.644L623.688 315.156C618.274 309.649 610.749 306.253 602.489 306.253C593.587 306.253 585.603 310.2 580.096 316.441V316.441Z" fill="#4A63FE"/>
</g>
<g opacity="0.8">
<g opacity="0.2">
<path opacity="0.2" fill-rule="evenodd" clip-rule="evenodd" d="M401.323 77.4136C401.323 78.8211 401.445 80.198 401.69 81.5443C402.975 87.5108 406.921 92.4676 412.244 95.0378C414.905 96.4147 417.934 97.1491 421.054 97.1491C431.975 97.1491 440.785 88.337 440.785 77.4136C440.785 71.9979 438.674 67.1329 435.187 63.5529C431.516 59.8812 426.56 57.5864 421.054 57.5864C415.089 57.5864 409.766 60.2484 406.187 64.3791C403.158 67.8672 401.323 72.4568 401.323 77.4136V77.4136ZM404.627 77.4136C404.627 73.283 406.187 69.5195 408.665 66.5821C411.693 63.1858 416.098 60.9828 421.054 60.9828C425.643 60.9828 429.772 62.9104 432.801 65.9395C435.646 68.8769 437.481 72.9158 437.481 77.4136C437.481 86.4093 430.14 93.8445 421.054 93.8445C418.393 93.8445 415.915 93.202 413.712 92.1005C409.307 89.8974 406.095 85.7668 404.994 80.81C404.749 79.7085 404.627 78.5763 404.627 77.4136V77.4136Z" fill="#18BDF7"/>
</g>
<path opacity="0.2" d="M401.69 81.5439C402.974 87.5102 406.921 92.4668 412.244 95.0369L413.712 92.0996C409.307 89.8967 406.095 85.7662 404.994 80.8096L401.69 81.5439Z" fill="#18BDF7"/>
<g opacity="0.3">
<path opacity="0.3" d="M406.187 64.3788L408.665 66.5818C411.694 63.1856 416.099 60.9826 421.055 60.9826C425.643 60.9826 429.773 62.9102 432.801 65.9392L435.188 63.5527C431.517 59.8812 426.561 57.5864 421.055 57.5864C415.089 57.5864 409.766 60.2483 406.187 64.3788V64.3788Z" fill="#4A63FE"/>
</g>
</g>
<path opacity="0.2" fill-rule="evenodd" clip-rule="evenodd" d="M624.79 417.23L621.028 416.771C620.783 418.056 620.63 419.402 620.569 420.81C620.63 422.217 620.783 423.563 621.028 424.849L624.79 424.298C625.157 425.828 625.739 427.235 626.534 428.52L623.506 430.723C624.974 433.018 626.993 435.037 629.287 436.506L631.49 433.477C632.775 434.273 634.182 434.854 635.711 435.221L635.161 438.893C636.446 439.199 637.792 439.352 639.199 439.352C640.606 439.352 641.952 439.199 643.237 438.893L642.686 435.221C644.216 434.854 645.623 434.273 646.908 433.477L649.202 436.506C651.496 435.037 653.424 433.018 654.892 430.723L651.863 428.52C652.659 427.235 653.24 425.828 653.607 424.298L657.37 424.849C657.676 423.563 657.829 422.217 657.829 420.81C657.829 419.402 657.676 418.056 657.37 416.771L653.607 417.23C653.24 415.761 652.659 414.384 651.863 413.099L654.892 410.804C653.424 408.509 651.496 406.582 649.202 405.113L646.908 408.142C645.623 407.347 644.216 406.765 642.686 406.398L643.237 402.635C641.952 402.329 640.606 402.176 639.199 402.176C637.792 402.176 636.446 402.329 635.161 402.635L635.711 406.398C634.182 406.765 632.775 407.347 631.49 408.142L629.287 405.113C626.993 406.582 624.974 408.509 623.506 410.804L626.534 413.099C625.739 414.384 625.157 415.761 624.79 417.23ZM629.379 420.81C629.379 415.302 633.784 410.896 639.199 410.896C644.705 410.896 649.11 415.302 649.11 420.81C649.11 426.225 644.705 430.631 639.199 430.631C633.784 430.631 629.379 426.225 629.379 420.81Z" fill="#00A4D6"/>
<path opacity="0.1" fill-rule="evenodd" clip-rule="evenodd" d="M47.2629 136.803L41.6648 136.068C41.2059 137.996 41.0223 140.015 41.0223 142.127C41.0223 144.238 41.2059 146.257 41.6648 148.185L47.2629 147.359C47.8135 149.654 48.6394 151.765 49.8325 153.693L45.3357 157.089C47.5382 160.485 50.4749 163.423 53.9622 165.626L57.2662 161.128C59.1934 162.321 61.3041 163.239 63.5984 163.79L62.7725 169.297C64.6998 169.756 66.8105 170.032 68.8295 170.032C70.9403 170.032 72.9593 169.756 74.9783 169.297L74.1523 163.79C76.3548 163.239 78.4657 162.321 80.3929 161.128L83.7884 165.626C87.2758 163.423 90.2126 160.485 92.4151 157.089L87.9182 153.693C89.0195 151.765 89.9373 149.654 90.4879 147.359L96.086 148.185C96.5449 146.257 96.7285 144.238 96.7285 142.127C96.7285 140.015 96.5449 137.996 96.086 136.068L90.4879 136.803C89.9373 134.6 89.0195 132.488 87.9182 130.561L92.4151 127.164C90.2126 123.768 87.2758 120.831 83.7884 118.628L80.3929 123.126C78.4657 121.932 76.3548 121.014 74.1523 120.464L74.9783 114.956C72.9593 114.497 70.9403 114.222 68.8295 114.222C66.8105 114.222 64.6998 114.497 62.7725 114.956L63.5984 120.464C61.3041 121.014 59.1934 121.932 57.2662 123.126L53.9622 118.628C50.4749 120.831 47.5382 123.768 45.3357 127.164L49.8325 130.561C48.6394 132.488 47.8135 134.6 47.2629 136.803ZM54.0541 142.127C54.0541 133.957 60.6617 127.348 68.8295 127.348C76.9973 127.348 83.6967 133.957 83.6967 142.127C83.6967 150.296 76.9973 156.905 68.8295 156.905C60.6617 156.905 54.0541 150.296 54.0541 142.127Z" fill="#00A4D6"/>
<path opacity="0.1" d="M475.108 41.9813C475.108 46.2036 478.595 49.6916 482.817 49.6916C487.039 49.6916 490.434 46.2036 490.434 41.9813C490.434 37.759 487.039 34.3628 482.817 34.3628C478.595 34.3628 475.108 37.759 475.108 41.9813Z" stroke="#00A4D6" stroke-width="3.14833"/>
<path opacity="0.5" d="M179.049 69.7943C179.049 74.0166 182.445 77.4128 186.666 77.4128C190.888 77.4128 194.283 74.0166 194.283 69.7943C194.283 65.572 190.888 62.084 186.666 62.084C182.445 62.084 179.049 65.572 179.049 69.7943Z" stroke="#00A4D6" stroke-width="0.787083"/>
<path opacity="0.1" d="M369.936 126.154C369.936 132.763 375.351 138.179 381.959 138.179C388.566 138.179 393.889 132.763 393.889 126.154C393.889 119.545 388.566 114.222 381.959 114.222C375.351 114.222 369.936 119.545 369.936 126.154Z" stroke="#00A4D6" stroke-width="4.95862"/>
<path opacity="0.1" d="M29.0004 304.692C29.0004 311.301 34.415 316.716 41.0227 316.716C47.6303 316.716 52.9531 311.301 52.9531 304.692C52.9531 298.083 47.6303 292.759 41.0227 292.759C34.415 292.759 29.0004 298.083 29.0004 304.692Z" stroke="#00A4D6" stroke-width="4.95862"/>
<path d="M101.776 162.505V449.541C101.776 456.425 107.375 461.933 114.166 461.933H587.714C594.597 461.933 600.103 456.425 600.103 449.541V162.505C600.103 155.621 594.597 150.113 587.714 150.113H114.166C107.375 150.113 101.776 155.621 101.776 162.505V162.505Z" fill="#4A63FE"/>
<path d="M300.281 514.897H401.69L390.677 471.571L388.108 461.749L383.335 442.748H318.636L313.772 461.749L311.294 471.571L300.281 514.897Z" fill="#4A63FE"/>
<path d="M311.294 471.57H390.677L388.108 461.749H313.772L311.294 471.57Z" fill="#425DE2"/>
<path d="M261.369 526.83H440.602C444.915 526.83 448.402 523.342 448.402 519.028C448.402 514.714 444.915 511.226 440.602 511.226H261.369C257.056 511.226 253.569 514.714 253.569 519.028C253.569 523.342 257.056 526.83 261.369 526.83Z" fill="#425DE2"/>
<g opacity="0.2">
<path opacity="0.2" d="M101.867 412.273H601.02V194.449H101.867V412.273Z" fill="#60F4DF"/>
</g>
<path d="M351.031 447.795C357.271 447.795 362.502 442.655 362.502 436.322C362.502 429.988 357.271 424.848 351.031 424.848C344.698 424.848 339.467 429.988 339.467 436.322C339.467 442.655 344.698 447.795 351.031 447.795Z" fill="#3B5BD1"/>
<path opacity="0.2" d="M119.03 334.984H422.339C425.643 334.984 428.396 332.23 428.396 328.926V206.291C428.396 202.894 425.643 200.232 422.339 200.232H119.03C115.635 200.232 112.973 202.894 112.973 206.291V328.926C112.973 332.23 115.635 334.984 119.03 334.984Z" fill="white"/>
<path opacity="0.4" d="M121.416 272.381V323.601C121.416 325.804 123.251 327.732 125.546 327.732H416.924C419.219 327.732 421.054 325.804 421.054 323.601V211.063C394.165 211.063 380.766 221.161 372.873 234.379C372.384 235.236 371.925 236.092 371.497 236.949C358.19 262.1 362.136 296.614 332.952 296.614C331.851 296.614 330.811 296.492 329.832 296.247C329.22 296.063 328.639 295.849 328.088 295.605C308.449 287.343 311.477 228.596 276.512 228.963C269.078 229.055 263.48 231.992 259.075 236.49C258.647 236.98 258.219 237.469 257.79 237.959C242.189 256.317 241.914 297.257 217.869 304.692C209.242 307.354 201.534 303.774 194.008 297.716C193.519 297.349 193.029 296.951 192.54 296.522C176.571 283.304 160.695 260.632 136.008 266.139C135.274 266.323 134.539 266.506 133.805 266.69C129.951 267.883 125.821 269.719 121.416 272.381V272.381Z" fill="white"/>
<path opacity="0.8" d="M121.416 262.009C126.647 262.101 130.593 263.845 133.805 266.69C139.77 272.014 142.982 281.01 146.103 289.73C150.783 302.948 155.647 316.534 169.688 316.534C170.484 316.534 171.279 316.503 172.074 316.442C181.252 315.524 188.043 307.997 194.008 297.716C197.679 291.382 201.075 283.947 204.562 276.328C214.29 254.941 224.477 232.727 243.015 232.268C243.26 232.268 243.474 232.268 243.657 232.268C249.347 232.268 253.936 234.379 257.79 237.959C265.683 245.119 270.73 258.062 275.594 270.729C282.844 289.455 290.37 308.823 307.256 309.282C319.37 309.466 324.876 304.876 329.832 296.247C331.759 292.851 333.595 288.812 335.705 284.223C339.56 275.869 344.332 265.497 352.225 253.38C357.456 245.211 364.247 240.07 371.497 236.949C390.953 228.504 413.896 234.655 421.054 237.041V235.114C413.345 232.635 391.962 227.219 372.873 234.379C364.614 237.5 356.721 243.1 350.664 252.371C342.68 264.579 337.908 275.043 334.054 283.488C331.851 288.261 330.016 292.3 328.088 295.605C323.408 303.683 318.269 307.63 307.256 307.446C291.563 307.079 284.68 289.088 277.338 270.087C272.29 257.144 267.243 244.017 259.075 236.49C254.762 232.543 249.531 230.249 243.015 230.432C223.192 230.983 212.913 253.656 202.91 275.594C199.515 283.029 196.211 290.373 192.54 296.523C186.85 306.528 180.426 313.688 171.891 314.606C157.391 315.983 152.71 302.948 147.846 289.179C144.818 280.551 141.698 271.739 136.008 266.139C132.429 262.56 127.748 260.265 121.416 260.173V262.009Z" fill="white"/>
<g opacity="0.5">
<path opacity="0.5" d="M118.112 370.14H274.584C277.429 370.14 279.724 367.845 279.724 365V345.723C279.724 342.97 277.429 340.675 274.584 340.675H118.112C115.267 340.675 112.972 342.97 112.972 345.723V365C112.972 367.845 115.267 370.14 118.112 370.14Z" fill="#9CD7FF"/>
</g>
<path opacity="0.2" d="M118.112 405.847H274.585C277.43 405.847 279.724 403.552 279.724 400.706V381.43C279.724 378.584 277.43 376.29 274.585 376.29H118.112C115.267 376.29 112.973 378.584 112.973 381.43V400.706C112.973 403.552 115.267 405.847 118.112 405.847Z" fill="white"/>
<g opacity="0.2">
<path opacity="0.2" d="M439.5 265.405H582.207C585.51 265.405 588.264 262.743 588.264 259.439V206.291C588.264 202.894 585.51 200.232 582.207 200.232H439.5C436.104 200.232 433.443 202.894 433.443 206.291V259.439C433.443 262.743 436.104 265.405 439.5 265.405Z" fill="#9CD7FF"/>
</g>
<g opacity="0.3">
<path opacity="0.3" d="M455.285 259.897H462.902C463.728 259.897 464.462 259.254 464.462 258.336V218.131C464.462 217.305 463.728 216.571 462.902 216.571H455.285C454.459 216.571 453.725 217.305 453.725 218.131V258.336C453.725 259.254 454.459 259.897 455.285 259.897Z" fill="white"/>
<path opacity="0.3" d="M440.693 259.897H448.035C448.953 259.897 449.779 259.163 449.779 258.245V208.126C449.779 207.208 448.953 206.474 448.035 206.474H440.693C439.775 206.474 439.041 207.208 439.041 208.126V258.245C439.041 259.163 439.775 259.897 440.693 259.897Z" fill="white"/>
<path opacity="0.3" d="M573.122 259.897H580.463C581.381 259.897 582.115 259.163 582.115 258.245V208.126C582.115 207.208 581.381 206.474 580.463 206.474H573.122C572.204 206.474 571.378 207.208 571.378 208.126V258.245C571.378 259.163 572.204 259.897 573.122 259.897Z" fill="white"/>
<path opacity="0.3" d="M558.163 259.897H565.963C566.789 259.897 567.432 259.254 567.432 258.428V220.61C567.432 219.784 566.789 219.141 565.963 219.141H558.163C557.337 219.141 556.694 219.784 556.694 220.61V258.428C556.694 259.254 557.337 259.897 558.163 259.897Z" fill="white"/>
<path opacity="0.3" d="M543.662 259.897H551.004C551.922 259.897 552.748 259.163 552.748 258.245V208.126C552.748 207.208 551.922 206.474 551.004 206.474H543.662C542.745 206.474 542.011 207.208 542.011 208.126V258.245C542.011 259.163 542.745 259.897 543.662 259.897Z" fill="white"/>
<path opacity="0.3" d="M528.52 259.897H536.779C537.422 259.897 537.972 259.346 537.972 258.612V231.625C537.972 230.982 537.422 230.432 536.779 230.432H528.52C527.877 230.432 527.327 230.982 527.327 231.625V258.612C527.327 259.346 527.877 259.897 528.52 259.897Z" fill="white"/>
<path opacity="0.3" d="M514.295 259.897H521.637C522.554 259.897 523.289 259.163 523.289 258.245V208.126C523.289 207.208 522.554 206.474 521.637 206.474H514.295C513.377 206.474 512.551 207.208 512.551 208.126V258.245C512.551 259.163 513.377 259.897 514.295 259.897Z" fill="white"/>
<path opacity="0.3" d="M499.428 259.897H507.045C507.871 259.897 508.605 259.254 508.605 258.336V218.131C508.605 217.305 507.871 216.571 507.045 216.571H499.428C498.51 216.571 497.868 217.305 497.868 218.131V258.336C497.868 259.254 498.51 259.897 499.428 259.897Z" fill="white"/>
<path opacity="0.3" d="M484.836 259.897H492.178C493.095 259.897 493.83 259.163 493.83 258.245V208.126C493.83 207.208 493.095 206.474 492.178 206.474H484.836C483.918 206.474 483.184 207.208 483.184 208.126V258.245C483.184 259.163 483.918 259.897 484.836 259.897Z" fill="white"/>
<path opacity="0.3" d="M469.877 259.897H477.678C478.504 259.897 479.146 259.254 479.146 258.428V220.61C479.146 219.784 478.504 219.141 477.678 219.141H469.877C469.143 219.141 468.409 219.784 468.409 220.61V258.428C468.409 259.254 469.143 259.897 469.877 259.897Z" fill="white"/>
</g>
<path opacity="0.2" d="M439.5 335.626H582.207C585.511 335.626 588.264 332.964 588.264 329.568V276.42C588.264 273.115 585.511 270.453 582.207 270.453H439.5C436.105 270.453 433.443 273.115 433.443 276.42V329.568C433.443 332.964 436.105 335.626 439.5 335.626Z" fill="white"/>
<path opacity="0.2" d="M439.5 405.847H582.207C585.511 405.847 588.264 403.185 588.264 399.789V346.641C588.264 343.336 585.511 340.674 582.207 340.674H439.5C436.105 340.674 433.443 343.336 433.443 346.641V399.789C433.443 403.185 436.105 405.847 439.5 405.847Z" fill="white"/>
<path opacity="0.5" d="M438.308 281.835C438.308 283.396 439.684 284.681 441.245 284.681C441.673 284.681 442.071 284.62 442.438 284.497L466.023 311.209C465.748 311.576 465.564 312.127 465.564 312.678C465.564 314.238 466.941 315.523 468.501 315.523C470.153 315.523 471.438 314.238 471.438 312.678C471.438 312.127 471.316 311.668 471.071 311.301L496.4 286.333C496.828 286.578 497.287 286.7 497.777 286.7C498.266 286.7 498.725 286.578 499.153 286.333L532.1 321.857C531.977 322.163 531.916 322.469 531.916 322.775C531.916 324.335 533.201 325.62 534.853 325.62C536.413 325.62 537.79 324.335 537.79 322.775C537.79 322.346 537.698 321.949 537.514 321.582L555.685 297.991C555.93 298.052 556.205 298.083 556.511 298.083C556.94 298.083 557.337 298.021 557.704 297.899L577.711 323.785C577.436 324.243 577.252 324.794 577.252 325.345C577.252 326.997 578.537 328.282 580.097 328.282C581.749 328.282 583.034 326.997 583.034 325.345C583.034 323.785 581.749 322.408 580.097 322.408C579.791 322.469 579.455 322.561 579.087 322.683L559.081 296.614C559.264 296.155 559.448 295.696 559.448 295.237C559.448 293.585 558.163 292.3 556.511 292.3C554.951 292.3 553.575 293.585 553.575 295.237C553.575 295.788 553.85 296.43 554.125 296.889L536.23 320.205C535.801 319.96 535.342 319.837 534.853 319.837C534.211 319.837 533.66 320.021 533.201 320.388L500.438 285.048C500.622 284.681 500.713 284.253 500.713 283.763C500.713 282.202 499.429 280.917 497.777 280.917C496.217 280.917 494.932 282.202 494.932 283.763C494.932 284.191 495.023 284.589 495.207 284.956L469.694 310.016C469.327 309.832 468.929 309.74 468.501 309.74C468.134 309.74 467.767 309.832 467.4 310.016L443.722 283.212C443.998 282.845 444.181 282.294 444.181 281.835C444.181 280.183 442.896 278.898 441.245 278.898C439.684 278.898 438.308 280.183 438.308 281.835V281.835Z" fill="white"/>
<path opacity="0.3" d="M454.276 351.047H580.005C581.381 351.047 582.574 349.946 582.574 348.477V348.202C582.574 346.733 581.381 345.54 580.005 345.54H454.276C452.807 345.54 451.614 346.733 451.614 348.202V348.477C451.614 349.946 452.807 351.047 454.276 351.047Z" fill="white"/>
<path opacity="0.3" d="M467.307 360.869H580.096C581.473 360.869 582.574 359.768 582.574 358.391V357.932C582.574 356.555 581.473 355.362 580.096 355.362H467.307C465.931 355.362 464.83 356.555 464.83 357.932V358.391C464.83 359.768 465.931 360.869 467.307 360.869Z" fill="white"/>
<path opacity="0.3" d="M441.06 370.782H579.821C581.381 370.782 582.574 369.497 582.574 368.029C582.574 366.468 581.381 365.275 579.821 365.275H441.06C439.592 365.275 438.307 366.468 438.307 368.029C438.307 369.497 439.592 370.782 441.06 370.782Z" fill="white"/>
<path opacity="0.3" d="M480.156 380.605H580.28C581.565 380.605 582.574 379.503 582.574 378.218V377.392C582.574 376.107 581.565 375.097 580.28 375.097H480.156C478.871 375.097 477.77 376.107 477.77 377.392V378.218C477.77 379.503 478.871 380.605 480.156 380.605Z" fill="white"/>
<path opacity="0.3" d="M452.899 390.426H579.913C581.381 390.426 582.574 389.233 582.574 387.764V387.58C582.574 386.112 581.381 384.918 579.913 384.918H452.899C451.431 384.918 450.238 386.112 450.238 387.58V387.764C450.238 389.233 451.431 390.426 452.899 390.426Z" fill="white"/>
<path opacity="0.3" d="M441.06 400.248H579.821C581.381 400.248 582.574 398.963 582.574 397.494C582.574 395.934 581.381 394.741 579.821 394.741H441.06C439.592 394.741 438.307 395.934 438.307 397.494C438.307 398.963 439.592 400.248 441.06 400.248Z" fill="white"/>
<g opacity="0.5">
<path opacity="0.5" d="M362.778 373.261C362.778 391.253 377.37 405.848 395.358 405.848C413.345 405.848 427.937 391.253 427.937 373.261C427.937 355.27 413.345 340.675 395.358 340.675C392.788 340.675 390.28 340.95 387.832 341.501C374.342 344.714 364.063 356.371 362.87 370.691C362.809 371.548 362.778 372.404 362.778 373.261V373.261Z" fill="#9CD7FF"/>
</g>
<path d="M362.87 370.691L395.358 373.261L387.833 341.501C374.342 344.714 364.063 356.371 362.87 370.691V370.691Z" fill="#9CD7FF"/>
<g opacity="0.5">
<path opacity="0.5" d="M290.277 345.816H352.958C354.151 345.816 355.069 344.898 355.069 343.704C355.069 342.511 354.151 341.501 352.958 341.501H290.277C289.084 341.501 288.075 342.511 288.075 343.704C288.075 344.898 289.084 345.816 290.277 345.816Z" fill="#9CD7FF"/>
</g>
<g opacity="0.5">
<path opacity="0.5" d="M299.546 354.352H353.142C354.243 354.352 355.069 353.434 355.069 352.332V352.057C355.069 350.955 354.243 350.038 353.142 350.038H299.546C298.445 350.038 297.527 350.955 297.527 352.057V352.332C297.527 353.434 298.445 354.352 299.546 354.352Z" fill="#9CD7FF"/>
</g>
<g opacity="0.5">
<path opacity="0.5" d="M312.303 362.888H353.325C354.335 362.888 355.069 362.154 355.069 361.144V360.318C355.069 359.4 354.335 358.574 353.325 358.574H312.303C311.385 358.574 310.559 359.4 310.559 360.318V361.144C310.559 362.154 311.385 362.888 312.303 362.888Z" fill="#9CD7FF"/>
</g>
<g opacity="0.5">
<path opacity="0.5" d="M290.277 371.425H352.958C354.151 371.425 355.069 370.507 355.069 369.314C355.069 368.121 354.151 367.111 352.958 367.111H290.277C289.084 367.111 288.075 368.121 288.075 369.314C288.075 370.507 289.084 371.425 290.277 371.425Z" fill="#9CD7FF"/>
</g>
<g opacity="0.5">
<path opacity="0.5" d="M297.435 379.962H353.05C354.151 379.962 355.069 379.044 355.069 377.942V377.759C355.069 376.565 354.151 375.647 353.05 375.647H297.435C296.334 375.647 295.416 376.565 295.416 377.759V377.942C295.416 379.044 296.334 379.962 297.435 379.962Z" fill="#9CD7FF"/>
</g>
<g opacity="0.5">
<path opacity="0.5" d="M290.277 388.498H352.958C354.151 388.498 355.069 387.58 355.069 386.387C355.069 385.193 354.151 384.184 352.958 384.184H290.277C289.084 384.184 288.075 385.193 288.075 386.387C288.075 387.58 289.084 388.498 290.277 388.498Z" fill="#9CD7FF"/>
</g>
<g opacity="0.5">
<path opacity="0.5" d="M302.85 397.035H353.142C354.243 397.035 355.069 396.209 355.069 395.108V394.741C355.069 393.639 354.243 392.813 353.142 392.813H302.85C301.841 392.813 300.923 393.639 300.923 394.741V395.108C300.923 396.209 301.841 397.035 302.85 397.035Z" fill="#9CD7FF"/>
</g>
<g opacity="0.5">
<path opacity="0.5" d="M290.277 405.572H352.958C354.151 405.572 355.069 404.654 355.069 403.461C355.069 402.267 354.151 401.35 352.958 401.35H290.277C289.084 401.35 288.075 402.267 288.075 403.461C288.075 404.654 289.084 405.572 290.277 405.572Z" fill="#9CD7FF"/>
</g>
<g style="mix-blend-mode:overlay">
<path style="mix-blend-mode:overlay" d="M101.775 162.504V449.54C101.775 456.424 107.373 461.932 114.164 461.932H587.712C594.595 461.932 600.102 456.424 600.102 449.54V162.504C600.102 155.62 594.595 150.112 587.712 150.112H114.164C107.373 150.112 101.775 155.62 101.775 162.504V162.504Z" fill="url(#paint2_linear_300_312)"/>
</g>
<g style="mix-blend-mode:multiply" opacity="0.3">
<g style="mix-blend-mode:multiply" opacity="0.3">
<path d="M439.133 306.343C437.298 305.792 438.399 308.271 438.95 309.005C438.858 309.556 439.041 310.198 439.409 310.749C440.418 312.31 444.273 313.687 445.466 313.319C447.301 314.605 468.042 328.649 476.393 330.209C477.403 330.485 481.716 330.944 486.855 331.311C486.916 331.984 487.008 332.565 487.13 333.055C487.559 332.994 488.293 332.963 489.333 332.963L483.092 369.955C482.909 370.782 483.46 371.516 484.285 371.7L498.51 374.086C496.308 380.695 493.922 389.599 493.371 398.87C492.729 410.62 492.545 417.321 493.463 425.765C493.463 425.765 493.463 425.796 493.463 425.857C493.004 431.916 492.82 437.607 493.004 443.298C493.187 446.602 493.555 453.579 494.013 461.932H508.514C508.208 455.935 507.32 450.396 505.852 445.317C507.137 441.523 508.636 437.178 510.349 432.283V433.017C510.349 433.323 510.349 433.629 510.349 433.935C510.349 434.547 510.349 435.189 510.349 435.863C510.349 436.107 510.349 436.352 510.349 436.597C510.41 437.393 510.441 438.157 510.441 438.892C510.441 439.075 510.441 439.259 510.441 439.443C510.441 440.054 510.471 440.636 510.533 441.187C510.533 441.431 510.533 441.646 510.533 441.829C510.594 442.502 510.655 443.175 510.716 443.849C510.777 444.216 510.808 444.614 510.808 445.042C510.808 445.042 510.808 445.134 510.9 445.225C510.961 446.021 511.053 446.878 511.175 447.796C511.726 451.559 512.552 456.424 513.653 461.932H528.795C528.734 461.565 528.673 461.228 528.612 460.922C527.694 453.211 524.757 445.868 524.39 443.206C524.207 442.013 525.491 434.302 526.96 425.949C527.633 425.582 528.245 425.184 528.795 424.756C528.704 417.688 530.723 408.692 531.64 402.542C532.099 399.88 534.761 392.445 535.128 389.783C535.587 386.478 535.587 383.357 535.219 380.328L558.254 384.275C559.08 384.367 559.815 383.816 559.906 383.082L566.698 343.244C566.881 342.418 566.33 341.683 565.504 341.5L538.248 336.91C537.422 332.871 536.229 328.741 535.219 325.711C535.77 324.702 536.504 323.6 537.147 322.407C538.523 319.653 538.615 316.257 537.238 313.503C536.137 311.392 533.935 310.198 533.017 307.995C532.099 305.701 532.191 303.039 532.742 300.652C533.292 297.623 534.393 294.777 534.761 291.84C535.036 289.82 534.944 287.709 534.577 285.69C534.302 284.313 533.751 280.549 530.08 279.815C530.264 277.796 527.602 275.684 525.308 274.491C522.922 273.298 520.26 273.114 517.599 273.022C507.229 272.747 503.833 282.294 505.026 283.579C504.934 283.762 504.843 283.854 504.751 284.038C504.292 284.864 503.558 285.506 503.099 286.424C502.457 287.709 502.089 289.637 501.08 294.135C500.346 297.072 501.263 299 502.365 299.918C505.026 302.029 507.229 304.048 507.779 305.15C508.605 306.619 508.514 309.923 508.422 311.392C507.504 312.585 506.036 313.228 505.026 314.329C505.026 314.39 504.996 314.452 504.934 314.513C504.751 314.819 504.567 315.125 504.384 315.431C503.466 315.247 501.08 315.155 498.877 316.532C496.247 318.062 492.209 319.286 486.763 320.204C486.763 320.449 486.763 320.785 486.763 321.214C481.716 321.214 477.586 321.122 476.944 320.755C474.282 319.102 454.551 313.411 448.586 308.913C448.494 308.546 448.494 308.271 448.494 308.179C448.035 306.986 447.485 306.435 446.475 305.609C445.619 304.813 444.731 304.048 443.814 303.314C443.63 303.13 442.896 302.121 442.621 302.212C442.254 302.304 441.978 302.947 442.345 303.865C442.712 304.691 443.263 304.783 443.079 305.15C440.785 304.691 438.95 303.589 437.848 301.662C436.931 300.285 436.197 300.468 436.288 301.203C436.839 303.222 437.298 305.058 439.133 306.343V306.343Z" fill="#5FB0E7"/>
</g>
</g>
<g style="mix-blend-mode:multiply" opacity="0.5">
<path d="M471.712 528.666C471.712 531.236 489.975 533.255 512.551 533.255C535.036 533.255 553.298 531.236 553.298 528.666C553.298 526.187 535.036 524.076 512.551 524.076C489.975 524.076 471.712 526.187 471.712 528.666Z" fill="#00A4D6"/>
</g>
<path d="M515.397 443.85C516.406 455.416 524.666 491.674 527.602 514.806C527.969 517.56 535.403 516.366 534.485 508.38C533.568 500.302 534.485 470.194 533.292 460.923C532.375 453.213 529.438 445.869 529.071 443.207C528.704 440.545 535.311 405.022 536.229 402.452C537.147 399.79 535.219 395.751 537.055 390.151C539.441 382.441 539.135 374.944 536.137 367.662L516.681 383.267C515.397 411.172 514.387 432.284 515.397 443.85V443.85Z" fill="#FFE1BD"/>
<path d="M515.672 405.939C515.029 422.737 514.662 435.68 515.396 443.849C515.672 446.787 516.406 451.285 517.323 456.7C517.446 456.456 517.507 456.211 517.507 455.966C517.691 452.294 517.415 448.623 517.691 444.951C518.149 437.883 520.26 430.998 523.931 425.215L516.13 406.031C515.947 405.97 515.794 405.939 515.672 405.939V405.939Z" fill="#FCCB95"/>
<path d="M526.501 507.37C527.541 513 527.908 516.152 527.602 516.825C527.052 517.926 525.308 520.955 523.564 522.057C521.637 523.158 517.507 524.535 517.232 524.994C516.865 525.545 516.865 526.279 517.415 526.738C518.884 527.931 521.453 528.574 523.197 528.298C528.704 527.564 529.346 525.086 532.558 524.81C533.109 524.719 534.118 525.637 535.678 524.81C537.238 524.076 538.064 522.699 537.973 521.322C537.789 519.028 536.504 517.1 535.678 515.356C535.066 514.193 534.608 511.011 534.302 505.81" fill="#FFE1BD"/>
<path d="M523.473 529.308C525.217 529.216 526.685 528.941 528.062 528.298C528.612 528.023 528.888 527.197 529.346 526.738C529.438 526.646 531.09 525.728 532.008 525.545C532.681 525.422 533.293 525.361 533.843 525.361L534.027 527.197C534.883 527.319 535.618 527.319 536.229 527.197C537.208 527.013 537.881 526.799 538.248 526.554C538.157 525.361 538.524 524.26 538.707 523.709C538.891 522.883 538.524 521.506 538.34 520.68C538.065 519.854 536.872 517.1 536.321 516.733C536.229 517.284 534.945 520.588 532.1 521.231C530.081 521.69 527.511 523.984 524.024 524.076C523.014 524.168 521.913 522.883 522.555 522.607C523.198 522.24 521.454 522.699 520.353 523.158C519.251 523.617 517.416 524.81 516.865 525.086C516.498 525.361 516.59 526.462 516.957 527.105C517.6 528.298 519.802 529.4 523.473 529.308V529.308Z" fill="#594A5F"/>
<path d="M488.782 527.105C490.159 528.482 492.728 529.492 494.564 529.492C500.346 529.584 501.355 527.289 504.751 527.472C505.301 527.472 506.219 528.482 507.963 527.931C509.615 527.472 510.624 526.187 510.716 524.81C510.808 522.516 508.972 520.313 508.33 518.477C507.779 517.008 508.146 512.235 508.238 510.307C509.064 500.21 513.377 473.774 513.286 465.053C513.224 458.2 512.307 451.621 510.532 445.318C520.444 416.495 525.736 401.196 526.409 399.422C527.419 396.76 533.2 395.75 534.577 388.774C536.168 380.88 534.76 372.741 530.355 364.357L506.219 382.532C499.52 409.335 497.134 426.592 497.684 443.299C498.051 452.937 500.713 493.142 500.988 509.665C500.988 512.051 500.988 517.742 500.529 518.844C500.07 519.945 497.684 522.607 495.665 523.342C493.646 524.168 489.241 524.902 488.782 525.361C488.415 525.82 488.232 526.555 488.782 527.105Z" fill="#FFE1BD"/>
<path d="M494.748 530.502C496.583 530.777 497.776 530.685 499.428 530.226C500.07 530.134 500.621 529.492 501.08 529.125C501.722 528.666 503.007 528.115 504.108 528.115C504.781 528.054 505.393 528.084 505.944 528.207L505.852 530.043C506.709 530.287 507.473 530.41 508.146 530.41C509.186 530.349 509.921 530.226 510.349 530.043C510.349 528.849 510.9 527.748 511.175 527.289C511.45 526.463 511.267 525.086 511.175 524.26C510.991 523.342 509.523 520.497 509.064 520.038C508.881 520.588 507.687 523.709 504.659 523.893C502.548 523.985 499.52 525.82 495.941 525.453C494.931 525.361 493.922 523.985 494.656 523.709C495.298 523.526 493.463 523.617 492.27 523.985C491.077 524.26 489.058 525.178 488.415 525.361C488.048 525.545 487.956 526.646 488.232 527.381C488.782 528.666 490.893 530.134 494.748 530.502V530.502Z" fill="#594A5F"/>
<path d="M452.807 310.2C453.725 310.475 453.174 308.456 453.174 308.18C452.715 306.987 452.165 306.436 451.155 305.61C450.299 304.815 449.411 304.05 448.494 303.315C448.31 303.132 447.576 302.122 447.301 302.214C446.934 302.306 446.658 302.948 447.025 303.866C447.392 304.692 447.943 304.784 447.759 305.151C445.465 304.692 443.63 303.591 442.528 301.663C441.611 300.286 440.877 300.47 441.06 301.204C441.519 303.224 441.978 305.059 443.813 306.344C442.07 305.794 443.079 308.272 443.63 309.006C443.538 309.557 443.813 310.2 444.089 310.75C445.098 312.311 449.044 313.688 450.237 313.32" fill="#FFE1BD"/>
<path d="M511.634 320.664C492.79 321.398 482.787 321.428 481.624 320.755C478.963 319.103 458.681 313.32 452.991 308.731C450.727 309.343 449.748 310.842 450.054 313.229C464.921 323.448 475.261 329.108 481.073 330.21C483.276 330.669 499.428 332.229 508.422 332.321" fill="#FFE1BD"/>
<path d="M534.21 328.099V341.225L543.479 339.756C542.623 334.31 540.91 328.16 538.34 321.307" fill="#F9B253"/>
<path d="M488.966 371.7L562.935 384.276C563.761 384.368 564.495 383.817 564.587 383.083L571.378 343.245C571.561 342.419 571.011 341.684 570.185 341.501L496.216 328.925C495.482 328.833 494.656 329.384 494.564 330.118L487.773 369.956C487.681 370.782 488.14 371.517 488.966 371.7Z" fill="#2C1E56"/>
<path d="M491.535 369.13L561.374 381.338C562.016 381.43 562.659 380.971 562.842 380.237L568.716 345.539C568.808 344.805 568.349 344.162 567.706 344.071L497.867 331.862C497.133 331.77 496.491 332.229 496.307 332.964L490.434 367.661C490.342 368.396 490.801 369.038 491.535 369.13Z" fill="#39297F"/>
<path d="M557.704 378.034L558.805 378.218C559.447 378.402 559.998 377.943 560.09 377.392L565.229 347.467C565.321 346.825 564.862 346.274 564.311 346.182L563.118 345.999C562.568 345.907 561.925 346.274 561.833 346.917L556.786 376.749C556.694 377.392 557.061 377.943 557.704 378.034V378.034Z" fill="#4C4199"/>
<path d="M551.372 376.841L552.565 377.024C553.207 377.116 553.758 376.749 553.85 376.107L558.897 346.274C558.989 345.631 558.622 345.081 558.071 344.989L556.878 344.805C556.236 344.622 555.685 345.081 555.593 345.631L550.546 375.556C550.362 376.198 550.821 376.749 551.372 376.841Z" fill="#4C4199"/>
<path d="M545.131 375.648L546.324 375.832C546.875 375.923 547.517 375.556 547.609 374.914L552.656 345.081C552.748 344.438 552.381 343.888 551.739 343.796L550.546 343.521C549.995 343.429 549.444 343.888 549.353 344.438L544.213 374.363C544.122 375.005 544.58 375.556 545.131 375.648V375.648Z" fill="#4C4199"/>
<path d="M538.891 374.455L539.992 374.638C540.634 374.73 541.185 374.363 541.277 373.72L546.416 343.796C546.508 343.245 546.049 342.694 545.498 342.603L544.305 342.327C543.755 342.235 543.112 342.694 543.02 343.245L537.973 373.169C537.881 373.812 538.248 374.363 538.891 374.455V374.455Z" fill="#4C4199"/>
<path d="M532.559 373.26L533.752 373.444C534.394 373.536 534.945 373.168 535.037 372.526L540.084 342.602C540.176 342.051 539.809 341.5 539.258 341.316L538.065 341.133C537.423 341.041 536.872 341.5 536.78 342.051L531.733 371.975C531.549 372.618 532.008 373.168 532.559 373.26Z" fill="#4C4199"/>
<path d="M526.317 372.067L527.51 372.251C528.061 372.343 528.703 371.976 528.795 371.333L533.842 341.409C533.934 340.858 533.567 340.215 532.925 340.124L531.732 339.94C531.181 339.848 530.63 340.307 530.539 340.858L525.399 370.782C525.308 371.333 525.767 371.976 526.317 372.067Z" fill="#4C4199"/>
<path d="M520.077 370.874L521.178 371.058C521.82 371.15 522.371 370.783 522.463 370.14L527.602 340.216C527.694 339.665 527.235 339.022 526.684 338.93L525.491 338.747C524.941 338.655 524.298 339.022 524.206 339.665L519.159 369.589C519.067 370.14 519.434 370.782 520.077 370.874V370.874Z" fill="#4C4199"/>
<path d="M513.745 369.681L514.938 369.865C515.58 369.956 516.131 369.497 516.223 368.947L521.27 339.022C521.362 338.471 520.995 337.829 520.444 337.737L519.251 337.554C518.609 337.462 518.058 337.829 517.966 338.471L512.919 368.396C512.735 368.947 513.194 369.589 513.745 369.681Z" fill="#4C4199"/>
<path d="M507.503 368.488L508.696 368.672C509.247 368.763 509.889 368.305 509.981 367.754L515.029 337.829C515.12 337.187 514.753 336.636 514.111 336.544L512.918 336.361C512.367 336.269 511.816 336.636 511.725 337.279L506.585 367.203C506.494 367.754 506.953 368.305 507.503 368.488Z" fill="#4C4199"/>
<path d="M501.264 367.202L502.365 367.478C503.007 367.57 503.558 367.111 503.65 366.56L508.789 336.635C508.881 335.993 508.422 335.442 507.871 335.35L506.678 335.167C506.128 335.075 505.485 335.442 505.393 336.085L500.346 366.009C500.254 366.56 500.621 367.111 501.264 367.202V367.202Z" fill="#4C4199"/>
<path d="M494.931 366.01L496.124 366.285C496.767 366.377 497.317 365.918 497.409 365.367L502.457 335.443C502.548 334.8 502.181 334.249 501.631 334.157L500.438 333.974C499.795 333.882 499.245 334.249 499.153 334.892L494.105 364.724C493.922 365.367 494.381 365.918 494.931 366.01V366.01Z" fill="#4C4199"/>
<path d="M507.137 363.255C506.953 364.724 499.061 381.247 498.051 398.871C497.409 410.62 497.225 417.321 498.143 425.766C506.402 430.631 524.574 431.182 533.567 424.756C533.384 417.688 535.403 408.693 536.32 402.543C536.779 399.881 539.441 392.445 539.808 389.783C541.184 379.594 538.615 370.048 531.915 364.265" fill="#594A5F"/>
<path d="M507.32 347.376C507.687 350.589 507.32 355.362 506.861 360.778C506.861 361.696 506.402 363.44 506.494 364.358C506.494 364.847 506.708 365.306 507.137 365.735C508.146 366.652 509.982 367.203 512.001 367.57C518.608 368.764 529.162 367.938 532.099 368.58C534.852 369.131 537.697 368.213 537.697 366.469C537.697 365.276 536.596 364.633 536.504 362.338C536.32 357.29 536.504 345.724 537.422 340.583C539.349 329.752 539.9 323.326 538.523 311.302L518.333 305.519C516.773 305.794 517.415 310.567 515.855 310.751C514.754 310.934 508.33 317.084 506.494 324.244C505.393 326.08 504.659 327.641 504.2 328.926C503.282 331.312 503.374 333.148 504.2 335.351C505.76 339.574 506.861 342.603 507.32 347.376Z" fill="#F9B253"/>
<path d="M507.32 347.376C507.687 350.589 507.32 355.362 506.861 360.778C506.861 361.696 506.402 363.44 506.494 364.358C506.494 364.847 506.708 365.306 507.137 365.735V365.643C506.586 364.358 507.963 357.657 508.605 353.985C509.248 350.222 509.064 342.97 507.779 338.38C506.861 335.321 506.249 333.087 505.943 331.68C505.27 330.639 504.689 329.721 504.199 328.926C503.282 331.312 503.373 333.148 504.199 335.351C505.76 339.574 506.861 342.603 507.32 347.376V347.376Z" fill="#F29127"/>
<path d="M509.523 315.524C507.504 315.035 505.515 315.371 503.558 316.534C500.927 318.064 496.889 319.288 491.444 320.206C491.076 326.386 491.229 330.67 491.902 333.057C493.677 332.751 497.225 332.904 502.548 333.516C508.116 334.128 514.601 336.269 522.004 339.941" fill="#F9B253"/>
<path d="M507.779 286.425C507.137 287.711 506.77 289.638 505.76 294.136C505.026 297.073 505.944 299.001 507.137 299.919C509.707 302.03 511.909 304.05 512.46 305.151C513.133 306.436 513.347 308.762 513.102 312.127L529.713 312.77C529.346 308.853 529.652 305.61 530.631 303.04C532.099 299.093 535.862 292.3 535.954 286.701C536.045 281.101 529.621 276.328 522.096 275.594C514.57 274.86 511.45 280.184 509.431 284.039C508.972 284.865 508.238 285.508 507.779 286.425V286.425Z" fill="#FFE1BD"/>
<path d="M509.615 314.514C508.606 315.799 507.963 317.543 508.147 319.196C508.33 321.215 509.89 322.776 510.625 324.611C511.818 327.824 509.799 328.283 511.175 331.496C513.745 337.095 517.14 338.472 521.087 340.583C523.289 341.777 525.125 342.236 527.603 342.603C530.08 342.97 533.66 342.144 535.495 340.491C540.175 336.361 539.166 331.312 539.074 330.211C538.615 326.906 540.359 325.07 541.827 322.408C543.296 319.655 543.388 316.258 541.919 313.504C540.818 311.393 538.615 310.2 537.698 307.997C536.78 305.702 536.872 303.04 537.422 300.653C537.973 297.624 539.074 294.779 539.441 291.841C539.717 289.822 539.717 287.711 539.258 285.691C538.982 284.314 538.432 280.551 534.761 279.817C534.944 277.797 532.283 275.686 529.989 274.493C527.603 273.299 524.941 273.116 522.28 273.024C511.909 272.749 508.514 282.295 509.707 283.58C510.716 281.928 511.634 281.193 514.204 280.734C514.387 281.193 513.286 283.121 513.011 283.58C510.992 287.711 511.909 288.261 512.093 290.556C512.276 292.943 513.47 289.455 513.928 289.088C514.479 288.537 515.03 288.629 515.856 289.088C516.865 289.73 516.59 290.923 516.223 292.025C515.764 293.218 514.938 294.228 514.02 295.238C511.451 298.175 511.542 300.562 513.378 304.233C513.837 305.06 514.295 305.886 514.387 306.804C514.571 308.272 514.02 310.108 513.194 311.301C512.276 312.587 510.716 313.137 509.707 314.331C509.707 314.392 509.676 314.453 509.615 314.514V314.514Z" fill="#00215B"/>
<g style="mix-blend-mode:multiply" opacity="0.3">
<g style="mix-blend-mode:multiply" opacity="0.3">
<path d="M149.406 461.933H168.77C170.147 459.822 171.34 458.078 172.166 456.701L172.258 456.609C172.625 455.998 172.9 455.416 173.084 454.865C173.145 454.743 173.206 454.651 173.267 454.59C173.39 454.223 173.481 453.917 173.543 453.672C173.543 453.489 173.573 453.274 173.634 453.03C173.634 453.03 173.634 452.999 173.634 452.938C174.369 449.266 176.112 442.932 178.223 435.497C179.508 438.802 180.701 441.831 181.71 444.401C183.729 453.397 183.638 451.377 182.812 458.445C182.75 458.996 182.72 459.424 182.72 459.73C182.659 459.914 182.628 460.098 182.628 460.281C182.506 460.832 182.383 461.383 182.261 461.933H197.495C197.771 456.151 198.046 451.469 198.23 448.44C198.23 447.706 198.138 441.188 198.23 440.546C198.23 439.352 198.046 438.435 197.771 437.792C197.312 432.009 196.578 421.545 195.935 412.274C195.752 410.071 195.568 407.868 195.476 405.848C195.017 399.973 194.742 395.384 194.65 394.282C194.65 393.487 194.681 392.722 194.742 391.987C197.189 391.865 198.78 391.437 199.514 390.702C199.147 389.968 199.055 384.46 198.688 376.291C198.566 374.394 198.413 372.344 198.23 370.141C198.046 367.387 197.862 364.45 197.495 361.42C197.434 360.503 197.342 359.615 197.22 358.758C200.34 358.575 203.828 358.3 207.223 357.841C212.852 356.984 219.735 356.127 227.872 355.27L227.78 354.077C229.34 354.169 230.534 354.352 231.268 354.536C231.91 354.72 232.553 354.72 233.195 354.628C234.572 354.261 236.958 353.802 237.967 353.251C239.986 352.241 240.078 351.874 240.996 350.773C241.791 349.793 242.219 348.967 242.28 348.294C242.464 347.56 241.913 347.652 241.087 348.386L243.841 340.675L245.86 334.984L248.521 327.733L252.926 315.524C253.11 314.882 252.834 314.239 252.192 314.055L251.733 313.872C251.091 313.688 250.448 313.964 250.265 314.514L245.493 327.733L242.923 334.984L240.812 340.675L238.059 348.294H200.799C200.677 348.294 200.585 348.325 200.524 348.386L196.486 348.294C196.241 348.233 196.027 348.202 195.843 348.202C195.721 347.346 195.568 346.489 195.385 345.632C195.935 345.632 196.578 345.632 197.128 345.632C204.531 345.816 212.148 345.877 219.98 345.816L220.071 345.173C221.264 345.357 221.815 345.449 222.274 345.908C222.825 346.275 224.018 346.917 225.578 347.193C227.138 347.468 227.23 346.917 227.138 346.642C227.046 346.275 225.945 346.183 225.486 345.908C225.119 345.632 224.844 345.265 225.027 344.898C225.578 344.714 226.22 344.806 226.679 344.898C227.23 345.173 227.78 345.54 227.964 345.724C228.515 346.091 229.524 347.376 230.166 347.56C230.534 347.652 230.809 347.652 230.992 347.56C231.451 348.019 231.91 348.294 232.277 348.294C232.338 348.294 232.4 348.264 232.461 348.202C232.828 348.019 231.635 346.55 230.166 344.99C228.515 343.613 226.679 341.869 225.761 341.777C224.385 341.685 222.09 341.869 220.622 341.869L220.714 341.41L217.961 340.675C208.508 338.013 199.423 336.177 194.283 335.26C193.916 335.198 193.549 335.137 193.182 335.076C193.182 335.015 193.151 334.984 193.09 334.984C192.54 332.475 191.867 330.058 191.071 327.733C189.144 321.582 186.666 315.891 183.546 311.21C183.485 310.965 183.362 310.751 183.179 310.567C182.995 310.261 182.75 309.955 182.445 309.649C182.077 309.16 181.649 308.701 181.16 308.272C181.221 306.375 181.221 305.029 181.16 304.234C180.854 304.111 180.456 303.958 179.967 303.775C180.058 303.132 180.242 302.398 180.517 301.572C183.454 302.673 186.299 303.407 188.318 303.132C188.807 303.071 189.266 302.949 189.695 302.765C191.163 301.204 192.356 299.369 193.457 297.257C193.58 297.013 193.702 296.768 193.824 296.523C194.069 296.523 194.344 296.554 194.65 296.615C195.476 296.615 196.211 296.431 196.486 295.88C196.486 295.697 196.578 295.33 196.578 294.963C196.578 294.504 196.486 293.953 196.486 293.31C196.302 292.392 196.119 291.291 195.935 290.557C195.935 290.434 195.935 290.342 195.935 290.281C195.935 289.363 195.66 288.262 195.935 287.252C196.027 286.885 196.669 286.518 196.853 286.334C198.23 284.223 198.046 282.846 197.954 282.295C198.566 282.295 199.208 282.265 199.881 282.203C200.677 282.142 201.442 281.959 202.176 281.653C205.571 280.368 208.325 276.879 208.875 269.444C208.569 269.567 208.141 269.628 207.59 269.628C207.04 269.689 206.397 269.658 205.663 269.536C203.185 269.261 199.973 268.251 196.853 266.782C194.375 265.589 183.546 256.042 176.388 264.763C173.084 264.12 168.587 266.874 166.935 273.85C166.813 274.279 166.721 274.738 166.66 275.227C165.375 283.213 168.312 294.32 171.065 295.422C171.31 297.625 171.157 299.522 170.606 301.113C170.606 301.113 169.505 301.847 168.862 303.866C166.568 306.712 164.457 309.741 162.713 313.138C162.407 313.688 162.132 314.239 161.888 314.79C160.236 318.553 159.134 322.776 158.951 327.733C158.89 328.283 158.859 328.834 158.859 329.385C158.859 331.282 158.951 333.148 159.134 334.984C159.257 336.881 159.41 338.778 159.593 340.675C160.511 348.386 161.887 355.27 161.612 360.044C161.429 362.338 160.694 366.194 159.777 370.141C159.318 372.252 158.859 374.363 158.308 376.291C157.391 380.085 156.473 383.573 155.555 386.755C156.534 386.327 157.635 386.082 158.859 386.021C158.308 389.601 158.492 392.997 158.859 395.843C159.043 397.128 159.226 398.229 159.41 399.239C159.593 400.157 159.777 401.35 159.96 402.268C160.083 402.88 160.174 403.431 160.236 403.92C160.236 404.471 160.236 405.114 160.236 405.848C160.144 407.592 160.144 409.795 160.144 412.274C160.052 421.086 159.868 433.661 159.777 442.657C159.777 442.841 159.41 449.633 152.802 457.527C152.435 457.956 152.068 458.384 151.701 458.813C151.701 458.813 151.67 458.843 151.609 458.904C151.609 458.904 151.639 458.904 151.701 458.904C151.058 459.639 150.416 460.373 149.865 461.199C149.743 461.444 149.59 461.689 149.406 461.933V461.933Z" fill="#5FB0E7"/>
</g>
</g>
<g opacity="0.5">
<path opacity="0.5" d="M174.461 522.607C142.157 522.607 116.001 524.076 116.001 525.82C116.001 527.472 142.157 528.94 174.461 528.94C206.765 528.94 232.92 527.472 232.92 525.82C232.92 524.076 206.765 522.607 174.461 522.607Z" fill="#00A4D6"/>
</g>
<path d="M192.906 510.032C193.396 516.457 193.824 519.915 194.191 520.404C194.742 521.23 199.331 521.047 199.698 519.578C200.004 518.354 200.034 514.958 199.789 509.39" fill="#FFE1BD"/>
<path d="M192.906 521.782C192.906 522.822 193.059 524.23 193.365 526.004H198.963L199.238 525.086C200.401 525.698 201.471 526.004 202.45 526.004H207.131C210.618 526.004 212.637 525.545 212.637 524.903C213.004 522.425 208.874 522.516 207.865 522.516C204.745 522.516 201.441 521.048 200.707 519.487C200.156 518.386 200.34 518.019 199.697 518.294C199.33 518.355 199.024 518.631 198.779 519.12C198.229 520.222 197.036 520.864 195.843 520.681C195.2 520.589 194.466 520.313 194.007 519.763C193.273 520.069 192.906 520.742 192.906 521.782V521.782Z" fill="#3A3A3A"/>
<path d="M137.384 506.636C134.937 511.348 133.775 514.04 133.897 514.713C134.172 515.631 138.669 517.283 139.403 515.906C139.832 514.989 140.566 513.183 141.606 510.491" fill="#FFE1BD"/>
<path d="M132.245 515.448C131.817 516.427 131.327 517.865 130.777 519.762L134.998 522.332L135.824 521.69C136.436 522.73 137.201 523.526 138.118 524.076C139.036 524.627 141.147 525.545 142.248 525.82C146.194 526.646 149.131 526.279 149.498 525.728C150.783 523.434 145.644 522.24 144.634 521.873C141.698 520.68 140.413 517.926 140.321 516.182C140.229 514.989 140.596 514.806 139.862 514.714C139.006 514.591 138.332 515.173 137.843 516.458C137.751 516.458 134.723 515.907 133.989 513.979C133.193 513.979 132.612 514.469 132.245 515.448V515.448Z" fill="#3A3A3A"/>
<path d="M197.863 411.722C199.82 395.628 200.646 384.368 200.34 377.943C199.239 378.249 196.302 378.249 191.53 377.943C185.473 377.514 178.682 375.617 171.157 372.251C161.52 381.523 163.356 393.364 164.457 399.239C164.702 400.462 164.977 402.023 165.283 403.92L197.863 411.722Z" fill="#594A5F"/>
<path d="M134.906 508.563C137.843 510.338 140.26 511.531 142.156 512.143L142.89 510.95C143.319 510.093 143.808 509.206 144.359 508.288C144.359 508.288 144.359 508.226 144.359 508.104C146.011 505.35 147.754 502.321 149.682 499.2C149.682 499.2 149.682 499.17 149.682 499.108C159.777 482.586 172.625 464.044 177.213 456.7L177.305 456.608C177.672 455.996 177.948 455.415 178.131 454.864C178.192 454.742 178.253 454.65 178.315 454.589C178.406 454.222 178.498 453.855 178.59 453.671C178.59 453.487 178.621 453.273 178.682 453.028C178.682 453.028 178.682 452.998 178.682 452.937C178.865 451.56 178.498 450.458 177.764 449.724C177.58 449.54 177.397 449.357 177.213 449.173C174.736 447.429 169.78 447.796 165.742 450.642C165.497 450.825 165.283 451.009 165.099 451.193C164.977 451.254 164.855 451.315 164.732 451.376C161.337 453.855 157.666 457.067 154.913 461.198C145.644 475.242 140.137 496.538 134.906 508.563V508.563Z" fill="#594A5F"/>
<path d="M164.733 452.845C164.549 460.556 167.394 462.3 170.514 461.565C171.065 461.443 171.616 461.229 172.166 460.923C174.277 459.913 176.296 457.985 177.397 456.241C177.397 456.241 177.489 456.241 177.489 456.15C177.673 455.782 177.948 455.323 178.131 454.864C178.193 454.742 178.254 454.65 178.315 454.589C178.407 454.222 178.498 453.855 178.59 453.671C178.59 453.488 178.621 453.273 178.682 453.029C178.682 453.029 178.682 452.998 178.682 452.937C179.508 449.082 181.252 442.473 183.454 434.762C184.739 430.448 186.116 425.674 187.4 420.901C191.53 406.673 195.476 392.629 195.385 388.59C194.926 373.812 177.856 385.561 169.688 391.344C166.201 393.822 165.375 397.953 165.283 401.9C165.191 405.48 164.916 441.371 164.733 451.376C164.733 451.621 164.733 451.866 164.733 452.111C164.733 452.355 164.733 452.6 164.733 452.845V452.845Z" fill="#594A5F"/>
<path d="M164.824 442.656C164.579 447.735 161.857 453.15 156.656 458.902C164.181 456.638 168.158 455.292 168.587 454.864C169.229 454.221 172.074 446.97 171.982 446.144C171.921 445.593 169.535 444.43 164.824 442.656V442.656Z" fill="#594A5F"/>
<path d="M144.358 508.104C146.01 505.351 147.754 502.322 149.681 499.201C149.681 499.201 149.681 499.17 149.681 499.109C159.776 482.586 172.624 464.044 177.213 456.701L177.305 456.609C177.672 455.997 177.947 455.415 178.131 454.865C178.192 454.742 178.253 454.65 178.314 454.589C178.406 454.222 178.498 453.855 178.59 453.671C178.59 453.488 178.62 453.274 178.681 453.029C178.681 453.029 178.681 452.998 178.681 452.937C179.507 449.082 181.251 442.473 183.454 434.762L170.605 400.156H165.925C169.412 410.804 171.89 418.545 173.359 423.38C175.469 430.54 176.112 441.83 176.295 445.961C176.662 454.957 165.558 470.286 162.438 475.885C159.042 481.944 145.551 505.81 144.358 508.104V508.104Z" fill="#4C4051"/>
<path d="M192.815 516.091C192.998 516.091 193.212 516.091 193.457 516.091C196.577 516.152 199.055 515.968 200.891 515.54V514.255C200.432 493.326 202.818 459.271 203.277 448.439C203.277 447.705 203.185 441.188 203.277 440.545C203.46 431.274 194.099 439.536 190.796 446.879C190 448.531 189.358 450.398 188.868 452.478C188.226 454.865 188.226 457.527 187.675 460.281C184.096 476.62 191.346 502.689 192.815 516.091V516.091Z" fill="#594A5F"/>
<path d="M170.698 403.828C170.698 404.011 186.024 442.105 189.052 450.367C189.511 451.56 190.888 452.478 192.723 452.937C196.853 453.946 202.91 452.202 203.185 444.033C203.246 443.115 203.216 442.136 203.093 441.095C202.451 434.486 200.065 397.769 199.698 394.281C199.331 390.701 198.505 385.561 196.669 385.01C187.217 381.981 167.944 390.609 170.698 403.828V403.828Z" fill="#594A5F"/>
<path d="M186.665 443.85C188.777 453.579 188.776 451.193 187.859 458.444C187.308 463.156 188.073 461.106 190.153 452.294L188.226 447.338L186.665 443.85Z" fill="#594A5F"/>
<path d="M229.523 345.264C230.074 344.713 231.083 344.713 231.726 344.897C232.276 345.172 232.827 345.54 233.011 345.723C233.561 346.09 234.571 347.375 235.213 347.559C235.703 347.681 236.039 347.651 236.223 347.467C234.999 346.121 234.357 345.417 234.295 345.356C234.112 345.264 232.735 344.346 232.552 344.254C232.552 344.254 232.521 344.254 232.46 344.254V343.796C232.032 343.612 231.756 343.459 231.634 343.337C231.512 343.214 230.747 343.275 229.34 343.52C228.911 345.234 228.973 345.815 229.523 345.264Z" fill="#F4D4B3"/>
<path d="M218.236 344.07C222.09 344.744 224.415 345.111 225.21 345.172C226.312 345.355 226.862 345.447 227.321 345.906C227.872 346.273 229.065 346.916 230.625 347.191C232.185 347.467 232.277 346.916 232.185 346.641C232.094 346.273 230.992 346.182 230.533 345.906C230.074 345.539 229.799 344.988 230.35 344.621C230.9 344.254 231.91 344.162 233.195 345.08C234.755 346.273 236.774 348.752 237.508 348.201C237.875 348.017 236.682 346.549 235.214 344.988C233.562 343.612 231.726 341.868 230.809 341.776C229.065 341.592 225.853 341.959 224.66 341.776C223.926 341.653 222.304 341.194 219.796 340.399" fill="#FFE1BD"/>
<path d="M195.384 334.617L196.577 344.439L196.669 345.448C196.975 345.448 197.281 345.479 197.587 345.54C199.147 345.54 200.615 345.632 202.176 345.632C209.579 345.815 217.196 345.877 225.027 345.815L225.761 341.41C215.299 338.381 204.929 336.269 199.331 335.26C197.679 334.954 196.363 334.74 195.384 334.617V334.617Z" fill="#F9B253"/>
<path d="M243.841 349.854L244.3 350.038C244.85 350.222 245.585 349.946 245.768 349.304L257.974 315.524C258.158 314.881 257.882 314.239 257.24 314.055L256.781 313.872C256.139 313.688 255.496 313.963 255.313 314.514L243.107 348.386C242.923 348.936 243.198 349.579 243.841 349.854V349.854Z" fill="#1C44B5"/>
<path d="M205.846 351.231H244.207C245.033 351.231 245.584 350.589 245.584 349.854V349.671C245.584 348.936 245.033 348.294 244.207 348.294H205.846C205.112 348.294 204.47 348.936 204.47 349.671V349.854C204.47 350.589 205.112 351.231 205.846 351.231Z" fill="#1C44B5"/>
<path d="M195.385 334.617L196.578 344.439C196.883 344.806 197.22 345.173 197.587 345.54C199.147 345.54 200.616 345.632 202.176 345.632C201.442 341.501 199.881 336.728 199.331 335.26C197.679 334.954 196.364 334.74 195.385 334.617V334.617Z" fill="#F29127"/>
<path d="M160.603 386.755C165.65 384.644 173.176 386.939 187.309 390.427C196.792 392.752 202.543 392.844 204.562 390.702C204.011 389.6 204.103 377.025 202.543 361.42C202.268 358.024 201.809 354.536 201.258 350.956C199.147 336.544 195.385 321.215 188.226 310.567C185.901 307.079 181.405 304.478 174.736 302.765C169.321 309.466 163.907 317.451 163.907 329.385C163.907 341.409 167.119 353.067 166.66 360.043C166.354 364.633 164.335 373.537 160.603 386.755V386.755Z" fill="#F9B253"/>
<path d="M190.428 361.236C193.273 361.603 197.587 361.695 202.542 361.419C202.267 358.023 201.808 354.535 201.258 350.955H200.799C198.229 350.863 195.935 349.119 195.292 346.549C194.283 342.969 192.723 337.37 190.337 329.934C187.461 321.061 184.555 316.441 181.618 316.074C177.274 313.871 175.011 315.125 174.827 319.837C174.552 326.722 182.077 360.226 190.428 361.236V361.236Z" fill="#F29127"/>
<path d="M174.093 399.514C174.215 399.33 173.909 397.342 173.175 393.548L166.843 390.519L163.906 395.842C165.742 401.35 168.25 404.685 171.431 405.847C173.022 401.809 173.909 399.697 174.093 399.514Z" fill="#594A5F"/>
<path d="M230.258 354.076C230.747 354.076 231.39 354.076 232.185 354.076C234.021 354.076 235.489 354.351 236.315 354.535C236.927 354.719 237.569 354.749 238.242 354.627C239.619 354.26 242.005 353.801 243.014 353.25C245.033 352.24 245.125 351.873 246.043 350.772C246.838 349.793 247.267 348.967 247.328 348.293C247.511 347.284 246.594 347.743 245.125 349.303C244.881 349.548 244.636 349.793 244.391 350.037C244.299 350.129 243.382 350.68 242.739 350.772H241.363C240.445 350.772 240.108 350.68 240.353 350.496C242.005 350.252 242.984 349.946 243.29 349.578C243.565 349.028 243.106 348.11 240.904 348.569C238.793 348.936 236.957 349.762 235.489 349.946C234.449 350.068 232.889 350.007 230.809 349.762L230.35 353.25C228.973 353.709 227.505 354.351 230.258 354.076V354.076Z" fill="#FFE1BD"/>
<path d="M175.011 317.176C174.644 320.939 182.812 357.473 191.163 358.482C195.568 359.033 203.828 359.033 212.271 357.84C217.9 356.983 224.783 356.126 232.92 355.27L232.736 349.119L201.534 348.293C198.872 348.201 196.67 346.366 195.935 343.887C195.018 340.307 193.458 334.616 191.071 327.181C188.196 318.308 185.29 313.687 182.353 313.32C177.887 312.035 175.439 313.32 175.011 317.176V317.176Z" fill="#F9B253"/>
<path d="M196.486 274.217C195.935 274.125 183.087 271.738 182.628 271.922C182.169 272.105 175.653 279.724 174.827 288.077C173.91 296.43 179.783 299.276 180.884 299.368C185.84 302.03 191.713 304.141 194.742 302.764C197.679 299.735 199.698 295.237 200.982 290.556C200.982 289.546 200.707 288.353 200.982 287.251C201.074 286.884 201.717 286.517 201.9 286.333C203.124 284.497 203.46 283.029 202.91 281.927C198.933 276.848 196.792 274.278 196.486 274.217V274.217Z" fill="#FFD1AB"/>
<path d="M184.372 285.14C186.636 284.65 187.798 282.906 187.859 279.908C188.043 275.502 188.594 275.318 191.347 277.796C194.008 280.275 212.363 290.005 213.923 269.443C211.904 270.178 206.765 269.076 201.901 266.781C199.423 265.588 188.594 256.041 181.435 264.762C177.948 264.119 173.084 267.24 171.707 275.226C170.422 283.212 173.359 294.319 176.112 295.421C177.948 296.247 178.866 294.411 179.508 290.556C179.783 288.628 174.644 284.773 180.059 279.908C182.261 278.347 186.942 281.101 184.372 285.14V285.14Z" fill="#2C1E56"/>
<path d="M176.112 295.421C176.479 299.276 175.959 301.815 174.552 303.039C176.693 305.67 180.242 307.17 185.198 307.537C184.035 305.762 184.708 302.55 187.217 297.899C189.725 293.187 186.024 292.361 176.112 295.421Z" fill="#FFD1AB"/>
<path d="M186.208 308.271C186.269 306.374 186.269 305.028 186.208 304.233C181.435 302.58 177.917 301.54 175.654 301.112C174.919 301.601 174.338 302.519 173.91 303.865C178.621 306.252 182.72 307.721 186.208 308.271V308.271Z" fill="#F9B253"/>
<path d="M197.861 296.339C200.003 296.89 201.227 296.737 201.533 295.88C201.839 295.024 201.594 292.821 200.798 289.271L197.861 296.339Z" fill="#FFD1AB"/>
<g style="mix-blend-mode:multiply">
<g style="mix-blend-mode:multiply">
<path d="M85.2571 254.665H241.73C244.575 254.665 246.869 252.37 246.869 249.525V179.946C246.869 177.1 244.575 174.806 241.73 174.806H85.2571C82.4121 174.806 80.1177 177.1 80.1177 179.946V249.525C80.1177 252.37 82.4121 254.665 85.2571 254.665Z" fill="#5FB0E7"/>
</g>
</g>
<path d="M83.7877 176.274V245.945C83.7877 248.699 86.0821 250.993 88.9271 250.993H245.4C248.245 250.993 250.539 248.699 250.539 245.945V176.274C250.539 173.429 248.245 171.134 245.4 171.134H88.9271C86.0821 171.134 83.7877 173.429 83.7877 176.274Z" fill="white"/>
<path d="M83.7877 176.274V186.279H250.539V176.274C250.539 173.429 248.245 171.134 245.4 171.134H88.9271C86.0821 171.134 83.7877 173.429 83.7877 176.274V176.274Z" fill="#AEC1FF"/>
<g opacity="0.5">
<path opacity="0.5" d="M90.3962 194.725V242.732H244.208V227.403C238.059 218.866 229.524 213.267 210.16 224.741C191.438 235.756 191.53 200.232 170.239 202.068C148.947 203.904 143.257 235.756 126.738 211.431C115.664 195.214 103.55 189.646 90.3962 194.725V194.725Z" fill="#AEC1FF"/>
</g>
<path opacity="0.5" d="M213.923 196.468H244.208V194.448H213.923V196.468Z" fill="#AEC1FF"/>
<path opacity="0.5" d="M192.998 200.14H244.208V198.121H192.998V200.14Z" fill="#AEC1FF"/>
<path opacity="0.5" d="M205.755 203.812H244.208V201.792H205.755V203.812Z" fill="#AEC1FF"/>
<path opacity="0.5" d="M197.862 207.484H244.208V205.464H197.862V207.484Z" fill="#AEC1FF"/>
<path opacity="0.5" d="M213.923 211.155H244.208V209.136H213.923V211.155Z" fill="#AEC1FF"/>
<g style="mix-blend-mode:multiply">
<g style="mix-blend-mode:multiply">
<path d="M469.969 150.112C476.944 168.93 495.115 182.423 516.498 182.423C537.789 182.423 555.96 168.93 562.935 150.112H469.969Z" fill="#5FB0E7"/>
</g>
</g>
<path d="M521.453 129.184L568.441 145.248C570.184 140.199 571.102 134.784 571.102 129.184C571.102 118.628 567.798 108.898 562.2 100.82L521.453 129.184Z" fill="#18BDF7"/>
<path d="M464.829 124.595C464.829 137.538 469.785 149.287 477.953 158.191L514.387 124.595V74.9351C487.038 74.9351 464.829 97.1489 464.829 124.595Z" fill="#18BDF7"/>
<path d="M521.453 129.185L562.201 100.821C553.299 87.9698 538.34 79.5249 521.453 79.5249V129.185Z" fill="#F9B253"/>
<path d="M521.454 129.184L485.02 162.78C494.105 172.602 507.045 178.752 521.454 178.752C524.635 178.752 527.725 178.446 530.723 177.834L521.454 129.184Z" fill="#B8ECFF"/>
<path d="M521.453 129.184L530.722 177.834C548.342 174.53 562.659 161.862 568.44 145.248L521.453 129.184Z" fill="#15A7CE"/>
<g style="mix-blend-mode:multiply">
<g style="mix-blend-mode:multiply">
<path d="M542.47 261.549V282.386C542.47 284.222 543.938 285.691 545.773 285.691H551.28C550.79 289.668 549.444 291.871 547.242 292.3C555.226 292.3 556.786 287.894 557.062 285.691H611.85C613.685 285.691 615.154 284.222 615.154 282.386V261.549C615.154 259.713 613.685 258.245 611.85 258.245H545.773C543.938 258.245 542.47 259.713 542.47 261.549V261.549Z" fill="#5FB0E7"/>
</g>
</g>
<path d="M543.754 259.897V280.734C543.754 282.57 545.223 284.039 546.966 284.039H552.473C552.044 288.016 550.729 290.22 548.526 290.648C556.511 290.648 557.979 286.242 558.254 284.039H613.135C614.878 284.039 616.347 282.57 616.347 280.734V259.897C616.347 258.061 614.878 256.593 613.135 256.593H546.966C545.223 256.593 543.754 258.061 543.754 259.897Z" fill="#EBFAFF"/>
<path d="M547.425 262.008H613.226C613.777 262.008 614.236 261.549 614.236 260.998V260.172C614.236 259.622 613.777 259.163 613.226 259.163H547.425C546.875 259.163 546.416 259.622 546.416 260.172V260.998C546.416 261.549 546.875 262.008 547.425 262.008Z" fill="#B2EBF9"/>
<path d="M547.425 266.781H613.226C613.777 266.781 614.236 266.323 614.236 265.772V264.946C614.236 264.395 613.777 263.936 613.226 263.936H547.425C546.875 263.936 546.416 264.395 546.416 264.946V265.772C546.416 266.323 546.875 266.781 547.425 266.781Z" fill="#B2EBF9"/>
<path d="M547.425 271.554H613.226C613.777 271.554 614.236 271.095 614.236 270.545V269.719C614.236 269.168 613.777 268.709 613.226 268.709H547.425C546.875 268.709 546.416 269.168 546.416 269.719V270.545C546.416 271.095 546.875 271.554 547.425 271.554Z" fill="#B2EBF9"/>
<path d="M547.425 276.328H613.226C613.777 276.328 614.236 275.869 614.236 275.318V274.492C614.236 273.941 613.777 273.482 613.226 273.482H547.425C546.875 273.482 546.416 273.941 546.416 274.492V275.318C546.416 275.869 546.875 276.328 547.425 276.328Z" fill="#B2EBF9"/>
<path d="M547.425 281.101H613.226C613.777 281.101 614.236 280.642 614.236 280.092V279.266C614.236 278.715 613.777 278.256 613.226 278.256H547.425C546.875 278.256 546.416 278.715 546.416 279.266V280.092C546.416 280.642 546.875 281.101 547.425 281.101Z" fill="#B2EBF9"/>
<g style="mix-blend-mode:multiply">
<g style="mix-blend-mode:multiply">
<path d="M161.429 268.618H95.3522C93.5167 268.618 92.0483 270.086 92.0483 271.922V292.759C92.0483 294.595 93.5167 296.064 95.3522 296.064H150.141C150.416 298.267 151.976 302.673 159.868 302.673C157.727 302.244 156.412 300.041 155.922 296.064H161.429C163.264 296.064 164.732 294.595 164.732 292.759V271.922C164.732 270.086 163.264 268.618 161.429 268.618Z" fill="#5FB0E7"/>
</g>
</g>
<path d="M160.143 266.965H94.0671C92.3234 266.965 90.7633 268.434 90.7633 270.269V291.106C90.7633 292.942 92.3234 294.411 94.0671 294.411H148.855C149.131 296.614 150.691 301.02 158.675 301.02C156.473 300.592 155.157 298.389 154.729 294.411H160.143C161.979 294.411 163.447 292.942 163.447 291.106V270.269C163.447 268.434 161.979 266.965 160.143 266.965V266.965Z" fill="#EBFAFF"/>
<path d="M113.89 289.912V271.463C113.89 270.545 113.156 269.902 112.33 269.902H94.5257C93.6997 269.902 92.9655 270.545 92.9655 271.463V289.912C92.9655 290.738 93.6997 291.473 94.5257 291.473H112.33C113.156 291.473 113.89 290.738 113.89 289.912Z" fill="#80D4DD"/>
<path d="M160.602 271.83V270.637C160.602 270.269 160.235 269.902 159.868 269.902H117.469C117.102 269.902 116.735 270.269 116.735 270.637V271.83C116.735 272.197 117.102 272.564 117.469 272.564H159.868C160.235 272.564 160.602 272.197 160.602 271.83Z" fill="#80D4DD"/>
<path d="M151.058 276.603V275.318C151.058 274.951 150.69 274.584 150.323 274.584H117.377C117.01 274.584 116.735 274.951 116.735 275.318V276.603C116.735 276.971 117.01 277.338 117.377 277.338H150.323C150.69 277.338 151.058 276.971 151.058 276.603Z" fill="#80D4DD"/>
<path d="M160.602 281.193V280.091C160.602 279.632 160.235 279.265 159.868 279.265H117.469C117.102 279.265 116.735 279.632 116.735 280.091V281.193C116.735 281.652 117.102 282.019 117.469 282.019H159.868C160.235 282.019 160.602 281.652 160.602 281.193Z" fill="#80D4DD"/>
<path d="M157.022 285.966V284.773C157.022 284.406 156.747 284.039 156.288 284.039H117.468C117.009 284.039 116.734 284.406 116.734 284.773V285.966C116.734 286.425 117.009 286.7 117.468 286.7H156.288C156.747 286.7 157.022 286.425 157.022 285.966Z" fill="#80D4DD"/>
<path d="M133.529 290.923V289.271C133.529 288.996 133.254 288.72 132.979 288.72H117.194C116.918 288.72 116.735 288.996 116.735 289.271V290.923C116.735 291.198 116.918 291.474 117.194 291.474H132.979C133.254 291.474 133.529 291.198 133.529 290.923Z" fill="#80D4DD"/>
<path d="M284.404 150.112H351.123C351.062 149.5 350.848 148.705 350.481 147.725C348.737 143.779 342.588 135.701 320.287 132.03L309.275 129.827C292.327 129.765 284.037 136.527 284.404 150.112Z" fill="#F9B253"/>
<path d="M306.521 150.113H351.123C351.062 149.501 350.848 148.706 350.481 147.727C348.829 147.268 346.718 147.268 345.158 147.727C344.057 148.032 343.139 148.277 342.405 148.461C326.864 148.461 317.198 148.461 313.404 148.461C309.672 148.461 307.378 149.012 306.521 150.113Z" fill="#F29127"/>
<path d="M311.661 118.537C310.865 124.656 309.795 128.725 308.449 130.745C308.02 134.783 311.049 136.986 317.534 137.353C319.278 137.537 320.93 136.252 321.297 134.508C321.664 133.223 322.123 131.754 322.857 130.745" fill="#FFE1BD"/>
<path d="M340.661 101.279C336.99 110.152 336.99 114.65 340.661 114.772C344.27 114.895 345.953 110.887 345.708 102.748L340.661 101.279Z" fill="#2C1E56"/>
<path d="M312.946 116.241C312.854 118.077 312.762 119.73 312.854 120.831C312.915 121.015 312.946 121.198 312.946 121.382C313.007 121.504 313.037 121.657 313.037 121.841C314.414 127.073 321.022 134.508 325.702 135.151C326.314 135.151 326.926 135.151 327.538 135.151C333.962 134.875 337.816 129.551 339.927 123.86C340.049 123.677 340.141 123.493 340.202 123.31C342.129 117.986 342.772 112.662 342.955 110.734C342.955 110.275 343.231 105.502 342.313 104.033C341.304 102.473 328.455 101.004 328.18 100.912C327.996 100.912 323.805 101.218 315.607 101.83C314.261 107.338 313.374 112.141 312.946 116.241V116.241Z" fill="#FFE1BD"/>
<path d="M311.018 116.058C310.835 117.894 311.018 119.362 311.11 120.555C311.171 120.739 311.202 120.923 311.202 121.106C312.12 126.338 318.452 134.416 325.702 135.15C326.253 135.211 326.773 135.242 327.262 135.242C335.063 135.609 337.816 129.642 339.927 123.86C340.049 123.676 340.141 123.493 340.202 123.309C338.367 126.185 337.021 127.654 336.164 127.715C334.788 127.899 336.439 126.155 332.769 124.778C330.474 123.86 326.895 123.952 325.243 124.135C323.683 124.319 320.93 125.145 320.012 125.237C319.767 125.298 319.584 125.298 319.462 125.237C318.177 124.502 314.965 119.546 314.506 116.792C314.322 115.691 312.028 115.874 311.018 116.058V116.058Z" fill="#2C1E56"/>
<path d="M347.452 90.173C347.452 89.8977 342.68 93.294 333.502 90.632C327.445 88.8573 323.132 89.0409 320.562 91.1827C318.115 91.0604 315.882 92.4066 313.863 95.2216C310.834 99.4441 310.926 117.252 311.018 118.537C311.079 119.883 312.609 120.373 315.607 120.006C313.037 113.947 313.006 110.673 315.515 110.184C320.287 109.266 316.524 117.527 317.901 118.078C319.002 118.445 319.186 113.672 322.306 103.758C324.417 102.565 328.179 103.575 332.401 104.584C342.68 107.093 347.941 105.227 348.186 98.9851C348.828 93.0186 347.36 90.4484 347.452 90.173V90.173Z" fill="#2C1E56"/>
<g style="mix-blend-mode:multiply">
<g style="mix-blend-mode:multiply">
<path d="M284.404 150.112C284.893 160.821 287.34 169.572 291.745 176.365V176.457C291.807 176.518 291.868 176.579 291.929 176.64C291.99 176.763 292.051 176.855 292.112 176.916C294.131 179.945 305.052 196.192 312.211 202.618C317.411 207.391 322.979 212.47 328.913 217.855L329.28 217.58C330.382 218.681 331.575 219.875 331.85 220.334C332.493 221.435 333.043 225.474 334.236 225.933C334.328 226.025 334.603 226.025 334.787 226.025C335.154 226.392 335.796 226.759 336.439 226.759C337.724 227.035 339.559 226.576 340.018 226.392C340.477 226.759 340.844 227.31 341.67 227.677C343.23 228.503 344.79 229.605 346.075 230.064C347.36 230.431 347.543 230.064 347.268 229.238C346.993 228.411 344.515 227.035 343.689 226.3C342.771 225.658 341.303 223.73 340.752 222.445C340.201 221.252 340.201 220.609 340.752 220.609C341.303 220.609 342.955 221.619 344.239 221.894C345.524 222.17 346.167 221.894 345.524 221.16C344.974 220.334 343.138 218.222 341.027 217.672C338.917 217.121 338.274 217.121 336.806 215.928C336.072 215.377 335.154 214.184 334.42 213.082L334.97 212.623C325.61 199.589 317.442 188.023 310.467 177.925C310.192 177.65 310.008 177.375 309.733 177.008C303.768 165.074 303.217 155.528 303.309 151.856C303.737 150.938 304.318 150.357 305.052 150.112H284.404Z" fill="#5FB0E7"/>
</g>
</g>
<path d="M328.18 215.194C331.177 217.886 332.891 219.6 333.319 220.334C333.869 221.436 334.512 225.474 335.705 225.933C335.797 226.025 335.98 226.025 336.164 226.025C336.623 226.392 337.265 226.668 337.907 226.759C339.192 227.035 341.028 226.576 341.487 226.392C341.946 226.759 342.313 227.31 343.139 227.677C344.699 228.503 346.259 229.605 347.544 230.064C348.828 230.431 349.012 230.064 348.737 229.238C348.461 228.412 345.984 227.035 345.158 226.392C344.24 225.658 342.771 223.73 342.221 222.537C341.67 221.252 341.67 220.61 342.221 220.61C342.771 220.61 344.423 221.619 345.708 221.895C346.993 222.17 347.635 221.895 346.993 221.068C346.351 220.334 344.607 218.223 342.496 217.672C340.385 217.122 339.743 217.122 338.275 215.928C337.296 215.194 336.041 213.511 334.512 210.88L328.18 215.194Z" fill="#FFE1BD"/>
<path d="M293.397 176.641C293.459 176.763 293.52 176.855 293.581 176.916C295.6 179.853 306.521 196.192 313.587 202.618C318.788 207.391 324.386 212.47 330.382 217.855L336.439 212.623C327.078 199.589 318.91 188.023 311.936 177.926C311.66 177.65 311.477 177.283 311.201 177.008C305.236 164.983 304.686 155.528 304.686 151.765C305.175 150.908 305.787 150.357 306.521 150.113L304.502 143.503C301.382 144.666 298.934 145.645 297.16 146.441L292.847 144.33L284.404 150.113C285.872 160.822 288.809 169.573 293.214 176.365C293.275 176.488 293.336 176.579 293.397 176.641V176.641Z" fill="#F9B253"/>
<g style="mix-blend-mode:multiply">
<g style="mix-blend-mode:multiply">
<path d="M339.927 154.059C339.988 154.059 340.08 154.059 340.202 154.059C339.927 154.335 339.744 154.518 339.652 154.61C339.529 154.794 339.499 154.947 339.56 155.069C339.927 155.344 340.202 155.344 340.569 155.344C340.814 155.283 341.09 155.161 341.395 154.977C341.671 155.252 341.946 155.161 342.313 155.161C342.68 155.161 343.231 154.702 343.782 154.059C343.72 154.182 343.72 154.304 343.782 154.426C344.149 154.702 344.424 154.702 344.883 154.702C345.25 154.61 345.801 154.243 346.443 153.508C346.718 153.325 346.994 152.958 347.361 152.499C347.667 152.315 347.942 152.132 348.187 151.948C348.645 151.581 349.196 151.581 349.38 151.581C349.441 151.581 349.471 151.581 349.471 151.581V151.489C352.592 151.489 354.06 150.112 357.915 150.112H340.386C340.386 150.112 340.417 150.143 340.478 150.204C340.661 150.204 341.12 150.296 341.579 150.388C341.518 150.388 341.487 150.418 341.487 150.479C341.242 150.724 340.998 150.969 340.753 151.214C340.111 152.04 339.193 153.141 339.009 153.325C338.826 153.509 338.795 153.661 338.918 153.784C339.193 154.151 339.56 154.059 339.927 154.059V154.059Z" fill="#5FB0E7"/>
</g>
</g>
<path d="M340.661 154.06C340.722 154.06 340.814 154.06 340.936 154.06C340.661 154.335 340.477 154.519 340.386 154.61C340.263 154.794 340.233 154.947 340.294 155.069C340.661 155.345 340.936 155.345 341.303 155.345C341.548 155.284 341.823 155.161 342.129 154.978C342.405 155.253 342.68 155.161 343.047 155.161C343.414 155.161 343.965 154.702 344.515 154.06C344.515 154.182 344.515 154.304 344.515 154.427C344.882 154.702 345.158 154.702 345.617 154.702C345.984 154.61 346.534 154.243 347.177 153.509C347.452 153.325 347.727 152.958 348.095 152.499C348.4 152.316 348.676 152.132 348.92 151.949C349.379 151.581 349.93 151.581 350.114 151.581C350.175 151.581 350.205 151.581 350.205 151.581V151.49C353.417 151.49 354.794 150.113 358.648 150.113C352.653 147.175 347.819 146.747 344.148 148.828C343.598 148.919 342.496 149.103 341.854 149.103C340.294 149.103 340.753 149.929 341.212 150.205C341.395 150.205 341.854 150.296 342.313 150.388C342.252 150.388 342.221 150.419 342.221 150.48C341.976 150.725 341.762 150.969 341.579 151.214C340.844 152.04 339.927 153.142 339.743 153.325C339.56 153.509 339.529 153.662 339.651 153.784C339.927 154.151 340.294 154.06 340.661 154.06V154.06Z" fill="#FFE1BD"/>
<path style="mix-blend-mode:multiply" opacity="0.5" d="M341.21 150.205C341.394 150.205 341.853 150.297 342.312 150.389C343.168 149.532 343.78 149.012 344.147 148.828C343.597 148.92 342.495 149.103 341.853 149.103C340.292 149.103 340.751 149.93 341.21 150.205Z" fill="url(#paint3_linear_300_312)"/>
<path d="M49.465 525.544C49.465 527.471 62.9555 528.94 79.5664 528.94C96.1773 528.94 109.668 527.471 109.668 525.544C109.668 524.259 103.244 523.157 93.7912 522.606L93.3323 524.442C93.057 525.177 92.4146 525.727 91.5886 525.727H69.4714C68.6454 525.727 68.003 525.177 67.7277 524.442L67.2688 522.515C56.7149 522.974 49.465 524.167 49.465 525.544V525.544Z" fill="#00A4D6"/>
<path d="M91.5894 485.523C92.2624 478.363 97.3406 473.009 106.824 469.459C116.246 465.91 124.322 466.247 131.052 470.469C130.134 461.779 125.913 457.649 118.387 458.077C110.923 458.444 106.457 461.045 104.988 465.879C100.95 461.657 97.157 461.106 93.6085 464.227C90.6717 466.797 89.4175 470.683 89.8458 475.885C87.0926 476.191 85.8995 478.577 86.2666 483.045C86.3278 483.901 86.4502 484.666 86.6337 485.34" fill="#61C5F2"/>
<path opacity="0.6" d="M91.5894 485.523C92.2624 478.363 97.3406 473.009 106.824 469.459C116.246 465.91 124.322 466.247 131.052 470.469C130.134 461.779 125.913 457.649 118.387 458.077C110.923 458.444 106.457 461.045 104.988 465.879C100.95 461.657 97.157 461.106 93.6085 464.227C90.6717 466.797 89.4175 470.683 89.8458 475.885C87.0926 476.191 85.8995 478.577 86.2666 483.045C86.3278 483.901 86.4502 484.666 86.6337 485.34" fill="url(#paint4_linear_300_312)"/>
<path d="M83.6964 485.432C83.8799 451.744 100.766 436.782 100.95 436.69L100.491 436.048C100.307 436.231 83.1458 451.377 82.9623 485.432H83.6964Z" fill="#39A7D8"/>
<path d="M100.033 436.966C102.358 437.21 104.224 436.782 105.631 435.681C106.733 434.855 106.916 433.294 106.09 432.193C105.172 431.091 103.612 430.908 102.603 431.825C101.134 432.927 100.278 434.64 100.033 436.966V436.966Z" fill="#39A7D8"/>
<path d="M98.6561 438.343C98.8397 440.729 99.6044 442.504 100.95 443.666C101.96 444.584 103.52 444.401 104.438 443.391C105.355 442.381 105.264 440.821 104.162 439.903C102.816 438.679 100.981 438.159 98.6561 438.343Z" fill="#39A7D8"/>
<path d="M98.748 438.434C98.381 436.108 97.4938 434.395 96.0866 433.293C94.9853 432.467 93.4253 432.743 92.5993 433.844C91.7733 434.946 91.9569 436.506 93.0582 437.332C94.5265 438.434 96.4231 438.801 98.748 438.434Z" fill="#39A7D8"/>
<path d="M93.5168 445.226C94.0063 447.552 94.9851 449.204 96.4535 450.183C97.6465 450.917 99.1149 450.642 99.9409 449.54C100.675 448.347 100.4 446.878 99.2984 446.052C97.7689 445.012 95.8417 444.737 93.5168 445.226Z" fill="#39A7D8"/>
<path d="M93.7002 445.226C93.0272 442.962 91.9259 441.371 90.3964 440.453C89.2033 439.81 87.6431 440.178 87.0007 441.371C86.2665 442.564 86.7253 444.124 87.9184 444.767C89.5092 445.685 91.4364 445.838 93.7002 445.226Z" fill="#39A7D8"/>
<path d="M79.292 485.432C83.1465 440.27 62.3139 418.056 62.0386 417.781L61.3044 418.515C61.4879 418.79 82.1369 440.637 78.1906 485.34L79.292 485.432Z" fill="#258BAF"/>
<path d="M59.7439 411.906C58.4591 410.621 56.3484 410.713 55.0636 411.998C53.8705 413.375 53.8705 415.486 55.2471 416.679C56.9602 418.331 59.4074 419.127 62.5889 419.065C62.4665 416.006 61.5182 413.619 59.7439 411.906V411.906Z" fill="#258BAF"/>
<path d="M56.6235 422.462C55.1552 423.472 54.7882 425.583 55.8894 427.052C56.8989 428.52 59.0097 428.888 60.4781 427.878C62.3747 426.47 63.6289 424.206 64.2407 421.085C61.1816 420.596 58.6425 421.055 56.6235 422.462Z" fill="#258BAF"/>
<path d="M71.674 420.35C73.2342 419.432 73.7848 417.413 72.7753 415.853C71.8575 414.292 69.8386 413.742 68.2785 414.751C66.2595 415.975 64.8522 418.117 64.0568 421.176C67.0547 421.911 69.5938 421.635 71.674 420.35Z" fill="#258BAF"/>
<path d="M62.4053 431.275C60.8452 432.101 60.2028 434.12 61.1205 435.772C62.0382 437.333 64.0572 437.975 65.6174 437.057C67.6976 435.895 69.1965 433.814 70.1143 430.816C67.1163 429.898 64.5467 430.051 62.4053 431.275Z" fill="#258BAF"/>
<path d="M77.6396 430.907C79.2915 430.173 80.0258 428.245 79.2916 426.593C78.4656 424.849 76.5384 424.206 74.8865 424.941C72.7451 425.92 71.0932 427.878 69.9307 430.815C72.8674 431.917 75.4371 431.947 77.6396 430.907Z" fill="#258BAF"/>
<path d="M66.7188 441.371C65.0669 442.105 64.2409 444.125 64.9751 445.777C65.7093 447.429 67.7283 448.163 69.3802 447.429C71.5216 446.511 73.2041 444.584 74.4277 441.646C71.5522 440.484 68.9825 440.392 66.7188 441.371V441.371Z" fill="#258BAF"/>
<path d="M81.8616 442.472C83.6052 441.83 84.523 439.994 83.8806 438.25C83.2382 436.506 81.4027 435.588 79.659 436.231C77.4564 437.026 75.6516 438.831 74.2444 441.646C76.9976 442.993 79.5366 443.268 81.8616 442.472V442.472Z" fill="#258BAF"/>
<path d="M69.8394 450.642C68.0039 451.101 66.9945 452.937 67.4533 454.681C67.8204 456.425 69.6558 457.526 71.3995 457.067C73.7244 456.517 75.7128 454.895 77.3647 452.203C74.7339 450.612 72.2255 450.091 69.8394 450.642Z" fill="#258BAF"/>
<path d="M84.615 454.222C86.4504 453.946 87.6435 452.202 87.2764 450.458C87.0011 448.622 85.2574 447.429 83.422 447.704C81.097 448.133 79.0168 449.632 77.1813 452.202C79.6898 453.977 82.1677 454.65 84.615 454.222Z" fill="#258BAF"/>
<path d="M71.4912 460.831C69.6558 461.106 68.3709 462.85 68.6462 464.594C68.9215 466.43 70.6653 467.715 72.4089 467.44C74.795 467.073 76.9364 465.635 78.833 463.126C76.3246 461.229 73.8773 460.464 71.4912 460.831Z" fill="#258BAF"/>
<path d="M85.8082 465.88C87.6436 465.696 89.0201 464.136 88.8366 462.3C88.7448 460.465 87.1848 459.088 85.3493 459.271C82.9632 459.455 80.73 460.74 78.6498 463.126C80.9748 465.146 83.3609 466.064 85.8082 465.88V465.88Z" fill="#258BAF"/>
<path d="M71.9502 474.049C70.1147 474.325 68.9217 475.977 69.197 477.813C69.4723 479.648 71.1242 480.842 72.9597 480.566C75.2846 480.199 77.3954 478.761 79.292 476.252C76.7835 474.416 74.3363 473.682 71.9502 474.049Z" fill="#258BAF"/>
<path d="M86.3582 479.006C88.1019 478.914 89.4786 477.262 89.3868 475.426C89.2032 473.59 87.6431 472.305 85.8076 472.397C83.4215 472.581 81.1883 473.866 79.1082 476.252C81.4942 478.272 83.911 479.19 86.3582 479.006V479.006Z" fill="#258BAF"/>
<path d="M75.0703 485.523C79.1695 472.244 76.9365 464.595 68.371 462.575C67.9427 444.767 61.3962 438.097 48.7316 442.564C46.8961 435.649 42.3075 432.345 34.9657 432.651C27.6238 432.957 24.1059 436.659 24.4118 443.758C17.6818 444.798 14.3168 448.133 14.3168 453.763C47.2938 444.461 65.1895 455.048 68.0039 485.523" fill="#61C5F2"/>
<path opacity="0.6" d="M75.0703 485.523C79.1695 472.244 76.9365 464.595 68.371 462.575C67.9427 444.767 61.3962 438.097 48.7316 442.564C46.8961 435.649 42.3075 432.345 34.9657 432.651C27.6238 432.957 24.1059 436.659 24.4118 443.758C17.6818 444.798 14.3168 448.133 14.3168 453.763C47.2938 444.461 65.1895 455.048 68.0039 485.523" fill="url(#paint5_linear_300_312)"/>
<path d="M99.1141 485.431H61.9461C59.6518 485.431 57.9999 487.542 58.6423 489.745L67.7277 524.443C68.0031 525.177 68.6455 525.728 69.4715 525.728H91.5887C92.4147 525.728 93.0571 525.177 93.3324 524.443L102.51 489.745C103.06 487.542 101.408 485.431 99.1141 485.431V485.431Z" stroke="#00BFD8" stroke-width="0.865791"/>
<path d="M67.545 489.654L73.6938 522.149" stroke="#00BFD8" stroke-width="0.865791" stroke-linecap="round"/>
<defs>
<linearGradient id="paint0_linear_300_312" x1="-71633.2" y1="60602.2" x2="-66933.6" y2="55226.3" gradientUnits="userSpaceOnUse">
<stop stop-color="#288ACC"/>
<stop offset="1" stop-color="#288ACC" stop-opacity="0"/>
</linearGradient>
<linearGradient id="paint1_linear_300_312" x1="-82359" y1="54107.7" x2="-87684.2" y2="48145.7" gradientUnits="userSpaceOnUse">
<stop stop-color="#288ACC"/>
<stop offset="1" stop-color="#288ACC" stop-opacity="0"/>
</linearGradient>
<linearGradient id="paint2_linear_300_312" x1="-301735" y1="98716.3" x2="-572326" y2="98716.3" gradientUnits="userSpaceOnUse">
<stop stop-color="#288ACC"/>
<stop offset="1" stop-color="#288ACC" stop-opacity="0"/>
</linearGradient>
<linearGradient id="paint3_linear_300_312" x1="-2644.62" y1="639.889" x2="-2655.42" y2="639.889" gradientUnits="userSpaceOnUse">
<stop stop-color="#FF912A"/>
<stop offset="1" stop-color="#FF912A" stop-opacity="0"/>
</linearGradient>
<linearGradient id="paint4_linear_300_312" x1="-50002.2" y1="18361.6" x2="-52168.4" y2="18361.6" gradientUnits="userSpaceOnUse">
<stop stop-color="#288ACC"/>
<stop offset="1" stop-color="#288ACC" stop-opacity="0"/>
</linearGradient>
<linearGradient id="paint5_linear_300_312" x1="-74048.4" y1="33432" x2="-78038.9" y2="33432" gradientUnits="userSpaceOnUse">
<stop stop-color="#288ACC"/>
<stop offset="1" stop-color="#288ACC" stop-opacity="0"/>
</linearGradient>
</defs>
</svg>
