<svg width="721" height="719" viewBox="0 0 721 719" fill="none" xmlns="http://www.w3.org/2000/svg">
<path d="M83.3783 330.3C98.9865 180.1 234.224 70.9002 385.473 86.5002C536.722 102 646.584 236.4 630.976 386.5C615.367 536.7 480.029 645.9 328.78 630.3C177.632 614.8 67.6694 480.4 83.3783 330.3V330.3Z" fill="#92E0FF"/>
<path d="M10.3719 300.9C10.1033 300.9 9.83482 300.866 9.56629 300.8C7.04883 300.4 5.33696 298 5.84045 295.5C6.94814 289.5 8.15652 283.4 9.56629 277.5C10.1705 275 12.5872 273.5 15.1047 274.1C17.5215 274.6 19.1326 277.1 18.5284 279.5C17.1187 285.3 15.9103 291.3 14.9033 297.2C14.5005 299.4 12.4865 300.9 10.3719 300.9V300.9Z" fill="#0C6BC2"/>
<path d="M44.7098 524.8C42.998 524.8 41.3868 523.9 40.5812 522.3C34.5393 510.8 29.1016 498.9 24.3688 486.9C23.4625 484.5 24.6709 481.9 26.9869 481C29.4037 480.1 32.0218 481.2 32.9281 483.6C37.5603 495.3 42.8973 506.9 48.7378 518.1C49.9461 520.3 49.0399 523.1 46.8245 524.2C46.086 524.6 45.3812 524.8 44.7098 524.8V524.8ZM16.7157 453.3C14.601 453.3 12.7885 451.9 12.285 449.9C8.86123 437.4 6.24307 424.6 4.2291 411.8C3.92701 409.3 5.63888 407 8.15634 406.6C10.5731 406.2 12.9899 407.9 13.292 410.4C15.2052 422.9 17.8234 435.4 21.1464 447.5C21.7506 450 20.3408 452.5 17.8234 453.1C17.4206 453.233 17.0514 453.3 16.7157 453.3V453.3ZM5.13539 377.4C2.61793 377.4 0.603965 375.5 0.503267 373.1C0.30187 368.2 0.201172 363.3 0.201172 358.4C0.201172 350.3 0.503267 342.2 1.00676 334.2C1.20816 331.7 3.42352 329.8 5.94098 329.9C8.45844 330.1 10.3717 332.3 10.1703 334.8C9.66682 342.6 9.36472 350.5 9.36472 358.4C9.36472 363.1 9.46542 368 9.66682 372.7C9.76751 375.2 7.85425 377.3 5.33679 377.4C5.26965 377.4 5.20252 377.4 5.13539 377.4Z" fill="#0C6BC2"/>
<path d="M75.0202 572.6C73.7112 572.6 72.3014 572 71.3951 570.8C67.6693 565.9 64.0441 560.8 60.6204 555.7C59.2106 553.7 59.8148 550.8 61.8288 549.4C63.9434 548 66.8637 548.6 68.2734 550.7C71.5965 555.6 75.1209 560.6 78.7461 565.3C80.2565 567.3 79.8538 570.2 77.8398 571.7C76.9335 572.3 76.0272 572.6 75.0202 572.6V572.6Z" fill="#0C6BC2"/>
<path d="M376.31 13.6C376.176 13.6 376.075 13.6 376.008 13.6C370.067 13.2 363.924 13.1 357.882 13.1C355.365 13.1 353.351 11 353.351 8.5C353.351 6 355.365 4 357.983 4C364.125 4 370.369 4.1 376.511 4.5C379.029 4.6 381.043 6.7 380.841 9.3C380.741 11.7 378.727 13.6 376.31 13.6V13.6Z" fill="#0C6BC2"/>
<path d="M264.333 25.3001C262.319 25.3001 260.506 24.0001 259.902 22.0001C259.298 19.5001 260.708 17.0001 263.125 16.4001C278.531 12.2001 294.341 9.10009 310.151 7.00009C312.668 6.70009 314.984 8.40009 315.286 10.9001C315.588 13.4001 313.877 15.7001 311.359 16.0001C295.952 18.1001 280.545 21.1001 265.541 25.2001C265.139 25.2668 264.736 25.3001 264.333 25.3001V25.3001Z" fill="#0C6BC2"/>
<path d="M203.008 48.2C201.296 48.2 199.685 47.3 198.879 45.7C197.771 43.4 198.678 40.7 200.994 39.6C206.532 36.9 212.272 34.3 217.911 31.9C220.227 31 222.946 32 223.953 34.4C224.859 36.7 223.852 39.4 221.536 40.3C215.998 42.7 210.459 45.2 205.022 47.7999C204.35 48.1333 203.679 48.2666 203.008 48.2Z" fill="#0C6BC2"/>
<path d="M560.386 648.9C558.876 648.9 557.466 648.2 556.56 646.9C555.15 644.9 555.653 642 557.667 640.6C562.602 637.1 567.435 633.5 572.168 629.8C574.182 628.3 577.102 628.6 578.613 630.6C580.224 632.5 579.922 635.4 577.908 637C573.074 640.8 568.039 644.5 563.004 648C562.199 648.6 561.293 648.9 560.386 648.9Z" fill="#0C6BC2"/>
<path d="M600.263 616.2C599.054 616.2 597.846 615.8 596.94 614.8C595.127 613 595.228 610.1 597.04 608.4C604.995 600.9 612.648 593 619.798 584.8C621.51 582.9 624.329 582.7 626.243 584.3C628.156 586 628.357 588.8 626.746 590.7C619.395 599.1 611.541 607.3 603.384 615C602.478 615.8 601.37 616.2 600.263 616.2ZM643.966 566.3C642.959 566.3 642.052 566 641.247 565.5C639.233 564 638.729 561.1 640.24 559.1C646.584 550.3 652.525 541 658.063 531.6C659.372 529.5 662.091 528.7 664.307 530C666.522 531.3 667.227 534.1 666.019 536.2C660.379 545.8 654.237 555.3 647.691 564.4C646.785 565.6 645.375 566.3 643.966 566.3V566.3ZM677.397 509.1C676.726 509.1 676.088 508.967 675.484 508.7C673.168 507.6 672.161 504.9 673.168 502.6C677.8 492.8 681.929 482.6 685.554 472.3C686.36 470 688.978 468.7 691.395 469.6C693.811 470.4 695.02 473 694.214 475.4C690.488 485.9 686.259 496.3 681.526 506.5C680.821 508.1 679.109 509.1 677.397 509.1V509.1ZM699.35 446.7C699.014 446.7 698.645 446.633 698.242 446.5C695.825 445.9 694.315 443.5 694.919 441C697.537 430.5 699.652 419.7 701.162 409C701.565 406.5 703.881 404.7 706.399 405.1C708.916 405.5 710.628 407.8 710.326 410.3C708.614 421.3 706.499 432.4 703.78 443.2C703.277 445.3 701.464 446.7 699.35 446.7V446.7Z" fill="#0C6BC2"/>
<path d="M709.017 381.2C708.95 381.2 708.883 381.2 708.816 381.2C706.298 381 704.284 378.9 704.486 376.4C704.788 370.4 704.888 364.4 704.888 358.4C704.888 355.9 707.003 353.8 709.521 353.8C712.038 353.8 714.052 355.9 714.052 358.4C714.052 364.5 713.951 370.7 713.649 376.9C713.448 379.3 711.434 381.2 709.017 381.2Z" fill="#0C6BC2"/>
<path d="M527.76 680.9H105.532V424.4C105.532 407.6 119.327 393.9 136.245 393.9H497.047C513.964 393.9 527.76 407.6 527.76 424.4V680.9Z" fill="#65BFFC"/>
<path fill-rule="evenodd" clip-rule="evenodd" d="M527.76 685.4H105.532C103.014 685.4 101 683.4 101 680.9V424.4C101 405.1 116.81 389.3 136.245 389.3H497.047C516.482 389.3 532.291 405.1 532.291 424.4V680.9C532.291 683.4 530.277 685.4 527.76 685.4ZM110.164 676.3H523.128V424.4C523.128 410.1 511.447 398.5 497.047 398.5H136.245C121.845 398.5 110.164 410.1 110.164 424.4V676.3Z" fill="#0C6BC2"/>
<path d="M134.432 644.3V423.4H498.859V644.3H134.432Z" fill="white"/>
<path fill-rule="evenodd" clip-rule="evenodd" d="M498.86 648.8H134.432C131.915 648.8 129.8 646.8 129.8 644.3V423.4C129.8 420.9 131.915 418.8 134.432 418.8H498.86C501.377 418.8 503.391 420.9 503.391 423.4V644.3C503.391 646.8 501.377 648.8 498.86 648.8ZM139.065 639.7H494.227V427.9H139.065V639.7Z" fill="#0C6BC2"/>
<path d="M527.961 713.7H103.417C90.8298 713.7 80.5586 703.6 80.5586 691V681.1C80.5586 681 80.6593 680.8 80.76 680.8H550.014C550.316 680.8 550.618 681.1 550.618 681.4V691.2C550.618 703.7 540.448 713.7 527.961 713.7Z" fill="white"/>
<path fill-rule="evenodd" clip-rule="evenodd" d="M527.962 718.3H103.417C88.3126 718.3 75.9268 706 75.9268 691V681.1C75.9268 678.4 78.1421 676.3 80.7603 676.3H550.015C552.834 676.3 555.15 678.6 555.15 681.4V691.2C555.15 706.2 542.966 718.3 527.962 718.3V718.3ZM85.0903 685.4V691C85.0903 701 93.3476 709.2 103.417 709.2H527.962C537.83 709.2 545.987 701.1 545.987 691.2V685.4H85.0903Z" fill="#0C6BC2"/>
<path d="M449.417 469.7H340.461C337.944 469.7 335.829 467.7 335.829 465.1C335.829 462.6 337.944 460.6 340.461 460.6H449.417C452.035 460.6 454.049 462.6 454.049 465.1C454.049 467.7 452.035 469.7 449.417 469.7Z" fill="#0C6BC2"/>
<path d="M449.417 486.6H400.679C398.06 486.6 396.046 484.6 396.046 482.1C396.046 479.6 398.06 477.5 400.679 477.5H449.417C452.035 477.5 454.049 479.6 454.049 482.1C454.049 484.6 452.035 486.6 449.417 486.6Z" fill="#0C6BC2"/>
<path d="M449.416 527.5H379.733C377.115 527.5 375.101 525.5 375.101 523C375.101 520.5 377.115 518.4 379.733 518.4H449.416C452.035 518.4 454.049 520.5 454.049 523C454.049 525.5 452.035 527.5 449.416 527.5Z" fill="#0C6BC2"/>
<path d="M449.416 544.5H433.103C430.586 544.5 428.471 542.4 428.471 539.9C428.471 537.4 430.586 535.4 433.103 535.4H449.416C452.035 535.4 454.049 537.4 454.049 539.9C454.049 542.4 452.035 544.5 449.416 544.5Z" fill="#0C6BC2"/>
<path d="M449.417 591.5H376.31C373.792 591.5 371.678 589.4 371.678 586.9C371.678 584.4 373.792 582.3 376.31 582.3H449.417C452.035 582.3 454.049 584.4 454.049 586.9C454.049 589.4 452.035 591.5 449.417 591.5V591.5Z" fill="#0C6BC2"/>
<path d="M449.417 608.4H376.31C373.792 608.4 371.678 606.3 371.678 603.8C371.678 601.3 373.792 599.3 376.31 599.3H449.417C452.035 599.3 454.049 601.3 454.049 603.8C454.049 606.3 452.035 608.4 449.417 608.4V608.4Z" fill="#0C6BC2"/>
<path d="M379.733 680.8H169.878V523H379.733V680.8Z" fill="#C5FBFC"/>
<path fill-rule="evenodd" clip-rule="evenodd" d="M379.733 685.4H169.878C167.361 685.4 165.347 683.4 165.347 680.8V523C165.347 520.5 167.361 518.4 169.878 518.4H379.733C382.251 518.4 384.265 520.5 384.265 523V680.8C384.265 683.4 382.251 685.4 379.733 685.4ZM174.51 676.3H375.101V527.5H174.51V676.3Z" fill="#0C6BC2"/>
<path d="M336.433 637.8H213.883V568.1H336.433V637.8Z" fill="white"/>
<path fill-rule="evenodd" clip-rule="evenodd" d="M336.433 642.3H213.883C211.366 642.3 209.251 640.3 209.251 637.8V568.1C209.251 565.5 211.366 563.5 213.883 563.5H336.433C338.95 563.5 340.964 565.5 340.964 568.1V637.8C340.964 640.3 338.95 642.3 336.433 642.3ZM218.415 633.2H331.801V572.6H218.415V633.2Z" fill="#0C6BC2"/>
<path d="M303.102 598.6H247.215C244.697 598.6 242.683 596.6 242.683 594.1C242.683 591.6 244.697 589.5 247.215 589.5H303.102C305.62 589.5 307.634 591.6 307.634 594.1C307.634 596.6 305.62 598.6 303.102 598.6Z" fill="#0C6BC2"/>
<path d="M316.998 618.7H233.318C230.801 618.7 228.787 616.7 228.787 614.2C228.787 611.7 230.801 609.6 233.318 609.6H316.998C319.516 609.6 321.53 611.7 321.53 614.2C321.53 616.7 319.516 618.7 316.998 618.7Z" fill="#0C6BC2"/>
<path d="M274.806 498.8C235.131 498.8 203.008 466.9 203.008 427.5C203.008 388.1 235.131 356.2 274.806 356.2C314.481 356.2 346.604 388.1 346.604 427.5C346.604 466.9 314.481 498.8 274.806 498.8Z" fill="#C5FBFC"/>
<path fill-rule="evenodd" clip-rule="evenodd" d="M274.806 503.3C232.714 503.3 198.375 469.3 198.375 427.5C198.375 385.6 232.714 351.6 274.806 351.6C316.897 351.6 351.236 385.6 351.236 427.5C351.236 469.3 316.897 503.3 274.806 503.3ZM274.806 360.7C237.749 360.7 207.539 390.7 207.539 427.5C207.539 464.3 237.749 494.2 274.806 494.2C311.862 494.2 342.072 464.3 342.072 427.5C342.072 390.7 311.862 360.7 274.806 360.7Z" fill="#0C6BC2"/>
<path d="M309.949 322.5C307.331 322.5 305.317 320.4 305.317 317.9V306C305.317 303.4 307.331 301.4 309.949 301.4C312.467 301.4 314.481 303.4 314.481 306V317.9C314.481 320.4 312.467 322.5 309.949 322.5Z" fill="#0C6BC2"/>
<path d="M234.426 322.5C231.807 322.5 229.793 320.4 229.793 317.9V306C229.793 303.4 231.807 301.4 234.426 301.4C236.943 301.4 238.957 303.4 238.957 306V317.9C238.957 320.4 236.943 322.5 234.426 322.5Z" fill="#0C6BC2"/>
<path d="M273.195 343.1C270.677 343.1 268.562 341 268.562 338.5V308.4C268.562 305.9 270.677 303.9 273.195 303.9C275.712 303.9 277.726 305.9 277.726 308.4V338.5C277.726 341 275.712 343.1 273.195 343.1Z" fill="#0C6BC2"/>
<path d="M309.949 352.1C307.331 352.1 305.317 350.1 305.317 347.6V337.8C305.317 335.3 307.331 333.3 309.949 333.3C312.467 333.3 314.481 335.3 314.481 337.8V347.6C314.481 350.1 312.467 352.1 309.949 352.1Z" fill="#0C6BC2"/>
<path d="M346.604 351.8C344.086 351.8 342.072 349.7 342.072 347.2V328.2C342.072 325.7 344.086 323.7 346.604 323.7C349.121 323.7 351.236 325.7 351.236 328.2V347.2C351.236 349.7 349.121 351.8 346.604 351.8Z" fill="#0C6BC2"/>
<path d="M346.604 432C344.086 432 342.072 430 342.072 427.5V367.1C342.072 364.6 344.086 362.6 346.604 362.6C349.121 362.6 351.236 364.6 351.236 367.1V427.5C351.236 430 349.121 432 346.604 432Z" fill="#0C6BC2"/>
<path d="M203.008 351.8C200.49 351.8 198.375 349.7 198.375 347.2V328.2C198.375 325.7 200.49 323.7 203.008 323.7C205.525 323.7 207.539 325.7 207.539 328.2V347.2C207.539 349.7 205.525 351.8 203.008 351.8Z" fill="#0C6BC2"/>
<path d="M203.008 432C200.49 432 198.375 430 198.375 427.5V367.1C198.375 364.6 200.49 362.6 203.008 362.6C205.525 362.6 207.539 364.6 207.539 367.1V427.5C207.539 430 205.525 432 203.008 432Z" fill="#0C6BC2"/>
<path d="M234.426 355.4C231.807 355.4 229.793 353.4 229.793 350.9V337.8C229.793 335.3 231.807 333.3 234.426 333.3C236.943 333.3 238.957 335.3 238.957 337.8V350.9C238.957 353.4 236.943 355.4 234.426 355.4Z" fill="#0C6BC2"/>
<path d="M317.401 410.7L271.986 462.9C271.583 463.5 270.778 463.5 270.375 463.1L232.915 434.6L244.193 420.2L268.059 438.6C268.562 439 269.267 439 269.67 438.4L305.72 396.2L317.401 410.7Z" fill="white"/>
<path fill-rule="evenodd" clip-rule="evenodd" d="M271.08 467.9C269.771 467.9 268.462 467.5 267.455 466.6L230.096 438.2C229.089 437.4 228.484 436.3 228.384 435.1C228.182 433.9 228.484 432.7 229.29 431.8L240.568 417.4C242.079 415.5 244.999 415.1 247.013 416.6L268.26 433L302.196 393.3C303.102 392.2 304.411 391.7 305.72 391.7C307.13 391.7 308.439 392.3 309.244 393.4L320.925 407.8C322.335 409.5 322.335 412 320.825 413.7L275.51 465.8C274.503 467 273.194 467.8 271.583 467.9C271.449 467.9 271.281 467.9 271.08 467.9V467.9ZM239.36 433.7L270.576 457.5L311.46 410.6L305.619 403.4L273.295 441.3C272.288 442.5 270.878 443.3 269.368 443.4C267.857 443.6 266.347 443.1 265.139 442.1L244.999 426.6L239.36 433.7Z" fill="#0C6BC2"/>
<path d="M421.523 24.1002C421.188 24.1002 420.885 24.0669 420.617 24.0002C420.281 23.9335 419.979 23.8335 419.711 23.7002C419.442 23.6335 419.174 23.5002 418.905 23.3002C418.704 23.1669 418.469 22.9669 418.2 22.7002C417.999 22.5002 417.831 22.2669 417.697 22.0002C417.495 21.8002 417.361 21.5669 417.294 21.3002C417.16 20.9669 417.059 20.6669 416.992 20.4002C416.925 20.1335 416.891 19.8335 416.891 19.5002C416.891 19.2335 416.925 18.9335 416.992 18.6002C417.059 18.3335 417.16 18.0669 417.294 17.8002C417.361 17.5335 417.495 17.2669 417.697 17.0002C417.831 16.7335 417.999 16.5002 418.2 16.3002C418.469 16.1002 418.704 15.9002 418.905 15.7002C419.174 15.5669 419.442 15.4335 419.711 15.3002C419.979 15.1669 420.281 15.0669 420.617 15.0002C421.221 14.9335 421.825 14.9335 422.429 15.0002C422.698 15.0669 422.967 15.1669 423.235 15.3002C423.504 15.4335 423.772 15.5669 424.041 15.7002C424.309 15.9002 424.544 16.1002 424.746 16.3002C424.947 16.5002 425.148 16.7335 425.35 17.0002C425.484 17.2669 425.618 17.5335 425.753 17.8002C425.82 18.0669 425.887 18.3335 425.954 18.6002C426.021 18.9335 426.055 19.2335 426.055 19.5002C426.055 19.8335 426.021 20.1335 425.954 20.4002C425.887 20.6669 425.82 20.9669 425.753 21.3002C425.618 21.5669 425.484 21.8002 425.35 22.0002C425.148 22.2669 424.947 22.5002 424.746 22.7002C424.544 22.9669 424.309 23.1669 424.041 23.3002C423.772 23.5002 423.504 23.6335 423.235 23.7002C422.967 23.8335 422.698 23.9335 422.429 24.0002C422.094 24.0669 421.792 24.1002 421.523 24.1002V24.1002Z" fill="#0C6BC2"/>
<path d="M426.558 141.7C426.558 148.3 421.221 153.6 414.676 153.6C408.13 153.6 402.793 148.3 402.793 141.7C402.793 135.1 408.13 129.8 414.676 129.8C421.221 129.8 426.558 135.1 426.558 141.7Z" fill="#C5FBFC"/>
<path fill-rule="evenodd" clip-rule="evenodd" d="M414.676 158.2C405.613 158.2 398.262 150.8 398.262 141.7C398.262 132.6 405.613 125.2 414.676 125.2C423.738 125.2 431.089 132.6 431.089 141.7C431.089 150.8 423.738 158.2 414.676 158.2ZM414.676 134.3C410.648 134.3 407.425 137.6 407.425 141.7C407.425 145.8 410.648 149.1 414.676 149.1C418.703 149.1 421.926 145.8 421.926 141.7C421.926 137.6 418.703 134.3 414.676 134.3Z" fill="#0C6BC2"/>
<path d="M695.523 141.7C695.523 148.3 690.186 153.6 683.641 153.6C677.095 153.6 671.758 148.3 671.758 141.7C671.758 135.1 677.095 129.8 683.641 129.8C690.186 129.8 695.523 135.1 695.523 141.7Z" fill="#C5FBFC"/>
<path fill-rule="evenodd" clip-rule="evenodd" d="M683.641 158.2C674.578 158.2 667.227 150.8 667.227 141.7C667.227 132.6 674.578 125.2 683.641 125.2C692.704 125.2 700.055 132.6 700.055 141.7C700.055 150.8 692.704 158.2 683.641 158.2ZM683.641 134.3C679.613 134.3 676.391 137.6 676.391 141.7C676.391 145.8 679.613 149.1 683.641 149.1C687.669 149.1 690.891 145.8 690.891 141.7C690.891 137.6 687.669 134.3 683.641 134.3Z" fill="#0C6BC2"/>
<path d="M671.758 146.3H426.558C424.04 146.3 421.926 144.2 421.926 141.7C421.926 139.2 424.04 137.1 426.558 137.1H671.758C674.376 137.1 676.39 139.2 676.39 141.7C676.39 144.2 674.376 146.3 671.758 146.3Z" fill="#0C6BC2"/>
<path d="M701.968 204.4C709.722 204.4 715.965 210.7 715.965 218.5C715.965 226.2 709.722 232.5 701.968 232.5C694.315 232.5 687.971 226.2 687.971 218.5C687.971 210.7 694.315 204.4 701.968 204.4Z" fill="#C5FBFC"/>
<path fill-rule="evenodd" clip-rule="evenodd" d="M701.968 237.1C691.797 237.1 683.439 228.7 683.439 218.5C683.439 208.2 691.797 199.9 701.968 199.9C712.239 199.9 720.496 208.2 720.496 218.5C720.496 228.7 712.239 237.1 701.968 237.1ZM701.968 209C696.832 209 692.603 213.2 692.603 218.5C692.603 223.7 696.832 227.9 701.968 227.9C707.104 227.9 711.333 223.7 711.333 218.5C711.333 213.2 707.104 209 701.968 209Z" fill="#0C6BC2"/>
<path d="M687.971 223H410.346C407.727 223 405.713 221 405.713 218.5C405.713 215.9 407.727 213.9 410.346 213.9H687.971C690.589 213.9 692.603 215.9 692.603 218.5C692.603 221 690.589 223 687.971 223Z" fill="#0C6BC2"/>
<path d="M410.346 218.5C410.346 226.2 404.102 232.5 396.349 232.5C388.595 232.5 382.352 226.2 382.352 218.5C382.352 210.7 388.595 204.4 396.349 204.4C404.102 204.4 410.346 210.7 410.346 218.5Z" fill="#C5FBFC"/>
<path fill-rule="evenodd" clip-rule="evenodd" d="M396.349 237.1C386.078 237.1 377.82 228.7 377.82 218.5C377.82 208.2 386.078 199.9 396.349 199.9C406.62 199.9 414.877 208.2 414.877 218.5C414.877 228.7 406.62 237.1 396.349 237.1ZM396.349 209C391.213 209 386.984 213.2 386.984 218.5C386.984 223.7 391.213 227.9 396.349 227.9C401.484 227.9 405.714 223.7 405.714 218.5C405.714 213.2 401.484 209 396.349 209Z" fill="#0C6BC2"/>
<path d="M424.242 340.2C413.769 340.2 405.21 331.6 405.21 321.1C405.21 318.6 407.325 316.5 409.842 316.5C412.36 316.5 414.374 318.6 414.374 321.1C414.374 326.6 418.804 331.1 424.242 331.1C429.68 331.1 434.11 326.6 434.11 321.1C434.11 315.6 429.68 311.1 424.242 311.1C421.724 311.1 419.711 309.1 419.711 306.6C419.711 304 421.724 302 424.242 302C434.715 302 443.274 310.6 443.274 321.1C443.274 331.6 434.715 340.2 424.242 340.2V340.2Z" fill="#0C6BC2"/>
<path d="M658.366 321.1C658.366 313.1 664.81 306.6 672.766 306.6C680.721 306.6 687.266 313.1 687.266 321.1C687.266 329.1 680.721 335.6 672.766 335.6C664.81 335.6 658.366 329.1 658.366 321.1Z" fill="#C5FBFC"/>
<path fill-rule="evenodd" clip-rule="evenodd" d="M672.765 340.2C662.293 340.2 653.733 331.6 653.733 321.1C653.733 310.6 662.293 302 672.765 302C683.238 302 691.797 310.6 691.797 321.1C691.797 331.6 683.238 340.2 672.765 340.2ZM672.765 311.1C667.328 311.1 662.897 315.6 662.897 321.1C662.897 326.6 667.328 331.1 672.765 331.1C678.203 331.1 682.634 326.6 682.634 321.1C682.634 315.6 678.203 311.1 672.765 311.1Z" fill="#0C6BC2"/>
<path d="M438.742 324.8C436.124 324.8 434.11 322.8 434.11 320.3C434.11 317.7 436.124 315.7 438.642 315.7L509.735 315.6V24.9998L445.288 24.8998C442.77 24.8998 440.756 22.8998 440.756 20.2998C440.756 17.7998 442.77 15.7998 445.288 15.7998L514.367 15.8998C516.884 15.8998 518.999 17.8998 518.999 20.3998V320.2C518.999 322.7 516.884 324.7 514.367 324.7L438.742 324.8V324.8Z" fill="#0C6BC2"/>
<path d="M445.288 19.5C445.288 27.5 438.843 34 430.888 34C422.933 34 416.488 27.5 416.488 19.5C416.488 11.5 422.933 5 430.888 5C438.843 5 445.288 11.5 445.288 19.5Z" fill="#C5FBFC"/>
<path fill-rule="evenodd" clip-rule="evenodd" d="M430.888 38.5999C420.415 38.5999 411.856 29.9999 411.856 19.4999C411.856 8.9999 420.415 0.399902 430.888 0.399902C441.361 0.399902 449.92 8.9999 449.92 19.4999C449.92 29.9999 441.361 38.5999 430.888 38.5999ZM430.888 9.4999C425.45 9.4999 421.02 13.9999 421.02 19.4999C421.02 24.9999 425.45 29.4999 430.888 29.4999C436.326 29.4999 440.756 24.9999 440.756 19.4999C440.756 13.9999 436.326 9.4999 430.888 9.4999Z" fill="#0C6BC2"/>
<path d="M658.365 324.8L582.64 324.7C580.123 324.7 578.109 322.7 578.109 320.2V20.3998C578.109 17.8998 580.123 15.8998 582.64 15.8998L651.719 15.7998C654.237 15.7998 656.351 17.7998 656.351 20.2998C656.351 22.8998 654.237 24.8998 651.719 24.8998L587.272 24.9998V315.6L658.365 315.7C660.883 315.7 662.998 317.7 662.897 320.3C662.897 322.8 660.883 324.8 658.365 324.8V324.8Z" fill="#0C6BC2"/>
<path d="M666.119 38.5999C655.647 38.5999 647.188 29.9999 647.188 19.4999C647.188 8.9999 655.647 0.399902 666.119 0.399902C668.737 0.399902 670.751 2.4999 670.751 4.9999C670.751 7.4999 668.737 9.4999 666.119 9.4999C660.782 9.4999 656.352 13.9999 656.352 19.4999C656.352 24.9999 660.782 29.4999 666.119 29.4999C671.557 29.4999 675.988 24.9999 675.988 19.4999C675.988 16.9999 678.102 14.9999 680.62 14.9999C683.137 14.9999 685.151 16.9999 685.151 19.4999C685.151 29.9999 676.693 38.5999 666.119 38.5999Z" fill="#0C6BC2"/>
<path d="M640.743 119.7V291.5H466.938V53.7998H582.741L640.743 119.7Z" fill="white"/>
<path fill-rule="evenodd" clip-rule="evenodd" d="M640.743 296.1H466.938C464.421 296.1 462.407 294 462.407 291.5V53.8002C462.407 51.2002 464.421 49.2002 466.938 49.2002H582.741C584.05 49.2002 585.259 49.8002 586.165 50.8002L644.167 116.7C644.872 117.5 645.275 118.6 645.275 119.7V291.5C645.275 294 643.261 296.1 640.743 296.1ZM471.57 287H636.111V121.4L580.627 58.3002H471.57V287Z" fill="#0C6BC2"/>
<path d="M640.743 119.3H582.741V53.7998L640.743 119.3Z" fill="#C5FBFC"/>
<path fill-rule="evenodd" clip-rule="evenodd" d="M640.743 123.9H582.741C580.224 123.9 578.109 121.8 578.109 119.3V53.7999C578.109 51.8999 579.317 50.1999 581.13 49.4999C582.842 48.7999 584.956 49.2999 586.165 50.7999L644.167 116.3C645.375 117.7 645.677 119.6 644.872 121.2C644.167 122.8 642.556 123.9 640.743 123.9V123.9ZM587.272 114.8H630.573L587.272 65.7999V114.8Z" fill="#0C6BC2"/>
<path fill-rule="evenodd" clip-rule="evenodd" d="M595.933 198.7H588.783C587.977 198.7 587.273 199.3 587.071 200.1C586.4 202.1 585.561 204.034 584.554 205.9C584.252 206.6 584.352 207.5 584.957 208.1L589.991 213.1C591.301 214.4 591.301 216.6 589.991 218L580.526 227.3C579.217 228.7 577.001 228.7 575.692 227.3L570.557 222.3C570.053 221.7 569.147 221.6 568.442 222C566.562 222.934 564.582 223.734 562.501 224.4C561.695 224.7 561.192 225.4 561.192 226.2V233.3C561.192 235.2 559.681 236.7 557.768 236.7H544.375C542.462 236.7 540.951 235.2 540.951 233.3V226.2C540.951 225.4 540.448 224.7 539.642 224.4C537.561 223.734 535.581 222.934 533.701 222C532.996 221.6 532.09 221.7 531.586 222.3L526.451 227.3C525.142 228.7 522.926 228.7 521.617 227.3L512.152 218C510.843 216.6 510.843 214.4 512.152 213.1L517.187 208.1C517.791 207.5 517.891 206.6 517.489 205.9C516.549 204.034 515.743 202.1 515.072 200.1C514.871 199.3 514.166 198.7 513.36 198.7H506.21C504.297 198.7 502.686 197.2 502.686 195.3V182.1C502.686 180.2 504.297 178.6 506.21 178.6H513.36C514.166 178.6 514.871 178.1 515.072 177.3C515.743 175.3 516.549 173.367 517.489 171.5C517.891 170.7 517.791 169.9 517.187 169.3L512.152 164.3C510.843 162.9 510.843 160.8 512.152 159.4L521.617 150.1C522.926 148.7 525.142 148.7 526.451 150.1L531.586 155.1C532.09 155.6 532.996 155.8 533.701 155.4C535.581 154.4 537.561 153.6 539.642 153C540.448 152.7 540.951 152 540.951 151.2V144.1C540.951 142.2 542.462 140.7 544.375 140.7H557.768C559.681 140.7 561.192 142.2 561.192 144.1V151.2C561.192 152 561.695 152.7 562.501 153C564.582 153.6 566.562 154.4 568.442 155.4C569.147 155.8 570.053 155.6 570.557 155.1L575.692 150.1C577.001 148.7 579.217 148.7 580.526 150.1L589.991 159.4C591.301 160.8 591.301 162.9 589.991 164.3L584.957 169.3C584.352 169.9 584.252 170.7 584.554 171.5C585.561 173.367 586.4 175.3 587.071 177.3C587.273 178.1 587.977 178.6 588.783 178.6H595.933C597.846 178.6 599.457 180.2 599.457 182.1V195.3C599.457 197.2 597.846 198.7 595.933 198.7ZM569.952 188.7C569.952 178.3 561.494 169.9 551.021 169.9C540.649 169.9 532.191 178.3 532.191 188.7C532.191 199 540.649 207.4 551.021 207.4C561.494 207.4 569.952 199 569.952 188.7Z" fill="#65BFFC"/>
<path fill-rule="evenodd" clip-rule="evenodd" d="M557.768 241.3H544.375C539.945 241.3 536.319 237.7 536.319 233.3V228.1C535.312 227.767 534.339 227.367 533.399 226.9L529.774 230.5C528.264 232.1 526.149 232.9 524.034 232.9C521.92 232.9 519.906 232.1 518.395 230.5L508.929 221.2C507.419 219.7 506.613 217.7 506.613 215.5C506.613 213.4 507.419 211.4 508.929 209.9L512.555 206.2C512.152 205.267 511.749 204.3 511.346 203.3H506.211C501.78 203.3 498.155 199.7 498.155 195.3V182.1C498.155 177.7 501.78 174.1 506.211 174.1H511.346C511.749 173.1 512.152 172.1 512.555 171.1L508.929 167.5C507.419 166 506.613 164 506.613 161.9C506.613 159.7 507.419 157.7 508.929 156.2L518.395 146.8C519.906 145.3 521.92 144.5 524.034 144.5C526.149 144.5 528.264 145.3 529.774 146.8L533.399 150.5C534.339 150.033 535.312 149.633 536.319 149.3V144.1C536.319 139.7 539.945 136.1 544.375 136.1H557.768C562.199 136.1 565.824 139.7 565.824 144.1V149.3C566.831 149.633 567.804 150.033 568.744 150.5L572.369 146.8C575.592 143.7 580.627 143.7 583.748 146.8L593.214 156.2C596.336 159.3 596.336 164.4 593.214 167.5L589.589 171.1C589.992 172.1 590.394 173.1 590.797 174.1H595.933C600.364 174.1 603.989 177.7 603.989 182.1V195.3C603.989 199.7 600.364 203.3 595.933 203.3H590.797C590.394 204.3 589.992 205.267 589.589 206.2L593.214 209.9C596.336 213 596.336 218.1 593.214 221.2L583.748 230.5C580.627 233.7 575.592 233.7 572.369 230.5L568.744 226.9C567.804 227.367 566.831 227.767 565.824 228.1V233.3C565.824 237.7 562.199 241.3 557.768 241.3V241.3ZM545.483 232.1H556.66V226.2C556.66 223.4 558.473 220.9 561.091 220.1C562.904 219.5 564.649 218.767 566.328 217.9C568.845 216.7 571.866 217.1 573.88 219.1L578.109 223.3L585.964 215.5L581.634 211.3C579.72 209.3 579.217 206.3 580.526 203.8C581.399 202.133 582.104 200.433 582.641 198.7C583.547 196 585.964 194.2 588.783 194.2H594.825V183.2H588.783C585.964 183.2 583.547 181.4 582.641 178.7C582.104 176.9 581.399 175.2 580.526 173.6C579.217 171.1 579.72 168.1 581.634 166.1L585.964 161.9L578.109 154.1L573.88 158.3C571.866 160.3 568.845 160.7 566.328 159.4C564.649 158.533 562.904 157.833 561.091 157.3C558.473 156.4 556.66 154 556.66 151.2V145.2H545.483V151.2C545.483 154 543.67 156.4 541.052 157.3C539.24 157.833 537.494 158.533 535.816 159.4C533.298 160.7 530.278 160.3 528.264 158.3L524.034 154.1L516.18 161.9L520.51 166.1C522.423 168.1 522.927 171.1 521.617 173.6C520.745 175.2 520.04 176.9 519.503 178.7C518.597 181.4 516.18 183.2 513.36 183.2H507.318V194.2H513.36C516.18 194.2 518.597 196 519.503 198.7C520.04 200.433 520.745 202.133 521.617 203.8C522.927 206.3 522.423 209.3 520.51 211.3L516.18 215.5L524.034 223.3L528.264 219.1C530.278 217.1 533.298 216.7 535.816 217.9C537.494 218.767 539.24 219.5 541.052 220.1C543.67 220.9 545.483 223.4 545.483 226.2V232.1ZM551.021 211.9C538.132 211.9 527.559 201.5 527.559 188.6C527.559 175.8 538.132 165.3 551.021 165.3C564.011 165.3 574.585 175.8 574.585 188.6C574.585 201.5 564.011 211.9 551.021 211.9ZM551.021 174.4C543.167 174.4 536.823 180.8 536.823 188.6C536.823 196.4 543.167 202.8 551.021 202.8C558.977 202.8 565.321 196.4 565.321 188.6C565.321 180.8 558.977 174.4 551.021 174.4Z" fill="#0C6BC2"/>
<path d="M199.483 164.2L10.9761 229.7V11L199.483 77.8" fill="#C5FBFC"/>
<path d="M10.9762 234.3C10.07 234.3 9.16368 234 8.35809 233.4C7.14971 232.6 6.44482 231.2 6.44482 229.7V11C6.44482 9.60001 7.14971 8.20001 8.35809 7.30001C9.56647 6.50001 11.1776 6.20001 12.5874 6.70001L200.994 73.5C203.411 74.4 204.619 77 203.814 79.4C202.907 81.7 200.289 83 197.973 82.1L15.6084 17.5V223.3L197.973 159.9C200.39 159.1 203.008 160.3 203.814 162.7C204.619 165.1 203.411 167.7 200.994 168.5L12.4867 234C12.0168 234.2 11.5133 234.3 10.9762 234.3V234.3Z" fill="#0C6BC2"/>
<path d="M313.373 85.7998H319.918H332.506C336.232 85.7998 339.051 88.9998 338.548 92.5998L330.693 154.4C330.29 157.4 327.773 159.6 324.752 159.6H319.717H313.373" fill="#C5FBFC"/>
<path d="M324.752 164.2H313.373C310.856 164.2 308.741 162.1 308.741 159.6C308.741 157.1 310.856 155.1 313.373 155.1H324.752C325.457 155.1 326.061 154.5 326.162 153.8L334.017 91.9998C334.117 91.4998 333.815 91.0998 333.614 90.8998C333.513 90.6998 333.11 90.3998 332.506 90.3998H313.373C310.856 90.3998 308.741 88.3998 308.741 85.7998C308.741 83.2998 310.856 81.2998 313.373 81.2998H332.506C335.628 81.2998 338.548 82.5998 340.562 84.8998C342.576 87.0998 343.482 90.1998 343.079 93.1998L335.225 154.9C334.621 160.2 330.089 164.2 324.752 164.2Z" fill="#0C6BC2"/>
<path d="M266.951 164.2L259.701 184.7C258.694 187.9 255.572 190.1 252.149 190.1H251.645C249.329 190.1 247.215 191.3 246.107 193.3L214.185 249.5C210.762 255.5 202.907 257.5 197.067 253.7L189.615 248.9C184.177 245.4 182.465 238.3 185.789 232.7L205.928 199C207.338 196.7 207.237 193.8 205.727 191.5L202.404 186.6C200.188 183.4 200.994 179 204.216 176.7L213.178 170.3C214.286 169.5 214.488 167.8 213.481 166.8L211.064 164.2" fill="#65BFFC"/>
<path d="M203.712 260.2C200.49 260.2 197.268 259.3 194.65 257.5L187.198 252.8C179.545 247.9 177.229 238.1 181.861 230.4L202.001 196.7C202.403 195.9 202.403 194.8 201.9 194L198.577 189.2C194.952 183.8 196.261 176.7 201.497 173L208.445 168L207.74 167.3C206.029 165.4 206.129 162.5 208.043 160.8C209.855 159.1 212.775 159.3 214.487 161.1L216.904 163.7C218.213 165.2 218.918 167.1 218.717 169.1C218.515 171.1 217.407 172.8 215.796 174L206.834 180.4C205.626 181.2 205.324 182.9 206.129 184.1L209.452 189C211.97 192.7 212.171 197.5 209.855 201.4L189.715 235C187.701 238.5 188.708 242.9 192.132 245.1L199.584 249.9C201.296 251 203.41 251.4 205.424 250.9C207.438 250.4 209.15 249.1 210.157 247.3L242.079 191.1C243.992 187.7 247.718 185.5 251.645 185.5H252.148C253.659 185.5 254.968 184.6 255.371 183.2L262.621 162.7C263.527 160.3 266.145 159.1 268.462 159.9C270.878 160.7 272.187 163.3 271.281 165.7L264.031 186.2C262.319 191.2 257.586 194.6 252.148 194.6H251.645C251.041 194.6 250.436 195 250.034 195.6L218.213 251.8C215.897 255.7 212.07 258.6 207.64 259.7C206.297 260.033 204.988 260.2 203.712 260.2V260.2Z" fill="#0C6BC2"/>
<path d="M313.373 164.2H199.483V77.7998H313.373V164.2Z" fill="white"/>
<path fill-rule="evenodd" clip-rule="evenodd" d="M313.373 168.8H199.483C196.966 168.8 194.851 166.7 194.851 164.2V77.7998C194.851 75.2998 196.966 73.2998 199.483 73.2998H313.373C315.89 73.2998 317.904 75.2998 317.904 77.7998V164.2C317.904 166.7 315.89 168.8 313.373 168.8ZM204.115 159.6H308.741V82.3998H204.115V159.6Z" fill="#0C6BC2"/>
<path d="M335.527 226.7C335.393 226.7 335.258 226.7 335.124 226.7C332.607 226.5 330.794 224.3 330.996 221.8C331.298 217.3 328.176 207.2 325.155 197.5C320.422 182.7 315.689 167.4 318.106 158.4C318.811 156 321.328 154.6 323.745 155.2C326.263 155.9 327.672 158.4 326.968 160.8C325.256 167.2 329.989 182.5 333.916 194.8C337.44 206.3 340.663 216.3 340.159 222.5C339.958 224.9 337.944 226.7 335.527 226.7V226.7Z" fill="#0C6BC2"/>
<path d="M344.187 230.1C342.576 231.033 340.931 231.833 339.253 232.5C337.541 233.3 335.93 234 334.218 234.5" fill="white"/>
<path d="M334.218 239.1C332.204 239.1 330.391 237.9 329.787 235.9C329.082 233.5 330.391 231 332.808 230.2C334.016 229.8 335.225 229.3 336.433 228.8L337.44 228.3C339.051 227.7 340.562 226.9 342.072 226.1C344.287 224.9 347.006 225.7 348.215 227.9C349.524 230.1 348.617 232.9 346.402 234.1C344.724 235.033 342.945 235.9 341.065 236.7L340.058 237.1C338.648 237.7 337.239 238.4 335.527 238.9C335.124 239.033 334.688 239.1 334.218 239.1V239.1Z" fill="#0C6BC2"/>
<path d="M338.548 242.3C336.735 242.9 334.956 243.4 333.211 243.8C331.398 244.2 329.619 244.5 327.874 244.7" fill="white"/>
<path d="M327.874 249.3C325.658 249.3 323.644 247.6 323.342 245.4C323.04 242.9 324.752 240.6 327.269 240.2C328.881 240 330.525 239.733 332.204 239.4C333.714 239 335.325 238.6 337.238 238C339.655 237.2 342.173 238.5 342.978 240.9C343.683 243.3 342.374 245.9 339.957 246.6C337.843 247.3 336.03 247.8 334.318 248.2C334.251 248.267 334.184 248.3 334.117 248.3C332.237 248.7 330.357 249 328.478 249.2C328.276 249.267 328.075 249.3 327.874 249.3V249.3Z" fill="#0C6BC2"/>
<path d="M330.492 253.3C328.545 253.433 326.665 253.5 324.853 253.5C323.04 253.433 321.261 253.267 319.516 253" fill="white"/>
<path d="M324.853 258C324.786 258 324.718 258 324.651 258C322.704 257.933 320.791 257.767 318.911 257.5C316.394 257.2 314.682 254.9 314.984 252.4C315.286 249.9 317.602 248.2 320.12 248.5C321.731 248.7 323.376 248.833 325.054 248.9C326.732 248.9 328.444 248.833 330.19 248.7C332.707 248.5 334.923 250.4 335.124 252.9C335.325 255.4 333.412 257.6 330.895 257.8C328.881 257.933 326.9 258 324.953 258C324.886 258 324.853 258 324.853 258V258Z" fill="#0C6BC2"/>
<path d="M309.245 258.4C312.366 260 315.891 261.2 319.717 261.9Z" fill="white"/>
<path d="M319.717 266.5C319.382 266.5 319.079 266.467 318.811 266.4C314.582 265.6 310.654 264.3 307.13 262.4C304.915 261.3 304.008 258.5 305.217 256.3C306.425 254.1 309.144 253.2 311.359 254.4C314.078 255.8 317.2 256.8 320.523 257.4C323.04 257.9 324.651 260.3 324.148 262.7C323.745 264.9 321.832 266.5 319.717 266.5V266.5Z" fill="#0C6BC2"/>
<path d="M297.866 260.4C300.282 262.8 303.203 265.1 306.626 266.9Z" fill="white"/>
<path d="M306.626 271.5C305.921 271.5 305.116 271.3 304.411 270.9C300.886 269 297.563 266.5 294.643 263.6C292.831 261.8 292.831 258.9 294.643 257.1C296.355 255.4 299.275 255.4 301.088 257.1C303.404 259.5 306.022 261.4 308.842 262.9C311.057 264.1 311.863 266.9 310.654 269.1C309.849 270.6 308.237 271.5 306.626 271.5V271.5Z" fill="#0C6BC2"/>
<path d="M292.73 267.7C291.421 266.2 290.213 264.8 289.105 263.4C287.997 261.9 286.99 260.4 286.185 258.9" fill="white"/>
<path d="M292.73 272.2C291.421 272.2 290.212 271.7 289.306 270.7C287.695 269 286.487 267.5 285.48 266.1C285.412 266.1 285.379 266.067 285.379 266C283.969 264.1 283.063 262.6 282.157 261.2C280.948 259 281.653 256.2 283.868 254.9C286.084 253.7 288.903 254.4 290.112 256.6C290.817 257.8 291.622 259.1 292.831 260.7C293.737 261.9 294.744 263.1 296.154 264.6C297.765 266.5 297.664 269.4 295.751 271.1C294.945 271.9 293.838 272.2 292.73 272.2V272.2Z" fill="#0C6BC2"/>
<path d="M275.007 254.5C276.115 257.9 277.525 261.3 279.337 264.6Z" fill="white"/>
<path d="M279.337 269.2C277.625 269.2 276.115 268.3 275.309 266.8C273.396 263.4 271.886 259.8 270.677 255.9C269.872 253.5 271.281 250.9 273.698 250.2C276.115 249.4 278.632 250.8 279.438 253.2C280.445 256.5 281.754 259.6 283.365 262.4C284.574 264.6 283.667 267.4 281.452 268.6C280.747 269 280.042 269.2 279.337 269.2V269.2Z" fill="#0C6BC2"/>
<path d="M267.052 258.6C266.548 256.8 266.045 255.1 265.743 253.3C265.407 251.433 265.105 249.633 264.836 247.9" fill="white"/>
<path d="M267.052 263.2C265.038 263.2 263.225 261.9 262.621 259.8V259.6C262.118 257.9 261.614 256 261.211 254.1C260.876 252.233 260.574 250.4 260.305 248.6C260.003 246.1 261.715 243.8 264.232 243.4C266.75 243.1 269.066 244.8 269.368 247.3C269.636 248.967 269.938 250.667 270.274 252.4C270.576 254 270.979 255.5 271.483 257.2V257.4C272.187 259.9 270.778 262.4 268.26 263C267.857 263.133 267.455 263.2 267.052 263.2V263.2Z" fill="#0C6BC2"/>
<path d="M255.874 239.7C255.774 243.3 255.874 246.9 256.277 250.6Z" fill="white"/>
<path d="M256.277 255.2C253.961 255.2 251.947 253.4 251.746 251.1C251.343 246.7 251.142 243 251.242 239.5C251.343 237 253.458 235 255.975 235.1C258.493 235.2 260.507 237.3 260.406 239.8C260.305 242.9 260.507 246.2 260.809 250.2C261.111 252.7 259.298 254.9 256.781 255.2C256.579 255.2 256.412 255.2 256.277 255.2V255.2Z" fill="#0C6BC2"/>
<path d="M248.02 230.2C247.517 233.7 247.114 237.4 247.013 241.1Z" fill="white"/>
<path d="M247.013 245.6C246.946 245.6 246.912 245.6 246.912 245.6C244.395 245.6 242.381 243.5 242.381 241C242.482 237 242.985 233 243.489 229.6C243.791 227.1 246.107 225.3 248.624 225.7C251.142 226 252.954 228.3 252.551 230.8C252.149 234 251.645 237.6 251.544 241.2C251.544 243.7 249.43 245.6 247.013 245.6Z" fill="#0C6BC2"/>
<path d="M241.374 219.8C240.367 223.3 239.763 226.8 239.058 230.5Z" fill="white"/>
<path d="M239.058 235C238.789 235 238.521 235 238.252 235C235.735 234.5 234.023 232.1 234.526 229.7C235.231 225.9 235.936 222.2 236.943 218.5C237.648 216.1 240.166 214.7 242.683 215.4C245.1 216.1 246.51 218.6 245.805 221C244.898 224.3 244.194 227.6 243.589 231.3C243.187 233.5 241.173 235 239.058 235Z" fill="#0C6BC2"/>
<path d="M289.407 168.8C286.889 168.8 284.875 166.7 284.875 164.2V77.7998C284.875 75.2998 286.889 73.2998 289.407 73.2998C291.924 73.2998 294.039 75.2998 294.039 77.7998V164.2C294.039 166.7 291.924 168.8 289.407 168.8Z" fill="#0C6BC2"/>
<path d="M39.7757 221.2C37.2582 221.2 35.1436 219.2 35.1436 216.7V23.6C35.1436 21.1 37.2582 19 39.7757 19C42.2931 19 44.4078 21.1 44.4078 23.6V216.7C44.4078 219.2 42.2931 221.2 39.7757 221.2Z" fill="#0C6BC2"/>
</svg>
