<svg width="721" height="719" viewBox="0 0 721 719" fill="none" xmlns="http://www.w3.org/2000/svg">
<g clip-path="url(#clip0_303_907)">
<path d="M83.363 325.447C99.057 180.5 234.764 75.0757 386.442 90.1615C538.212 105.159 648.439 234.844 632.745 379.791C617.051 524.826 481.344 630.161 329.574 615.164C177.896 600.166 67.5767 470.482 83.363 325.447V325.447Z" fill="#92E0FF"/>
<path d="M705.398 420.284C705.09 420.284 704.783 420.255 704.475 420.196C702.075 419.755 700.413 417.461 700.875 415.079C701.982 409.433 702.998 403.698 703.829 397.964C704.106 395.582 706.414 393.906 708.906 394.259C711.399 394.524 713.153 396.729 712.876 399.111C712.045 405.022 711.029 410.933 709.829 416.755C709.46 418.872 707.521 420.284 705.398 420.284V420.284Z" fill="#0C6BC2"/>
<path d="M711.399 368.234C711.337 368.234 711.276 368.234 711.214 368.234C708.722 368.146 706.691 366.116 706.783 363.734C706.968 360.029 706.968 356.324 706.968 352.619C706.968 344.855 706.691 337.004 706.137 329.328C705.952 326.858 707.891 324.829 710.383 324.653C712.876 324.476 715.091 326.241 715.276 328.711C715.83 336.651 716.107 344.679 716.107 352.619C716.107 356.412 716.015 360.206 715.922 363.999C715.83 366.293 713.799 368.234 711.399 368.234ZM706.321 298.716C704.106 298.716 702.167 297.216 701.798 295.099C699.767 283.806 697.09 272.602 693.858 261.575C693.12 259.281 694.505 256.811 696.997 256.193C699.398 255.488 701.89 256.899 702.629 259.193C705.952 270.485 708.722 282.042 710.845 293.599C711.214 295.981 709.552 298.275 707.06 298.628C706.814 298.686 706.567 298.716 706.321 298.716V298.716ZM686.473 231.756C684.627 231.756 682.965 230.697 682.226 229.021C677.795 218.347 672.718 207.848 667.179 197.791C665.979 195.586 666.809 192.939 669.025 191.88C671.241 190.733 674.01 191.527 675.21 193.733C680.934 204.055 686.104 214.906 690.72 225.757C691.643 227.963 690.443 230.521 688.135 231.403C687.581 231.638 687.027 231.756 686.473 231.756V231.756ZM652.593 170.09C651.115 170.09 649.638 169.384 648.807 168.149C642.161 158.621 634.96 149.358 627.298 140.536C625.728 138.683 626.005 135.948 627.944 134.36C629.882 132.861 632.744 133.125 634.314 134.978C642.161 144.065 649.546 153.592 656.378 163.297C657.762 165.326 657.208 168.061 655.085 169.384C654.347 169.913 653.423 170.09 652.593 170.09ZM606.157 116.451C605.049 116.451 603.849 116.01 603.018 115.128C594.432 107.1 585.385 99.4248 576.061 92.2789C574.123 90.7792 573.846 88.0443 575.415 86.1917C576.984 84.2508 579.846 83.9862 581.785 85.4859C591.386 92.8083 600.618 100.748 609.388 108.953C611.234 110.629 611.234 113.364 609.48 115.128C608.557 116.01 607.357 116.451 606.157 116.451V116.451Z" fill="#0C6BC2"/>
<path d="M549.382 72.8703C548.551 72.8703 547.628 72.6939 546.889 72.1646C541.812 69.0768 536.642 66.0773 531.38 63.166C529.164 61.931 528.426 59.2843 529.718 57.2552C530.918 55.1379 533.688 54.4322 535.903 55.5791C541.258 58.5786 546.612 61.6663 551.874 64.8422C553.905 66.1656 554.551 68.9004 553.167 70.9295C552.336 72.1646 550.859 72.8703 549.382 72.8703V72.8703Z" fill="#0C6BC2"/>
<path d="M417.183 690.151C414.967 690.151 413.029 688.652 412.659 686.534C412.198 684.152 413.952 681.859 416.352 681.506C422.353 680.535 428.353 679.388 434.262 678.153C436.662 677.624 439.155 679.124 439.709 681.418C440.262 683.799 438.693 686.181 436.2 686.711C430.2 687.946 424.015 689.093 417.922 690.063C417.675 690.122 417.429 690.151 417.183 690.151V690.151Z" fill="#0C6BC2"/>
<path d="M467.588 678.33C465.65 678.33 463.896 677.095 463.249 675.33C462.511 673.037 463.803 670.567 466.204 669.773C476.635 666.508 487.067 662.803 497.222 658.569C499.53 657.598 502.207 658.569 503.223 660.862C504.238 663.068 503.131 665.626 500.823 666.597C490.483 670.831 479.774 674.713 469.065 678.065C468.573 678.242 468.081 678.33 467.588 678.33Z" fill="#0C6BC2"/>
<path d="M529.165 652.746C527.503 652.746 525.933 651.952 525.103 650.452C523.902 648.335 524.733 645.688 526.949 644.542C532.211 641.718 537.473 638.807 542.551 635.719C544.674 634.484 547.536 635.102 548.828 637.131C550.213 639.16 549.567 641.895 547.443 643.13C542.181 646.306 536.735 649.305 531.288 652.217C530.642 652.57 529.903 652.746 529.165 652.746V652.746Z" fill="#0C6BC2"/>
<path d="M45.8821 198.32C45.1435 198.32 44.405 198.144 43.7588 197.791C41.5431 196.644 40.7123 193.998 41.8201 191.88C44.7743 186.675 47.9131 181.47 51.0519 176.442C52.3443 174.324 55.2061 173.707 57.3294 174.942C59.4527 176.177 60.1913 178.824 58.8988 180.941C55.76 185.881 52.7136 190.91 49.944 196.027C49.1132 197.526 47.5438 198.32 45.8821 198.32V198.32Z" fill="#0C6BC2"/>
<path d="M35.8199 496.066C34.0658 496.066 32.4041 495.095 31.6656 493.507C26.0342 481.686 21.0491 469.423 16.9871 457.072C16.1562 454.778 17.541 452.308 19.9412 451.602C22.3415 450.897 24.8341 452.132 25.6649 454.425C29.6346 466.423 34.5274 478.421 39.9742 489.89C40.9896 492.096 39.9742 494.742 37.6662 495.713C37.0508 495.948 36.4353 496.066 35.8199 496.066V496.066ZM11.2634 422.754C9.04778 422.754 7.20143 421.343 6.73984 419.313C4.15495 406.61 2.21628 393.553 1.10847 380.584C0.923833 378.203 2.77018 376.085 5.35508 375.909C7.84765 375.732 10.0633 377.497 10.2479 379.879C11.3557 392.494 13.1097 405.198 15.6946 417.549C16.1562 419.931 14.5868 422.225 12.0943 422.754C11.7865 422.754 11.5096 422.754 11.2634 422.754V422.754ZM4.70885 346.09C4.64731 346.09 4.61653 346.09 4.61653 346.09C2.03164 346.002 0.092975 343.973 0.185293 341.591C0.554563 328.534 1.75469 315.478 3.78568 302.685C4.15495 300.304 6.46289 298.627 8.95546 298.98C11.448 299.333 13.2021 301.539 12.8328 303.921C10.8941 316.448 9.694 329.152 9.23241 341.856C9.23241 344.238 7.20143 346.09 4.70885 346.09V346.09ZM16.4332 269.956C16.0024 269.956 15.6023 269.897 15.2331 269.779C12.7405 269.162 11.3557 266.78 12.0019 264.486C15.51 251.87 19.7566 239.431 24.7418 227.345C25.6649 225.139 28.3421 223.992 30.6501 224.875C32.958 225.757 34.1582 228.315 33.235 230.521C28.3421 242.342 24.1879 254.517 20.7721 266.691C20.2182 268.632 18.3718 269.956 16.4332 269.956V269.956Z" fill="#0C6BC2"/>
<path d="M64.3456 545.117C62.8685 545.117 61.4838 544.411 60.5606 543.176C57.1448 538.235 53.7291 533.207 50.5903 528.09C49.2978 526.061 49.9441 523.414 52.1597 522.179C54.283 520.944 57.1448 521.562 58.4373 523.679C61.4838 528.619 64.8072 533.56 68.1306 538.324C69.5154 540.353 68.9615 542.999 66.9305 544.411C66.0996 544.852 65.2688 545.117 64.3456 545.117V545.117Z" fill="#0C6BC2"/>
<path d="M702.814 498.095C702.814 558.438 651.67 607.312 588.524 607.312C525.379 607.312 474.235 558.438 474.235 498.095C474.235 437.752 525.379 388.877 588.524 388.877C651.67 388.877 702.814 437.752 702.814 498.095Z" fill="#C5FBFC"/>
<path fill-rule="evenodd" clip-rule="evenodd" d="M588.524 611.723C522.979 611.723 469.711 560.732 469.711 498.095C469.711 435.458 522.979 384.555 588.524 384.555C654.07 384.555 707.429 435.458 707.429 498.095C707.429 560.732 654.07 611.723 588.524 611.723V611.723ZM588.524 393.289C528.056 393.289 478.759 440.31 478.759 498.095C478.759 555.968 528.056 602.99 588.524 602.99C648.992 602.99 698.29 555.968 698.29 498.095C698.29 440.31 648.992 393.289 588.524 393.289V393.289Z" fill="#0C6BC2"/>
<path d="M681.673 498.095C681.673 547.234 639.945 587.11 588.524 587.11C537.104 587.11 495.376 547.234 495.376 498.095C495.376 448.956 537.104 409.08 588.524 409.08C639.945 409.08 681.673 448.956 681.673 498.095Z" fill="white"/>
<path fill-rule="evenodd" clip-rule="evenodd" d="M588.524 591.521C534.611 591.521 490.853 549.616 490.853 498.095C490.853 446.662 534.611 404.757 588.524 404.757C642.438 404.757 686.289 446.662 686.289 498.095C686.289 549.616 642.438 591.521 588.524 591.521ZM588.524 413.491C539.688 413.491 499.9 451.426 499.9 498.095C499.9 544.764 539.688 582.787 588.524 582.787C637.36 582.787 677.149 544.764 677.149 498.095C677.149 451.426 637.36 413.491 588.524 413.491V413.491Z" fill="#0C6BC2"/>
<path d="M681.673 498.095C681.673 547.234 639.945 587.11 588.524 587.11C537.104 587.11 495.376 547.234 495.376 498.095C495.376 448.956 537.104 409.08 588.524 409.08C639.945 409.08 681.673 448.956 681.673 498.095Z" fill="white"/>
<path fill-rule="evenodd" clip-rule="evenodd" d="M588.524 591.521C534.611 591.521 490.853 549.616 490.853 498.095C490.853 446.662 534.611 404.757 588.524 404.757C642.438 404.757 686.289 446.662 686.289 498.095C686.289 549.616 642.438 591.521 588.524 591.521ZM588.524 413.491C539.688 413.491 499.9 451.426 499.9 498.095C499.9 544.764 539.688 582.787 588.524 582.787C637.36 582.787 677.149 544.764 677.149 498.095C677.149 451.426 637.36 413.491 588.524 413.491V413.491Z" fill="#0C6BC2"/>
<path d="M506.546 502.506H461.311C458.818 502.506 456.787 500.477 456.787 498.095C456.787 495.713 458.818 493.772 461.311 493.772H506.546C509.039 493.772 511.07 495.713 511.07 498.095C511.07 500.477 509.039 502.506 506.546 502.506Z" fill="#0C6BC2"/>
<path d="M715.738 502.506H670.502C668.009 502.506 665.979 500.477 665.979 498.095C665.979 495.713 668.009 493.772 670.502 493.772H715.738C718.23 493.772 720.261 495.713 720.261 498.095C720.261 500.477 718.23 502.506 715.738 502.506Z" fill="#0C6BC2"/>
<path d="M586.493 623.986C584.001 623.986 581.97 622.045 581.97 619.663V576.435C581.97 574.053 584.001 572.112 586.493 572.112C588.986 572.112 591.017 574.053 591.017 576.435V619.663C591.017 622.045 588.986 623.986 586.493 623.986Z" fill="#0C6BC2"/>
<path d="M586.493 424.166C584.001 424.166 581.97 422.137 581.97 419.755V376.526C581.97 374.144 584.001 372.204 586.493 372.204C588.986 372.204 591.017 374.144 591.017 376.526V419.755C591.017 422.137 588.986 424.166 586.493 424.166Z" fill="#0C6BC2"/>
<path d="M615.389 475.422L641.33 496.066L615.389 516.709" fill="white"/>
<path d="M615.388 521.032C614.096 521.032 612.804 520.503 611.88 519.444C610.311 517.592 610.588 514.857 612.527 513.357L634.221 496.066L612.527 478.775C610.588 477.275 610.311 474.452 611.88 472.599C613.542 470.835 616.404 470.57 618.343 472.07L644.284 492.713C645.299 493.507 645.946 494.742 645.946 496.066C645.946 497.389 645.299 498.624 644.284 499.418L618.343 520.062C617.512 520.679 616.496 521.032 615.388 521.032V521.032Z" fill="#0C6BC2"/>
<path d="M565.168 516.709L539.227 496.066L565.168 475.422" fill="white"/>
<path d="M565.168 521.032C564.153 521.032 563.137 520.679 562.307 520.062L536.365 499.418C535.258 498.624 534.704 497.389 534.704 496.066C534.704 494.742 535.258 493.507 536.365 492.713L562.307 472.07C564.245 470.57 567.107 470.835 568.676 472.599C570.338 474.452 570.061 477.275 568.123 478.775L546.428 496.066L568.123 513.357C570.061 514.857 570.338 517.592 568.676 519.444C567.753 520.503 566.461 521.032 565.168 521.032V521.032Z" fill="#0C6BC2"/>
<path d="M582.247 524.209L596.556 468.188Z" fill="white"/>
<path d="M582.247 528.531C581.877 528.531 581.508 528.502 581.139 528.443C578.739 527.825 577.169 525.443 577.815 523.15L592.125 467.129C592.679 464.836 595.171 463.424 597.664 463.953C600.064 464.483 601.541 466.865 600.987 469.247L586.678 525.179C586.124 527.208 584.278 528.531 582.247 528.531V528.531Z" fill="#0C6BC2"/>
<path d="M143.184 54.1675C140.6 54.1675 138.569 52.1385 138.569 49.7565V25.1429L136.63 27.5248C135.153 29.4657 132.291 29.8186 130.26 28.3188C128.229 26.9073 127.86 24.0842 129.429 22.2316L139.492 9.70422C140.692 8.29269 142.815 7.67514 144.661 8.29269C146.508 8.91024 147.708 10.4982 147.708 12.4391V49.7565C147.708 52.1385 145.677 54.1675 143.184 54.1675V54.1675Z" fill="#0C6BC2"/>
<path d="M153.247 54.1675H133.03C130.537 54.1675 128.506 52.1384 128.506 49.7564C128.506 47.3745 130.537 45.4336 133.03 45.4336H153.247C155.74 45.4336 157.863 47.3745 157.863 49.7564C157.863 52.1384 155.74 54.1675 153.247 54.1675Z" fill="#0C6BC2"/>
<path d="M189.713 54.4321C187.22 54.4321 185.097 52.4912 185.097 50.021V25.4956L183.251 27.8776C181.681 29.7302 178.819 30.0831 176.788 28.6716C174.85 27.1718 174.48 24.437 175.958 22.4961L186.112 10.057C187.313 8.55724 189.344 7.93969 191.19 8.55724C193.036 9.17478 194.236 10.851 194.236 12.7036V50.021C194.236 52.4912 192.205 54.4321 189.713 54.4321Z" fill="#0C6BC2"/>
<path d="M199.775 54.4321H179.65C177.065 54.4321 175.034 52.4913 175.034 50.0211C175.034 47.6391 177.065 45.6982 179.65 45.6982H199.775C202.36 45.6982 204.391 47.6391 204.391 50.0211C204.391 52.4913 202.36 54.4321 199.775 54.4321Z" fill="#0C6BC2"/>
<path d="M236.149 54.4321C233.656 54.4321 231.625 52.4912 231.625 50.021V25.4956L229.687 27.8776C228.117 29.7302 225.255 30.0831 223.317 28.6716C221.286 27.1718 220.916 24.437 222.486 22.4961L232.548 10.057C233.748 8.55724 235.779 7.93969 237.626 8.55724C239.472 9.17478 240.765 10.851 240.765 12.7036V50.021C240.765 52.4912 238.734 54.4321 236.149 54.4321V54.4321Z" fill="#0C6BC2"/>
<path d="M246.303 54.4321H226.086C223.593 54.4321 221.562 52.4913 221.562 50.0211C221.562 47.6391 223.593 45.6982 226.086 45.6982H246.303C248.796 45.6982 250.827 47.6391 250.827 50.0211C250.827 52.4913 248.796 54.4321 246.303 54.4321Z" fill="#0C6BC2"/>
<path fill-rule="evenodd" clip-rule="evenodd" d="M98.0412 54.1672C97.1181 54.1672 96.1949 54.079 95.2717 53.9026C92.4099 53.3732 89.825 52.0499 87.794 50.0208C85.0245 47.286 83.4551 43.5807 83.4551 39.699V22.0548C83.4551 17.9084 85.3937 13.9385 88.8095 11.2919C92.2252 8.55704 96.6565 7.49839 101.088 8.38059C107.827 9.61569 112.812 15.5265 112.812 22.4959V40.1401C112.812 44.2865 110.873 48.2564 107.458 50.903C104.78 53.0203 101.457 54.1672 98.0412 54.1672V54.1672ZM98.1336 16.7616C96.8411 16.7616 95.641 17.2027 94.6255 17.9967C93.3331 18.9671 92.5945 20.4669 92.5945 22.0548V39.699C92.5945 41.287 93.2407 42.8749 94.3485 43.9336C95.0871 44.6394 96.0103 45.1687 97.0258 45.3451C99.2414 45.7862 100.903 44.8158 101.642 44.1983C102.934 43.2278 103.673 41.7281 103.673 40.1401V22.4959C103.673 19.7611 101.826 17.3791 99.3337 16.938C98.9029 16.8204 98.5028 16.7616 98.1336 16.7616V16.7616Z" fill="#0C6BC2"/>
<path d="M143.184 109.306C140.6 109.306 138.569 107.365 138.569 104.895V80.3692L136.63 82.7511C135.153 84.6038 132.291 84.9567 130.26 83.5451C128.229 82.0454 127.86 79.3105 129.429 77.3697L139.492 64.9305C140.692 63.4308 142.815 62.8132 144.661 63.4308C146.508 64.0483 147.708 65.7245 147.708 67.5771V104.895C147.708 107.365 145.677 109.306 143.184 109.306V109.306Z" fill="#0C6BC2"/>
<path d="M153.247 109.306H133.03C130.537 109.306 128.506 107.365 128.506 104.895C128.506 102.513 130.537 100.572 133.03 100.572H153.247C155.74 100.572 157.863 102.513 157.863 104.895C157.863 107.365 155.74 109.306 153.247 109.306Z" fill="#0C6BC2"/>
<path d="M189.713 109.57C187.22 109.57 185.097 107.629 185.097 105.248V80.6339L183.251 83.0159C181.681 84.9567 178.819 85.3096 176.788 83.8099C174.85 82.3101 174.48 79.5753 175.958 77.7226L186.112 65.1953C187.313 63.6955 189.344 63.1662 191.19 63.6955C193.036 64.313 194.236 65.9892 194.236 67.8419V105.248C194.236 107.629 192.205 109.57 189.713 109.57V109.57Z" fill="#0C6BC2"/>
<path d="M199.775 109.57H179.65C177.065 109.57 175.034 107.629 175.034 105.247C175.034 102.777 177.065 100.836 179.65 100.836H199.775C202.36 100.836 204.391 102.777 204.391 105.247C204.391 107.629 202.36 109.57 199.775 109.57Z" fill="#0C6BC2"/>
<path fill-rule="evenodd" clip-rule="evenodd" d="M98.0412 109.306C97.1181 109.306 96.1949 109.218 95.2717 109.041C92.4099 108.512 89.825 107.188 87.794 105.159C85.0245 102.425 83.4551 98.7192 83.4551 94.9257V77.2816C83.4551 73.047 85.3937 69.077 88.8095 66.4304C92.2252 63.7838 96.6565 62.7251 101.088 63.5191C107.827 64.7542 112.812 70.7532 112.812 77.6344V95.2786C112.812 99.5132 110.873 103.395 107.458 106.13C104.78 108.247 101.457 109.306 98.0412 109.306ZM98.1336 71.9883C96.8411 71.9883 95.641 72.3412 94.6255 73.1352C93.3331 74.1938 92.5945 75.6936 92.5945 77.2816V94.9257C92.5945 96.5137 93.2407 98.0135 94.3485 99.0721C95.0871 99.8661 96.0103 100.307 96.9334 100.484C99.2414 100.925 100.903 99.9543 101.642 99.3368C102.934 98.3664 103.673 96.8666 103.673 95.2786V77.6344C103.673 74.8996 101.826 72.5176 99.3337 72.0765C98.9029 72.0177 98.5028 71.9883 98.1336 71.9883V71.9883Z" fill="#0C6BC2"/>
<path fill-rule="evenodd" clip-rule="evenodd" d="M236.148 109.306C235.163 109.306 234.21 109.218 233.286 109.041C230.424 108.512 227.84 107.188 225.809 105.159C223.131 102.425 221.562 98.7192 221.562 94.9257V77.2816C221.562 73.047 223.501 69.077 226.824 66.4304C230.24 63.7838 234.763 62.7251 239.102 63.5191C245.934 64.7542 250.827 70.7532 250.827 77.6344V95.2786C250.827 99.5132 248.888 103.395 245.472 106.13C242.795 108.247 239.472 109.306 236.148 109.306V109.306ZM236.148 71.9883C234.856 71.9883 233.656 72.3412 232.64 73.1352C231.348 74.1938 230.609 75.6936 230.609 77.2816V94.9257C230.609 96.5137 231.255 98.0135 232.363 99.0721C233.102 99.8661 234.025 100.307 235.04 100.484C237.256 100.925 238.918 99.9543 239.656 99.3368C240.949 98.3664 241.687 96.8666 241.687 95.2786V77.6344C241.687 74.8996 239.841 72.5176 237.348 72.0765C236.979 72.0177 236.579 71.9883 236.148 71.9883V71.9883Z" fill="#0C6BC2"/>
<path d="M437.954 406.875C435.462 406.875 433.431 404.934 433.431 402.552V377.938L431.492 380.32C429.923 382.261 427.061 382.614 425.122 381.114C423.091 379.614 422.722 376.879 424.291 375.027L434.354 362.499C435.554 361 437.585 360.47 439.431 361C441.278 361.617 442.57 363.293 442.57 365.146V402.552C442.57 404.934 440.539 406.875 437.954 406.875Z" fill="#0C6BC2"/>
<path d="M448.11 406.875H427.892C425.4 406.875 423.369 404.934 423.369 402.552C423.369 400.17 425.4 398.141 427.892 398.141H448.11C450.602 398.141 452.633 400.17 452.633 402.552C452.633 404.934 450.602 406.875 448.11 406.875Z" fill="#0C6BC2"/>
<path d="M483.467 348.384C480.882 348.384 478.851 346.443 478.851 343.973V319.447L477.005 321.741C475.435 323.682 472.573 324.035 470.542 322.535C468.604 321.124 468.234 318.389 469.711 316.448L479.866 303.921C481.067 302.509 483.098 301.891 484.944 302.509C486.79 303.127 487.99 304.803 487.99 306.655V343.973C487.99 346.443 485.959 348.384 483.467 348.384Z" fill="#0C6BC2"/>
<path d="M493.529 348.384H473.312C470.819 348.384 468.788 346.443 468.788 343.973C468.788 341.591 470.819 339.65 473.312 339.65H493.529C496.114 339.65 498.145 341.591 498.145 343.973C498.145 346.443 496.114 348.384 493.529 348.384Z" fill="#0C6BC2"/>
<path d="M483.836 405.904C481.344 405.904 479.313 403.963 479.313 401.582V376.968L477.374 379.35C475.805 381.291 472.943 381.644 471.004 380.144C468.973 378.644 468.604 375.909 470.173 374.057L480.236 361.529C481.436 360.029 483.467 359.5 485.313 360.029C487.16 360.647 488.452 362.323 488.452 364.176V401.582C488.452 403.963 486.421 405.904 483.836 405.904Z" fill="#0C6BC2"/>
<path d="M493.991 405.904H473.773C471.281 405.904 469.25 403.963 469.25 401.581C469.25 399.199 471.281 397.17 473.773 397.17H493.991C496.483 397.17 498.514 399.199 498.514 401.581C498.514 403.963 496.483 405.904 493.991 405.904Z" fill="#0C6BC2"/>
<path d="M346.745 347.502C344.252 347.502 342.221 345.561 342.221 343.091V318.566L340.283 320.859C338.713 322.8 335.851 323.153 333.913 321.653C331.882 320.242 331.513 317.507 333.082 315.566L343.145 303.039C344.345 301.627 346.376 301.01 348.222 301.627C350.068 302.245 351.268 303.921 351.268 305.774V343.091C351.268 345.561 349.238 347.502 346.745 347.502V347.502Z" fill="#0C6BC2"/>
<path d="M356.9 347.502H336.682C334.097 347.502 332.066 345.561 332.066 343.091C332.066 340.709 334.097 338.768 336.682 338.768H356.9C359.392 338.768 361.423 340.709 361.423 343.091C361.423 345.561 359.392 347.502 356.9 347.502Z" fill="#0C6BC2"/>
<path fill-rule="evenodd" clip-rule="evenodd" d="M389.672 347.502C388.749 347.502 387.826 347.414 386.903 347.238C384.041 346.708 381.456 345.297 379.425 343.268C376.655 340.621 375.086 336.828 375.086 333.034V315.39C375.086 311.155 377.025 307.274 380.44 304.539C383.856 301.892 388.287 300.834 392.719 301.628C399.458 302.951 404.443 308.862 404.443 315.831V333.475C404.443 337.622 402.504 341.592 399.088 344.238C396.411 346.355 393.088 347.502 389.672 347.502V347.502ZM389.764 310.097C388.472 310.097 387.272 310.538 386.256 311.332C384.964 312.302 384.225 313.802 384.225 315.39V333.034C384.225 334.622 384.872 336.122 385.979 337.269C386.718 337.974 387.641 338.504 388.657 338.68C390.872 339.033 392.534 338.151 393.273 337.533C394.565 336.475 395.304 335.063 395.304 333.475V315.831C395.304 313.096 393.457 310.714 390.965 310.185C390.534 310.126 390.134 310.097 389.764 310.097V310.097Z" fill="#0C6BC2"/>
<path fill-rule="evenodd" clip-rule="evenodd" d="M437.677 347.502C436.754 347.502 435.8 347.414 434.815 347.238C432.046 346.708 429.461 345.297 427.337 343.268C424.66 340.621 423.091 336.828 423.091 333.034V315.39C423.091 311.155 425.03 307.274 428.445 304.539C431.861 301.892 436.292 300.834 440.631 301.628C447.463 302.951 452.448 308.862 452.448 315.831V333.475C452.448 337.622 450.417 341.592 447.001 344.238C444.416 346.355 441.093 347.502 437.677 347.502V347.502ZM437.769 310.097C436.477 310.097 435.277 310.538 434.261 311.332C432.969 312.302 432.23 313.802 432.23 315.39V333.034C432.23 334.622 432.877 336.122 433.984 337.269C434.723 337.974 435.646 338.504 436.569 338.68C438.877 339.033 440.447 338.151 441.277 337.533C442.57 336.475 443.308 335.063 443.308 333.475V315.831C443.308 313.096 441.37 310.714 438.877 310.185C438.508 310.126 438.139 310.097 437.769 310.097Z" fill="#0C6BC2"/>
<path fill-rule="evenodd" clip-rule="evenodd" d="M346.745 406.875C345.76 406.875 344.806 406.786 343.883 406.61C341.021 406.081 338.436 404.757 336.405 402.728C333.636 399.993 332.066 396.288 332.066 392.495V374.85C332.066 370.616 334.005 366.646 337.421 363.999C340.837 361.353 345.268 360.294 349.699 361.088C356.438 362.323 361.423 368.322 361.423 375.203V392.847C361.423 397.082 359.485 400.964 356.069 403.699C353.392 405.816 350.068 406.875 346.745 406.875V406.875ZM346.745 369.557C345.452 369.557 344.252 369.91 343.237 370.704C341.944 371.763 341.206 373.262 341.206 374.85V392.495C341.206 394.083 341.852 395.582 342.96 396.641C343.698 397.435 344.622 397.876 345.637 398.053C347.853 398.494 349.514 397.523 350.253 396.906C351.545 395.935 352.284 394.435 352.284 392.847V375.203C352.284 372.468 350.438 370.086 347.945 369.645C347.514 369.587 347.114 369.557 346.745 369.557V369.557Z" fill="#0C6BC2"/>
<path fill-rule="evenodd" clip-rule="evenodd" d="M391.426 406.786C390.442 406.786 389.488 406.698 388.565 406.521C385.703 405.992 383.118 404.581 381.087 402.64C378.41 399.905 376.84 396.2 376.84 392.318V374.674C376.84 370.527 378.779 366.557 382.102 363.911C385.518 361.176 390.042 360.117 394.381 360.911C401.212 362.235 406.105 368.145 406.105 375.115V392.759C406.105 396.905 404.166 400.875 400.751 403.522C398.073 405.639 394.75 406.786 391.426 406.786V406.786ZM391.426 369.38C390.134 369.38 388.934 369.822 387.918 370.616C386.626 371.586 385.887 373.086 385.887 374.674V392.318C385.887 393.906 386.534 395.406 387.641 396.553C388.38 397.258 389.303 397.788 390.319 397.964C392.534 398.317 394.196 397.435 394.935 396.817C396.227 395.759 396.966 394.347 396.966 392.759V375.115C396.966 372.38 395.119 369.998 392.627 369.469C392.257 369.41 391.857 369.38 391.426 369.38V369.38Z" fill="#0C6BC2"/>
<path d="M502.946 262.898H347.206C343.79 262.898 340.928 260.251 340.928 253.899V7.14566C340.928 6.96922 343.79 4.23438 347.206 4.23438H502.946C506.454 4.23438 509.223 6.96922 509.223 7.14566V253.899C509.223 260.251 506.454 262.898 502.946 262.898Z" fill="white"/>
<path fill-rule="evenodd" clip-rule="evenodd" d="M502.946 267.221H347.206C342.221 267.221 336.405 263.692 336.405 253.899V7.14573C336.405 3.44046 342.498 -0.0883789 347.206 -0.0883789H502.946C507.654 -0.0883789 513.747 3.44046 513.747 7.14573V253.899C513.747 263.692 507.931 267.221 502.946 267.221ZM345.544 9.17481V253.899C345.544 255.576 345.914 258.487 347.206 258.487H502.946C504.33 258.487 504.607 255.576 504.607 253.899V9.17481C504.146 8.91015 503.5 8.64549 502.946 8.64549H347.206C346.652 8.64549 346.006 8.91015 345.544 9.17481Z" fill="#0C6BC2"/>
<path d="M509.224 25.4077H342.59C340.006 25.4077 337.975 23.3786 337.975 20.9966C337.975 18.6147 340.006 16.6738 342.59 16.6738H509.224C511.716 16.6738 513.747 18.6147 513.747 20.9966C513.747 23.3786 511.716 25.4077 509.224 25.4077V25.4077Z" fill="#0C6BC2"/>
<path d="M509.224 236.432H342.59C340.006 236.432 337.975 234.491 337.975 232.021C337.975 229.639 340.006 227.698 342.59 227.698H509.224C511.716 227.698 513.747 229.639 513.747 232.021C513.747 234.491 511.716 236.432 509.224 236.432Z" fill="#0C6BC2"/>
<path d="M431.4 252.576H417.183C414.598 252.576 412.567 250.635 412.567 248.253C412.567 245.783 414.598 243.842 417.183 243.842H431.4C433.985 243.842 436.016 245.783 436.016 248.253C436.016 250.635 433.985 252.576 431.4 252.576Z" fill="#0C6BC2"/>
<path d="M244.549 411.991H88.717C85.3013 411.991 82.5317 409.345 82.5317 402.993V156.327C82.5317 156.063 85.3013 153.416 88.717 153.416H244.549C247.965 153.416 250.734 156.063 250.734 156.327V402.993C250.734 409.345 247.965 411.991 244.549 411.991Z" fill="white"/>
<path fill-rule="evenodd" clip-rule="evenodd" d="M244.549 416.402H88.7171C83.732 416.402 78.0083 412.874 78.0083 402.993V156.327C78.0083 152.534 84.0089 149.093 88.7171 149.093H244.549C249.257 149.093 255.35 152.534 255.35 156.327V402.993C255.35 412.874 249.534 416.402 244.549 416.402ZM87.0554 158.268V402.993C87.0554 404.757 87.4247 407.669 88.7171 407.669H244.549C245.842 407.669 246.211 404.757 246.211 402.993V158.268C245.657 158.004 245.103 157.739 244.549 157.739H88.7171C88.1632 157.739 87.6093 158.004 87.0554 158.268V158.268Z" fill="#0C6BC2"/>
<path d="M250.734 174.501H84.1012C81.6086 174.501 79.5776 172.56 79.5776 170.178C79.5776 167.708 81.6086 165.767 84.1012 165.767H250.734C253.319 165.767 255.35 167.708 255.35 170.178C255.35 172.56 253.319 174.501 250.734 174.501Z" fill="#0C6BC2"/>
<path d="M250.734 385.526H84.1012C81.6086 385.526 79.5776 383.585 79.5776 381.203C79.5776 378.821 81.6086 376.88 84.1012 376.88H250.734C253.319 376.88 255.35 378.821 255.35 381.203C255.35 383.585 253.319 385.526 250.734 385.526Z" fill="#0C6BC2"/>
<path d="M173.003 401.758H158.693C156.201 401.758 154.17 399.817 154.17 397.347C154.17 394.965 156.201 393.024 158.693 393.024H173.003C175.495 393.024 177.526 394.965 177.526 397.347C177.526 399.817 175.495 401.758 173.003 401.758Z" fill="#0C6BC2"/>
<path d="M294.493 344.767H179.188C176.603 344.767 174.572 342.826 174.572 340.444C174.572 338.062 176.603 336.033 179.188 336.033H289.969V77.0167C289.969 74.6347 292 72.6938 294.493 72.6938H410.074C412.567 72.6938 414.598 74.6347 414.598 77.0167C414.598 79.4869 412.567 81.4277 410.074 81.4277H299.109V340.444C299.109 342.826 296.985 344.767 294.493 344.767Z" fill="#0C6BC2"/>
<path d="M425.122 62.6367C433.431 62.6367 440.17 69.0768 440.17 77.0167C440.17 85.0448 433.431 91.4849 425.122 91.4849C416.814 91.4849 410.075 85.0448 410.075 77.0167C410.075 69.0768 416.814 62.6367 425.122 62.6367V62.6367Z" fill="#C5FBFC"/>
<path fill-rule="evenodd" clip-rule="evenodd" d="M425.123 95.8077C414.321 95.8077 405.459 87.4267 405.459 77.0166C405.459 66.6948 414.321 58.2256 425.123 58.2256C435.924 58.2256 444.786 66.6948 444.786 77.0166C444.786 87.4267 435.924 95.8077 425.123 95.8077ZM425.123 66.9595C419.307 66.9595 414.598 71.4587 414.598 77.0166C414.598 82.5745 419.307 87.162 425.123 87.162C430.939 87.162 435.647 82.5745 435.647 77.0166C435.647 71.4587 430.939 66.9595 425.123 66.9595Z" fill="#0C6BC2"/>
<path d="M164.14 354.824C155.739 354.824 149 348.384 149 340.444C149 332.504 155.739 325.976 164.14 325.976C172.449 325.976 179.188 332.504 179.188 340.444C179.188 348.384 172.449 354.824 164.14 354.824Z" fill="#C5FBFC"/>
<path fill-rule="evenodd" clip-rule="evenodd" d="M164.14 359.235C153.247 359.235 144.477 350.766 144.477 340.444C144.477 330.034 153.247 321.653 164.14 321.653C174.941 321.653 183.712 330.034 183.712 340.444C183.712 350.766 174.941 359.235 164.14 359.235ZM164.14 330.387C158.324 330.387 153.616 334.886 153.616 340.444C153.616 346.002 158.324 350.502 164.14 350.502C169.864 350.502 174.572 346.002 174.572 340.444C174.572 334.886 169.864 330.387 164.14 330.387Z" fill="#0C6BC2"/>
<path d="M295.878 287.865C250.457 287.865 213.53 252.665 213.53 209.172C213.53 165.767 250.457 130.567 295.878 130.567C341.298 130.567 378.132 165.767 378.132 209.172C378.132 252.665 341.298 287.865 295.878 287.865Z" fill="#65BFFC"/>
<path fill-rule="evenodd" clip-rule="evenodd" d="M295.878 292.188C247.965 292.188 209.007 254.958 209.007 209.172C209.007 163.473 247.965 126.244 295.878 126.244C343.79 126.244 382.748 163.473 382.748 209.172C382.748 254.958 343.79 292.188 295.878 292.188ZM295.878 134.89C253.042 134.89 218.146 168.237 218.146 209.172C218.146 250.194 253.042 283.454 295.878 283.454C338.713 283.454 373.609 250.194 373.609 209.172C373.609 168.237 338.713 134.89 295.878 134.89Z" fill="#0C6BC2"/>
<path d="M320.896 234.139C319.511 234.139 318.219 233.521 317.388 232.551C315.726 230.698 316.003 227.963 317.942 226.375L341.021 208.025L317.942 189.675C316.003 188.087 315.726 185.352 317.388 183.5C318.957 181.647 321.819 181.382 323.758 182.97L351.084 204.673C352.099 205.467 352.746 206.702 352.746 208.025C352.746 209.348 352.099 210.495 351.084 211.378L323.758 233.08C322.927 233.786 321.912 234.139 320.896 234.139V234.139Z" fill="#0C6BC2"/>
<path d="M267.906 234.139C266.89 234.139 265.875 233.786 265.044 233.08L237.718 211.378C236.702 210.495 236.056 209.348 236.056 208.025C236.056 206.702 236.702 205.467 237.718 204.673L265.044 182.97C266.983 181.382 269.844 181.647 271.414 183.5C273.075 185.352 272.798 188.087 270.86 189.675L247.78 208.025L270.86 226.375C272.798 227.963 273.075 230.698 271.414 232.551C270.583 233.521 269.29 234.139 267.906 234.139V234.139Z" fill="#0C6BC2"/>
<path d="M285.907 241.99C285.538 241.99 285.169 241.931 284.799 241.814C282.399 241.284 280.83 238.902 281.476 236.609L296.524 177.589C297.17 175.295 299.57 173.884 302.063 174.413C304.555 175.03 306.033 177.324 305.386 179.706L290.339 238.638C289.785 240.667 287.938 241.99 285.907 241.99V241.99Z" fill="#0C6BC2"/>
<path d="M125.09 308.156C124.475 308.156 123.86 308.009 123.244 307.715C120.936 306.744 119.921 304.186 120.936 301.98L159.34 220.2C160.079 218.612 161.741 217.641 163.495 217.641C165.341 217.641 167.003 218.612 167.741 220.2L206.238 301.98C207.253 304.186 206.238 306.744 203.93 307.715C201.622 308.685 198.945 307.715 197.929 305.509L163.587 232.639L129.337 305.509C128.506 307.185 126.845 308.156 125.09 308.156V308.156Z" fill="#0C6BC2"/>
<path d="M187.312 280.542H138.107C135.615 280.542 133.491 278.513 133.491 276.131C133.491 273.749 135.615 271.809 138.107 271.809H187.312C189.805 271.809 191.836 273.749 191.836 276.131C191.836 278.513 189.805 280.542 187.312 280.542V280.542Z" fill="#0C6BC2"/>
<path fill-rule="evenodd" clip-rule="evenodd" d="M432.877 155.886H398.719C396.135 155.886 394.104 153.945 394.104 151.563V115.04C394.104 112.658 396.135 110.629 398.719 110.629H432.877C445.986 110.629 456.603 120.774 456.603 133.302C456.603 145.741 445.986 155.886 432.877 155.886V155.886ZM403.243 147.152H432.877C440.909 147.152 447.463 140.977 447.463 133.302C447.463 125.626 440.909 119.363 432.877 119.363H403.243V147.152Z" fill="#0C6BC2"/>
<path fill-rule="evenodd" clip-rule="evenodd" d="M435.831 197.968H398.719C396.135 197.968 394.104 196.027 394.104 193.645V151.563C394.104 149.093 396.135 147.152 398.719 147.152H435.831C450.51 147.152 462.418 158.533 462.418 172.56C462.418 186.587 450.51 197.968 435.831 197.968V197.968ZM403.243 189.234H435.831C445.524 189.234 453.279 181.823 453.279 172.56C453.279 163.385 445.524 155.886 435.831 155.886H403.243V189.234Z" fill="#0C6BC2"/>
<path d="M211.961 632.985C176.019 636.572 135.214 619.34 89.5479 581.287C133.553 541.47 173.588 522.62 209.653 524.738L222.762 536.559L224.516 618.781L211.961 632.985Z" fill="white"/>
<path fill-rule="evenodd" clip-rule="evenodd" d="M208.176 637.484C202.268 637.484 190.82 636.866 175.219 632.72C154.724 627.338 122.598 614.546 86.5938 584.551C85.5783 583.757 85.0244 582.61 85.0244 581.375C85.0244 580.14 85.486 578.993 86.4092 578.111C121.121 546.705 152.601 532.677 172.911 526.414C195.252 519.621 209.284 520.327 209.93 520.327C210.946 520.415 211.961 520.856 212.792 521.562L225.901 533.383C226.732 534.177 227.286 535.236 227.286 536.471L229.132 618.693C229.132 619.751 228.763 620.722 228.024 621.604L215.469 635.808C214.731 636.69 213.623 637.219 212.423 637.396C212.238 637.396 210.761 637.484 208.176 637.484V637.484ZM96.3795 581.111C129.337 607.665 158.325 619.134 177.065 624.162C193.774 628.662 205.499 628.838 209.745 628.75L219.9 617.193L218.239 538.412L207.807 529.06C203.745 529.06 191.928 529.766 175.126 534.971C156.571 540.706 128.137 553.409 96.3795 581.111V581.111Z" fill="#0C6BC2"/>
<path d="M210.484 611.459C183.096 611.988 158.448 601.607 136.538 580.317C157.463 558.203 181.65 546.881 209.099 546.352L210.484 611.459Z" fill="#C5FBFC"/>
<path fill-rule="evenodd" clip-rule="evenodd" d="M208.914 615.87C167.094 615.87 134.691 584.728 133.306 583.404C131.644 581.728 131.552 579.17 133.122 577.405C134.506 575.994 166.356 542.823 209.007 541.94C210.207 541.94 211.407 542.382 212.238 543.176C213.161 543.97 213.622 545.116 213.622 546.263L215.1 611.37C215.1 613.752 213.161 615.781 210.576 615.781C210.022 615.84 209.468 615.87 208.914 615.87ZM143.092 580.228C151.77 587.462 176.511 605.812 205.868 607.047L204.668 550.939C175.311 553.321 151.493 572.641 143.092 580.228Z" fill="#0C6BC2"/>
<path d="M327.266 632.014C327.758 654.54 279.969 665.185 183.897 663.95L224.517 618.781L222.762 536.559L180.204 492.978C276.091 487.92 324.281 496.683 324.773 519.268" fill="#65BFFC"/>
<path d="M187.497 668.361C185.189 668.361 183.897 668.361 183.804 668.361C182.05 668.273 180.481 667.302 179.742 665.714C179.004 664.215 179.281 662.362 180.389 661.127L219.901 617.193L218.239 538.324L176.788 495.978C175.588 494.742 175.311 492.978 175.957 491.39C176.604 489.802 178.173 488.743 179.927 488.655C180.204 488.655 209.007 487.155 240.672 488.479C283.877 490.243 311.48 496.242 322.927 506.388C327.081 510.093 329.297 514.327 329.389 519.18C329.389 521.562 327.451 523.502 324.866 523.591C322.373 523.679 320.25 521.738 320.25 519.356C320.157 516.974 319.05 514.857 316.742 512.739C298.74 496.86 226.732 495.801 190.267 496.948L226.086 533.56C226.824 534.354 227.286 535.324 227.286 536.471L229.132 618.693C229.132 619.751 228.763 620.81 228.025 621.604L193.775 659.627C230.332 659.363 302.248 655.393 319.419 638.807C321.727 636.602 322.742 634.396 322.742 632.102C322.65 629.632 324.681 627.691 327.174 627.603C327.174 627.603 327.204 627.603 327.266 627.603C329.758 627.603 331.789 629.544 331.789 631.926C331.974 636.69 329.943 641.013 325.881 644.894C314.988 655.481 287.569 662.538 244.457 666.067C219.624 668.096 196.267 668.361 187.497 668.361V668.361Z" fill="#0C6BC2"/>
<path d="M203.283 578.993C202.421 537.882 234.609 517.65 299.847 518.297C328.927 517.68 449.863 545.91 450.509 574.141C451.063 602.372 331.42 635.278 302.432 635.896C237.256 639.13 204.206 620.163 203.283 578.993V578.993Z" fill="white"/>
<path fill-rule="evenodd" clip-rule="evenodd" d="M297.078 640.307C281.937 640.307 240.025 638.278 216.023 616.928C204.852 607.048 199.036 594.344 198.759 579.082C198.39 563.908 203.652 550.939 214.361 540.617C242.056 513.886 296.616 513.886 299.847 513.886C316.187 513.622 355.33 521.385 387.272 531.266C431.954 545.028 454.756 559.497 455.033 574.053C455.402 588.61 433.154 603.872 389.118 619.487C357.73 630.603 318.957 639.866 302.617 640.219C302.063 640.219 300.124 640.307 297.078 640.307V640.307ZM207.899 578.905C208.176 591.697 212.976 602.284 222.208 610.577C248.426 633.867 301.601 631.573 302.155 631.485C302.217 631.485 302.278 631.485 302.34 631.485C315.818 631.22 352.745 623.016 385.979 611.282C430.384 595.579 446.078 581.817 445.893 574.23C445.709 566.554 429.553 553.498 384.41 539.559C350.622 529.06 313.51 522.356 299.939 522.62C299.878 522.62 299.847 522.62 299.847 522.62C299.293 522.62 246.026 522.444 220.823 546.793C211.961 555.35 207.622 566.201 207.899 578.905V578.905Z" fill="#0C6BC2"/>
<path d="M342.498 553.321C377.763 552.616 395.765 559.232 404.812 565.319C411.551 569.819 411.736 579.964 405.274 584.728C396.411 591.168 378.686 598.491 343.513 599.196C338.805 584.287 338.436 568.319 342.498 553.321Z" fill="#65BFFC"/>
<path fill-rule="evenodd" clip-rule="evenodd" d="M343.513 603.519C341.482 603.519 339.728 602.284 339.082 600.431C334.189 584.728 333.82 568.054 338.067 552.263C338.528 550.322 340.375 548.998 342.406 548.998C379.24 548.204 398.165 555.527 407.397 561.79C411.736 564.613 414.413 569.554 414.506 574.847C414.69 580.14 412.198 585.081 408.043 588.168C398.996 594.785 380.44 602.813 343.606 603.519C343.544 603.519 343.513 603.519 343.513 603.519V603.519ZM346.098 557.644C343.329 569.907 343.606 582.61 346.929 594.697C378.963 593.638 394.842 586.845 402.504 581.199C404.351 579.876 405.458 577.494 405.366 575.023C405.366 572.465 404.166 570.171 402.227 568.936C394.38 563.643 378.686 557.644 347.575 557.644C347.083 557.644 346.591 557.644 346.098 557.644V557.644Z" fill="#0C6BC2"/>
<path d="M409.982 574.936L339.729 576.347Z" fill="white"/>
<path d="M339.729 580.67C337.236 580.67 335.205 578.817 335.113 576.435C335.113 573.965 337.051 572.024 339.636 571.936L409.89 570.524C409.89 570.524 409.921 570.524 409.982 570.524C412.475 570.524 414.506 572.465 414.506 574.847C414.598 577.229 412.567 579.258 410.075 579.258L339.821 580.67C339.759 580.67 339.729 580.67 339.729 580.67Z" fill="#0C6BC2"/>
<path d="M160.817 510.534L109.211 511.505Z" fill="white"/>
<path d="M109.212 515.916C106.719 515.916 104.688 513.975 104.688 511.681C104.596 509.211 106.627 507.27 109.119 507.182L160.725 506.123C160.786 506.123 160.817 506.123 160.817 506.123C163.31 506.123 165.341 508.064 165.433 510.446C165.433 512.828 163.494 514.857 160.909 514.857L109.304 515.916C109.304 515.916 109.273 515.916 109.212 515.916V515.916Z" fill="#0C6BC2"/>
<path d="M253.504 465.188L171.157 466.776Z" fill="white"/>
<path d="M171.157 471.188C168.757 471.188 166.726 469.247 166.633 466.865C166.541 464.483 168.572 462.454 171.065 462.454L253.412 460.778C255.997 460.69 258.028 462.63 258.12 465.101C258.12 467.483 256.181 469.512 253.597 469.512L171.249 471.188C171.249 471.188 171.218 471.188 171.157 471.188V471.188Z" fill="#0C6BC2"/>
<path d="M244.733 442.428L233.471 442.692Z" fill="white"/>
<path d="M233.471 447.015C230.978 447.015 228.947 445.163 228.947 442.781C228.855 440.31 230.886 438.37 233.379 438.281L244.641 438.105C247.226 438.017 249.257 439.958 249.257 442.34C249.35 444.721 247.319 446.751 244.826 446.751L233.563 447.015C233.563 447.015 233.532 447.015 233.471 447.015Z" fill="#0C6BC2"/>
<path d="M325.789 440.84L268.367 441.987Z" fill="white"/>
<path d="M268.367 446.309C265.874 446.309 263.843 444.457 263.843 442.075C263.751 439.605 265.782 437.664 268.275 437.576L325.696 436.429C325.696 436.429 325.727 436.429 325.788 436.429C328.281 436.429 330.312 438.37 330.312 440.752C330.404 443.133 328.373 445.163 325.881 445.163L268.459 446.309C268.459 446.309 268.428 446.309 268.367 446.309V446.309Z" fill="#0C6BC2"/>
<path d="M375.179 476.481L315.818 477.628Z" fill="white"/>
<path d="M315.819 482.039C313.418 482.039 311.387 480.098 311.295 477.716C311.203 475.334 313.234 473.393 315.726 473.305L375.086 472.158C375.086 472.158 375.117 472.158 375.179 472.158C377.579 472.158 379.61 474.011 379.702 476.393C379.795 478.775 377.764 480.804 375.271 480.804L315.911 482.039C315.911 482.039 315.88 482.039 315.819 482.039Z" fill="#0C6BC2"/>
<path d="M362.254 506.476L353.022 506.741Z" fill="white"/>
<path d="M353.022 511.064C350.53 511.064 348.499 509.211 348.406 506.829C348.406 504.359 350.345 502.418 352.93 502.33L362.162 502.153C364.746 502.065 366.777 504.006 366.87 506.388C366.87 508.858 364.839 510.799 362.346 510.887L353.114 511.064C353.053 511.064 353.022 511.064 353.022 511.064Z" fill="#0C6BC2"/>
<path d="M163.864 649.217L112.258 650.276Z" fill="white"/>
<path d="M112.258 654.599C109.765 654.599 107.734 652.746 107.734 650.364C107.642 647.982 109.673 645.953 112.166 645.865L163.771 644.895C163.833 644.895 163.864 644.895 163.864 644.895C166.356 644.895 168.387 646.747 168.387 649.129C168.479 651.511 166.448 653.54 163.956 653.628L112.35 654.599C112.289 654.599 112.258 654.599 112.258 654.599V654.599Z" fill="#0C6BC2"/>
<path d="M258.397 690.857L176.142 692.534Z" fill="white"/>
<path d="M176.142 696.857C173.649 696.857 171.618 695.004 171.526 692.622C171.526 690.152 173.465 688.211 176.049 688.123L258.304 686.535C258.366 686.535 258.397 686.535 258.397 686.535C260.889 686.535 262.92 688.388 263.013 690.77C263.013 693.152 261.074 695.181 258.489 695.269L176.234 696.857C176.173 696.857 176.142 696.857 176.142 696.857V696.857Z" fill="#0C6BC2"/>
<path d="M250.642 713.971L239.379 714.148Z" fill="white"/>
<path d="M239.379 718.559C236.887 718.559 234.856 716.618 234.856 714.236C234.763 711.854 236.794 709.825 239.287 709.825L250.55 709.56C250.611 709.56 250.642 709.56 250.642 709.56C253.134 709.56 255.165 711.501 255.258 713.883C255.258 716.265 253.227 718.206 250.734 718.294L239.471 718.559C239.471 718.559 239.441 718.559 239.379 718.559Z" fill="#0C6BC2"/>
<path d="M385.887 668.361L326.619 669.508Z" fill="white"/>
<path d="M326.619 673.831C324.127 673.831 322.096 671.978 322.003 669.596C322.003 667.214 323.942 665.185 326.527 665.185L385.795 663.95C385.795 663.95 385.826 663.95 385.887 663.95C388.38 663.95 390.411 665.891 390.411 668.273C390.503 670.655 388.472 672.596 385.979 672.684L326.712 673.831C326.65 673.831 326.619 673.831 326.619 673.831V673.831Z" fill="#0C6BC2"/>
<path d="M365.301 645.247L355.977 645.423Z" fill="white"/>
<path d="M355.977 649.747C353.484 649.747 351.453 647.894 351.453 645.512C351.361 643.13 353.392 641.101 355.884 641.013L365.209 640.836C365.209 640.836 365.239 640.836 365.301 640.836C367.793 640.836 369.824 642.777 369.824 645.159C369.917 647.541 367.886 649.57 365.393 649.57L356.069 649.747C356.069 649.747 356.038 649.747 355.977 649.747Z" fill="#0C6BC2"/>
<path d="M331.697 712.295L274.275 713.442Z" fill="white"/>
<path d="M274.275 717.853C271.783 717.853 269.752 715.912 269.752 713.53C269.659 711.148 271.69 709.119 274.183 709.119L331.604 707.972C334.097 707.884 336.22 709.825 336.22 712.207C336.312 714.677 334.281 716.618 331.789 716.706L274.367 717.853C274.367 717.853 274.337 717.853 274.275 717.853Z" fill="#0C6BC2"/>
<path fill-rule="evenodd" clip-rule="evenodd" d="M281.568 608.9L279.814 604.313C279.63 603.784 279.076 603.519 278.522 603.519C276.983 603.578 275.475 603.519 273.998 603.342C273.444 603.254 272.89 603.519 272.613 604.048L270.49 608.459C269.936 609.606 268.459 610.135 267.167 609.606L258.581 605.813C257.381 605.283 256.827 603.872 257.381 602.637L259.504 598.226C259.781 597.785 259.597 597.167 259.227 596.814C258.12 595.814 257.073 594.726 256.089 593.55C255.719 593.109 255.165 592.932 254.612 593.197L249.811 594.873C248.519 595.314 247.134 594.697 246.672 593.462L243.441 584.904C242.887 583.669 243.626 582.346 244.826 581.905L249.626 580.229C250.18 580.052 250.55 579.523 250.457 578.994C250.396 577.523 250.488 576.053 250.734 574.582C250.734 574.053 250.457 573.524 249.903 573.259L245.287 571.23C244.087 570.701 243.533 569.289 244.087 568.142L248.149 559.85C248.703 558.703 250.18 558.173 251.38 558.703L255.996 560.82C256.55 560.996 257.196 560.908 257.566 560.467C258.55 559.408 259.658 558.438 260.889 557.556C261.351 557.203 261.535 556.585 261.351 556.056L259.597 551.557C259.135 550.322 259.781 548.91 261.074 548.469L269.936 545.381C271.229 544.94 272.706 545.558 273.167 546.793L274.921 551.38C275.106 551.91 275.66 552.174 276.214 552.174C277.752 552.116 279.26 552.174 280.737 552.351C281.291 552.439 281.845 552.174 282.122 551.645L284.245 547.234C284.799 545.999 286.276 545.558 287.569 546.087L296.154 549.881C297.355 550.41 297.908 551.822 297.355 553.057L295.231 557.468C294.954 557.909 295.139 558.526 295.508 558.879C296.616 559.879 297.662 560.938 298.647 562.055C299.016 562.496 299.57 562.673 300.124 562.496L304.925 560.82C306.217 560.379 307.602 560.996 308.063 562.232L311.295 570.789C311.848 572.024 311.11 573.347 309.91 573.789L305.109 575.465C304.555 575.641 304.186 576.17 304.278 576.7C304.34 578.17 304.278 579.64 304.094 581.111C304.001 581.64 304.278 582.169 304.832 582.346L309.448 584.463C310.648 584.993 311.202 586.404 310.648 587.551L306.586 595.755C306.032 596.991 304.555 597.52 303.355 596.902L298.739 594.873C298.185 594.697 297.632 594.785 297.17 595.226C296.185 596.285 295.077 597.255 293.846 598.137C293.385 598.49 293.2 599.108 293.385 599.549L295.139 604.136C295.601 605.372 294.954 606.695 293.662 607.136L284.799 610.312C283.507 610.753 282.03 610.135 281.568 608.9V608.9ZM280.83 586.845C286.092 585.081 288.769 579.523 286.83 574.494C284.892 569.554 279.168 566.995 273.906 568.848C268.644 570.613 265.967 576.17 267.905 581.111C269.844 586.139 275.66 588.698 280.83 586.845Z" fill="#C5FBFC"/>
<path fill-rule="evenodd" clip-rule="evenodd" d="M283.969 614.811C281.014 614.811 278.337 613.135 277.322 610.4L276.306 607.93C276.122 607.871 275.937 607.842 275.752 607.842L274.645 610.312C273.814 611.9 272.429 613.135 270.675 613.752C268.921 614.37 266.982 614.282 265.32 613.576L256.643 609.782C253.135 608.195 251.565 604.225 253.227 600.872L254.427 598.402C254.304 598.284 254.181 598.167 254.058 598.049L251.381 598.931C249.627 599.549 247.78 599.461 246.026 598.755C244.364 597.961 243.072 596.638 242.426 594.961L239.102 586.404C238.456 584.728 238.548 582.875 239.379 581.287C240.118 579.611 241.503 578.376 243.257 577.758L245.934 576.876C245.934 576.7 245.934 576.523 245.934 576.347L243.441 575.2C241.687 574.494 240.395 573.083 239.749 571.406C239.102 569.73 239.195 567.878 240.025 566.29L243.995 558.085C244.734 556.409 246.211 555.174 247.965 554.556C249.719 553.939 251.565 554.027 253.319 554.821L255.812 555.88C255.996 555.762 256.15 555.644 256.273 555.527L255.258 553.056C253.965 549.528 255.812 545.646 259.504 544.411L268.367 541.323C270.121 540.706 272.06 540.706 273.814 541.5C275.475 542.293 276.768 543.617 277.414 545.293L278.43 547.763C278.614 547.763 278.799 547.793 278.984 547.851L280.091 545.381C281.753 542.029 285.907 540.529 289.415 542.117L298.093 545.911C299.755 546.705 301.047 548.028 301.694 549.704C302.34 551.38 302.248 553.233 301.509 554.821L300.309 557.291C300.432 557.409 300.555 557.526 300.678 557.644L303.355 556.762C306.956 555.438 311.018 557.291 312.31 560.732L315.634 569.289C316.926 572.73 315.08 576.611 311.479 577.935L308.802 578.817C308.802 578.993 308.802 579.17 308.802 579.346L311.295 580.493C314.803 581.993 316.372 586.051 314.71 589.403L310.741 597.608C310.002 599.284 308.525 600.519 306.771 601.137C305.017 601.754 303.171 601.666 301.417 600.872L298.924 599.814C298.739 599.931 298.586 600.049 298.462 600.166L299.478 602.637C300.124 604.313 300.032 606.165 299.201 607.753C298.463 609.43 296.985 610.665 295.231 611.282L286.369 614.37C285.569 614.664 284.769 614.811 283.969 614.811V614.811ZM278.614 599.196C281.107 599.196 283.322 600.608 284.153 602.813L285.169 605.548L290.154 603.783L289.138 601.049C288.215 598.755 289.046 596.196 291.077 594.697C292.062 593.991 292.985 593.168 293.847 592.227C295.601 590.462 298.278 589.933 300.678 590.903L303.355 592.138L305.571 587.551L302.894 586.316C300.586 585.345 299.201 582.963 299.478 580.493C299.663 579.317 299.724 578.111 299.663 576.876C299.57 574.406 301.14 572.2 303.54 571.406L306.309 570.436L304.463 565.672L301.694 566.642C299.293 567.436 296.616 566.731 295.047 564.79C294.247 563.849 293.385 562.967 292.462 562.143C290.523 560.467 289.969 557.82 291.077 555.615L292.37 552.968L287.569 550.851L286.277 553.498C285.169 555.703 282.769 557.026 280.184 556.674C278.953 556.497 277.691 556.438 276.399 556.497C273.814 556.674 271.506 555.174 270.583 552.88L269.567 550.145L264.582 551.91L265.597 554.556C266.521 556.938 265.69 559.497 263.659 560.996C262.674 561.702 261.751 562.496 260.889 563.378C259.135 565.231 256.458 565.76 254.058 564.702L251.381 563.555L249.165 568.142L251.842 569.377C254.242 570.348 255.535 572.73 255.258 575.2C255.073 576.376 255.012 577.552 255.073 578.729C255.166 581.199 253.596 583.493 251.196 584.287L248.426 585.257L250.273 590.021L253.042 589.051C255.443 588.257 258.12 588.962 259.689 590.903C260.489 591.844 261.351 592.726 262.274 593.55C264.213 595.226 264.767 597.873 263.659 600.078L262.366 602.637L267.259 604.842L268.459 602.195C269.567 599.99 271.967 598.667 274.552 599.02C275.845 599.137 277.106 599.196 278.337 599.196C278.399 599.196 278.491 599.196 278.614 599.196V599.196ZM277.414 591.785C271.413 591.785 265.782 588.345 263.659 582.699C260.889 575.376 264.767 567.348 272.337 564.702C276.029 563.466 279.999 563.555 283.507 565.143C287.107 566.731 289.785 569.554 291.077 572.994C293.847 580.228 289.969 588.345 282.399 590.991C280.738 591.521 279.076 591.785 277.414 591.785V591.785ZM272.244 579.611C273.26 582.346 276.399 583.757 279.26 582.787C282.122 581.816 283.599 578.729 282.584 575.994C282.03 574.671 281.014 573.7 279.722 573.083C278.337 572.465 276.86 572.377 275.475 572.906C272.614 573.877 271.136 576.964 272.244 579.611Z" fill="#0C6BC2"/>
</g>
<defs>
<clipPath id="clip0_303_907">
<rect width="721" height="719" fill="white"/>
</clipPath>
</defs>
</svg>
