<svg width="721" height="719" viewBox="0 0 721 719" fill="none" xmlns="http://www.w3.org/2000/svg">
<g clip-path="url(#clip0_303_835)">
<path d="M84.3507 330.68C100.217 178.144 236.685 67.1806 389.219 83.0468C541.854 98.8126 652.716 235.282 636.95 387.919C621.184 540.455 484.616 651.318 332.082 635.552C179.446 619.786 68.5851 483.317 84.3507 330.68V330.68Z" fill="#92E0FF"/>
<path d="M713.77 405.392C713.636 405.392 713.469 405.358 713.268 405.291C710.758 404.99 708.95 402.781 709.151 400.17C709.854 394.145 710.456 388.019 710.858 381.994C710.959 379.483 713.168 377.475 715.779 377.676C718.289 377.877 720.197 380.086 720.097 382.596C719.695 388.822 719.092 395.048 718.39 401.274C718.088 403.584 716.08 405.392 713.77 405.392V405.392Z" fill="#0C6BC2"/>
<path d="M716.08 355.383C713.57 355.383 711.561 353.374 711.461 350.864C711.26 340.42 710.457 329.977 709.352 319.734C709.051 317.223 710.858 314.914 713.469 314.613C715.98 314.311 718.289 316.219 718.591 318.73C719.695 329.274 720.499 340.019 720.7 350.663C720.8 353.173 718.792 355.282 716.181 355.383C716.181 355.383 716.147 355.383 716.08 355.383ZM709.051 292.721C706.842 292.721 704.934 291.115 704.532 289.006C702.423 278.863 699.913 268.621 696.9 258.78C696.197 256.269 697.603 253.759 700.013 252.955C702.524 252.252 705.034 253.658 705.838 256.068C708.85 266.311 711.461 276.755 713.57 287.098C714.072 289.608 712.465 292.119 709.955 292.621C709.62 292.688 709.319 292.721 709.051 292.721ZM690.975 232.269C689.168 232.269 687.461 231.164 686.657 229.357C682.842 219.717 678.524 210.177 673.904 200.938C672.699 198.629 673.603 195.817 675.913 194.712C678.222 193.507 680.934 194.511 682.139 196.721C686.959 206.26 691.377 216.001 695.294 225.842C696.197 228.252 695.093 230.964 692.683 231.867C692.147 232.135 691.578 232.269 690.975 232.269Z" fill="#0C6BC2"/>
<path d="M662.457 175.934C660.951 175.934 659.444 175.231 658.541 173.825C655.327 168.604 652.013 163.482 648.499 158.562C646.992 156.453 647.494 153.541 649.603 152.135C651.712 150.629 654.624 151.131 656.131 153.24C659.645 158.361 663.16 163.583 666.373 168.905C667.779 171.014 667.076 173.926 664.967 175.231C664.164 175.733 663.361 175.934 662.457 175.934V175.934Z" fill="#0C6BC2"/>
<path d="M262.192 705.644C261.79 705.644 261.388 705.577 260.987 705.443C254.962 703.736 248.936 701.828 243.012 699.82C240.602 698.916 239.397 696.305 240.2 693.895C241.003 691.485 243.614 690.18 246.125 691.083C251.849 692.991 257.673 694.899 263.497 696.506C265.907 697.209 267.414 699.82 266.711 702.23C266.108 704.339 264.2 705.644 262.192 705.644Z" fill="#0C6BC2"/>
<path d="M376.768 719.1C374.258 719.1 372.249 717.092 372.049 714.682C371.948 712.071 373.957 709.962 376.467 709.862C389.22 709.259 401.973 707.954 414.425 706.046C416.935 705.644 419.345 707.452 419.647 709.962C420.048 712.473 418.341 714.883 415.831 715.284C402.977 717.192 389.923 718.498 376.969 719.1C376.902 719.1 376.835 719.1 376.768 719.1ZM338.107 718.699C338.04 718.699 337.94 718.699 337.806 718.699C324.852 717.895 311.798 716.389 299.045 714.18C296.534 713.778 294.827 711.368 295.229 708.858C295.731 706.347 298.041 704.64 300.652 705.042C313.003 707.15 325.756 708.657 338.409 709.46C341.02 709.661 342.927 711.87 342.727 714.381C342.626 716.891 340.618 718.699 338.107 718.699V718.699ZM452.885 707.351C450.776 707.351 448.969 706.046 448.366 703.937C447.764 701.426 449.169 698.916 451.68 698.213C463.931 695 476.081 690.983 487.83 686.464C490.24 685.46 492.952 686.665 493.855 689.075C494.759 691.385 493.554 694.096 491.245 695C479.094 699.719 466.642 703.837 454.09 707.251C453.688 707.318 453.287 707.351 452.885 707.351Z" fill="#0C6BC2"/>
<path d="M524.683 679.435C522.976 679.435 521.369 678.531 520.566 676.924C519.361 674.715 520.265 671.903 522.574 670.698C527.896 667.887 533.319 664.874 538.541 661.861C540.75 660.556 543.562 661.259 544.867 663.468C546.173 665.677 545.47 668.489 543.261 669.794C537.838 673.008 532.315 676.02 526.792 678.933C526.122 679.267 525.419 679.435 524.683 679.435V679.435Z" fill="#0C6BC2"/>
<path d="M81.9413 143.197C80.9371 143.197 79.9329 142.896 79.0291 142.193C77.0207 140.587 76.7195 137.674 78.3262 135.666C82.1421 130.846 86.2593 126.026 90.3765 121.306C91.9832 119.398 94.9957 119.197 96.9037 120.904C98.8116 122.612 99.0125 125.524 97.3054 127.432C93.2886 131.951 89.3723 136.67 85.5563 141.49C84.6526 142.595 83.3471 143.197 81.9413 143.197V143.197Z" fill="#0C6BC2"/>
<path d="M5.12171 362.613C2.61124 362.613 0.502441 360.504 0.502441 357.893C0.60286 344.638 1.40621 331.182 2.9125 318.027C3.11334 315.517 5.42297 313.709 8.03387 314.01C10.5443 314.312 12.3519 316.521 12.0506 319.132C10.6448 331.885 9.84141 345.04 9.74099 357.994C9.74099 360.504 7.73261 362.613 5.12171 362.613V362.613ZM14.059 284.286C13.7243 284.286 13.3895 284.253 13.0548 284.186C10.5443 283.684 9.03806 281.173 9.54015 278.663C12.5527 265.709 16.2682 252.755 20.6867 240.303C21.49 237.893 24.1009 236.587 26.511 237.391C29.0214 238.294 30.2265 240.905 29.4231 243.315C25.1051 255.566 21.49 268.119 18.5779 280.772C18.0758 282.88 16.1678 284.286 14.059 284.286ZM40.1679 209.976C39.4315 209.976 38.7621 209.809 38.1596 209.474C35.8499 208.37 34.8457 205.658 35.9503 203.349C41.6742 191.399 48.2015 179.65 55.2308 168.302C56.6367 166.194 59.4484 165.491 61.6576 166.896C63.7664 168.202 64.4693 171.114 63.0635 173.223C56.235 184.269 49.9086 195.717 44.2851 207.365C43.4818 208.972 41.8751 209.976 40.1679 209.976V209.976Z" fill="#0C6BC2"/>
<path d="M9.64022 420.354C7.33059 420.354 5.42263 418.747 5.02095 416.538C4.11718 410.312 3.21341 404.086 2.61089 397.86C2.30964 395.35 4.11718 393.04 6.72807 392.839C9.23855 392.538 11.5482 394.346 11.749 396.957C12.452 402.982 13.2553 409.007 14.1591 415.032C14.5608 417.542 12.8536 419.953 10.3432 420.354C10.0754 420.354 9.84106 420.354 9.64022 420.354V420.354Z" fill="#0C6BC2"/>
<path d="M387.714 663.97V420.755H416.333C425.873 420.755 426.777 424.772 426.777 429.793V654.932C426.777 659.953 425.873 663.97 416.333 663.97H387.714Z" fill="#65BFFC"/>
<path fill-rule="evenodd" clip-rule="evenodd" d="M416.333 668.59H387.714C385.103 668.59 383.094 666.481 383.094 663.97V420.756C383.094 418.245 385.103 416.136 387.714 416.136H416.333C429.889 416.136 431.396 423.969 431.396 429.793V654.933C431.396 660.757 429.889 668.59 416.333 668.59ZM392.333 659.351H416.333C420.651 659.351 421.555 658.347 421.655 658.246C422.157 657.644 422.157 655.636 422.157 654.933V429.793C422.157 429.09 422.157 427.082 421.655 426.479C421.555 426.379 420.651 425.375 416.333 425.375H392.333V659.351Z" fill="#0C6BC2"/>
<path d="M61.0537 420.755H387.713V663.97H61.0537V420.755Z" fill="white"/>
<path fill-rule="evenodd" clip-rule="evenodd" d="M387.714 668.59H61.0546C58.4437 668.59 56.335 666.481 56.335 663.97V420.756C56.335 418.245 58.4437 416.136 61.0546 416.136H387.714C390.224 416.136 392.333 418.245 392.333 420.756V663.97C392.333 666.481 390.224 668.59 387.714 668.59ZM65.6738 659.351H383.095V425.375H65.6738V659.351Z" fill="#0C6BC2"/>
<path d="M61.0551 420.755V663.97H43.1805C42.7788 663.97 35.7495 659.953 35.7495 654.932V429.793C35.7495 424.772 42.7788 420.755 43.1805 420.755H61.0551Z" fill="#65BFFC"/>
<path fill-rule="evenodd" clip-rule="evenodd" d="M61.0546 668.59H43.18C40.7699 668.59 37.4561 665.878 36.2511 664.774C32.8368 661.761 31.0293 658.347 31.0293 654.933V429.793C31.0293 426.379 32.8368 422.965 36.2511 419.952C37.4561 418.848 40.7699 416.136 43.18 416.136H61.0546C63.5651 416.136 65.6739 418.245 65.6739 420.756V663.97C65.6739 666.481 63.5651 668.59 61.0546 668.59V668.59ZM44.2846 659.351H56.3349V425.375H44.2846C42.6779 426.479 40.3683 428.588 40.3683 429.793V654.933C40.3683 656.138 42.6779 658.246 44.2846 659.351V659.351Z" fill="#0C6BC2"/>
<path d="M408.4 556.12C405.889 556.12 403.78 554.112 403.78 551.501V530.915C403.78 528.304 405.889 526.296 408.4 526.296C411.01 526.296 413.019 528.304 413.019 530.915V551.501C413.019 554.112 411.01 556.12 408.4 556.12Z" fill="#0C6BC2"/>
<path d="M195.514 588.656H159.363C156.853 588.656 154.744 586.547 154.744 584.037C154.744 581.426 156.853 579.417 159.363 579.417H195.514C198.125 579.417 200.134 581.426 200.134 584.037C200.134 586.547 198.125 588.656 195.514 588.656Z" fill="#0C6BC2"/>
<path d="M170.209 584.037C170.209 589.961 165.288 594.882 159.363 594.882C153.439 594.882 148.518 589.961 148.518 584.037C148.518 578.012 153.439 573.191 159.363 573.191C165.288 573.191 170.209 578.012 170.209 584.037Z" fill="white"/>
<path fill-rule="evenodd" clip-rule="evenodd" d="M159.363 599.502C150.827 599.502 143.898 592.573 143.898 584.037C143.898 575.502 150.827 568.573 159.363 568.573C167.899 568.573 174.827 575.502 174.827 584.037C174.827 592.573 167.899 599.502 159.363 599.502ZM159.363 577.811C155.949 577.811 153.137 580.623 153.137 584.037C153.137 587.451 155.949 590.263 159.363 590.263C162.777 590.263 165.589 587.451 165.589 584.037C165.589 580.623 162.777 577.811 159.363 577.811Z" fill="#0C6BC2"/>
<path d="M183.062 536.539H155.347V552.204H116.786" fill="white"/>
<path d="M155.347 556.823H116.786C114.175 556.823 112.167 554.815 112.167 552.204C112.167 549.694 114.175 547.585 116.786 547.585H150.728V536.539C150.728 533.928 152.736 531.919 155.347 531.919H183.063C185.573 531.919 187.682 533.928 187.682 536.539C187.682 539.049 185.573 541.158 183.063 541.158H159.966V552.204C159.966 554.815 157.858 556.823 155.347 556.823V556.823Z" fill="#0C6BC2"/>
<path d="M118.895 551.501C118.895 558.128 113.573 563.451 107.046 563.451C100.418 563.451 95.0962 558.128 95.0962 551.501C95.0962 544.974 100.418 539.651 107.046 539.651C113.573 539.651 118.895 544.974 118.895 551.501Z" fill="white"/>
<path fill-rule="evenodd" clip-rule="evenodd" d="M107.046 568.07C97.9081 568.07 90.4771 560.639 90.4771 551.501C90.4771 542.463 97.9081 535.032 107.046 535.032C116.084 535.032 123.515 542.463 123.515 551.501C123.515 560.639 116.084 568.07 107.046 568.07ZM107.046 544.271C103.029 544.271 99.7156 547.484 99.7156 551.501C99.7156 555.518 103.029 558.832 107.046 558.832C111.063 558.832 114.276 555.518 114.276 551.501C114.276 547.484 111.063 544.271 107.046 544.271Z" fill="#0C6BC2"/>
<path d="M177.439 509.325H141.288C138.677 509.325 136.669 507.217 136.669 504.706C136.669 502.095 138.677 499.986 141.288 499.986H177.439C180.05 499.986 182.058 502.095 182.058 504.706C182.058 507.217 180.05 509.325 177.439 509.325Z" fill="#0C6BC2"/>
<path d="M152.033 504.706C152.033 510.63 147.213 515.45 141.288 515.45C135.263 515.45 130.443 510.63 130.443 504.706C130.443 498.68 135.263 493.86 141.288 493.86C147.213 493.86 152.033 498.68 152.033 504.706V504.706Z" fill="white"/>
<path fill-rule="evenodd" clip-rule="evenodd" d="M141.288 520.071C132.753 520.071 125.824 513.142 125.824 504.707C125.824 496.171 132.753 489.242 141.288 489.242C149.824 489.242 156.652 496.171 156.652 504.707C156.652 513.142 149.824 520.071 141.288 520.071ZM141.288 498.481C137.874 498.481 135.062 501.292 135.062 504.707C135.062 508.121 137.874 510.832 141.288 510.832C144.702 510.832 147.414 508.121 147.414 504.707C147.414 501.292 144.702 498.481 141.288 498.481Z" fill="#0C6BC2"/>
<path fill-rule="evenodd" clip-rule="evenodd" d="M208.669 536.639C208.568 534.129 210.577 532.02 213.087 531.819L222.526 531.417C223.631 531.317 224.535 530.513 224.836 529.509C225.505 526.764 226.443 524.087 227.648 521.476C228.049 520.572 227.848 519.367 227.045 518.664L220.016 512.338C218.108 510.63 218.008 507.718 219.715 505.81L231.564 492.655C233.271 490.748 236.183 490.647 238.091 492.354L245.12 498.681C245.924 499.384 247.129 499.484 248.032 498.982C250.509 497.509 253.053 496.304 255.664 495.367C256.668 494.965 257.371 493.961 257.271 492.957L256.869 483.417C256.668 480.906 258.677 478.798 261.187 478.597L278.861 477.693C281.472 477.593 283.58 479.601 283.681 482.111L284.183 491.551C284.283 492.655 284.986 493.559 286.091 493.86C288.769 494.53 291.413 495.467 294.024 496.672C295.028 497.074 296.133 496.873 296.936 496.07L303.262 489.04C304.969 487.233 307.881 487.032 309.789 488.739L322.844 500.589C324.752 502.296 324.952 505.208 323.245 507.116L316.819 514.145C316.116 514.948 316.015 516.154 316.618 517.057C318.024 519.534 319.229 522.078 320.233 524.689C320.635 525.693 321.538 526.396 322.643 526.396L332.082 525.894C334.693 525.794 336.802 527.702 336.902 530.212L337.806 547.886C337.906 550.497 335.998 552.606 333.488 552.706L323.948 553.208C322.944 553.309 322.04 554.011 321.739 555.116C321.003 557.794 320.065 560.438 318.927 563.049C318.425 564.053 318.626 565.158 319.43 565.961L326.459 572.288C328.367 573.995 328.467 576.907 326.76 578.815L314.911 591.97C313.204 593.777 310.291 593.978 308.484 592.271L301.354 585.844C300.551 585.141 299.446 585.041 298.543 585.643C296.066 587.049 293.488 588.254 290.81 589.259C289.806 589.66 289.103 590.564 289.204 591.669L289.706 601.108C289.806 603.719 287.898 605.828 285.287 605.928L267.614 606.832C265.103 606.932 262.894 605.024 262.794 602.514L262.292 592.974C262.292 591.97 261.488 591.066 260.484 590.765C257.739 590.028 255.062 589.091 252.451 587.953C251.547 587.451 250.342 587.652 249.639 588.455L243.212 595.485C241.505 597.392 238.694 597.593 236.786 595.886L223.631 583.936C221.723 582.229 221.623 579.317 223.33 577.51L229.656 570.48C230.359 569.677 230.459 568.472 229.957 567.568C228.484 565.091 227.279 562.514 226.342 559.836C225.941 558.832 224.936 558.229 223.932 558.229L214.392 558.731C211.882 558.832 209.673 556.924 209.572 554.313L208.669 536.639ZM253.053 564.555C265.405 575.702 284.384 574.798 295.53 562.447C306.676 550.196 305.672 531.116 293.421 520.07C281.07 508.923 262.091 509.827 250.945 522.179C239.798 534.43 240.802 553.409 253.053 564.555V564.555Z" fill="#C5FBFC"/>
<path fill-rule="evenodd" clip-rule="evenodd" d="M267.413 611.451C262.493 611.451 258.476 607.635 258.175 602.715L257.773 594.782C255.832 594.246 253.89 593.577 251.949 592.773L246.727 598.597C243.313 602.413 237.388 602.715 233.673 599.3L220.518 587.351C216.802 583.936 216.501 578.112 219.915 574.397L225.137 568.472C224.2 566.664 223.33 564.823 222.526 562.949L214.694 563.35C209.572 563.551 205.254 559.635 204.953 554.614L204.049 536.94C203.849 531.819 207.765 527.501 212.786 527.2L220.719 526.798C221.321 524.856 222.024 522.949 222.828 521.074L216.903 515.752C213.187 512.338 212.886 506.513 216.3 502.697L228.15 489.543C231.564 485.827 237.388 485.526 241.204 488.94L247.028 494.162C248.836 493.225 250.71 492.354 252.652 491.551L252.25 483.718C251.949 478.597 255.865 474.279 260.986 473.978L278.66 473.074C283.781 472.873 288.099 476.789 288.3 481.911L288.702 489.743C290.71 490.346 292.651 491.049 294.526 491.852L299.848 485.927C301.455 484.12 303.764 483.015 306.174 482.915C308.685 482.814 310.994 483.618 312.902 485.325L325.957 497.174C329.773 500.589 330.074 506.413 326.66 510.229L321.337 516.053C322.342 517.861 323.212 519.735 323.948 521.677L331.881 521.275C334.291 521.174 336.701 521.978 338.509 523.585C340.316 525.292 341.421 527.501 341.521 530.011L342.425 547.685C342.726 552.806 338.81 557.124 333.689 557.325L325.756 557.727C325.22 559.735 324.551 561.677 323.747 563.551L329.572 568.874C333.388 572.288 333.689 578.112 330.275 581.928L318.325 594.982C316.718 596.89 314.409 597.895 311.999 598.095C309.488 598.196 307.179 597.292 305.371 595.685L299.446 590.363C297.639 591.367 295.798 592.238 293.923 592.974L294.325 600.907C294.425 603.418 293.622 605.727 291.915 607.535C290.308 609.342 287.999 610.447 285.589 610.547L267.815 611.451C267.681 611.451 267.547 611.451 267.413 611.451V611.451ZM251.447 583.033C252.451 583.033 253.455 583.233 254.359 583.736C256.769 584.74 259.179 585.643 261.689 586.246C264.702 587.049 266.811 589.66 266.911 592.773L267.413 602.213L285.087 601.309L284.584 591.869C284.384 588.756 286.292 586.045 289.204 584.941C291.614 584.037 293.923 582.932 296.133 581.627C298.844 580.02 302.258 580.422 304.467 582.43L311.496 588.857L323.346 575.702L316.317 569.376C314.007 567.267 313.404 563.953 314.71 561.141C315.714 558.832 316.618 556.422 317.22 553.911C318.024 550.898 320.634 548.79 323.747 548.589L333.187 548.087L332.283 530.513L322.844 531.016C319.731 531.116 316.919 529.308 315.915 526.296C315.011 523.986 313.906 521.576 312.601 519.367C310.994 516.656 311.296 513.342 313.404 511.032L319.731 504.003L306.676 492.153L300.35 499.183C298.241 501.492 294.928 502.195 292.116 500.89C289.806 499.785 287.296 498.982 284.886 498.279C281.873 497.476 279.764 494.865 279.564 491.852L279.062 482.312L261.388 483.216L261.89 492.655C262.091 495.768 260.283 498.58 257.271 499.685C254.861 500.589 252.551 501.693 250.342 502.999C247.631 504.505 244.317 504.204 242.007 502.095L234.978 495.768L223.129 508.923L230.158 515.25C232.468 517.258 233.171 520.572 231.865 523.484C230.761 525.794 229.957 528.204 229.254 530.714C228.451 533.727 225.84 535.836 222.727 536.036L213.288 536.438L214.192 554.112L223.631 553.61C226.744 553.509 229.556 555.317 230.66 558.229C231.564 560.639 232.668 562.949 233.974 565.158C235.48 567.869 235.179 571.284 233.07 573.493L226.744 580.623L239.899 592.372L246.225 585.342C247.53 583.836 249.438 583.033 251.447 583.033V583.033ZM273.237 577.007C264.601 577.007 256.467 573.794 250.041 567.97C235.781 555.216 234.677 533.225 247.53 519.066C260.384 504.907 282.375 503.802 296.534 516.555C310.693 529.409 311.798 551.401 298.944 565.56C292.718 572.388 284.283 576.505 275.045 576.907C274.442 576.974 273.84 577.007 273.237 577.007V577.007ZM254.459 525.292C245.02 535.635 245.823 551.702 256.166 561.141C261.288 565.66 267.714 567.97 274.543 567.668C281.271 567.367 287.597 564.355 292.116 559.334C296.635 554.313 298.944 547.786 298.643 541.057C298.342 534.229 295.329 528.003 290.308 523.484C279.965 514.045 263.798 514.848 254.459 525.292Z" fill="#0C6BC2"/>
<path d="M604.616 363.316H139.883C135.665 363.316 132.251 358.396 132.251 352.471V16.0674C132.251 10.1427 135.665 5.22217 139.883 5.22217H604.616C608.834 5.22217 612.248 10.1427 612.248 16.0674V352.471C612.248 358.396 608.834 363.316 604.616 363.316Z" fill="white"/>
<path fill-rule="evenodd" clip-rule="evenodd" d="M604.616 367.935H139.882C133.054 367.935 127.631 361.107 127.631 352.471V16.0671C127.631 7.43103 133.054 0.602539 139.882 0.602539H604.616C611.444 0.602539 616.867 7.43103 616.867 16.0671V352.471C616.867 361.107 611.444 367.935 604.616 367.935ZM139.882 9.84109C138.878 9.84109 136.87 12.2511 136.87 16.0671V352.471C136.87 356.287 138.878 358.697 139.882 358.697H604.616C605.62 358.697 607.629 356.287 607.629 352.471V16.0671C607.629 12.2511 605.62 9.84109 604.616 9.84109H139.882Z" fill="#0C6BC2"/>
<path d="M612.248 71.3977H132.251C129.64 71.3977 127.631 69.3893 127.631 66.7785C127.631 64.268 129.64 62.1592 132.251 62.1592H612.248C614.758 62.1592 616.867 64.268 616.867 66.7785C616.867 69.3893 614.758 71.3977 612.248 71.3977Z" fill="#0C6BC2"/>
<path d="M583.027 142.696H166.895V92.8877H583.027V142.696Z" fill="#C5FBFC"/>
<path fill-rule="evenodd" clip-rule="evenodd" d="M583.026 147.314H166.895C164.284 147.314 162.275 145.206 162.275 142.695V92.8873C162.275 90.3769 164.284 88.2681 166.895 88.2681H583.026C585.637 88.2681 587.645 90.3769 587.645 92.8873V142.695C587.645 145.206 585.637 147.314 583.026 147.314ZM171.514 138.076H578.407V97.5066H171.514V138.076Z" fill="#0C6BC2"/>
<path d="M175.33 36.3519C175.33 42.1762 170.61 46.8959 164.786 46.8959C158.961 46.8959 154.242 42.1762 154.242 36.3519C154.242 30.4272 158.961 25.7075 164.786 25.7075C170.61 25.7075 175.33 30.4272 175.33 36.3519Z" fill="#65BFFC"/>
<path fill-rule="evenodd" clip-rule="evenodd" d="M164.786 51.5148C156.452 51.5148 149.623 44.6864 149.623 36.3516C149.623 27.9164 156.452 21.0879 164.786 21.0879C173.222 21.0879 179.95 27.9164 179.95 36.3516C179.95 44.6864 173.222 51.5148 164.786 51.5148ZM164.786 30.4269C161.573 30.4269 158.862 33.0378 158.862 36.3516C158.862 39.565 161.573 42.2763 164.786 42.2763C168.1 42.2763 170.711 39.565 170.711 36.3516C170.711 33.0378 168.1 30.4269 164.786 30.4269Z" fill="#0C6BC2"/>
<path d="M216.903 36.3519C216.903 42.1762 212.183 46.8959 206.359 46.8959C200.535 46.8959 195.815 42.1762 195.815 36.3519C195.815 30.4272 200.535 25.7075 206.359 25.7075C212.183 25.7075 216.903 30.4272 216.903 36.3519Z" fill="#65BFFC"/>
<path fill-rule="evenodd" clip-rule="evenodd" d="M206.359 51.5148C198.024 51.5148 191.196 44.6864 191.196 36.3516C191.196 27.9164 198.024 21.0879 206.359 21.0879C214.794 21.0879 221.623 27.9164 221.623 36.3516C221.623 44.6864 214.794 51.5148 206.359 51.5148ZM206.359 30.4269C203.146 30.4269 200.434 33.0378 200.434 36.3516C200.434 39.565 203.146 42.2763 206.359 42.2763C209.673 42.2763 212.284 39.565 212.284 36.3516C212.284 33.0378 209.673 30.4269 206.359 30.4269Z" fill="#0C6BC2"/>
<path d="M258.576 36.3519C258.576 42.1762 253.856 46.8959 248.032 46.8959C242.107 46.8959 237.388 42.1762 237.388 36.3519C237.388 30.4272 242.107 25.7075 248.032 25.7075C253.856 25.7075 258.576 30.4272 258.576 36.3519Z" fill="#65BFFC"/>
<path fill-rule="evenodd" clip-rule="evenodd" d="M248.032 51.5148C239.597 51.5148 232.768 44.6864 232.768 36.3516C232.768 27.9164 239.597 21.0879 248.032 21.0879C256.367 21.0879 263.195 27.9164 263.195 36.3516C263.195 44.6864 256.367 51.5148 248.032 51.5148V51.5148ZM248.032 30.4269C244.718 30.4269 242.107 33.0378 242.107 36.3516C242.107 39.565 244.718 42.2763 248.032 42.2763C251.245 42.2763 253.956 39.565 253.956 36.3516C253.956 33.0378 251.245 30.4269 248.032 30.4269Z" fill="#0C6BC2"/>
<path d="M426.476 236.888H380.283C377.672 236.888 375.664 234.88 375.664 232.269C375.664 229.759 377.672 227.65 380.283 227.65H426.476C428.987 227.65 431.095 229.759 431.095 232.269C431.095 234.88 428.987 236.888 426.476 236.888Z" fill="#0C6BC2"/>
<path d="M514.542 265.106H380.283C377.672 265.106 375.664 263.097 375.664 260.486C375.664 257.976 377.672 255.867 380.283 255.867H514.542C517.153 255.867 519.262 257.976 519.262 260.486C519.262 263.097 517.153 265.106 514.542 265.106Z" fill="#0C6BC2"/>
<path d="M413.522 297.341H380.283C377.672 297.341 375.664 295.232 375.664 292.721C375.664 290.11 377.672 288.102 380.283 288.102H413.522C416.032 288.102 418.141 290.11 418.141 292.721C418.141 295.232 416.032 297.341 413.522 297.341Z" fill="#0C6BC2"/>
<path d="M514.542 329.575H380.283C377.672 329.575 375.664 327.467 375.664 324.856C375.664 322.345 377.672 320.236 380.283 320.236H514.542C517.153 320.236 519.262 322.345 519.262 324.856C519.262 327.467 517.153 329.575 514.542 329.575Z" fill="#0C6BC2"/>
<path d="M567.361 236.888H448.567C445.956 236.888 443.948 234.88 443.948 232.269C443.948 229.759 445.956 227.65 448.567 227.65H567.361C569.872 227.65 571.98 229.759 571.98 232.269C571.98 234.88 569.872 236.888 567.361 236.888Z" fill="#0C6BC2"/>
<path d="M567.361 265.106H536.733C534.122 265.106 532.014 263.097 532.014 260.486C532.014 257.976 534.122 255.867 536.733 255.867H567.361C569.872 255.867 571.98 257.976 571.98 260.486C571.98 263.097 569.872 265.106 567.361 265.106Z" fill="#0C6BC2"/>
<path d="M567.361 297.341H435.613C433.002 297.341 430.994 295.232 430.994 292.721C430.994 290.11 433.002 288.102 435.613 288.102H567.361C569.871 288.102 571.98 290.11 571.98 292.721C571.98 295.232 569.871 297.341 567.361 297.341Z" fill="#0C6BC2"/>
<path d="M578.407 177.541H367.529C364.919 177.541 362.91 175.432 362.91 172.921C362.91 170.31 364.919 168.202 367.529 168.202H578.407C580.917 168.202 583.026 170.31 583.026 172.921C583.026 175.432 580.917 177.541 578.407 177.541Z" fill="#0C6BC2"/>
<path d="M343.831 325.057H172.217V213.089H343.831V325.057Z" fill="white"/>
<path fill-rule="evenodd" clip-rule="evenodd" d="M343.831 329.675H172.217C169.606 329.675 167.598 327.567 167.598 325.056V213.089C167.598 210.579 169.606 208.47 172.217 208.47H343.831C346.341 208.47 348.45 210.579 348.45 213.089V325.056C348.45 327.567 346.341 329.675 343.831 329.675ZM176.836 320.437H339.111V217.708H176.836V320.437Z" fill="#0C6BC2"/>
<path d="M283.681 325.056H235.279V292.42C235.38 284.688 228.551 274.345 223.731 268.018L299.246 254.763C294.125 262.295 283.782 278.964 283.681 292.019V325.056Z" fill="#65BFFC"/>
<path fill-rule="evenodd" clip-rule="evenodd" d="M283.681 329.676H235.279C232.769 329.676 230.66 327.567 230.66 325.056V292.42C230.66 287.6 226.844 279.767 220.116 270.83C219.112 269.525 218.911 267.818 219.413 266.311C220.016 264.805 221.421 263.801 222.928 263.499L298.443 250.244C300.451 249.842 302.359 250.847 303.363 252.654C304.167 254.261 303.966 256.169 302.962 257.575C298.443 264.102 288.401 280.169 288.3 292.018V325.056C288.3 327.567 286.192 329.676 283.681 329.676ZM239.898 320.437H279.062V292.018C279.062 292.018 279.062 291.985 279.062 291.918C279.162 281.876 284.485 270.127 289.706 261.089L231.765 271.332C237.187 279.667 239.999 286.797 239.898 292.521V320.437Z" fill="#0C6BC2"/>
<path d="M307.982 201.541C311.195 208.671 313.705 216.202 313.203 223.734C311.898 243.817 296.835 261.692 277.053 270.83C262.492 277.558 246.124 279.968 232.769 273.943C222.024 269.123 214.292 258.579 209.17 247.031C200.836 228.252 202.643 207.265 212.283 190.495L230.258 230.663C232.166 234.88 236.283 237.692 240.902 237.692C246.325 237.692 253.856 236.788 262.191 232.972C270.325 229.257 276.049 223.934 279.563 219.817C282.676 216.202 283.48 211.181 281.572 206.964L263.597 166.595C282.576 170.11 299.446 182.562 307.982 201.541Z" fill="#65BFFC"/>
<path fill-rule="evenodd" clip-rule="evenodd" d="M249.84 281.977C243.012 281.977 236.585 280.772 230.861 278.161C220.217 273.341 211.48 263.5 204.953 248.838C196.317 229.558 197.522 206.863 208.267 188.185C209.171 186.679 210.777 185.775 212.585 185.876C214.292 185.976 215.798 187.081 216.501 188.587L234.476 228.855C235.581 231.365 238.091 233.073 241.003 233.073C245.522 233.073 252.451 232.37 260.283 228.755C267.815 225.34 273.037 220.319 276.049 216.805C277.957 214.495 278.459 211.382 277.354 208.771L259.279 168.503C258.576 166.896 258.878 165.089 259.882 163.683C260.986 162.378 262.693 161.675 264.401 161.976C285.589 165.993 303.463 180.051 312.199 199.633C315.112 206.16 318.425 214.897 317.823 224.035C316.517 244.721 301.254 264.805 278.961 275.048C268.919 279.667 258.978 281.977 249.84 281.977V281.977ZM212.183 201.641C206.962 215.7 207.263 231.365 213.388 245.123C217.204 253.658 224.033 264.905 234.677 269.726C245.723 274.646 260.083 273.541 275.145 266.613C294.325 257.776 307.48 240.805 308.584 223.432C308.986 216.303 306.174 208.972 303.664 203.349C297.538 189.39 285.89 178.746 271.731 173.625L285.79 205.056C288.4 210.88 287.296 217.909 283.078 222.83C279.463 227.047 273.237 232.972 264.099 237.19C254.76 241.508 246.426 242.311 240.903 242.311C234.476 242.211 228.652 238.395 226.041 232.57L212.183 201.641Z" fill="#0C6BC2"/>
<path d="M711.963 472.371V549.894C711.963 572.388 693.687 590.564 671.193 590.564H573.989L518.458 638.765C514.642 641.979 508.818 639.267 508.818 634.246V590.564H508.416C490.642 590.564 473.872 575.401 476.282 543.468V472.371C476.282 449.877 494.458 431.701 516.951 431.701H671.193C693.687 431.701 711.963 449.877 711.963 472.371V472.371Z" fill="#65BFFC"/>
<path fill-rule="evenodd" clip-rule="evenodd" d="M514.642 644.79C513.236 644.79 511.73 644.489 510.324 643.786C506.508 642.079 504.098 638.464 504.098 634.246V594.983C496.065 593.978 488.734 590.263 483.111 584.137C476.985 577.61 470.056 565.158 471.663 543.267V472.371C471.663 447.367 491.947 427.082 516.951 427.082H671.193C696.197 427.082 716.582 447.367 716.582 472.371V549.894C716.582 574.899 696.197 595.284 671.193 595.284H575.796L521.47 642.18C519.562 643.887 517.152 644.79 514.642 644.79V644.79ZM516.951 436.321C497.069 436.321 480.901 452.488 480.901 472.371V543.468C480.901 543.535 480.901 543.635 480.901 543.769C479.797 558.531 482.91 570.28 489.839 577.911C494.759 583.133 501.286 585.945 508.416 585.945H508.818C511.328 585.945 513.437 588.054 513.437 590.564V634.246C513.437 634.949 513.838 635.251 514.14 635.451C514.441 635.552 514.943 635.652 515.445 635.251L570.976 587.15C571.88 586.347 572.884 585.945 573.989 585.945H671.193C691.076 585.945 707.344 569.777 707.344 549.894V472.371C707.344 452.488 691.076 436.321 671.193 436.321H516.951Z" fill="#0C6BC2"/>
<path d="M556.215 545.476C555.11 545.476 554.106 545.175 553.202 544.472L515.043 512.639C514.039 511.836 513.437 510.53 513.437 509.124C513.437 507.718 514.039 506.413 515.043 505.61L553.202 473.777C555.211 472.17 558.123 472.471 559.73 474.379C561.336 476.388 561.136 479.3 559.127 480.906L525.286 509.124L559.127 537.342C561.136 538.949 561.336 541.861 559.73 543.869C558.826 544.974 557.52 545.476 556.215 545.476V545.476Z" fill="#0C6BC2"/>
<path d="M630.122 545.476C628.816 545.476 627.511 544.974 626.507 543.869C624.9 541.861 625.201 538.949 627.109 537.342L661.051 509.124L627.109 480.906C625.201 479.3 624.9 476.388 626.507 474.379C628.214 472.471 631.126 472.17 633.034 473.777L671.193 505.61C672.298 506.413 672.9 507.718 672.9 509.124C672.9 510.53 672.298 511.836 671.193 512.639L633.034 544.472C632.231 545.175 631.126 545.476 630.122 545.476V545.476Z" fill="#0C6BC2"/>
<path d="M585.537 557.426C585.202 557.426 584.868 557.392 584.533 557.325C582.023 556.723 580.416 554.313 580.918 551.802L598.993 464.94C599.495 462.429 601.906 460.823 604.416 461.325C606.927 461.827 608.533 464.337 608.031 466.848L590.056 553.71C589.554 555.919 587.646 557.426 585.537 557.426Z" fill="#0C6BC2"/>
</g>
<defs>
<clipPath id="clip0_303_835">
<rect width="721" height="719" fill="white"/>
</clipPath>
</defs>
</svg>
