<svg id="Layer_1" data-name="Layer 1" xmlns="http://www.w3.org/2000/svg" viewBox="0 0 651.698 169.205">
  <defs>
    <style>
      .cls-1 {
        fill: #fff;
      }

      .cls-2 {
        fill: none;
      }
    </style>
  </defs>
  <title>logowhite</title>
  <g>
    <path class="cls-1" d="M227.175,57.591q11.207,0,11.207,1.2a0.544,0.544,0,0,1,.523-0.448,0.836,0.836,0,0,1,.673.448h10.012a51.166,51.166,0,0,1,7.919.9q10.009,1.944,12.253,3.885l6.574,6.425a4.619,4.619,0,0,1,2.092,1.793q1.345,2.241,2.54,2.391a4.034,4.034,0,0,1,2.466,1.868A23.193,23.193,0,0,1,285.749,80a69.66,69.66,0,0,1,2.988,7.172,41.633,41.633,0,0,0,1.644,8.592,28.971,28.971,0,0,1,1.2,8.667,39.636,39.636,0,0,1-1.2,9.638,45.219,45.219,0,0,1-3.437,9.264q-4.633,9.862-11.356,15.092-2.991,1.794-5.678,3.437-5.978,3.586-6.725,3.586h-1.2q-13.3,6.724-31.827,7.172-5.379.147-11.505,0.149h-1.942l-5.529-.3q-1.047-.448-4.035-4.632c0.6,0,.9-0.546.9-1.644L207.3,140.82l0.448-6.575L207.3,124.234l1.2-11.058a0.661,0.661,0,0,0-.748-0.747,43.264,43.264,0,0,0,.748-9.115,101.514,101.514,0,0,0-1.2-14.121,115.385,115.385,0,0,1-1.2-16.511l0.6-9.862-0.6-4.632a7.565,7.565,0,0,1,5.3-2.839,18.141,18.141,0,0,1,5.3.448h1.793a20.584,20.584,0,0,0,2.017.672,12.355,12.355,0,0,0,2.017.523l2.391-.6Q226.727,57.292,227.175,57.591Zm-2.839,8.368-9.414,4.035a5.458,5.458,0,0,0-2.689,1.046q-3.138,2.094-3.437,4.333a2.868,2.868,0,0,0,2.092-.9,2.865,2.865,0,0,1,2.092-.9,5.938,5.938,0,0,1-.9,2.914,3.526,3.526,0,0,1-2.391,1.868,1.732,1.732,0,0,1,.6,1.2,2.2,2.2,0,0,1-.075.747,0.652,0.652,0,0,0-.075.3q0.448-.3,1.27-0.747a2.572,2.572,0,0,0,1.121-1.046l0.6,2.391a5.1,5.1,0,0,1,1.793-.747q1.195-.3,2.391-0.6,2.837-.746,2.839-2.689a4.289,4.289,0,0,0-.448-1.943,4.031,4.031,0,0,1-1.494,1.345c-0.6,0-.9-0.2-0.9-0.6q0,1.794-1.345,1.868a3.322,3.322,0,0,0-2.241.971,1.939,1.939,0,0,1,1.046-1.793,2.748,2.748,0,0,0,1.345-1.793,1.743,1.743,0,0,0-1.793,1.2v-0.6a1.726,1.726,0,0,0-1.2.6v-1.2a40.781,40.781,0,0,1,3.811-1.494q1.418-.448,2.54-0.822a7.662,7.662,0,0,0,2.689-1.942,4.712,4.712,0,0,1,3.362-1.569,1.651,1.651,0,0,1-.149-0.748,1.787,1.787,0,0,1,.822-1.121,9.567,9.567,0,0,1,2.167-1.27,23.8,23.8,0,0,0,4.931-3.437l-0.747-.448a8.95,8.95,0,0,0-4.707,1.868,16.925,16.925,0,0,1-3.063,1.868Zm-12.7-7.172c-0.9,0-1.4-.2-1.494-0.6l-1.2,1.793a7.644,7.644,0,0,0,1.2,4.782l0.6-1.2,0.6,0.448q0-1.195,1.942-2.167a25.487,25.487,0,0,0,2.914-1.644,2.68,2.68,0,0,0,1.121-2.017ZM209.693,67.6a10.02,10.02,0,0,0-.747,3.586q7.62-3.138,10.758-7.172a4.832,4.832,0,0,0-2.092.6l-2.541,1.345a18.455,18.455,0,0,1-4.482,1.793A1.54,1.54,0,0,1,209.693,67.6Zm2.092,18.379,0.149,1.046a0.636,0.636,0,0,1-.6.6l-0.6,4.781,0.6,0.6,4.184-4.632-3.586,1.2a1.523,1.523,0,0,1,1.494-1.494,2.576,2.576,0,0,0,2.092-.9l0.6,0.448,0.6-1.2H219.7V81.8a5.743,5.743,0,0,1-3.736,1.345,1.055,1.055,0,0,0,.748,1.046l-2.391,1.2a9.033,9.033,0,0,1,2.989-4.184,13.089,13.089,0,0,0-5.678.971q-1.944.973-1.942,1.644a1.318,1.318,0,0,0,.672,1.121,1.269,1.269,0,0,1,.672,1.046h0.747Zm11.954-23.609a8.365,8.365,0,0,1-3.212,2.615,8.386,8.386,0,0,0-3.212,2.615,3.043,3.043,0,0,0,1.793-.523,4.1,4.1,0,0,1,1.793-.672l13.747-5.828h-4.333v-0.6l-1.2.6a9.431,9.431,0,0,1-3.511-.747c-1.247-.5-1.868-0.845-1.868-1.046h-4.781l-0.448-.6a6.219,6.219,0,0,1-2.541,3.512q-2.094,1.569-3.287,2.391a7.741,7.741,0,0,0-1.942,1.868h1.2l5.379-3.138a3.1,3.1,0,0,0,1.2.149,5.846,5.846,0,0,0,2.465-.822,8.438,8.438,0,0,1,2.764-.972l-1.2,1.2h1.2Zm-9.862,59.022a1.019,1.019,0,0,1,1.046,1.046,5.2,5.2,0,0,1,1.644-1.942q2.09-1.642,2.092-3.287c0-.2-0.026-0.523-0.075-0.971s-0.075-.722-0.075-0.822A8.567,8.567,0,0,1,215,119.153a24.394,24.394,0,0,0-4.258,3.287Zm2.839,5.23a4.42,4.42,0,0,1,1.494.149,1.064,1.064,0,0,1,.3.971,3.215,3.215,0,0,1-.672,1.793,13.483,13.483,0,0,1-1.569,1.868,19.762,19.762,0,0,1-3.138,2.839,7.838,7.838,0,0,0,4.333-1.494,4.62,4.62,0,0,0,2.241-4.035,17.715,17.715,0,0,0-1.2-6.874,11.163,11.163,0,0,0-4.408,2.466q-1.121,1.271-1.718,2.017a8.169,8.169,0,0,1-1.644,1.494,8.937,8.937,0,0,0,3.212-.6A7.946,7.946,0,0,1,216.716,126.625Zm-0.6,1.2a9.341,9.341,0,0,1-5.379,1.345v4.483a9.22,9.22,0,0,0,3.661-2.241A4.908,4.908,0,0,0,216.118,127.82Zm1.2,5.828a11.433,11.433,0,0,0-4.184,1.868q-2.392,1.569-2.391,3.362a5.654,5.654,0,0,0,3.287-1.345Q217.013,135.144,217.313,133.647Zm-6.575,8.368q0.3,2.392.747,2.391a2.936,2.936,0,0,0,1.419-.747q0.97-.746,2.167-1.644a32.022,32.022,0,0,0,3.437-2.989,11.937,11.937,0,0,0-5.828,1.121Q210.737,141.268,210.739,142.015Zm5.977-45.425q-5.53,5.53-5.529,7.994t0.747,2.465a4.3,4.3,0,0,0,2.988-1.494,4.307,4.307,0,0,1,2.989-1.494v-2.839h-0.6l-4.782,4.632a2.213,2.213,0,0,1-.6-1.644q0-2.388,5.977-5.379V95.843l-0.6,1.2Zm-0.9,10.011a6,6,0,0,0-3.138.9q-1.5.9-1.494,1.793v1.793a2.06,2.06,0,0,0,.149.9q0.9-.9,2.689-2.391A4.076,4.076,0,0,0,215.819,106.6Zm-0.9,8.517q0-1.492,2.989-1.494v-5.379l-1.2-.449q-0.75,2.991-5.379,6.425V120.2l4.184-4.184A1.658,1.658,0,0,1,214.922,115.119ZM216.716,93q0,1.793-2.018,1.793a4.617,4.617,0,0,1-2.764-.6v5.827A11.743,11.743,0,0,1,213.8,98.01a22.017,22.017,0,0,0,2.167-2.167,8.064,8.064,0,0,0,2.541-5.529v-0.6c0-.8-0.2-1.244-0.6-1.345A8.179,8.179,0,0,1,215,90.837,3.233,3.233,0,0,0,212.98,93.6,8.786,8.786,0,0,0,216.716,93Zm-2.989,23.609h-1.793a1.927,1.927,0,0,1,1.793-1.793v1.793ZM217.164,145l0.149,0.6-0.6.448a0.514,0.514,0,0,1-.448-0.448v-0.149a1.327,1.327,0,0,1-.673.523,10.545,10.545,0,0,0-1.419.972,6.475,6.475,0,0,0-2.241,2.092,23.2,23.2,0,0,0,8.144,1.2,82.411,82.411,0,0,0,9.937-.6,82.2,82.2,0,0,1,9.862-.6q0-4.332,5.827-11.8H232.555a33.093,33.093,0,0,1-7.845,6.724,48.848,48.848,0,0,1-5.753,3.288l0.747,0.6q0,1.2-1.569,1.2t-1.569-.9a1.4,1.4,0,0,1,.822-0.971q0.82-.522,1.793-1.2a20.441,20.441,0,0,1,1.942-1.2,6.406,6.406,0,0,0,1.494-1.046,1.569,1.569,0,0,0,.523-1.121,4.9,4.9,0,0,1,.149-1.2q0.3-1.345,2.839-1.793a4.529,4.529,0,0,0-1.494,1.27,3.634,3.634,0,0,0-.3,1.718,14.965,14.965,0,0,1,2.914-2.988,19.346,19.346,0,0,0,3.063-2.989h-1.2q-6.724,0-8.218,2.391l-0.747-.6a2.269,2.269,0,0,1-1.2,2.242,21.55,21.55,0,0,0-2.316,1.345,6.057,6.057,0,0,0-1.719,1.644,7.626,7.626,0,0,1-1.793,1.793Zm-3.437-72.62a7.979,7.979,0,0,1,3.288-2.092,19.12,19.12,0,0,1,3.885-.3h1.2a7.692,7.692,0,0,1-2.54.971q-1.646.374-2.465,0.6a6.547,6.547,0,0,1-.972.224,2.114,2.114,0,0,1-1.793,1.793Zm8.816,4.034,0.149,1.943A152.877,152.877,0,0,1,222.02,95.4a80.006,80.006,0,0,0-.672,9.862,83.871,83.871,0,0,0,.971,11.356,83.6,83.6,0,0,1,.971,11.207q0,4.336-.448,4.931a2.277,2.277,0,0,1-1.121.822,11.566,11.566,0,0,1-1.419.374,2.311,2.311,0,0,0-1.345.9l-0.448-.6a5.723,5.723,0,0,1-2.167,2.54,12.2,12.2,0,0,0-2.615,2.241,7.316,7.316,0,0,0,4.632-1.644q2.09-1.642,3.212-2.391a4.875,4.875,0,0,1,2.765-.747H245.7q8.966,0,15.689-7.919,6.574-7.621,6.575-16.437a18.948,18.948,0,0,0-.673-5.006,19.507,19.507,0,0,1-.673-5.155q-0.6,0-2.241-5.3t-1.644-5.6a9.991,9.991,0,0,1-1.494-2.391q-0.9-1.793-1.419-2.765a9.924,9.924,0,0,1-.673-1.419,8.983,8.983,0,0,0-2.689-1.793q-1.2-.448-2.54-1.046-1.646,0-5.006-2.092a45.021,45.021,0,0,0-4.408-2.541q-2.542-.3-6.2-0.9t-5.6-.9a7.569,7.569,0,0,1-3.063-1.046,4.61,4.61,0,0,0-2.615-.747,4.074,4.074,0,0,0-2.988,1.793A5.47,5.47,0,0,0,222.543,76.418Zm1.2,69.631,0.149,0.6a1.127,1.127,0,0,1-1.345,1.2A3.347,3.347,0,0,1,223.738,146.049Zm1.793,0.6q0-1.642,2.391-1.644ZM232.106,67a11.264,11.264,0,0,1-1.2,2.391,4.174,4.174,0,0,0,2.092.6,5.122,5.122,0,0,0,2.465-.822q1.419-.82,3.063-1.868,4.035-2.689,4.035-3.735a27.593,27.593,0,0,1-4.856,1.793A11.956,11.956,0,0,0,233.3,67.6v-1.2q0.6-.3,1.942-0.9t2.689-1.345q3.436-1.643,3.437-2.391t-2.69-.748l-2.54.149Q229.714,67.6,228.52,67.6h-1.793V69.4Zm-2.989,78-0.149-.448a1.8,1.8,0,0,1,.6-0.672,4.662,4.662,0,0,1,1.345-.822Q230.911,144.259,229.118,145Zm13.6-5.379q0,1.793-12.4,9.414c-0.1,0-.149-0.1-0.149-0.3v-0.6a10.1,10.1,0,0,1,1.793-2.839q3.435-4.781,4.184-4.781v0.9a3.189,3.189,0,0,1,1.793-1.569,2.721,2.721,0,0,0,1.644-1.42l0.747,1.2a2.219,2.219,0,0,1-.972.971,17.03,17.03,0,0,0-1.718,1.27q-2.689,1.793-2.689,3.586Q239.726,140.671,242.715,139.625Zm30.034-28.391,0.9,0.149q0.746,0,2.54-1.793,3.435-3.436,4.632-3.437,0,1.793-2.839,2.989a10.3,10.3,0,0,0-2.092,1.046,2.012,2.012,0,0,0-.9,1.793v0.3a0.131,0.131,0,0,0,.149.149,13.7,13.7,0,0,1,8.219-2.988l-8.966,4.781-0.448.6v-2.391a1.59,1.59,0,0,0-.9,1.419,10.064,10.064,0,0,1-.3,1.569l-0.6-.6q-2.392,1.5-2.391,5.379,1.793-2.388,7.022-4.782l0.149,0.6q0,0.749-1.718,1.419a4.593,4.593,0,0,0-2.466,2.017q2.241-.9,3.512-1.494t2.017-.9q1.044-.3,1.121-0.3a5.753,5.753,0,0,0,.9-0.523,13,13,0,0,1,1.867-.972,10.235,10.235,0,0,1,3.886-1.644v1.793a3.847,3.847,0,0,0,1.345-2.615c0.1-1.046.149-2.167,0.149-3.362q-2.095.448-2.391,1.2l0.448,0.6a6.606,6.606,0,0,1-2.092.9,4.092,4.092,0,0,0-1.943,1.046,1.716,1.716,0,0,0-.821.747,0.96,0.96,0,0,1-.225.448,4.424,4.424,0,0,1-2.54,1.644l-0.6-1.793a11.277,11.277,0,0,0,4.034-2.54q4.484-3.884,4.932-3.885a2.049,2.049,0,0,1-.747,1.2q2.539,0,2.54-4.782c0-1.293-.2-2.092-0.6-2.391a8.917,8.917,0,0,0,.448-2.839,7.693,7.693,0,0,0-.448-3.138l-3.586,1.942a1.639,1.639,0,0,1,1.27-1.419,1.78,1.78,0,0,0,1.271-1.718q-0.9,0-.9-0.448a6.634,6.634,0,0,0,1.2-1.345l-0.6-2.989a2.057,2.057,0,0,0-1.569.747,1.864,1.864,0,0,1-1.345.747,0.7,0.7,0,0,1-.747-0.747c-0.052-.5-0.175-0.747-0.374-0.747l-2.391.747q0-1.642,4.035-2.54l1.345-.448L284.4,84.637a8.712,8.712,0,0,0-4.035,2.54V85.384h-1.2V83.889a10.032,10.032,0,0,0,3.587-1.644q-1.2-1.94-2.093-3.138t-1.942-2.615a20.7,20.7,0,0,0-1.942-2.316q-0.3-.746-3.138-2.839-5.082-4.181-5.08-5.23a11.083,11.083,0,0,1-5.529-1.345,8.034,8.034,0,0,1-2.689-1.942,7.317,7.317,0,0,0-4.408,1.793A19.2,19.2,0,0,0,253.175,67a5.284,5.284,0,0,1-.6-2.391q0-1.044,1.494-1.2,2.836-.3,3.287-1.046l-1.494.149q-2.095,0-2.689-1.345a1.614,1.614,0,0,1-.448,1.2,2.014,2.014,0,0,1-.972-0.149,1.739,1.739,0,0,0-.6-0.224q-0.375-.074-0.9-0.224a7.039,7.039,0,0,0-1.718-.149q-3.138,0-3.586,1.2h1.793q-6.875,4.034-8.368,5.977a10.312,10.312,0,0,0,4.632-1.2q4.482-2.241,6.724-2.241v0.6q0,0.6-1.494.971t-3.437.822q-4.931,1.2-5.229,2.839a7.508,7.508,0,0,0,2.316.448,16.488,16.488,0,0,0,3.063-.448v1.494q1.195,0,1.2-2.092l5.828-3.586,0.149,0.6a1.042,1.042,0,0,1-.6,1.2V67.6a8.049,8.049,0,0,0-3.288,2.167,5.232,5.232,0,0,0-1.495,2.017,11.8,11.8,0,0,1,4.782-1.793v1.2l-3.586,1.793q0.595,0.9,2.914.9t2.316,0.9a2.048,2.048,0,0,0,.747-1.2,2.174,2.174,0,0,1-.747-1.046,1.811,1.811,0,0,1,1.12-.822q1.121-.522,2.466-1.27,3.586-1.793,3.586-2.092L259.3,68.2l-2.092.747a0.366,0.366,0,0,1-.448-0.374,2.153,2.153,0,0,1,1.046-1.121,4.012,4.012,0,0,1,2.391-.747,5.225,5.225,0,0,1,2.018.3,3.248,3.248,0,0,0,.821.3q0,1.2-2.689,2.541-5.232,2.689-5.977,4.333a56.85,56.85,0,0,0,6.5-2.988,14.306,14.306,0,0,1,6.8-1.793,4.054,4.054,0,0,1,.672.448c0.248,0.2.448,0.35,0.6,0.448a0.4,0.4,0,0,1,.225.3q-3.586.6-9.414,7.023l0.448,0.149a1.931,1.931,0,0,0,.972-0.672,1.936,1.936,0,0,1,1.345-.673,0.63,0.63,0,0,1,.672.748,4.03,4.03,0,0,1,2.241-1.943,10.47,10.47,0,0,0,2.541-1.046v0.3a0.422,0.422,0,0,0,.149.3c0,0.8-.325,1.121-0.972.971a1.825,1.825,0,0,0-1.569.224,1.234,1.234,0,0,1-.6,1.121q-0.6.374-1.345,0.822-2.093,1.047-2.092,1.942,0,2.094,1.2,2.092a1.579,1.579,0,0,0,1.046-.747q0.6-.746,1.345-1.793,2.092-2.388,4.035-2.391h0.6a0.875,0.875,0,0,1,.6.149,4.876,4.876,0,0,1-2.615,2.017,4.88,4.88,0,0,0-2.615,2.017l0.448,0.6a6.634,6.634,0,0,1,3.213-1.718,13.789,13.789,0,0,1,3.362-.672q0,2.241-7.023,3.885-1.2.3-1.2,0.6a5.348,5.348,0,0,0,.822,2.242,3.113,3.113,0,0,0,1.12,1.494q0-1.94,4.932-4.035a4.825,4.825,0,0,1,1.345-.448l0.448,0.149a3.244,3.244,0,0,0,2.241-1.345,3.994,3.994,0,0,1,3.138-1.345,43.446,43.446,0,0,1-10.608,6.575h0.9a7.149,7.149,0,0,0,1.568-.3q1.121-.3,2.167-0.6a13,13,0,0,0,2.988-.9q0,1.793-6.724,3.885a8.725,8.725,0,0,1-2.093.448,38.222,38.222,0,0,1,2.84,7.994q0.746,3.513,1.942,8.144a10.868,10.868,0,0,1,5.006-3.511,10.845,10.845,0,0,0,5-3.512,2.513,2.513,0,0,1-1.12,2.242,13.642,13.642,0,0,1-2.391,1.27q-1.271.525-2.391,1.121a2.038,2.038,0,0,0-1.121,1.942,6.729,6.729,0,0,1,1.2-.6q1.941-.746,3.437-1.2a8.515,8.515,0,0,1-2.391,2.092,5.45,5.45,0,0,1-2.689,1.046,3.681,3.681,0,0,1-1.345-.149,6.222,6.222,0,0,0-.747,2.765c0,0.847.023,1.52,0.074,2.017s0.075,1.1.075,1.793Zm-30.333,37.954q7.918,0,17.931-6.126v0.747q10.458-4.931,13.448-7.322a20.469,20.469,0,0,0,4.482-4.707q1.493-2.315,2.54-4.259t1.868-3.212q0.819-1.268,1.644-2.69t1.494-2.689c0.448-.845.771-1.419,0.972-1.718q-0.3,1.793-10.609,4.931a6.145,6.145,0,0,0-1.942.747c0-.2.546-0.546,1.644-1.046l3.586-1.793q5.229-2.689,5.23-4.184a3.686,3.686,0,0,0-2.466.971,3.676,3.676,0,0,1-2.466.971l-6.425,2.839a7.294,7.294,0,0,0-3.885,1.345q-3.888,2.543-3.886,4.632a3.977,3.977,0,0,0,2.167-.523q0.82-.522,1.569-0.971a11.2,11.2,0,0,1,4.034-1.943l-0.6.449v1.2a22.049,22.049,0,0,1,9.413-2.242v1.046q0,0.749-1.494,2.017a5.6,5.6,0,0,1-2.465,1.419,3.26,3.26,0,0,0-1.719.822,14.977,14.977,0,0,0-1.494,1.569,5.034,5.034,0,0,1-3.885,2.242q0-1.492,8.068-6.874c0-.4-0.275-0.6-0.821-0.6a5.246,5.246,0,0,0-2.018.523,18.58,18.58,0,0,0-2.391,1.27,10.809,10.809,0,0,1-4.781,1.644,1.419,1.419,0,0,1,.6-1.2,1.944,1.944,0,0,0,.6-1.644,34.326,34.326,0,0,0-4.109,4.258q-2.319,2.767-3.885,4.408a17.023,17.023,0,0,1-2.689,2.391q-1.122.749-2.316,1.644-3.138,2.392-3.437,2.092-0.9.6-2.765,1.793t-3.81,2.54Q242.416,147.694,242.416,149.188Zm21.815-20.172q-1.793,0-4.482,2.989-1.345,1.646-5.678,2.988a17.8,17.8,0,0,0-5.9,2.689,7.015,7.015,0,0,0-1.943,2.242q-0.374.9-.822,1.793A7.72,7.72,0,0,1,243.313,145a6.9,6.9,0,0,0,4.035-2.092q4.033-3.436,5.828-3.885l4.781-4.781a1.352,1.352,0,0,0,.821.149,2.623,2.623,0,0,0,1.5-.6,8.827,8.827,0,0,0,1.568-1.494,21.443,21.443,0,0,0,1.345-1.793Q263.782,129.613,264.232,129.015ZM256.163,68.2a1.9,1.9,0,0,1-1.2,1.569,4.255,4.255,0,0,1-1.793.672c-0.4,0-.6-0.049-0.6-0.149A1.53,1.53,0,0,1,254,68.872,19.079,19.079,0,0,0,256.163,68.2Zm-1.2,7.919q0,1.047,2.241,1.046,0.595,0,4.632-3.138t4.333-3.437l-2.54,1.046Q254.967,75.075,254.968,76.119Zm1.2,65.747a1.752,1.752,0,0,0,.971.149q0.82,0,2.316-1.569a4.346,4.346,0,0,0,1.494-2.615l0.6,0.6q-0.448-1.642,4.632-4.184v0.3a4.261,4.261,0,0,0,.075.6,2.9,2.9,0,0,1-1.121,1.644q-1.2,1.2-2.764,2.541t-2.988,2.54a15.4,15.4,0,0,0-2.018,1.942,0.886,0.886,0,0,1-.6-0.971A0.894,0.894,0,0,0,256.163,141.866Zm10.609-11.207a1.128,1.128,0,0,1-1.2,1.345l-0.448-.149A6.308,6.308,0,0,1,266.773,130.659Zm2.839,1.046a1.136,1.136,0,0,0,.747,1.345,4.43,4.43,0,0,1-3.138,1.494,4.682,4.682,0,0,1,1.046-1.569A3.611,3.611,0,0,1,269.612,131.705Zm3.735-39.9-0.6-.149a1.22,1.22,0,0,0-1.121,1.271,2.13,2.13,0,0,1-1.27,1.718,0.691,0.691,0,0,1-.374-0.448,1.8,1.8,0,0,1-.224-0.6,5.847,5.847,0,0,1,3.138-3.288q2.539-1.345,3.885-1.942a16.519,16.519,0,0,0-1.345,1.942Q273.5,93.6,272.749,93.6A3.777,3.777,0,0,1,273.347,91.809ZM270.359,75.97q2.689-.9,2.689-2.391h-0.9a1.023,1.023,0,0,1,1.2-.747c0.7,0,1.046.448,1.046,1.345q-0.9.749-1.42,1.121c-0.35.25-.672,0.5-0.971,0.747a1.336,1.336,0,0,1-.822.374A1.241,1.241,0,0,1,270.359,75.97Zm0.6,44.229h0.6v-0.747Zm2.988-19.425a0.63,0.63,0,0,0-.673-0.748,1.3,1.3,0,0,0-1.12.748,2.455,2.455,0,0,1-.149-1.2q0-1.043,2.017-2.465a10.229,10.229,0,0,1,3.362-1.718,4.32,4.32,0,0,0-1.718,2.689A4.329,4.329,0,0,1,273.945,100.774ZM273.2,80.154A0.131,0.131,0,0,1,273.048,80a2.078,2.078,0,0,0-.075-0.448,0.956,0.956,0,0,1,.673-0.747,4.757,4.757,0,0,1,1.793-.6,18.1,18.1,0,0,1,2.988-.6q1.044,0,1.046,2.241h-1.345ZM275.14,93a7.9,7.9,0,0,1,1.345-1.719,3.285,3.285,0,0,0,.9-1.27l0.6,0.6,1.2-1.046L278.577,93H275.14Zm8.816,1.644q-0.9,2.094-6.276,3.586a8.859,8.859,0,0,1-1.494.3q0-.746,2.241-1.644l3.437-1.2A6.811,6.811,0,0,0,283.956,94.648Zm-3.437-2.242q0,1.047.6,1.046l-1.793,1.2c-0.1,0-.149-0.1-0.149-0.3V93.9a3.188,3.188,0,0,1,.149-1.121A1.24,1.24,0,0,1,280.519,92.406Zm0.9,13.747q0-1.492,3.139-1.942,0-1.345,1.793-1.793v0.6h1.2a27.709,27.709,0,0,0-5.978,3.586Zm4.932-4.931-4.185,1.2a3.512,3.512,0,0,1,1.868-1.27,7.074,7.074,0,0,1,2.316-.523v0.6Z" transform="translate(-25.386 -26.154)"/>
    <path class="cls-1" d="M303.379,134.619a40.731,40.731,0,0,1-3.138-6.724,19.524,19.524,0,0,1-1.2-6.575,37.045,37.045,0,0,1,.523-6.276,29.444,29.444,0,0,1,1.568-5.752,74.367,74.367,0,0,1,6.426-11.356Q315.33,82.246,337,79.556h2.54a15.81,15.81,0,0,1,6.126,1.121,50.026,50.026,0,0,0,6.8,2.167,27.75,27.75,0,0,1,7.472,3.063,22.768,22.768,0,0,1,5.752,4.856,38.676,38.676,0,0,1,7.023,11.8q4.78,11.805,4.781,19.873t-1.419,12.4a22.031,22.031,0,0,1-4.259,7.621q-4.784,5.379-16.735,9.862-2.689,1.044-4.482,1.793t-6.725.748q-7.922,0-22.264-6.425a40.889,40.889,0,0,0-3.96-1.494A43.453,43.453,0,0,1,312.2,144.7a14.439,14.439,0,0,1-4.632-3.959A47.059,47.059,0,0,1,303.379,134.619Zm15.241-18.454q-8.37,0-13.9,2.988a3.391,3.391,0,0,0-1.943,2.839v0.6a0.862,0.862,0,0,0,.149.6,33.082,33.082,0,0,1,8.144-3.362A20.853,20.853,0,0,0,318.621,116.165Zm1.047-5.678-3.886-.149h-1.046q-5.379,0-7.321.747-3.888,1.345-3.886,5.081,4.182-1.195,14.345-5.081Zm-2.69,12.7q-3.586.9-6.948,1.569a21.618,21.618,0,0,0-5.9,2.017c0,1.1.4,1.644,1.2,1.644a8.884,8.884,0,0,0,2.988-.672,37.327,37.327,0,0,0,3.586-1.569,50.728,50.728,0,0,1,5.08-2.241v-0.748Zm-0.6-18.678q-2.241,0-10.31,2.689a2.666,2.666,0,0,0-.6,1.943q0.448-.147,1.718-0.672t2.914-1.121A48.9,48.9,0,0,0,316.379,104.51Zm3.886,13.6a32.8,32.8,0,0,1-6.127,2.54q-8.667,2.991-8.666,3.885a18.932,18.932,0,0,1,4.184-.822,45.262,45.262,0,0,0,4.632-.673Q319.814,122,320.265,118.107Zm-13.448,12.85q0.448,1.944,1.494,1.943,1.345,0,6.873-2.242l5.679-2.241A41.069,41.069,0,0,0,306.817,130.958Zm33.471-38.7q4.482,2.242,5.6,2.242a3.609,3.609,0,0,0,2.092-.672A24.963,24.963,0,0,0,350,92.257q3.139-2.388,3.886-3.138h-1.942q0-1.345,1.942-1.942a1.688,1.688,0,0,0-.9-0.6,5.816,5.816,0,0,0-1.644.747c-0.9.5-1.346,0.9-1.346,1.2,0.4,0,.6.35,0.6,1.046q0,1.944-5.828,1.942h-1.046q-0.9,0-.9-0.448l1.942-2.54a66.365,66.365,0,0,0-10.833,3.885q-5.6,2.543-8.518,3.736t-3.287,1.793a4.113,4.113,0,0,0-.522,1.2c-0.1.4-.176,0.747-0.225,1.046a1.1,1.1,0,0,1-.971.673,19.064,19.064,0,0,1-2.914.374,26.234,26.234,0,0,0-3.96.6q-4.784,1.047-6.126,3.437a29.478,29.478,0,0,1,13.3-3.287,1.421,1.421,0,0,1,1.494.747,2.064,2.064,0,0,0-.972,1.2,2.738,2.738,0,0,1-.971,1.345q-2.991,1.047-5.529,2.092-0.3.151-4.781,1.793l0.747,0.6a26.194,26.194,0,0,1,3.885-.6,19.144,19.144,0,0,0,3.586-.6,8.074,8.074,0,0,0,5.38-4.632q0-2.988,6.425-7.322T340.288,92.257Zm-20.321,32.126q-2.991,1.047-5.081,1.793-4.931,1.646-5.528,2.241H310.4a26.421,26.421,0,0,0,7.471-.9q2.988-.9,2.989-1.494Q320.863,124.384,319.966,124.383Zm0.9,9.264a43.231,43.231,0,0,1-11.356,2.092q0,2.392,1.793,2.988,2.241,0,6.425-2.092t4.483-2.54Zm16.885-45.724L337,87.774a12.609,12.609,0,0,0-5.679,1.419q-2.84,1.422-2.988,1.419h-1.046a2.6,2.6,0,0,0-1.793.448l0.6,0.747-1.644.448V90.464h-0.6a2.965,2.965,0,0,0-.9.672,19.072,19.072,0,0,1-2.092,1.569,11.8,11.8,0,0,1-7.023,2.241,6.017,6.017,0,0,1,2.839-2.092q3.734-1.643,4.185-2.391h-0.6q-3.439,0-7.023,3.885-3.289,3.586-3.287,7.023l6.425-1.793a5.508,5.508,0,0,1,1.942-2.689l11.655-4.632a2.3,2.3,0,0,1-.149-0.971,1.527,1.527,0,0,1,1.121-1.2,12.08,12.08,0,0,1,2.465-.822Q337.147,88.673,337.747,87.924Zm-25.253,45.724a28.509,28.509,0,0,0,11.058-1.942,1.863,1.863,0,0,0-.3-0.822,0.824,0.824,0,0,0-.6-0.523l-6.874,1.943-1.494-.149q-1.944,0-1.942,1.046Zm13.6,5.08-0.9-.3-11.954,2.242q1.194,1.793,5.08,2.54ZM313.839,114.82l1.345,0.149a7.447,7.447,0,0,0,3.96-.822,2.535,2.535,0,0,0,1.271-1.2,0.792,0.792,0,0,0-.075-0.448,0.293,0.293,0,0,1-.074-0.224,3.9,3.9,0,0,1-2.242.971A15.484,15.484,0,0,0,313.839,114.82Zm5.229,29.138q0,0.9,2.541,1.345t2.764,0.448a13.109,13.109,0,0,0,1.942-.6q1.717-.6,3.661-1.494,5.229-2.388,5.23-3.586a19.5,19.5,0,0,1-7.92,2.54A67.339,67.339,0,0,0,319.069,143.958Zm11.506-59.919q-6.875,1.2-9.712,3.885Q328.78,87.924,330.575,84.039Zm-7.919,52.448c0,0.3.422,0.448,1.27,0.448a11.959,11.959,0,0,0,2.615-.3c0.9-.2,1.592-0.348,2.092-0.448a2.813,2.813,0,0,0-1.793-.747,12.461,12.461,0,0,0-2.54.374C323.2,136.064,322.656,136.288,322.656,136.486Zm2.689-27.195,0.149,1.494a7.949,7.949,0,0,1-.673,2.465,13.83,13.83,0,0,0-.672,4.856,18.631,18.631,0,0,0,3.885,12.028q3.883,4.857,11.356,4.856,9.413,0,16.287-8.517a3.952,3.952,0,0,0-.6,1.942q2.689-1.793,5.229-3.81a21.228,21.228,0,0,1,5.678-3.213h-0.448c-0.1,0-.448-0.023-1.046-0.075a7.454,7.454,0,0,0-2.988.822,11.422,11.422,0,0,1-2.988.971,0.724,0.724,0,0,1-.9-0.822,2.913,2.913,0,0,1,1.046-1.942,21.533,21.533,0,0,1,2.466-2.092q1.418-1.044,2.764-2.017a11.455,11.455,0,0,0,2.092-1.868h-0.6l-8.367,3.138a1.805,1.805,0,0,0-.448,1.27q-0.151,1.121-.448,2.615a13.137,13.137,0,0,1-1.793,5.081q-3.737,4.482-4.334,4.482h-0.747a7.536,7.536,0,0,0,3.288-5.229,35.716,35.716,0,0,0,.6-5.977,39.146,39.146,0,0,0-.523-5.9,44.813,44.813,0,0,0-1.568-6.649q-2.543-8.068-7.023-8.965a4.273,4.273,0,0,1-2.241.747,2.776,2.776,0,0,1-2.018-1.046,3.312,3.312,0,0,0-2.54-1.046,7.064,7.064,0,0,0-3.661,1.345,24.33,24.33,0,0,0-4.034,3.288Q325.344,106,325.345,109.292Zm4.632,30.781a2.578,2.578,0,0,0,1.121-.672,2.128,2.128,0,0,0,.821-1.719l-5.379,2.242Zm6.725,4.482-9.265,2.541q0,0.6.9,0.6a5.864,5.864,0,0,0,2.167-.523q1.267-.522,2.54-1.046t2.316-1.046A4.376,4.376,0,0,1,336.7,144.555Zm-2.989-6.575q0,1.944,5.081,2.391,0,0.3-2.241,1.494a54.638,54.638,0,0,0-4.782,2.689l12.253-3.138a1.141,1.141,0,0,1,.747,1.345v0.448l-5.678,2.54q7.172,0,14.793-5.678,3.732-2.69,7.4-4.856t7.4-4.856a17.158,17.158,0,0,0-8.741,2.839q-4.708,2.84-7.322,4.109a12.019,12.019,0,0,1-5.3,1.27v-1.345a10.083,10.083,0,0,0-4.482,1.2q-2.392,1.2-2.54,1.644,0-.3-3.138-1.2A34.482,34.482,0,0,0,333.712,137.98Zm-0.6,11.655a20.342,20.342,0,0,0,4.483.747,7.631,7.631,0,0,0,2.689-.448,28.285,28.285,0,0,0,2.689-1.2q1.491-.746,3.063-1.494a24.372,24.372,0,0,0,2.166-1.121,2.654,2.654,0,0,0,.747-0.6,0.4,0.4,0,0,1,.3-0.224A35.062,35.062,0,0,0,333.115,149.636Zm8.518-65.747q-1.345,0-1.345,2.69a0.528,0.528,0,0,0,.6.6l7.022-1.2A10.345,10.345,0,0,0,341.632,83.889Zm3.138,67.689,8.816-1.942a23.464,23.464,0,0,0,4.931-1.793q4.182-1.794,4.931-2.092a14.579,14.579,0,0,0,6.426-5.229,4.019,4.019,0,0,0,.747-1.719,1.256,1.256,0,0,0-.075-0.6,0.3,0.3,0,0,1-.074-0.224,36.812,36.812,0,0,1-9.787,4.632q-4.708,1.345-4.856,1.345a18.65,18.65,0,0,1-4.931,2.989q-5.829,2.391-7.472,4.034A1.859,1.859,0,0,0,344.77,151.578ZM358.218,93q-7.922,2.99-8.368,3.437a5.716,5.716,0,0,0,1.5,2.391,43.089,43.089,0,0,1,2.988,4.483,8.075,8.075,0,0,1,1.644-1.121q1.194-.672,2.54-1.419a13.066,13.066,0,0,1,3.586-1.793v1.345a5.1,5.1,0,0,0-2.391,1.2,11.046,11.046,0,0,0-2.391,2.391,12.249,12.249,0,0,0,2.54-.747q2.09-.746,3.287-1.121a6.973,6.973,0,0,0,1.644-.672c0-.4.3-0.6,0.9-0.6a2.584,2.584,0,0,1,1.645.6,2.108,2.108,0,0,0,.149-0.9q0-1.794-3.587-1.793c-0.4,0-.6-0.049-0.6-0.149l0.747-2.391a3.588,3.588,0,0,0-2.092.747,3.283,3.283,0,0,1-1.793.747,7.4,7.4,0,0,1-1.2-.075,4.825,4.825,0,0,0-.747-0.075l5.827-2.54-1.494-2.839-6.126,4.782-0.448-.149a1.924,1.924,0,0,0-1.42.747,2.57,2.57,0,0,1-2.017.747,6.02,6.02,0,0,1,1.27-1.2l1.942-1.494q0.971-.746,1.793-1.345a2.355,2.355,0,0,0,.822-0.747,0.309,0.309,0,0,0-.075-0.224A0.3,0.3,0,0,1,358.218,93Zm2.092-2.839c0-.7-0.474-1.046-1.419-1.046a5,5,0,0,0-2.392.523q-0.973.525-2.017,1.121A14.524,14.524,0,0,0,351.2,93.6h0.6Q358.663,90.912,360.31,90.165Zm-0.747,38.252q-3.586,0-7.321,3.586A2.685,2.685,0,0,0,351.2,134.1,19.754,19.754,0,0,1,354.333,132Q359.113,129.314,359.563,128.417Zm14.2-5.828a39.035,39.035,0,0,1-8.293,5.155,72.252,72.252,0,0,0-8.442,4.558l-2.689,1.345h0.747q1.491,0,7.172-2.391l8.219-3.437q2.539-1.194,2.913-1.419t0.374-2.167V122.59Zm-0.448,7.471q-2.543,0-16.437,10.46l-1.2.9h1.345l8.367-3.885v1.2a17.04,17.04,0,0,0,5.454-3.138A6.89,6.89,0,0,0,373.31,130.061Zm-5.229-27.494q-2.991,1.5-6.052,2.839a15.652,15.652,0,0,0-5.6,4.333,7.93,7.93,0,0,0,2.689-.822q1.345-.672,2.839-1.42,4.182-1.793,5.23-1.793a8.832,8.832,0,0,1,1.419.075,3.334,3.334,0,0,0,.673.075,5.218,5.218,0,0,1-.075-1.793Q369.274,102.57,368.08,102.567Zm-3.288,5.229a17.751,17.751,0,0,0-2.092.9q-3.289,1.495-5.08,2.241-0.9.3-.9,2.241,2.388,0,7.471-4.034a13.773,13.773,0,0,1,1.793-1.345h-1.2Zm-6.574,7.322,12.253-4.184v-3.288a5.84,5.84,0,0,0-2.765,1.121,12.081,12.081,0,0,1-1.942,1.494q-1.271.823-2.765,1.718l-4.184,2.391Zm13-2.092q-1.5,0-5.23,3.362a58.055,58.055,0,0,1-5.08,4.258,15.389,15.389,0,0,0,5.38-1.942q5.676-3.138,5.678-5.678h-0.747Zm-5.23,10.908a11.938,11.938,0,0,1,5.828-1.943l1.942-.6-0.6-2.689a3.014,3.014,0,0,0-2.092,1.046,13.077,13.077,0,0,1-5.081,3.437v0.748Z" transform="translate(-25.386 -26.154)"/>
    <path class="cls-1" d="M389.147,134.619a40.731,40.731,0,0,1-3.138-6.724,19.524,19.524,0,0,1-1.2-6.575,37.045,37.045,0,0,1,.523-6.276,29.444,29.444,0,0,1,1.568-5.752,74.367,74.367,0,0,1,6.426-11.356q7.767-15.689,29.437-18.379h2.54a15.81,15.81,0,0,1,6.126,1.121,50.026,50.026,0,0,0,6.8,2.167,27.75,27.75,0,0,1,7.472,3.063,22.768,22.768,0,0,1,5.752,4.856,38.676,38.676,0,0,1,7.023,11.8q4.78,11.805,4.781,19.873t-1.419,12.4a22.031,22.031,0,0,1-4.259,7.621q-4.784,5.379-16.735,9.862-2.689,1.044-4.482,1.793t-6.725.748q-7.922,0-22.264-6.425a40.889,40.889,0,0,0-3.96-1.494,43.453,43.453,0,0,1-5.454-2.242,14.439,14.439,0,0,1-4.632-3.959A47.059,47.059,0,0,1,389.147,134.619Zm15.241-18.454q-8.37,0-13.9,2.988a3.391,3.391,0,0,0-1.943,2.839v0.6a0.862,0.862,0,0,0,.149.6,33.082,33.082,0,0,1,8.144-3.362A20.853,20.853,0,0,0,404.388,116.165Zm1.047-5.678-3.886-.149H400.5q-5.379,0-7.321.747-3.888,1.345-3.886,5.081,4.182-1.195,14.345-5.081Zm-2.69,12.7q-3.586.9-6.948,1.569a21.618,21.618,0,0,0-5.9,2.017c0,1.1.4,1.644,1.2,1.644a8.884,8.884,0,0,0,2.988-.672,37.327,37.327,0,0,0,3.586-1.569,50.728,50.728,0,0,1,5.08-2.241v-0.748Zm-0.6-18.678q-2.241,0-10.31,2.689a2.666,2.666,0,0,0-.6,1.943q0.448-.147,1.718-0.672t2.914-1.121A48.9,48.9,0,0,0,402.147,104.51Zm3.886,13.6a32.8,32.8,0,0,1-6.127,2.54q-8.667,2.991-8.666,3.885a18.932,18.932,0,0,1,4.184-.822,45.262,45.262,0,0,0,4.632-.673Q405.582,122,406.033,118.107Zm-13.448,12.85q0.448,1.944,1.494,1.943,1.345,0,6.873-2.242l5.679-2.241A41.069,41.069,0,0,0,392.584,130.958Zm33.471-38.7q4.482,2.242,5.6,2.242a3.609,3.609,0,0,0,2.092-.672,24.963,24.963,0,0,0,2.017-1.569q3.139-2.388,3.886-3.138H437.71q0-1.345,1.942-1.942a1.688,1.688,0,0,0-.9-0.6,5.816,5.816,0,0,0-1.644.747c-0.9.5-1.346,0.9-1.346,1.2,0.4,0,.6.35,0.6,1.046q0,1.944-5.828,1.942h-1.046q-0.9,0-.9-0.448l1.942-2.54A66.365,66.365,0,0,0,419.7,92.406q-5.6,2.543-8.518,3.736T407.9,97.935a4.113,4.113,0,0,0-.522,1.2c-0.1.4-.176,0.747-0.225,1.046a1.1,1.1,0,0,1-.971.673,19.064,19.064,0,0,1-2.914.374,26.234,26.234,0,0,0-3.96.6q-4.784,1.047-6.126,3.437a29.478,29.478,0,0,1,13.3-3.287,1.421,1.421,0,0,1,1.494.747,2.064,2.064,0,0,0-.972,1.2,2.738,2.738,0,0,1-.971,1.345q-2.991,1.047-5.529,2.092-0.3.151-4.781,1.793l0.747,0.6a26.194,26.194,0,0,1,3.885-.6,19.144,19.144,0,0,0,3.586-.6,8.074,8.074,0,0,0,5.38-4.632q0-2.988,6.425-7.322T426.055,92.257Zm-20.321,32.126q-2.991,1.047-5.081,1.793-4.931,1.646-5.528,2.241h1.046a26.421,26.421,0,0,0,7.471-.9q2.988-.9,2.989-1.494Q406.63,124.384,405.734,124.383Zm0.9,9.264a43.231,43.231,0,0,1-11.356,2.092q0,2.392,1.793,2.988,2.241,0,6.425-2.092t4.483-2.54Zm16.885-45.724-0.747-.149a12.609,12.609,0,0,0-5.679,1.419q-2.84,1.422-2.988,1.419h-1.046a2.6,2.6,0,0,0-1.793.448l0.6,0.747-1.644.448V90.464h-0.6a2.965,2.965,0,0,0-.9.672,19.072,19.072,0,0,1-2.092,1.569,11.8,11.8,0,0,1-7.023,2.241,6.017,6.017,0,0,1,2.839-2.092q3.734-1.643,4.185-2.391h-0.6q-3.439,0-7.023,3.885-3.289,3.586-3.287,7.023l6.425-1.793a5.508,5.508,0,0,1,1.942-2.689l11.655-4.632a2.3,2.3,0,0,1-.149-0.971,1.527,1.527,0,0,1,1.121-1.2,12.08,12.08,0,0,1,2.465-.822Q422.915,88.673,423.515,87.924Zm-25.253,45.724a28.509,28.509,0,0,0,11.058-1.942,1.863,1.863,0,0,0-.3-0.822,0.824,0.824,0,0,0-.6-0.523l-6.874,1.943-1.494-.149q-1.944,0-1.942,1.046Zm13.6,5.08-0.9-.3-11.954,2.242q1.194,1.793,5.08,2.54ZM399.607,114.82l1.345,0.149a7.447,7.447,0,0,0,3.96-.822,2.535,2.535,0,0,0,1.271-1.2,0.792,0.792,0,0,0-.075-0.448,0.293,0.293,0,0,1-.074-0.224,3.9,3.9,0,0,1-2.242.971A15.484,15.484,0,0,0,399.607,114.82Zm5.229,29.138q0,0.9,2.541,1.345t2.764,0.448a13.109,13.109,0,0,0,1.942-.6q1.717-.6,3.661-1.494,5.229-2.388,5.23-3.586a19.5,19.5,0,0,1-7.92,2.54A67.339,67.339,0,0,0,404.836,143.958Zm11.506-59.919q-6.875,1.2-9.712,3.885Q414.548,87.924,416.342,84.039Zm-7.919,52.448c0,0.3.422,0.448,1.27,0.448a11.959,11.959,0,0,0,2.615-.3c0.9-.2,1.592-0.348,2.092-0.448a2.813,2.813,0,0,0-1.793-.747,12.461,12.461,0,0,0-2.54.374C408.969,136.064,408.423,136.288,408.423,136.486Zm2.689-27.195,0.149,1.494a7.949,7.949,0,0,1-.673,2.465,13.83,13.83,0,0,0-.672,4.856,18.631,18.631,0,0,0,3.885,12.028q3.883,4.857,11.356,4.856,9.413,0,16.287-8.517a3.952,3.952,0,0,0-.6,1.942q2.689-1.793,5.229-3.81a21.228,21.228,0,0,1,5.678-3.213h-0.448c-0.1,0-.448-0.023-1.046-0.075a7.454,7.454,0,0,0-2.988.822,11.422,11.422,0,0,1-2.988.971,0.724,0.724,0,0,1-.9-0.822,2.913,2.913,0,0,1,1.046-1.942,21.533,21.533,0,0,1,2.466-2.092q1.418-1.044,2.764-2.017a11.455,11.455,0,0,0,2.092-1.868h-0.6l-8.367,3.138a1.805,1.805,0,0,0-.448,1.27q-0.151,1.121-.448,2.615a13.137,13.137,0,0,1-1.793,5.081q-3.737,4.482-4.334,4.482H435.02a7.536,7.536,0,0,0,3.288-5.229,35.716,35.716,0,0,0,.6-5.977,39.146,39.146,0,0,0-.523-5.9,44.813,44.813,0,0,0-1.568-6.649q-2.543-8.068-7.023-8.965a4.273,4.273,0,0,1-2.241.747,2.776,2.776,0,0,1-2.018-1.046,3.312,3.312,0,0,0-2.54-1.046,7.064,7.064,0,0,0-3.661,1.345,24.33,24.33,0,0,0-4.034,3.288Q411.111,106,411.113,109.292Zm4.632,30.781a2.578,2.578,0,0,0,1.121-.672,2.128,2.128,0,0,0,.821-1.719l-5.379,2.242Zm6.725,4.482L413.2,147.1q0,0.6.9,0.6a5.864,5.864,0,0,0,2.167-.523q1.267-.522,2.54-1.046t2.316-1.046A4.376,4.376,0,0,1,422.469,144.555Zm-2.989-6.575q0,1.944,5.081,2.391,0,0.3-2.241,1.494a54.638,54.638,0,0,0-4.782,2.689l12.253-3.138a1.141,1.141,0,0,1,.747,1.345v0.448l-5.678,2.54q7.172,0,14.793-5.678,3.732-2.69,7.4-4.856t7.4-4.856A17.158,17.158,0,0,0,445.7,133.2q-4.708,2.84-7.322,4.109a12.019,12.019,0,0,1-5.3,1.27v-1.345a10.083,10.083,0,0,0-4.482,1.2q-2.392,1.2-2.54,1.644,0-.3-3.138-1.2A34.482,34.482,0,0,0,419.48,137.98Zm-0.6,11.655a20.342,20.342,0,0,0,4.483.747,7.631,7.631,0,0,0,2.689-.448,28.285,28.285,0,0,0,2.689-1.2q1.491-.746,3.063-1.494a24.372,24.372,0,0,0,2.166-1.121,2.654,2.654,0,0,0,.747-0.6,0.4,0.4,0,0,1,.3-0.224A35.062,35.062,0,0,0,418.882,149.636ZM427.4,83.889q-1.345,0-1.345,2.69a0.528,0.528,0,0,0,.6.6l7.022-1.2A10.345,10.345,0,0,0,427.4,83.889Zm3.138,67.689,8.816-1.942a23.464,23.464,0,0,0,4.931-1.793q4.182-1.794,4.931-2.092a14.579,14.579,0,0,0,6.426-5.229,4.019,4.019,0,0,0,.747-1.719,1.256,1.256,0,0,0-.075-0.6,0.3,0.3,0,0,1-.074-0.224,36.812,36.812,0,0,1-9.787,4.632q-4.708,1.345-4.856,1.345a18.65,18.65,0,0,1-4.931,2.989q-5.829,2.391-7.472,4.034A1.859,1.859,0,0,0,430.538,151.578ZM443.986,93q-7.922,2.99-8.368,3.437a5.716,5.716,0,0,0,1.5,2.391,43.089,43.089,0,0,1,2.988,4.483,8.075,8.075,0,0,1,1.644-1.121q1.194-.672,2.54-1.419a13.066,13.066,0,0,1,3.586-1.793v1.345a5.1,5.1,0,0,0-2.391,1.2,11.046,11.046,0,0,0-2.391,2.391,12.249,12.249,0,0,0,2.54-.747q2.09-.746,3.287-1.121a6.973,6.973,0,0,0,1.644-.672c0-.4.3-0.6,0.9-0.6a2.584,2.584,0,0,1,1.645.6,2.108,2.108,0,0,0,.149-0.9q0-1.794-3.587-1.793c-0.4,0-.6-0.049-0.6-0.149l0.747-2.391a3.588,3.588,0,0,0-2.092.747,3.283,3.283,0,0,1-1.793.747,7.4,7.4,0,0,1-1.2-.075,4.825,4.825,0,0,0-.747-0.075l5.827-2.54-1.494-2.839-6.126,4.782-0.448-.149a1.924,1.924,0,0,0-1.42.747,2.57,2.57,0,0,1-2.017.747,6.02,6.02,0,0,1,1.27-1.2l1.942-1.494q0.971-.746,1.793-1.345a2.355,2.355,0,0,0,.822-0.747,0.309,0.309,0,0,0-.075-0.224A0.3,0.3,0,0,1,443.986,93Zm2.092-2.839c0-.7-0.474-1.046-1.419-1.046a5,5,0,0,0-2.392.523q-0.973.525-2.017,1.121a14.524,14.524,0,0,0-3.287,2.839h0.6Q444.431,90.912,446.078,90.165Zm-0.747,38.252q-3.586,0-7.321,3.586a2.685,2.685,0,0,0-1.046,2.092A19.754,19.754,0,0,1,440.1,132Q444.881,129.314,445.33,128.417Zm14.2-5.828a39.035,39.035,0,0,1-8.293,5.155,72.252,72.252,0,0,0-8.442,4.558l-2.689,1.345h0.747q1.491,0,7.172-2.391l8.219-3.437q2.539-1.194,2.913-1.419t0.374-2.167V122.59Zm-0.448,7.471q-2.543,0-16.437,10.46l-1.2.9h1.345l8.367-3.885v1.2a17.04,17.04,0,0,0,5.454-3.138A6.89,6.89,0,0,0,459.078,130.061Zm-5.229-27.494q-2.991,1.5-6.052,2.839a15.652,15.652,0,0,0-5.6,4.333,7.93,7.93,0,0,0,2.689-.822q1.345-.672,2.839-1.42,4.182-1.793,5.23-1.793a8.832,8.832,0,0,1,1.419.075,3.334,3.334,0,0,0,.673.075,5.218,5.218,0,0,1-.075-1.793Q455.041,102.57,453.848,102.567ZM450.56,107.8a17.751,17.751,0,0,0-2.092.9q-3.289,1.495-5.08,2.241-0.9.3-.9,2.241,2.388,0,7.471-4.034a13.773,13.773,0,0,1,1.793-1.345h-1.2Zm-6.574,7.322,12.253-4.184v-3.288a5.84,5.84,0,0,0-2.765,1.121,12.081,12.081,0,0,1-1.942,1.494q-1.271.823-2.765,1.718l-4.184,2.391Zm13-2.092q-1.5,0-5.23,3.362a58.055,58.055,0,0,1-5.08,4.258,15.389,15.389,0,0,0,5.38-1.942q5.676-3.138,5.678-5.678h-0.747Zm-5.23,10.908a11.938,11.938,0,0,1,5.828-1.943l1.942-.6-0.6-2.689a3.014,3.014,0,0,0-2.092,1.046,13.077,13.077,0,0,1-5.081,3.437v0.748Z" transform="translate(-25.386 -26.154)"/>
    <path class="cls-1" d="M504.2,82.1q7.173,0.6,9.339.747a8.468,8.468,0,0,1,3.96,1.27,14.564,14.564,0,0,1,2.914,2.316,19.654,19.654,0,0,1,1.793,2.167,2.015,2.015,0,0,0,1.719.971l0.149-12.1-0.3-9.414a65.82,65.82,0,0,1,.6-8.368q1.043-8.068,1.046-9.414a4.073,4.073,0,0,1,.3-1.868,1.62,1.62,0,0,1,1.494-.523h4.259a20.325,20.325,0,0,0,2.764-.149l7.173,0.149Q542.9,48.327,543.8,62.97q0.146,3.887.149,7.322L543.8,77.913a19.846,19.846,0,0,1,.6,5.08l-0.6,5.977,0.6,5.081q0,11.508-.9,22.937t-0.9,18.379q0,6.948.672,9.339a15.956,15.956,0,0,1,.673,4.259,4.247,4.247,0,0,1-1.942,3.362l-5.23-.149a21.357,21.357,0,0,0-5,.374,9.833,9.833,0,0,1-2.765.374l-3.437-1.2a12.534,12.534,0,0,0-3.886.747q-2.241.746-3.437,1.121a12.992,12.992,0,0,0-1.494.523l-7.919.149q-11.956,0-15.241-3.735-2.543-.6-9.265-7.919-1.5-1.643-2.54-2.689-9.863-9.862-9.862-22.115a57.726,57.726,0,0,1,2.839-16.735q2.243-.746,4.185-4.333,0.9-1.642,1.644-3.138a11.882,11.882,0,0,1,2.017-2.839,17.572,17.572,0,0,1,4.035-2.914,42.879,42.879,0,0,1,5.9-2.764Q499.719,82.1,504.2,82.1ZM499.57,98.084l-4.184-.149a14.306,14.306,0,0,0-4.259.672,12.921,12.921,0,0,1-3.735.672,8.152,8.152,0,0,1-2.018-.149l2.988-1.644a11.2,11.2,0,0,0-9.712,5.23,17.982,17.982,0,0,0-3.437,10.758q0.6,0,5.529-2.391,8.814-4.034,10.46-5.379H488.96v-0.6q1.2-.147,1.942-0.3a12.654,12.654,0,0,1,2.242-.3l-0.747.6a3.458,3.458,0,0,0,2.391-.6q-0.3,1.345-2.466,2.391t-4.707,2.092q-7.172,2.99-8.367,4.482h2.092v1.046h-5.978l-1.2,5.379a24.532,24.532,0,0,0,3.811-1.868,6.484,6.484,0,0,1,2.615-1.121,0.6,0.6,0,0,1,.747.6q2.09-1.793,9.862-4.782l0.747-.448h-1.943v-0.747l3.587-1.2v-1.046l4.781-8.218q-4.633,1.646-9.189,3.287a49.506,49.506,0,0,1-9.638,2.391,29.723,29.723,0,0,1,7.471-3.885q3.885-1.345,6.5-2.241A57.72,57.72,0,0,0,499.57,98.084Zm-11.58,20.322a10.874,10.874,0,0,1-3.287.9,4.9,4.9,0,0,1-2.167-.6,10.348,10.348,0,0,0-5.155,1.494q-2.616,1.5-2.615,1.942a6.038,6.038,0,0,0,1.121,2.989,7.8,7.8,0,0,0,1.271,1.793l5.379-3.437h1.2q1.345-.746,3.287-1.644,4.333-2.09,4.334-2.391l-0.149-.747h1.2v-1.2A12.2,12.2,0,0,0,487.99,118.406ZM480,126.923c0,0.9-.275,1.345-0.822,1.345a0.694,0.694,0,0,1-.821-0.747q-1.2.448-1.2,2.839a3.333,3.333,0,0,1,.9.448,1.217,1.217,0,0,1,.747.9q1.793,0,8.965-3.586a4.806,4.806,0,0,1,.9-0.3,5.694,5.694,0,0,0,1.2-.448,5.379,5.379,0,0,1,1.346-.448l0.747,0.6a8.005,8.005,0,0,0,.971-1.644,5.183,5.183,0,0,0,.673-1.942L493,120.2a10.235,10.235,0,0,0-3.886,1.644,18.487,18.487,0,0,1-3.138,1.644l-4.632,2.839v0.6c0-.3.247-0.448,0.747-0.448h0.747a1.1,1.1,0,0,1-.747.672,2.866,2.866,0,0,1-1.121.374A1.622,1.622,0,0,1,480,126.923Zm7.62,10.908-1.2,1.793a0.6,0.6,0,0,0,.6.747,5.273,5.273,0,0,1,1.121-2.391q1.121-1.642,1.867-1.644v1.2h-0.6c0,0.8.124,1.2,0.374,1.2a14.355,14.355,0,0,0,1.719-.224c0.9-.149,1.793-0.322,2.689-0.523q3.883-1.044,3.885-1.644H491.95a2.038,2.038,0,0,0-2.167-1.2,7.122,7.122,0,0,0-2.615.374,10.359,10.359,0,0,1-3.437.374,6.87,6.87,0,0,1,2.466-1.942,2.689,2.689,0,0,0,1.718-2.391,11.8,11.8,0,0,0-3.885.672A12.254,12.254,0,0,1,480,132.9v0.6l4.931,5.229a9.693,9.693,0,0,1,2.241-1.2C487.466,137.532,487.616,137.633,487.616,137.831ZM506.593,85.16c0-.546-0.7-0.822-2.093-0.822a18,18,0,0,0-5.752,1.345A55.192,55.192,0,0,0,491.5,88.97q-7.772,4.482-10.759,9.115l27.046-11.8A1.246,1.246,0,0,1,506.593,85.16Zm-13.448,28.764a17.373,17.373,0,0,1-4.035,1.494q-5.679,1.646-6.126,2.69a25.113,25.113,0,0,1,9.414-1.793Zm-7.173,16.586a2.862,2.862,0,0,1,1.121-.149,1.586,1.586,0,0,1,1.27.523,1.186,1.186,0,0,0,.747.523,0.476,0.476,0,0,0,.448-0.3,1.518,1.518,0,0,1,.374.523,0.482,0.482,0,0,0,.522.224c0.4,0,.9-0.448,1.5-1.345h-1.2c0.4-.4.9-0.845,1.5-1.345a2.215,2.215,0,0,0,.9-1.046,4.509,4.509,0,0,1-2.989,1.345,13.071,13.071,0,0,1-1.867-.075,2.544,2.544,0,0,0-1.2.224A1.906,1.906,0,0,0,485.972,130.509Zm2.988,12.851a29.238,29.238,0,0,0,5.081-2.391q2.539-1.492,4.931-2.839a24.33,24.33,0,0,0-7.4,1.271q-3.961,1.271-3.96,1.569A3.369,3.369,0,0,0,488.96,143.36Zm-0.6-9.414q3.286,0,4.035,1.942l3.735-1.942a1.28,1.28,0,0,1-.747-1.345c0-.7-0.25-1.046-0.747-1.046q-1.5.6-2.54,0.971t-2.093.822A11.584,11.584,0,0,1,488.363,133.946Zm38.851-24.505q4.034-1.94,4.034-2.391,0-.3-1.793-0.747a16.468,16.468,0,0,1-2.615-.822,1.293,1.293,0,0,1-.821-1.27q0-1.492,3.063-3.81t4.932-3.586a32.205,32.205,0,0,0,3.063-2.316l-3.287.6V94.05q4.333-1.044,5.23-1.793a4.921,4.921,0,0,0,2.092-4.482l-4.932,2.54a2.444,2.444,0,0,0-.672,1.27,2.327,2.327,0,0,1-.523,1.121,7.518,7.518,0,0,1-2.315.448,11.5,11.5,0,0,0-1.868.149q-2.095.3-4.034,2.988A8.718,8.718,0,0,1,529.6,94.5l-0.6.6,0.6,0.747q0,1.047-2.241,1.942a18.523,18.523,0,0,1-2.466.9,1.238,1.238,0,0,1-.672-0.523,1.547,1.547,0,0,1-.448-0.971,1.033,1.033,0,0,1,.522-0.822,3.275,3.275,0,0,1,1.271-.523q1.793-.746,1.793-1.644-0.448-1.195-3.063-1.2t-2.615,1.046l0.149,1.345q0,0.448-.971.448a3.377,3.377,0,0,1-1.271-.149l-0.6,1.2,2.391,2.241-1.2,1.2h1.2v1.2l5.081,11.356a19.178,19.178,0,0,0,2.764-.672q1.717-.521,3.512-0.971l4.333-1.2q0,1.646-8.218,5.229l-1.644.6a5.022,5.022,0,0,1,.149,1.2V119.3a14.684,14.684,0,0,1,4.856-1.569q3.06-.522,4.557-0.822v1.046a8.326,8.326,0,0,0-4.034.9,15.735,15.735,0,0,1-5.379,2.092q-0.151,1.646-.225,3.288a24.888,24.888,0,0,1-.373,3.287q-1.2,0-1.2,3.586a8.2,8.2,0,0,0,3.586-2.54,12.025,12.025,0,0,0,1.644-2.241,2.608,2.608,0,0,1-1.2,2.391,0.52,0.52,0,0,1,.448.448,0.547,0.547,0,0,0,.3.448,2.218,2.218,0,0,1-1.494,2.242q-1.5.6-2.391,0.9a6.686,6.686,0,0,0-1.942,1.121,9.325,9.325,0,0,0-1.719,1.718,11.486,11.486,0,0,1-1.719,1.793q-2.093,1.5-8.965,2.541a1.137,1.137,0,0,1,.448,1.2,27.987,27.987,0,0,0-4.931,2.988q-5.38,4.185-6.874,4.184,0.746-1.345,4.632-3.586c0-.4-0.5-0.6-1.494-0.6a1.852,1.852,0,0,0-1.942,1.2l-0.6-.6a8.323,8.323,0,0,0-3.735.747,6.615,6.615,0,0,1-2.988.747,1.551,1.551,0,0,1,.448-1.345,1.344,1.344,0,0,0,.448-1.2,1.971,1.971,0,0,0-1.046-.448,4.063,4.063,0,0,0-4.483.9,14.231,14.231,0,0,0,8.069,5.828,33.314,33.314,0,0,0,4.781,1.2,23.677,23.677,0,0,1,5.529,1.793,0.7,0.7,0,0,0,.373-0.448,1.99,1.99,0,0,0,.225-0.9c0-.3-0.2-0.448-0.6-0.448q3.435-4.034,5.977-4.782a3.075,3.075,0,0,1-1.569,2.765,25.616,25.616,0,0,0-2.315,1.569,1.982,1.982,0,0,0-.747,1.644,37.464,37.464,0,0,0,10.608-1.2q3.885-1.194,4.633-2.391a3.879,3.879,0,0,1,.672-1.868,3.944,3.944,0,0,1,1.569-1.569l0.747,0.6,2.241-1.2a4.629,4.629,0,0,1-.6-1.942q0-.746,1.271-0.822a1.981,1.981,0,0,0,1.718-.822H530.8q1.194-1.793,8.368-4.782,0.146-.9.6-7.322a4.365,4.365,0,0,1-1.644.3h-1.346a1.758,1.758,0,0,1-.747-0.224,0.691,0.691,0,0,1-.448-0.374l2.392-1.793a0.738,0.738,0,0,0,.6.3,6.023,6.023,0,0,1,1.2.448c0.1-1.1.149-2.141,0.149-3.138v-2.989a4.9,4.9,0,0,0-4.334,1.942q0-1.491,2.392-2.988l-1.047-.149c-0.8,0-1.246.2-1.345,0.6a0.916,0.916,0,0,1,.747-1.121,7.533,7.533,0,0,0,1.645-.374q2.388-.6,2.391-4.333a1.656,1.656,0,0,1-.747.149,0.872,0.872,0,0,0-.6.149,1.826,1.826,0,0,1,.747-1.27,3.9,3.9,0,0,0,1.046-1.419,2.75,2.75,0,0,1-2.241.747h-1.346a1.773,1.773,0,0,1,1.121-.9,5.378,5.378,0,0,0,1.271-.448q1.345-.746,1.345-4.333l-1.644-.149A35.645,35.645,0,0,0,527.213,109.441ZM491.95,96.889H501.96a10.2,10.2,0,0,1-2.689-2.465A2.03,2.03,0,0,0,497.7,93.3a12.305,12.305,0,0,0-2.988.672,7.156,7.156,0,0,0-3.511,2.316Zm11.206,42.437a1.645,1.645,0,0,0-1.718-.748,9.738,9.738,0,0,0-3.736,1.046,9.287,9.287,0,0,0-3.511,2.54,11.368,11.368,0,0,0,4.482-1.121A41.722,41.722,0,0,1,503.156,139.326Zm10.012-41.241a19.929,19.929,0,0,0-9.563,2.242,3.2,3.2,0,0,1-1.345,2.092,25.173,25.173,0,0,0-1.942,1.868,21.166,21.166,0,0,0-1.793,2.615q-2.095,3.587-2.092,12.7,0,3.888,1.345,4.333a1.084,1.084,0,0,0,.821.224c0.248-.049.374,0.126,0.374,0.523a1.7,1.7,0,0,1-.822,1.644q-0.822.448-.821,2.615a5.493,5.493,0,0,0,2.241,4.109l5.229,4.034q12.552,0,15.839-3.287a8.831,8.831,0,0,0,2.541-5.081,41.261,41.261,0,0,0,.6-7.322,43.892,43.892,0,0,0-.6-7.471,32.394,32.394,0,0,0-1.943-6.724Q518.1,99.432,513.167,98.084Zm-14.2,46.172a15.876,15.876,0,0,0,7.471-1.718q3.286-1.716,3.736-2.615l-1.2-.6-10.012,4.034v0.9Zm4.184-53.344a2.371,2.371,0,0,0-1.2,1.569,3.612,3.612,0,0,0,.448,1.569q2.241,0,14.2-4.333l1.793-.6a2.01,2.01,0,0,0-.373-1.494,1.989,1.989,0,0,1-.374-1.494,7.954,7.954,0,0,0-2.764,1.419,7.011,7.011,0,0,1-3.437,1.419,5.289,5.289,0,0,0-2.241.448q-0.973.448-2.166,1.046a35.644,35.644,0,0,1-3.886,2.242V90.912Zm1.644,57.379q-0.149.448-1.644,0.448l1.2-1.2Zm1.794-8.965v-0.6h-1.2Zm12.252-46.62q-2.542,0-2.689,1.345l-0.6-.747A8.888,8.888,0,0,0,511,94.573a14.2,14.2,0,0,1-4.407,1.718,1.585,1.585,0,0,0,1.345,1.345,12.758,12.758,0,0,0,2.315-.523q1.868-.521,3.96-1.27,5.228-2.091,5.977-3.138h-1.345Zm-4.482,50.654A6.069,6.069,0,0,1,512.644,145a4.294,4.294,0,0,1-2.465.9Q511.222,144.107,514.363,143.36Zm10.46-2.839,0.3,2.391a3.527,3.527,0,0,1-1.2,2.017,4.091,4.091,0,0,1-2.242,1.419,1.421,1.421,0,0,1-1.046,0v-0.3a12.227,12.227,0,0,1,1.943-3.138l-1.047.149a27.541,27.541,0,0,0-2.166,2.391q-0.823,1.047-3.362,1.046h-0.3a0.131,0.131,0,0,1-.149-0.149,5.268,5.268,0,0,1,1.719-1.569q1.121-.672,2.315-1.419,3.138-1.793,3.587-2.839a0.558,0.558,0,0,1-.673-0.672,2.565,2.565,0,0,1,.523-1.271,11.4,11.4,0,0,1,1.046-1.2,4.5,4.5,0,0,1,1.494-1.494l5.229,0.448a1.312,1.312,0,0,1-.972.672q-0.973.375-2.166,0.971Q524.821,139.476,524.823,140.521Zm5.08,0.448q0,0.6-1.345,1.345a17.638,17.638,0,0,0-2.988,1.793v-1.2q0-.448,3.885-1.644Zm-3.885-.3a2.908,2.908,0,0,0,2.166-1.046,2.293,2.293,0,0,1,1.719-.972c0.5,0.052.8,0.075,0.9,0.075h0.448a4.954,4.954,0,0,0-2.689,1.345,7.457,7.457,0,0,1-2.54,1.644V140.67Zm3.511-87.712a1.21,1.21,0,0,1,1.121-.9,0.6,0.6,0,0,1,.747.6l0.6-1.793h-4.781a10.171,10.171,0,0,1,.747,4.184A7.075,7.075,0,0,0,529.529,52.958Zm2.466,4.483-3.586-.448V55.648l-0.448.448q-0.3,1.793-.374,2.914c-0.051.747-.126,1.471-0.224,2.167a11.957,11.957,0,0,0-.149,1.495,9.019,9.019,0,0,0,2.839-2.541,15.824,15.824,0,0,1,2.54-2.839A0.862,0.862,0,0,1,531.995,57.441Zm-2.988,6.874q-1.793,0-1.793,2.988,6.724-2.837,7.62-5.379Zm5.379,2.988q-2.99,1.2-3.062,1.2a1.993,1.993,0,0,1-.523-0.448c0,0.7-.649,1.2-1.942,1.495-1.1.3-1.644,0.6-1.644,0.9V73.28l7.172-5.23V67.3Zm0,6.575q-5.379,2.392-6.425,2.391a9.722,9.722,0,0,0-.747,3.437,12.418,12.418,0,0,0,4.707-2.914Q534.235,74.627,534.385,73.878Zm-5.977,12.4-0.6,3.586a3,3,0,0,0,.074.523,3.2,3.2,0,0,1,.075.523,11.54,11.54,0,0,0,3.437-1.046h-2.241q0-1.94,7.919-3.885a16.245,16.245,0,0,1,2.093-.3,1.069,1.069,0,0,1,.821.448,1.456,1.456,0,0,1,.374.6c0.3,0,.448-0.546.448-1.644a33.516,33.516,0,0,0-.448-4.632,28.651,28.651,0,0,1-4.483,2.54q-5.231,2.392-6.873,4.483a2.776,2.776,0,0,1,1.046-2.316,17.485,17.485,0,0,1,2.241-1.495q1.194-.672,2.241-1.345A2.241,2.241,0,0,0,535.58,80.3a11.387,11.387,0,0,0-6.126,1.419q-2.241,1.422-2.241,2.167a1.622,1.622,0,0,0,.6,1.271A1.506,1.506,0,0,1,528.409,86.28Zm1.868,46.321a2.205,2.205,0,0,1,2.092-1.495c0.945,0,1.419.2,1.419,0.6a5.848,5.848,0,0,0-2.092,1.2q-1.646,1.2-3.287,2.241A7.329,7.329,0,0,0,530.277,132.6Zm-1.868,15.241,0.6,2.689a5.666,5.666,0,0,0,4.408-1.569q1.418-1.569,2.315-2.69a13.331,13.331,0,0,1,2.242-2.167v-0.9a2.889,2.889,0,0,0-2.167.6,3.627,3.627,0,0,1-2.018.9,0.422,0.422,0,0,1-.149-0.3v-0.3a1.67,1.67,0,0,1,.9-1.644,13.9,13.9,0,0,1,1.793-.747,3.548,3.548,0,0,0,2.84-3.586,9.314,9.314,0,0,1-3.886,2.989,9.316,9.316,0,0,0-3.885,2.988h1.046a1.957,1.957,0,0,1-1.419,1.569,22.022,22.022,0,0,0-2.018,1.046A1.235,1.235,0,0,0,528.409,147.843Zm0.3-44.08a120.554,120.554,0,0,0,12.4,1.2c0-.6-0.026-1.2-0.075-1.793s-0.074-1.2-.074-1.793a10.382,10.382,0,0,1-2.54.3h-2.242a3.325,3.325,0,0,1-.672-0.075,3.234,3.234,0,0,0-.523-0.075q0.6-1.195,5.978-1.2v-0.9a28.383,28.383,0,0,1,.448-4.931,11.413,11.413,0,0,1-1.644,1.121q-1.345.823-3.139,2.017A44.632,44.632,0,0,0,528.707,103.763Zm9.265-32.275q1.194,0,1.2.9a4.121,4.121,0,0,1-.225.822,0.776,0.776,0,0,1-.522.672l-9.414,6.575a17.322,17.322,0,0,0,6.8-1.494,28.83,28.83,0,0,0,4.558-2.242l0.448-7.471a49.74,49.74,0,0,0-.747-8.592,49.422,49.422,0,0,1-.747-8.592h-2.093a1.958,1.958,0,0,1,1.346,2.092,3.9,3.9,0,0,1-1.2,1.419q-1.2,1.121-2.689,2.615-3.886,3.586-4.931,3.885a5.123,5.123,0,0,0,2.839-1.2l0.6,0.6a3.8,3.8,0,0,1,2.241-1.2,1.65,1.65,0,0,1,1.42.747,3.962,3.962,0,0,0,.972,1.046,3.548,3.548,0,0,0-.972.6q-0.823.6-1.868,1.345a29.584,29.584,0,0,0-3.437,2.689,8.757,8.757,0,0,1,3.437-.448h0.747a2.033,2.033,0,0,1,1.494.6,6.156,6.156,0,0,1-3.586,3.885,11.721,11.721,0,0,0-2.241,1.121,2.6,2.6,0,0,0-1.2,2.017,6.783,6.783,0,0,1,2.391-.747,5.444,5.444,0,0,0,2.391-1.046l0.6,1.2Q535.58,71.487,537.972,71.487Zm-2.989,63.654q-0.6,0-.6,1.644a1.09,1.09,0,0,0-1.2-1.046,2.786,2.786,0,0,0-1.793.6q1.194-2.539,6.725-2.54a2.129,2.129,0,0,1-.6,1.868,3.8,3.8,0,0,1-1.942.374v-0.6Zm-2.988-7.023q0.746-.6,2.241-2.092a4.408,4.408,0,0,1,2.092-1.494,4.63,4.63,0,0,1,1.794.6,6.229,6.229,0,0,1-3.288,2.167A15.3,15.3,0,0,1,531.995,128.119Zm3.586-73.666a5.026,5.026,0,0,0-1.419.523,4.137,4.137,0,0,0-1.569,1.121,0.6,0.6,0,0,0,.448.149h0.448A2.039,2.039,0,0,0,535.58,54.453Zm0.149,33.471q-3.138,0-3.138,1.942l4.632-1.942H535.73Zm-0.149,50.8a4.9,4.9,0,0,0-1.494,1.943,1.663,1.663,0,0,0,.9-0.672A1.979,1.979,0,0,0,535.58,138.728Zm1.2-88.458a3.476,3.476,0,0,0-.971.747,2.005,2.005,0,0,0-.822,1.27,0.5,0.5,0,0,0,.6.523,3.2,3.2,0,0,0,1.719-.971,6.31,6.31,0,0,1,1.569-1.121,14.857,14.857,0,0,0,2.54-.448h-4.633Zm1.5,99.068q1.491,0,1.494-2.092c0-.1-0.026-0.322-0.075-0.673a6.027,6.027,0,0,1-.074-0.672,8.59,8.59,0,0,0-2.765,1.42,4.272,4.272,0,0,0-1.868,2.615,2.628,2.628,0,0,1,1.942-.747Z" transform="translate(-25.386 -26.154)"/>
    <path class="cls-1" d="M593.856,141.417l0.149,6.425a21.87,21.87,0,0,1-.9,7.023q-3.289-.75-8.518-1.495a60.02,60.02,0,0,1-10.235-2.391,25.083,25.083,0,0,1-8.592-4.707q-3.586-3.061-3.586-8.741l-0.6-5.229-0.3-17.035,0.3-13.149v-1.644q0-13.6.522-27.942a153.039,153.039,0,0,1,3.96-29.138h0.747c1.095,0,1.692.2,1.793,0.6q3.883,0.6,7.771,1.494a41.4,41.4,0,0,0,7.77,1.046l0.6,0.747,0.747,10.31q-4.784,14.344-4.781,35.862a105.546,105.546,0,0,0,1.568,18.229q1.569,8.966,3.213,18.08,0,8.668,3.138,9.414a12.606,12.606,0,0,0,2.765.3Q592.808,139.475,593.856,141.417Zm-25.253-39.3-1.644-.3q0-2.837,7.321-9.414a3.2,3.2,0,0,0,1.345-1.942V89.717q-3.287,2.392-9.562,2.391V91.062l9.563-8.965h-1.2a11.587,11.587,0,0,0-2.391,1.121q-2.093,1.121-3.287,1.719t-2.241,1.2a2.284,2.284,0,0,0-1.2,1.793,13.323,13.323,0,0,1-.6,2.54q0.448,6.577.522,9.638t0.149,5.155q0.075,2.095.075,3.138,5.676-4.781,7.022-7.621Zm-3.138,13.448q4.78-3.435,5.678-5.827a15.536,15.536,0,0,1-2.988.971c-0.8.149-1.494,0.275-2.092,0.374a1.958,1.958,0,0,0-1.345,2.092A3.262,3.262,0,0,0,565.465,115.567Zm-0.747,19.874q1.194,3.289,3.437,8.517,1.043,0,2.988-2.241,3.286-4.181,3.885-4.931l3.288-3.885-0.6-.6q-4.784,3.586-8.219,3.586a6.62,6.62,0,0,1,1.942-4.184,34.391,34.391,0,0,0,2.988-3.885h-0.6l-7.471,3.138V134.1l-0.9-.448A2.442,2.442,0,0,0,564.718,135.44Zm1.345-8.368a19.787,19.787,0,0,0,4.259-4.856q1.715-2.763,3.511-5.3a8.646,8.646,0,0,0-4.781,1.345q-3.737,2.392-3.735,4.931A8.115,8.115,0,0,0,566.063,127.073Zm3.287-66.195q-3.737,0-3.735,7.919a12.408,12.408,0,0,0,1.345,4.333q1.043,0,3.735-2.689l3.138-3.138-5.827,1.345a1.1,1.1,0,0,1-.747-1.121q0-.82,9.713-10.534V55.947a4.935,4.935,0,0,0-3.288,1.494q-1.645,1.5-2.465,2.316A4.271,4.271,0,0,1,569.35,60.878Zm3.735,13.3a8.067,8.067,0,0,0-6.574,3.138,3.276,3.276,0,0,0-.747,1.793,5.611,5.611,0,0,0,.3,2.241c0.1-.1.522-0.422,1.27-0.971s1.518-1.17,2.316-1.868q3.435-2.988,3.437-3.586V74.177Zm0-24.954a21.843,21.843,0,0,0-5.454,5.9,9.647,9.647,0,0,0-1.419,3.661h1.046q0.746,0,3.437-2.689,4.931-4.931,4.931-5.678a5.74,5.74,0,0,1-3.735,1.345,1.875,1.875,0,0,1,1.719-1.793,6.855,6.855,0,0,0,2.765-1.345q-2.095-.9-7.771-0.9v3.586a3.684,3.684,0,0,0,2.018-1.046A3.929,3.929,0,0,1,573.085,49.223Zm0,65.6q2.54,0,2.54,1.943,0,1.047-2.913,4.482t-4.259,5.081a4.9,4.9,0,0,0-1.345,2.391,11,11,0,0,0,4.632-1.2q4.781-2.241,7.023-2.241l0.149,0.6a25.579,25.579,0,0,0-3.811,4.109,22.382,22.382,0,0,1-3.96,4.109l0.747,0.149a2.211,2.211,0,0,0,1.942-1.345l0.6,0.747a6.248,6.248,0,0,1,5.081-2.69,2.074,2.074,0,0,1,1.345.748v-3.288l-3.138-16.138,0.149-3.287a30.43,30.43,0,0,0-1.494-10.161,14.878,14.878,0,0,1-4.109,5.753q-2.914,2.616-5.006,4.558h0.747q1.642-.448,3.138-0.971t2.839-.9q1.345-.371,2.392-0.672v0.6q-1.346,1.345-2.914,2.839t-2.914,2.988q-3.586,3.586-3.735,5.081,0.3-.147,1.12-0.672a13.012,13.012,0,0,1,1.868-.971l1.942-1.046A11.693,11.693,0,0,1,573.085,114.82Zm4.633-41.241a34.531,34.531,0,0,0-5.978,5.3,27.831,27.831,0,0,0-3.437,3.959q1.793-.6,3.138-1.046a33.483,33.483,0,0,0,4.932-1.644Q577.718,78.662,577.718,73.579Zm-7.92,26.448a13.912,13.912,0,0,1,6.575-2.54v-5.23a8.077,8.077,0,0,1-1.719,1.569c-0.549.35-1.022,0.672-1.42,0.971a3.341,3.341,0,0,0-1.644,2.988,0.6,0.6,0,0,1-.448-0.149h-0.3a0.131,0.131,0,0,1-.149-0.149,4.885,4.885,0,0,0-1.494,1.942q0,0.448.225,0.448A0.515,0.515,0,0,1,569.8,100.027Zm9.265-33.62q-1.793,0-4.633,3.437l-0.6-.747a4.523,4.523,0,0,1-2.017,2.465,9.7,9.7,0,0,0-2.466,2.017,4.6,4.6,0,0,0,2.839-.9,3.97,3.97,0,0,1,2.391-.9,2.445,2.445,0,0,1,1.794.6,8.822,8.822,0,0,1,1.644-2.839A4.6,4.6,0,0,0,579.063,66.407Zm-2.689,17.632q-0.75,0-3.512,2.765t-3.512,3.661h0.6a15.119,15.119,0,0,0,2.466-.822,42.812,42.812,0,0,0,3.96-1.718V84.039Zm-3.437,63.207,1.494-.149q0.148-1.492,2.392-2.989a34.8,34.8,0,0,0,3.361-2.465,4.239,4.239,0,0,0,1.42-2.316q-1.345,0-4.184,2.092-5.53,3.887-7.771,3.885Q569.649,147.246,572.936,147.245ZM575.028,54.3l3.587-.448a2.059,2.059,0,0,1,1.644,1.2,52.7,52.7,0,0,1-8.368,10.31l0.747,0.3,6.874-3.586q1.642,0,1.644-9.862V49.522a4.222,4.222,0,0,0-3.586,1.569Q576.371,52.66,575.028,54.3Zm6.874,80.838-0.149-2.241h-0.9q-1.047,0-3.063,2.615t-3.287,4.259q-1.271,1.646-2.018,2.839,1.345-.9,2.988-1.793a33.072,33.072,0,0,0,3.139-1.943Q581.9,136.636,581.9,135.142Zm-4.184,13.9a2.2,2.2,0,0,0,1.568.747,5.4,5.4,0,0,0,1.121-.075,2.056,2.056,0,0,1,.448-0.075l-1.345-1.2a10.367,10.367,0,0,0,2.166.149,2.237,2.237,0,0,0,2.167-1.121q0.595-1.121,1.644-3.512Q579.359,146.647,577.718,149.038Zm6.574-7.322a5.927,5.927,0,0,0-3.811,1.793,8.416,8.416,0,0,0-2.017,2.092c0,0.4.149,0.6,0.448,0.6q1.793-1.194,3.586-2.391T584.292,141.716Zm4.931,8.517q1.345-1.345,1.345-5.23V143.21h-1.345l-3.138,3.885-0.6.6a3.448,3.448,0,0,0,1.719,1.494Q588.474,149.786,589.223,150.233Z" transform="translate(-25.386 -26.154)"/>
    <path class="cls-1" d="M631.287,193.641q-0.823,1.716-1.868,1.719a10.176,10.176,0,0,1-3.287-.9H609.4a2.522,2.522,0,0,1-1.868-.672,2.152,2.152,0,0,1-.672-1.569q3.586-10.909,7.62-20.471l0.9-2.242q1.2-2.99,3.288-7.621t5.08-11.8a8.018,8.018,0,0,0-1.271-4.483,19.183,19.183,0,0,1-1.942-3.735q-0.672-1.793-1.867-5.006t-2.541-6.8q-3.586-9.56-4.184-11.356a37.83,37.83,0,0,1-3.885-7.1q-2.095-4.707-4.482-10.086-7.025-14.94-10.311-19.276,0-1.492,2.241-1.494l8.816,0.6a23.651,23.651,0,0,0,5.6-.672,22.419,22.419,0,0,1,5.3-.672q0.9,0,2.466,3.287t2.316,5.081a48.359,48.359,0,0,0,3.063,5.3q1.121,1.569,2.242,3.287t2.166,3.661q2.54,4.482,2.54,6.425Q633,114.523,635.246,119l0.747,1.644a1.538,1.538,0,0,0,1.644-1.345l8.517-18.528q0-4.182,2.765-10.983t3.512-8.144q0-2.241,2.69-2.241h16.735a8.538,8.538,0,0,1,3.213.9,7.679,7.679,0,0,1,2.017,1.046,20.248,20.248,0,0,1-2.092,8.741q-2.093,4.409-3.735,8.144a135.518,135.518,0,0,0-8.667,18.678q-3.438,9.267-5.229,13.373t-3.885,7.994a26.915,26.915,0,0,0-2.839,8.816L634.5,182.359a11.92,11.92,0,0,0-.822,2.988q-0.375,2.091-.971,4.333A23.083,23.083,0,0,1,631.287,193.641Zm-30.259-109q0.148,0.3.673,1.494a3.418,3.418,0,0,0,1.271,1.644l5.827-3.138h-7.771Zm3.288,4.482,0.6,0.149a4.845,4.845,0,0,0,2.465-.747,4.571,4.571,0,0,1,2.242-.747,0.776,0.776,0,0,1,.971.747l4.632-1.345q-0.6-3.285-2.241-3.288a30.628,30.628,0,0,0-4.408,2.541Q606.407,87.925,604.316,89.119Zm0,2.988q0,2.991,2.241,2.989,3.138,0,8.367-4.931a2.856,2.856,0,0,0,1.046-1.2,23.166,23.166,0,0,0-8.592,1.27Q604.314,91.511,604.316,92.107Zm14.345,1.271a1.192,1.192,0,0,0-1.046-1.121,7.449,7.449,0,0,0-2.316.6q-1.569.6-3.362,1.494-4.482,2.241-5.08,3.138a30.189,30.189,0,0,0,8.293-1.046q3.659-1.044,3.96-1.644A9.479,9.479,0,0,1,618.661,93.378Zm-0.3,4.856-5.38-.149q-5.53,0-6.126,1.942,0.146,0.3.672,1.569a3.435,3.435,0,0,0,1.271,1.718,16.775,16.775,0,0,1,3.885-1.942Q617.913,98.984,618.362,98.234Zm-8.219,8.218a3.94,3.94,0,0,0,.9,2.018,2.58,2.58,0,0,0,1.345,1.27,6.634,6.634,0,0,0,1.942-.672q1.493-.672,3.288-1.569a21.744,21.744,0,0,0,5.229-3.287,13.4,13.4,0,0,0-2.54-.3,21.425,21.425,0,0,0-7.4,1.046Q610.141,106.005,610.143,106.452Zm8.966,83.229-1.2.149a1.141,1.141,0,0,1-1.346-.9,13.458,13.458,0,0,1,2.69-1.942l1.793-1.2-2.689-1.494-5.679,3.288-1.345,2.54a25.869,25.869,0,0,0,8.293,1.046,59.484,59.484,0,0,1,8.442.3q0.6,0,.972-2.988t0.373-3.437h-0.6Zm2.54-91a50.518,50.518,0,0,0-8.966,4.632,14.162,14.162,0,0,0,5.23-.747q1.793-.746,4.482-1.793A4.124,4.124,0,0,0,621.649,98.682Zm3.287,10.311,1.494,0.149a8.783,8.783,0,0,0-1.494-3.885l-10.908,6.425a10.909,10.909,0,0,0,5.3-1.345A11.511,11.511,0,0,1,624.936,108.993Zm7.771,63.206a19.428,19.428,0,0,1-5.529,1.345,32.848,32.848,0,0,0-6.275,1.345q-6.875,2.241-6.874,8.218v1.345a15.538,15.538,0,0,0,6.2-1.793,21,21,0,0,0,3.96-2.092,25.648,25.648,0,0,1-5.229.6,20.462,20.462,0,0,1-3.139-.149q0.9-1.944,4.782-1.942a9.97,9.97,0,0,1,2.017.149,2.161,2.161,0,0,0,1.121,0,8.219,8.219,0,0,0,1.494-.822q1.043-.673,2.914-2.018T633.3,172.8A0.9,0.9,0,0,0,632.706,172.2Zm-18.23-57.528a3.672,3.672,0,0,0,1.345,2.242q7.173-3.436,9.713-6.575-6.129,1.047-8.592,2.391T614.476,114.67Zm13.6-2.391q-7.922,2.689-10.907,6.425a41.861,41.861,0,0,1,4.781-.9q6.872-1.044,6.873-2.242A8.649,8.649,0,0,0,628.074,112.28Zm-10.907,8.368a6.022,6.022,0,0,1,.672,1.644,12.453,12.453,0,0,0,.523,1.644,26.249,26.249,0,0,1,4.482-2.839,26.129,26.129,0,0,0,4.632-2.988q-0.749.15-2.166,0.374a22.056,22.056,0,0,0-2.914.672A23.976,23.976,0,0,0,617.166,120.647Zm9.563,46.1a42.072,42.072,0,0,0-5.827,1.793q-1.944.82-1.942,1.943a0.905,0.905,0,0,0,.9,1.121q1.939,0,6.948-2.615t5.9-3.212A26.62,26.62,0,0,0,626.729,166.745Zm-1.793-44.9a24.707,24.707,0,0,1-5.827,3.885,2.458,2.458,0,0,0,1.2.149,19.535,19.535,0,0,0,2.913-.3q1.868-.3,3.661-0.747a19.165,19.165,0,0,0,5.828-1.644l-2.093-3.885ZM622.1,127.82a1.748,1.748,0,0,0-1.2,1.494,2.275,2.275,0,0,0,.747,1.644l4.482-2.54,3.885-2.689A16.53,16.53,0,0,0,622.1,127.82Zm-0.3,35.264-0.747,1.345,1.644-.6q1.642-.6,3.885-1.345,5.079-1.793,8.667-3.287l0.6-.448-1.345-.6Zm-0.747,20.022,5.827-.747c0.9,0,1.319.248,1.271,0.747s0.272,0.747.971,0.747,1.368-.649,2.018-1.942a7.489,7.489,0,0,0,.971-2.839,5.812,5.812,0,0,0-1.644.448q-1.2.448-2.839,1.046t-3.437,1.345Q622.4,182.657,621.051,183.106Zm16.437-19.873a4.335,4.335,0,0,1-2.466,4.034,25.454,25.454,0,0,1-5.454,2.167q-2.99.82-5.454,1.569t-2.465,2.54q1.491-1.5,5.006-1.868t5.453-.523q1.941-.151,3.139-0.3,2.539-.3,7.62-15.689,1.044-3.138,1.494-4.333-1.645,0-4.781,1.868t-3.138,2.167L624.936,159.2a17.971,17.971,0,0,0,6.649-1.27,15.34,15.34,0,0,1,5.454-1.27,14.281,14.281,0,0,1,2.764.149,1.073,1.073,0,0,1,.523,1.2q0,1.642-14.046,6.874a8.445,8.445,0,0,0-2.689,1.2,17.546,17.546,0,0,0,7.022-1.419A17.127,17.127,0,0,1,637.488,163.233Zm2.241-34.218q-16.887,4.185-16.885,6.126,0,2.392,1.046,2.391,4.034,0,13.149-6.425A21.523,21.523,0,0,0,639.729,129.015Zm-1.345,21.218q-1.5.448-3.735,1.046t-4.483,1.345q-5.231,2.091-5.977,4.782,9.113-2.689,10.833-3.512a8.58,8.58,0,0,0,2.615-1.793q0.9-.973,1.793-1.868,2.241-2.241,3.586-2.241a3.3,3.3,0,0,1,2.391,1.046,118.09,118.09,0,0,1,7.173-16.885A13.194,13.194,0,0,1,647.5,134.1a8.424,8.424,0,0,1-1.345,2.092l-14.2,7.023,11.655-1.793v1.2l-5.229,3.138q-1.646,0-6.2,2.839t-4.558,3.138l0.448,0.448,8.368-2.54Zm0-21.816a5.8,5.8,0,0,1,3.063-1.494,3.305,3.305,0,0,1,2.166.9,6.8,6.8,0,0,1-3.586,4.035,39.346,39.346,0,0,1-5.454,2.241q-2.767.9-5.006,1.868a3.136,3.136,0,0,0-2.241,2.914,7.862,7.862,0,0,0,3.287-.747,7.9,7.9,0,0,1,3.288-.747l-1.2,1.345a13.789,13.789,0,0,0-4.782,1.2,15.337,15.337,0,0,0-2.988,1.345l1.2,2.689h0.6a52.969,52.969,0,0,0,5.229-3.437,11.424,11.424,0,0,1,3.139-1.046q3.586-1.044,4.482-2.615a7.1,7.1,0,0,1,2.466-2.54,23.867,23.867,0,0,1,3.361-1.718,36.447,36.447,0,0,1,7.023-2.242l0.747-.747-4.333.9a1.236,1.236,0,0,1-1.2-.374,3.775,3.775,0,0,1-.149-1.27l2.84,0.149q3.138,0,4.184-1.942l3.885-8.368h-0.149c-0.1,0-.149-0.023-0.149-0.075a0.973,0.973,0,0,0-.6-0.075,25.834,25.834,0,0,0-3.662.747,34.11,34.11,0,0,0-5.752,1.942l5.08-.6a5.964,5.964,0,0,1,2.69.6q0,1.345-2.989,3.288-5.827,3.586-7.771,3.586a12.2,12.2,0,0,1,3.362-2.988,33.42,33.42,0,0,0,2.765-1.943l-3.736-.6a2.21,2.21,0,0,1-1.942,1.345,8.039,8.039,0,0,1-4.034-1.345,24.405,24.405,0,0,1,6.725-2.839q7.767-2.091,10.161-3.586l-7.172.747a1.021,1.021,0,0,1-1.2-.747,7.155,7.155,0,0,1,2.913-.972q1.269-.073,2.99-0.3a6.76,6.76,0,0,0,3.212-1.345,12.926,12.926,0,0,0,2.689-2.764,13.411,13.411,0,0,0,2.242-7.471l-8.966,3.138a5.01,5.01,0,0,0-1.2-.149,1.159,1.159,0,0,0-.822.224,9.3,9.3,0,0,1-2.017.9,23.477,23.477,0,0,0-3.138,1.42,5.85,5.85,0,0,0-2.018,1.718,10.079,10.079,0,0,0-1.2,2.54q-0.526,1.569-1.345,3.437a30.622,30.622,0,0,1-1.868,3.586,7.166,7.166,0,0,1-1.2,1.718l-1.942.747a1.364,1.364,0,0,1,.6,1.345,5.458,5.458,0,0,1-.3,1.868A8.237,8.237,0,0,0,638.384,128.417Zm-9.04.075a21.966,21.966,0,0,0-2.241,1.345,1.889,1.889,0,0,0-.972,1.046c0,0.25.3,0.374,0.9,0.374a10.565,10.565,0,0,0,2.241-.3,26.814,26.814,0,0,0,2.689-.747q3.139-1.345,3.139-3.287a1.574,1.574,0,0,0-.9-0.149,6.928,6.928,0,0,0-2.167.523A21.939,21.939,0,0,0,629.344,128.492Zm-1.271,20.546,5.23-2.541c0,0.4.348,0.6,1.046,0.6q3.435-2.837,3.437-4.035a13.656,13.656,0,0,0-4.632,1.2q-5.53,1.944-6.426,3.437Zm1.046,28.241a2.541,2.541,0,0,0,2.092.747q2.389,0,3.587-3.287a4.331,4.331,0,0,0-1.942.374Q632.106,175.484,629.12,177.279Zm9.862-41.091q-0.448,1.2-3.138,1.2a0.563,0.563,0,0,1-.6-0.672c0-.448.322-0.672,0.971-0.672a11.489,11.489,0,0,1,1.494.075A8.932,8.932,0,0,0,638.982,136.188Zm8.517-26.6q1.644-1.195,6.649-1.868t5.6-.672a1.26,1.26,0,0,1,1.345,1.495c0,0.1-.025.149-0.074,0.149s-0.075.051-.075,0.149v0.3l-10.908,5.678q-0.75,1.794-3.437,1.793a2.326,2.326,0,0,1,1.5-2.391l8.965-4.632H647.5ZM653.775,95.1a25.845,25.845,0,0,0-4.707,6.276,14.043,14.043,0,0,0-1.719,4.109,0.872,0.872,0,0,0,.748.971q2.09-.448,4.407-0.822t4.558-.822q4.931-1.345,6.575-3.437a75.172,75.172,0,0,1-11.208-.6q0.3-1.492,3.212-3.213t4.408-2.54a16.352,16.352,0,0,0,2.241-1.419,9.559,9.559,0,0,1-3.287.6h-1.942A6.266,6.266,0,0,0,653.775,95.1Zm3.885-9.862q-4.034.749-4.632,5.229a10.555,10.555,0,0,1-.6,2.541,39.757,39.757,0,0,1,4.708-1.644q2.612-.746,4.931-1.419t4.109-1.121a7.461,7.461,0,0,0,2.391-.9,3.292,3.292,0,0,1-1.046.149h-1.046a3.4,3.4,0,0,1-2.391-.822,2.758,2.758,0,0,0-1.868-.822,3.43,3.43,0,0,0-1.271.149l1.345-1.345,10.161,0.747a0.975,0.975,0,0,0,.822-0.971,11.763,11.763,0,0,1,.522-1.719H658.706a3.25,3.25,0,0,1,.747,1.644,0.563,0.563,0,0,1-.672.6A1.968,1.968,0,0,1,657.66,85.234ZM660.5,99.429a10.408,10.408,0,0,1,3.736-.747,3.526,3.526,0,0,1,2.54.747l3.138-7.172a10.108,10.108,0,0,0-3.586,1.793A5.8,5.8,0,0,1,662.89,95.4V94.8q-1.046,2.094-8.368,5.229l1.793,0.149A11.517,11.517,0,0,0,660.5,99.429Z" transform="translate(-25.386 -26.154)"/>
  </g>
  <g>
    <polygon class="cls-2" points="5.662 162.145 0 0 150.852 13.757 155.187 137.898 5.662 162.145"/>
    <path class="cls-1" d="M161.782,38.593l-3.093-.282,0.428,12.261,3.438,0.231a1.888,1.888,0,0,1,.895.323,3.231,3.231,0,0,1,.79.752,4.113,4.113,0,0,1,.572,1.038,3.761,3.761,0,0,1,.244,1.186l0.158,4.528,7.259,0.378L172.26,52.9a18.557,18.557,0,0,0-.954-5.271,16.581,16.581,0,0,0-2.267-4.441,12.5,12.5,0,0,0-3.276-3.171,8.8,8.8,0,0,0-3.981-1.426" transform="translate(-25.386 -26.154)"/>
    <path class="cls-1" d="M46.623,28.091l-4.653-.424a13.844,13.844,0,0,0-6.093.781A13.56,13.56,0,0,0,30.9,31.68a14.875,14.875,0,0,0-3.292,5.206,17.141,17.141,0,0,0-1.051,6.646l0.276,7.906,11.747,0.611-0.2-5.676a3.47,3.47,0,0,1,.266-1.447,3.787,3.787,0,0,1,.794-1.2,3.577,3.577,0,0,1,1.156-.795,2.961,2.961,0,0,1,1.352-.236l5.191,0.349L46.623,28.091" transform="translate(-25.386 -26.154)"/>
    <path class="cls-1" d="M42.141,153.876L30.46,155.162l0.276,7.9a17.273,17.273,0,0,0,1.513,6.576A15.114,15.114,0,0,0,35.9,174.64,13.7,13.7,0,0,0,47.22,178l4.614-.691L51.312,162.36l-5.156.647a2.978,2.978,0,0,1-1.365-.158,3.64,3.64,0,0,1-1.209-.725,3.849,3.849,0,0,1-.876-1.148,3.474,3.474,0,0,1-.366-1.423l-0.2-5.676" transform="translate(-25.386 -26.154)"/>
    <polyline class="cls-1" points="130.718 11.946 24.533 2.267 24.984 15.186 131.092 22.649 130.718 11.946"/>
    <polyline class="cls-1" points="12.201 29.82 1.024 29.309 4.359 124.818 15.479 123.668 12.201 29.82"/>
    <polyline class="cls-1" points="82.883 131.043 29.271 137.96 29.722 150.879 83.295 142.835 82.883 131.043"/>
    <polyline class="cls-1" points="147.677 36.016 140.801 35.701 141.594 58.4 148.259 52.681 147.677 36.016"/>
    <polyline class="cls-1" points="152.379 57.485 135.854 71.96 137.431 117.122 89.087 122.956 89.978 148.472 155.187 137.898 152.379 57.485"/>
    <path class="cls-1" d="M114.571,97l-0.032.026-0.013.014-0.008.01,0,0.005v0l0,0,0.009-.009,0.013-.013,0.015-.015,0,0,0,0,0,0,0,0m8.327,5.317-0.005,0-0.008-.012-0.01-.019-0.012-.025h0a0.316,0.316,0,0,1,.062.032,0.3,0.3,0,0,1,.045.036,0.13,0.13,0,0,1,.024.03c0,0.008,0,.012,0,0.013h-0.007l-0.005,0-0.006,0-0.073-.06v0.016h0m-0.158-.3h0v0l0-.006,0-.007,0,0.008,0,0.006v0h0m-0.011-.034,0-.007,0-.006V101.96l0,0.005,0,0.005,0,0,0,0m17.75-15.171a0.593,0.593,0,0,1-.042-0.052,0.373,0.373,0,0,1-.027-0.043,0.121,0.121,0,0,1-.012-0.029c0-.007,0-0.011,0-0.011h0l0.071,0.128,0,0.005m0.2-6a3.358,3.358,0,0,0-.786.087,3.216,3.216,0,0,0-.361.107,2.96,2.96,0,0,0-.331.142c-0.1.049-.2,0.1-0.288,0.151s-0.181.107-.267,0.164-0.17.117-.253,0.181-0.164.13-.246,0.2l-0.129.118-0.129.122c-0.043.041-.085,0.082-0.125,0.124s-0.08.082-.117,0.123l-0.227.257-0.463.569-0.467.575-0.47.581-0.472.586-0.45.571-0.453.576-0.456.58-0.459.584q-0.467.583-.93,1.185t-0.929,1.216q-0.466.615-.935,1.238T129.99,92.1q-0.469.641-.945,1.287t-0.956,1.3q-0.48.655-.961,1.32t-0.962,1.346q-0.412.589-.829,1.182l-0.838,1.19-0.845,1.2-0.852,1.208-0.01-.023-0.01-.023-0.01-.022-0.01-.021-0.046-.1-0.023-.052,0,0.007,0,0.007,0,0.007,0,0.007-0.065-.159-0.7-1.715Q121.77,99.6,121.6,99.17l-0.349-.865-0.35-.864-0.349-.865-0.354-.872c-0.031-.075-0.059-0.144-0.087-0.214l-0.088-.219c-0.031-.078-0.066-0.162-0.108-0.26s-0.09-.208-0.149-0.339c-0.1-.223-0.218-0.444-0.344-0.661a7.429,7.429,0,0,0-.413-0.637,6.64,6.64,0,0,0-.486-0.6,5.914,5.914,0,0,0-.56-0.536,4.618,4.618,0,0,0-.63-0.447,4.569,4.569,0,0,0-.688-0.332,4.288,4.288,0,0,0-.722-0.207,3.844,3.844,0,0,0-.733-0.07h-0.074a4.035,4.035,0,0,0-.7.069,4.143,4.143,0,0,0-.661.182,4.506,4.506,0,0,0-.619.282,5.081,5.081,0,0,0-.575.37l-0.309.247c-0.027.021-.054,0.042-0.08,0.064l-0.072.063-0.057.054a0.471,0.471,0,0,0-.035.038l-0.386.393-0.586.641-1.168,1.3-1.17,1.3-1.172,1.306-1.174,1.307-1.177,1.306-1.178,1.312-1.177,1.31-1.175,1.306-1.172,1.3L99.3,106.655l-0.575.641-0.091.093-0.094.092q-0.048.045-.1,0.089t-0.1.084a3.323,3.323,0,0,1-.437.289,3.6,3.6,0,0,1-1.011.375,3.364,3.364,0,0,1-.541.067H96.273a4.665,4.665,0,0,1-.568-0.03,3.5,3.5,0,0,1-.54-0.105,2.967,2.967,0,0,1-1-.5l-0.638-.5-0.637-.5-0.635-.5-0.633-.5-1.3-1.015-1.289-1.007-1.278-1q-0.636-.5-1.264-0.993l-0.633-.49-0.628-.487-0.624-.482q-0.312-.24-0.623-0.477c-0.044-.037-0.1-0.078-0.151-0.121s-0.116-.089-0.18-0.136l-0.2-.143-0.2-.141-0.207-.122-0.207-.119c-0.069-.039-0.138-0.076-0.207-0.112s-0.138-.07-0.207-0.1q-0.21-.1-0.419-0.18t-0.42-.148q-0.21-.066-0.421-0.119t-0.423-.094q-0.219-.045-0.438-0.077t-0.437-.051q-0.218-.019-0.435-0.026t-0.433,0q-0.2,0-.4.019t-0.394.037q-0.2.023-.391,0.055t-0.389.073c-0.132.034-.265,0.07-0.4,0.107s-0.264.078-.395,0.123-0.261.093-.39,0.146-0.256.112-.382,0.178c-0.062.028-.128,0.061-0.2,0.1s-0.137.074-.206,0.114-0.136.08-.2,0.119l-0.181.112-0.288.209-0.115.081-0.077.058-0.063.051-0.073.058-4.285,3.433-3.923,3.14-3.5,2.8-3,2.4-2.428,1.966-1.808,1.462-1.126.91-0.387.313a0.423,0.423,0,0,0-.092.111,0.434,0.434,0,0,0-.05.133,0.423,0.423,0,0,0,0,.142,0.4,0.4,0,0,0,.046.138,0.4,0.4,0,0,0,.063.079,0.365,0.365,0,0,0,.077.057,0.341,0.341,0,0,0,.087.034,0.326,0.326,0,0,0,.092.008l0.042,0,0.042-.011a0.338,0.338,0,0,0,.041-0.016,0.354,0.354,0,0,0,.04-0.022l0.408-.281,1.185-.817,1.9-1.312,2.55-1.763,3.131-2.175,3.642-2.533L71.3,105.1l4.465-3.109,0.255-.161,0.3-.191,0.127-.062,0.108-.053,0.108-.049c0.038-.016.079-0.033,0.127-0.051,0.087-.038.175-0.072,0.266-0.1s0.183-.057.276-0.081,0.187-.046.282-0.066l0.285-.059,0.168-.021,0.169-.016,0.171-.012,0.172-.007q0.212-.006.425,0t0.426,0.034q0.213,0.025.424,0.065t0.418,0.1q0.147,0.042.291,0.091t0.283,0.1q0.139,0.056.272,0.12t0.26,0.139c0.046,0.022.09,0.047,0.133,0.072s0.084,0.052.125,0.079l0.12,0.08c0.04,0.027.079,0.053,0.119,0.078l0.112,0.093L82.1,102.21l0.126,0.106,0.15,0.129,0.6,0.525,0.6,0.528,0.6,0.533,0.6,0.538,1.227,1.066,1.236,1.077,1.245,1.088,1.254,1.1,0.652,0.559,0.653,0.561,0.653,0.563,0.652,0.565a5.963,5.963,0,0,0,.9.611,6.423,6.423,0,0,0,.977.439,6.714,6.714,0,0,0,1.017.271,6.634,6.634,0,0,0,1.018.108H96.5l0.12,0,0.12,0a6.8,6.8,0,0,0,.9-0.1,6.617,6.617,0,0,0,1.77-.593,6.921,6.921,0,0,0,.847-0.5q0.119-.082.235-0.171t0.229-.186q0.113-.1.224-0.2t0.22-.206l0.617-.626L103,108.743l1.216-1.236,1.218-1.237,1.219-1.236,1.22-1.235,1.216-1.235,1.216-1.236,1.215-1.235,1.211-1.234,1.21-1.226,0.6-.615,0.042-.036,0,0,0,0-0.005.006L114.571,97l0.047-.039,0.156-.147,0.086-.056h0.022a0.723,0.723,0,0,1,.082-0.046,0.7,0.7,0,0,1,.082-0.033,0.6,0.6,0,0,1,.077-0.02,0.422,0.422,0,0,1,.068-0.007h0.037l0.016,0,0.015,0a0.56,0.56,0,0,1,.055.02,0.335,0.335,0,0,1,.048.025,0.391,0.391,0,0,1,.047.035c0.016,0.014.033,0.03,0.052,0.05a0.947,0.947,0,0,1,.061.08c0.022,0.031.044,0.067,0.068,0.108s0.047,0.087.072,0.138,0.049,0.108.073,0.17L116.3,98.9l0.315,0.892,0.314,0.893,0.313,0.892,0.31,0.89,0.628,1.774,0.08,0.229,0.135,0.352c0.016,0.037.029,0.071,0.042,0.105s0.027,0.07.043,0.111,0.037,0.088.064,0.146,0.06,0.125.1,0.208c0.074,0.147.145,0.282,0.215,0.409s0.14,0.246.212,0.36,0.147,0.224.226,0.332,0.164,0.216.256,0.326a5.158,5.158,0,0,0,.571.6,4.989,4.989,0,0,0,.68.515,4.346,4.346,0,0,0,.763.383,3.624,3.624,0,0,0,.823.21q0.091,0.014.181,0.023t0.18,0.014q0.09,0,.179.005t0.178,0a3.914,3.914,0,0,0,.631-0.08,4.209,4.209,0,0,0,.6-0.173,4.441,4.441,0,0,0,1.051-.56q0.153-.106.294-0.22t0.274-.235q0.133-.121.256-0.248t0.241-.257l0.4-.482,0.255-.326,1.04-1.3,0.515-.654,0.512-.651,0.508-.648,0.5-.645q0.505-.641,1-1.283t0.981-1.279q0.486-.637.966-1.27L134.1,97q0.464-.637.926-1.263t0.916-1.244q0.454-.619.9-1.235t0.875-1.234l0.431-.61,0.428-.605,0.425-.6,0.422-.6,0.335-.488,0.332-.485,0.33-.482,0.328-.479,0.368,1.267L141.48,90.2l0.354,1.226,0.346,1.2q0.378,1.311.75,2.561t0.732,2.435q0.36,1.185.706,2.3t0.673,2.168q0.329,1.046.64,2.021t0.6,1.874q0.291,0.9.563,1.721t0.522,1.562q0.25,0.74.475,1.4t0.424,1.227q0.2,0.57.371,1.052t0.317,0.873l0.25,0.689,0.181,0.5,0.11,0.3,0.037,0.1a0.372,0.372,0,0,0,.042.082,0.288,0.288,0,0,0,.057.061,0.224,0.224,0,0,0,.068.037,0.2,0.2,0,0,0,.075.01H149.8a0.205,0.205,0,0,0,.093-0.044,0.3,0.3,0,0,0,.071-0.086,0.38,0.38,0,0,0,.041-0.115,0.4,0.4,0,0,0,0-.129L150,115.116c-0.009-.075-0.023-0.187-0.041-0.334s-0.042-.33-0.069-0.548-0.06-.469-0.1-0.753-0.077-.6-0.124-0.945-0.1-.726-0.157-1.135-0.121-.85-0.19-1.319-0.143-.969-0.223-1.5-0.163-1.079-.254-1.659-0.188-1.187-.291-1.819-0.212-1.291-.326-1.973-0.234-1.39-.358-2.12-0.259-1.481-.4-2.256-0.279-1.573-.426-2.391-0.3-1.658-.462-2.517-0.327-1.738-.5-2.635q-0.131-.671-0.264-1.358l-0.269-1.389q-0.136-.7-0.275-1.417t-0.282-1.442c0-.021-0.01-0.05-0.018-0.085l-0.028-.119-0.034-.14-0.035-.147-0.039-.14c-0.013-.047-0.026-0.094-0.039-0.142s-0.028-.1-0.043-0.145-0.032-.1-0.05-0.15q-0.047-.146-0.1-0.3t-0.118-.3q-0.063-.153-0.135-0.307t-0.154-.307a5.956,5.956,0,0,0-.37-0.62,5.47,5.47,0,0,0-.478-0.6,4.626,4.626,0,0,0-.585-0.541,3.849,3.849,0,0,0-.693-0.429,3.179,3.179,0,0,0-.693-0.242,3.25,3.25,0,0,0-.349-0.059,3.315,3.315,0,0,0-.346-0.021" transform="translate(-25.386 -26.154)"/>
  </g>
</svg>
