<svg width="50" height="50" viewBox="0 0 50 50" fill="none" xmlns="http://www.w3.org/2000/svg">
<path fill-rule="evenodd" clip-rule="evenodd" d="M20.6659 8.81867C20.6659 8.83801 20.6035 8.85373 20.5272 8.85373C20.4508 8.85373 20.3884 8.86742 20.3884 8.88429C20.3884 8.90107 20.326 8.92492 20.2497 8.93719C20.1734 8.94947 20.1109 8.97517 20.1109 8.99416C20.1109 9.01324 20.0886 9.02878 20.0614 9.02878C20.0342 9.02878 19.9905 9.05033 19.9644 9.07665C19.9383 9.10306 19.8826 9.13565 19.8405 9.14908C19.7985 9.1625 19.7641 9.18829 19.7641 9.20622C19.7641 9.22415 19.7492 9.2389 19.7311 9.2389C19.6939 9.2389 19.4966 9.43798 19.4173 9.55553C19.3887 9.59793 19.3496 9.65101 19.3306 9.67344C19.2619 9.75417 19.2135 9.86271 19.1902 9.98778C19.1772 10.0577 19.1528 10.1236 19.1358 10.1341C19.0961 10.1589 19.0956 10.9611 19.1353 11.0667C19.1519 11.1109 19.1943 11.2417 19.2296 11.3572C19.2649 11.4727 19.3137 11.6066 19.3379 11.6548C19.3622 11.703 19.3822 11.7621 19.3824 11.7861C19.3824 11.8102 19.3948 11.8299 19.4097 11.8299C19.4245 11.8299 19.4546 11.8732 19.4765 11.9262C19.5415 12.0836 19.6722 12.2975 19.7514 12.3759C19.7921 12.4162 19.836 12.4831 19.8491 12.5246C19.8622 12.5661 19.8874 12.6001 19.9051 12.6001C19.923 12.6001 19.9375 12.6181 19.9375 12.6399C19.9375 12.6618 19.9747 12.7144 20.0202 12.757C20.0656 12.7995 20.1135 12.8683 20.1266 12.9098C20.1396 12.9513 20.1649 12.9853 20.1827 12.9853C20.2004 12.9853 20.215 13.0032 20.215 13.0251C20.215 13.047 20.2541 13.1013 20.3017 13.146C20.3494 13.1906 20.3884 13.2424 20.3884 13.2612C20.3884 13.28 20.408 13.3163 20.4318 13.3417C20.4557 13.3671 20.5143 13.447 20.5619 13.519C20.6095 13.5911 20.6603 13.6502 20.6745 13.6503C20.6889 13.6505 20.7006 13.6685 20.7006 13.6903C20.7006 13.7122 20.7396 13.7666 20.7873 13.8112C20.835 13.8558 20.874 13.902 20.874 13.9138C20.874 13.9396 21.0451 14.1788 21.099 14.2283C21.1199 14.2475 21.1728 14.3224 21.2165 14.3946C21.2601 14.4668 21.3103 14.5259 21.3278 14.5259C21.3453 14.5259 21.3596 14.5428 21.3596 14.5634C21.3596 14.584 21.3791 14.6215 21.4029 14.6466C21.4268 14.6718 21.4698 14.7282 21.4984 14.7719C21.527 14.8155 21.5933 14.8968 21.6457 14.9524C21.6982 15.008 21.7412 15.0649 21.7412 15.0789C21.7412 15.0929 21.7802 15.1468 21.8279 15.1987C21.8756 15.2507 21.9146 15.3088 21.9146 15.3279C21.9146 15.3471 21.9344 15.3754 21.9588 15.3907C21.9831 15.4061 22.0324 15.466 22.0683 15.5238C22.1042 15.5815 22.1546 15.6414 22.1801 15.6569C22.2058 15.6722 22.2268 15.7063 22.2268 15.7326C22.2268 15.759 22.239 15.7858 22.2541 15.7923C22.269 15.7986 22.3353 15.8744 22.4015 15.9606C22.4675 16.0468 22.541 16.1385 22.5649 16.1644C22.5887 16.1903 22.6085 16.2222 22.6088 16.2353C22.6091 16.2483 22.6521 16.3084 22.7042 16.3688C22.8838 16.5765 22.938 16.6455 23.0245 16.7758C23.0722 16.8476 23.123 16.9064 23.1372 16.9066C23.1516 16.9067 23.1632 16.9247 23.1632 16.9465C23.1632 16.9684 23.1986 17.0197 23.242 17.0604C23.2853 17.1011 23.3568 17.1935 23.4009 17.2657C23.445 17.3379 23.4954 17.397 23.5129 17.397C23.5304 17.397 23.5448 17.4138 23.5448 17.4345C23.5448 17.4552 23.5643 17.4939 23.5882 17.5208C23.6882 17.6335 23.7424 17.7027 23.8877 17.9033C23.972 18.0196 24.0619 18.1274 24.0877 18.1427C24.1134 18.1582 24.1344 18.1878 24.1344 18.2087C24.1344 18.2296 24.1618 18.2721 24.1951 18.3033C24.2285 18.3345 24.2941 18.4151 24.341 18.4825C24.449 18.6379 24.4772 18.6737 24.594 18.8054C24.6465 18.8646 24.6893 18.9271 24.6893 18.9444C24.6893 18.9617 24.7248 19.0107 24.768 19.0531C24.8112 19.0955 24.916 19.2247 25.001 19.3402C25.0859 19.4558 25.1749 19.574 25.1989 19.6029C25.4113 19.8587 25.4525 19.9143 25.4525 19.9459C25.4525 19.9659 25.4647 19.9874 25.4798 19.9938C25.4947 20.0002 25.5611 20.0757 25.6272 20.1615C25.6932 20.2473 25.7802 20.3497 25.8205 20.389C25.8608 20.4284 25.9045 20.4953 25.9177 20.5377C25.9308 20.58 25.972 20.6244 26.0092 20.6363C26.0464 20.6482 26.0768 20.68 26.0768 20.7069C26.0768 20.7338 26.1236 20.8042 26.1808 20.8633C26.2381 20.9224 26.2849 20.9833 26.2849 20.9987C26.2849 21.0142 26.3312 21.0726 26.388 21.1288C26.4447 21.185 26.4915 21.2449 26.4921 21.262C26.4926 21.279 26.5302 21.3278 26.5757 21.3703C26.6211 21.4128 26.669 21.4816 26.6821 21.5231C26.6951 21.5647 26.7203 21.5986 26.7382 21.5986C26.7559 21.5986 26.7704 21.6655 26.7703 21.7474C26.7702 21.8954 26.5937 22.1588 26.4948 22.1588C26.4747 22.1588 26.4583 22.1745 26.4583 22.1939C26.4583 22.2131 26.3881 22.2288 26.3022 22.2288C26.2164 22.2288 26.1462 22.2131 26.1462 22.1939C26.1462 22.1745 26.124 22.1588 26.0969 22.1588C26.0699 22.1588 25.9879 22.0984 25.9149 22.0245C25.7413 21.8491 25.4595 21.5312 25.4458 21.4954C25.4328 21.4612 25.1431 21.1259 24.9409 20.9109C24.8598 20.8247 24.7935 20.742 24.7935 20.7269C24.7935 20.712 24.7232 20.6278 24.6374 20.54C24.5515 20.4521 24.4813 20.3695 24.4813 20.3565C24.4813 20.3436 24.4032 20.255 24.3079 20.1597C24.2124 20.0644 24.1344 19.9711 24.1344 19.9522C24.1344 19.9334 24.072 19.8549 23.9957 19.7779C23.9194 19.7009 23.8569 19.626 23.8568 19.6116C23.8567 19.5885 23.7382 19.4564 23.6069 19.3331C23.534 19.2647 23.4754 19.1875 23.4754 19.1599C23.4754 19.1458 23.413 19.0754 23.3367 19.0036C23.2603 18.9318 23.1978 18.86 23.1977 18.844C23.1975 18.8281 23.1279 18.7441 23.0432 18.6575C22.9583 18.5708 22.8882 18.486 22.8873 18.4689C22.8865 18.4519 22.8507 18.4042 22.8077 18.3629C22.7648 18.3217 22.6522 18.1938 22.5574 18.0788C22.4626 17.9638 22.3495 17.8349 22.3059 17.7926C22.2624 17.7502 22.2268 17.7047 22.2268 17.6915C22.2268 17.6784 22.1916 17.6342 22.1487 17.5933C22.1058 17.5524 22.0267 17.4639 21.9729 17.3967C21.8061 17.188 21.6601 17.0118 21.5134 16.8422C21.4359 16.7526 21.3501 16.6513 21.3227 16.617C21.2953 16.5828 21.2066 16.4837 21.1255 16.3969C21.0444 16.31 20.9781 16.2267 20.9781 16.2119C20.9781 16.197 20.9 16.1031 20.8047 16.0033C20.7093 15.9034 20.631 15.8097 20.6306 15.7953C20.6304 15.7808 20.5601 15.7007 20.4745 15.6173C20.3891 15.5339 20.3191 15.4536 20.3191 15.4389C20.3191 15.4242 20.241 15.33 20.1457 15.2296C20.0503 15.1291 19.9722 15.0358 19.9722 15.0222C19.9722 15.0085 19.902 14.9233 19.8162 14.8329C19.7302 14.7425 19.6601 14.6582 19.6601 14.6456C19.6601 14.633 19.5995 14.5634 19.5256 14.491C19.4517 14.4186 19.3853 14.3422 19.3782 14.3213C19.3647 14.2817 19.1234 14.002 18.871 13.7333C18.7899 13.647 18.7235 13.5642 18.7235 13.5492C18.7235 13.5343 18.6533 13.4501 18.5675 13.3622C18.4816 13.2743 18.4114 13.1897 18.4114 13.1741C18.4114 13.1585 18.3333 13.0706 18.238 12.9788C18.1426 12.8869 18.0645 12.7982 18.0645 12.7817C18.0645 12.7651 18.006 12.6893 17.9344 12.6129C17.863 12.5367 17.7654 12.416 17.7177 12.3446C17.6699 12.2733 17.6044 12.2062 17.572 12.1956C17.5397 12.185 17.5034 12.1457 17.4916 12.1082C17.4798 12.0707 17.4557 12.0399 17.4378 12.0399C17.4201 12.0399 17.4055 12.0212 17.4055 11.9982C17.4055 11.9753 17.3431 11.8977 17.2668 11.8259C17.1905 11.754 17.128 11.681 17.128 11.6636C17.128 11.624 16.7418 11.2346 16.7025 11.2346C16.6868 11.2346 16.6394 11.1989 16.5975 11.1552C16.4747 11.0276 16.2944 10.9035 16.0528 10.7803C15.9288 10.7171 15.7997 10.6513 15.7659 10.6341C15.7321 10.6169 15.6341 10.5931 15.5481 10.5812C15.4622 10.5694 15.3836 10.5461 15.3734 10.5295C15.3488 10.4894 14.596 10.4905 14.596 10.5307C14.596 10.5479 14.5375 10.5695 14.4659 10.5785C14.3348 10.5951 14.1078 10.6736 14.0757 10.7134C14.0662 10.7253 14.0259 10.7452 13.986 10.7578C13.9461 10.7703 13.8651 10.8236 13.8059 10.8763C13.7467 10.9289 13.6505 11.0112 13.5921 11.0592C13.5338 11.1071 13.4861 11.1578 13.4861 11.1718C13.4861 11.1858 13.4393 11.2456 13.3821 11.3046C13.3248 11.3637 13.278 11.4339 13.278 11.4605C13.278 11.4871 13.2662 11.5141 13.252 11.5206C13.2077 11.5405 13.1045 11.7495 13.1045 11.8195C13.1045 11.856 13.0852 11.9054 13.0615 11.9293C13.0321 11.959 13.0185 12.1046 13.0185 12.3901C13.0185 12.6756 13.0321 12.8211 13.0615 12.8508C13.0852 12.8747 13.1045 12.9163 13.1045 12.9433C13.1045 12.9981 13.2096 13.2383 13.2455 13.2654C13.2582 13.275 13.2796 13.3184 13.293 13.3617C13.3064 13.405 13.3319 13.4405 13.3497 13.4405C13.3675 13.4405 13.3821 13.4633 13.3821 13.4912C13.3821 13.5192 13.4027 13.5546 13.4281 13.57C13.4535 13.5855 13.5036 13.6492 13.5397 13.7118C13.5756 13.7744 13.6173 13.8256 13.6323 13.8256C13.6473 13.8256 13.6595 13.8423 13.6595 13.8627C13.6595 13.9061 13.8651 14.1805 13.9283 14.2213C13.9522 14.2366 13.9717 14.2654 13.9717 14.285C13.9717 14.3047 13.9912 14.3417 14.015 14.3672C14.0389 14.3927 14.0974 14.4641 14.1451 14.5259C14.1928 14.5877 14.2484 14.6563 14.2687 14.6783C14.289 14.7004 14.3203 14.7443 14.3381 14.7759C14.3765 14.844 14.5742 15.0868 14.7087 15.2312C14.7612 15.2876 14.8041 15.3476 14.8041 15.3647C14.8041 15.3818 14.8509 15.4431 14.9082 15.5009C14.9654 15.5586 15.0123 15.6162 15.0123 15.6289C15.0123 15.6414 15.0551 15.6972 15.1076 15.7529C15.2364 15.8896 15.2897 15.955 15.2897 15.9762C15.2897 15.986 15.3365 16.0424 15.3938 16.1015C15.451 16.1606 15.4978 16.2206 15.4978 16.2349C15.4978 16.2492 15.5598 16.3235 15.6355 16.4001C15.7111 16.4766 15.7735 16.5531 15.7741 16.5702C15.7748 16.5872 15.8105 16.6345 15.8533 16.6752C15.8963 16.7159 15.9845 16.8176 16.0494 16.901C16.2014 17.0966 16.2915 17.2049 16.4026 17.3254C16.452 17.3789 16.5253 17.476 16.5655 17.5411C16.6058 17.6063 16.6786 17.6894 16.7273 17.7258C16.776 17.7622 16.8158 17.8066 16.8158 17.8245C16.8158 17.8425 16.8353 17.8769 16.8592 17.901C16.883 17.9251 16.965 18.0212 17.0413 18.1146C17.1176 18.2079 17.2191 18.3257 17.2668 18.3764C17.3145 18.427 17.3945 18.5228 17.4447 18.5892C17.4949 18.6556 17.5729 18.7518 17.6181 18.8029C17.6634 18.854 17.75 18.9564 17.8107 19.0306C18.0931 19.3749 18.1565 19.4488 18.2293 19.5186C18.2722 19.5597 18.3074 19.6073 18.3075 19.6243C18.3077 19.6673 18.5115 19.8829 18.5519 19.8829C18.57 19.8829 18.5848 19.9065 18.5848 19.9352C18.5848 19.964 18.655 20.0595 18.7409 20.1474C18.8267 20.2353 18.8969 20.3148 18.8969 20.3241C18.8969 20.3433 18.932 20.3863 19.1051 20.5794C19.1719 20.654 19.2761 20.7759 19.3369 20.8504C19.5985 21.1714 19.6819 21.2688 19.7554 21.3393C19.7983 21.3804 19.8335 21.4294 19.8335 21.4481C19.8335 21.4668 19.8924 21.5359 19.9645 21.6016C20.0366 21.6674 20.1295 21.7763 20.1708 21.8437C20.2121 21.9111 20.2858 21.996 20.3345 22.0324C20.3833 22.0688 20.4234 22.1161 20.4236 22.1374C20.424 22.1588 20.502 22.2527 20.5971 22.346C20.6921 22.4394 20.77 22.5299 20.77 22.5472C20.77 22.5645 20.8402 22.6505 20.926 22.7384C21.0119 22.8263 21.0821 22.9063 21.0821 22.9162C21.0821 22.9261 21.1016 22.9559 21.1255 22.9825C21.1494 23.0092 21.2313 23.1034 21.3076 23.192C21.3839 23.2806 21.5283 23.4409 21.6284 23.5484C21.7286 23.6558 21.8106 23.7534 21.8106 23.7654C21.8106 23.7773 21.8807 23.8632 21.9666 23.9562C22.0525 24.0493 22.1226 24.1341 22.1226 24.1448C22.1226 24.1554 22.1578 24.1975 22.2007 24.2385C22.2437 24.2794 22.3481 24.3993 22.4329 24.5051C22.5176 24.6108 22.6308 24.7397 22.6844 24.7916C22.7379 24.8435 22.7817 24.8948 22.7817 24.9057C22.7817 24.9279 22.9229 25.0937 23.0678 25.2421C23.1203 25.2957 23.1632 25.3487 23.1632 25.3598C23.1632 25.371 23.2217 25.4401 23.2933 25.5136C23.4664 25.6913 23.6488 25.9272 23.6488 25.9732C23.6488 25.9936 23.6645 26.0103 23.6835 26.0103C23.7026 26.0103 23.7182 26.0654 23.7182 26.1328C23.7182 26.2002 23.7043 26.2554 23.6873 26.2554C23.6702 26.2554 23.6469 26.2908 23.6352 26.3342C23.5915 26.497 23.3301 26.6033 23.0867 26.5572C22.9655 26.5342 22.8866 26.4688 22.6603 26.203C22.584 26.1135 22.4318 25.9454 22.3221 25.8296C22.2124 25.7138 22.1226 25.6074 22.1226 25.5932C22.1226 25.5789 22.0135 25.4558 21.8799 25.3197C21.7463 25.1835 21.6371 25.0625 21.6371 25.0506C21.6371 25.0387 21.563 24.9536 21.4723 24.8614C21.3818 24.7692 21.2396 24.6158 21.1565 24.5205C20.9239 24.2538 20.5388 23.8287 20.2324 23.5007C19.8538 23.0955 19.8681 23.1118 19.8681 23.0879C19.8681 23.0761 19.7199 22.9168 19.5386 22.7339C19.3574 22.5509 19.2091 22.3894 19.2091 22.3749C19.2091 22.3604 19.0608 22.196 18.8796 22.0095C18.6984 21.8228 18.5501 21.6598 18.5501 21.6471C18.5501 21.6344 18.4096 21.4831 18.238 21.3109C18.0663 21.1388 17.9258 20.9856 17.9258 20.9707C17.9258 20.9557 17.7814 20.7925 17.6049 20.6079C17.3478 20.3389 16.8681 19.8264 16.5817 19.515C16.5579 19.489 16.5384 19.4597 16.5384 19.4497C16.5384 19.4398 16.3862 19.2732 16.2002 19.0793C16.0142 18.8855 15.8074 18.6623 15.7406 18.5832C15.56 18.3693 15.1462 17.9572 15.112 17.9572C15.0956 17.9572 15.0374 17.9099 14.9828 17.8522C14.9281 17.7944 14.8722 17.7472 14.8586 17.7472C14.845 17.7472 14.8121 17.7275 14.7855 17.7033C14.6674 17.5964 14.6313 17.5735 14.547 17.5521C14.4976 17.5397 14.4573 17.5176 14.4573 17.5032C14.4573 17.4661 14.1389 17.3039 14.01 17.2753C13.9508 17.2621 13.9023 17.2384 13.9023 17.2226C13.9023 17.2067 13.8087 17.1828 13.6942 17.1694C13.5797 17.156 13.4861 17.1308 13.4861 17.1134C13.4861 17.0731 12.5946 17.0717 12.57 17.112C12.5598 17.1286 12.482 17.1517 12.3972 17.1634C12.2635 17.182 12.1028 17.2539 11.7809 17.4394C11.5235 17.5878 11.0928 18.1179 11.0928 18.2864C11.0928 18.3172 11.0788 18.3424 11.0618 18.3424C10.9926 18.3424 10.9589 18.8861 11.0069 19.2264C11.0198 19.3179 11.0444 19.3928 11.0616 19.3928C11.0788 19.3928 11.0929 19.4361 11.093 19.489C11.0932 19.542 11.1151 19.6276 11.1418 19.6793C11.1685 19.7309 11.2009 19.8216 11.2137 19.8806C11.2266 19.9396 11.2514 19.988 11.269 19.988C11.2865 19.988 11.301 20.0157 11.301 20.0496C11.301 20.0835 11.34 20.1537 11.3877 20.2057C11.4354 20.2576 11.4744 20.3154 11.4744 20.3341C11.4744 20.3528 11.4948 20.3889 11.52 20.4144C11.5451 20.4398 11.5802 20.4872 11.5982 20.5197C11.6399 20.5953 11.8362 20.8313 12.0033 21.0068C12.0748 21.082 12.1334 21.1582 12.1334 21.1763C12.1334 21.1943 12.227 21.3031 12.3415 21.418C12.456 21.5328 12.5496 21.6378 12.5496 21.6513C12.5496 21.6648 12.6589 21.7862 12.7924 21.921C12.9259 22.0557 13.0352 22.1782 13.0352 22.1932C13.0352 22.2081 13.1757 22.365 13.3473 22.542C13.519 22.719 13.6598 22.8746 13.6601 22.8877C13.6604 22.9009 13.7267 22.9765 13.8075 23.0558C13.8882 23.1351 13.9947 23.2454 14.0441 23.3009C14.0935 23.3564 14.1793 23.4431 14.2349 23.4935C14.2904 23.5439 14.3749 23.6367 14.4225 23.6996C14.4703 23.7624 14.7083 24.0181 14.9515 24.2677C15.1948 24.5172 15.3938 24.732 15.3938 24.7451C15.3938 24.7581 15.6669 25.0479 16.0007 25.3892C16.3346 25.7303 16.6078 26.0191 16.6078 26.0308C16.6078 26.0426 16.9355 26.3833 17.3362 26.788C17.7368 27.1928 18.0645 27.5362 18.0645 27.5512C18.0645 27.5662 18.5484 28.069 19.1397 28.6685C19.7311 29.268 20.215 29.77 20.215 29.7839C20.215 29.798 20.3672 29.9627 20.5532 30.15C20.9832 30.5832 21.0821 30.7261 21.0821 30.9146C21.0821 31.0068 20.9829 31.1572 20.9221 31.1572C20.8956 31.1572 20.874 31.1731 20.874 31.1923C20.874 31.2116 20.835 31.2273 20.7873 31.2273C20.7396 31.2273 20.7006 31.2116 20.7006 31.1923C20.7006 31.1731 20.6654 31.1572 20.6226 31.1571C20.5052 31.1567 20.4207 31.0853 19.7949 30.457C19.4783 30.1392 19.1684 29.8398 19.1061 29.7917C19.0439 29.7436 18.9753 29.684 18.9536 29.6593C18.8782 29.5732 18.7323 29.4234 18.6329 29.33C18.5779 29.2782 18.5156 29.2152 18.4946 29.19C18.4427 29.1274 18.2422 28.9514 18.2231 28.9514C18.2145 28.9514 18.0603 28.8034 17.8801 28.6225C17.7 28.4416 17.5196 28.283 17.4791 28.27C17.4386 28.257 17.4055 28.2357 17.4055 28.2225C17.4055 28.2093 17.3625 28.1555 17.3101 28.1027C17.055 27.8462 16.8886 27.6909 16.8685 27.6909C16.8563 27.6909 16.7357 27.5807 16.6005 27.4458C16.4654 27.311 16.3425 27.2007 16.3274 27.2007C16.3123 27.2007 16.1845 27.0825 16.0433 26.9381C15.902 26.7937 15.7748 26.6756 15.7605 26.6756C15.7462 26.6756 15.6386 26.581 15.5213 26.4654C15.404 26.3499 15.2953 26.2554 15.2798 26.2554C15.2644 26.2554 15.2172 26.2199 15.1751 26.1766C15.0972 26.0965 15.0021 26.0288 14.9082 25.9864C14.8795 25.9734 14.8484 25.953 14.8388 25.9409C14.8019 25.8942 14.5211 25.7652 14.4562 25.7652C14.4186 25.7652 14.3879 25.7518 14.3879 25.7354C14.3879 25.6682 13.8651 25.5799 13.5953 25.6017C13.3368 25.6225 13.1045 25.6856 13.1045 25.7351C13.1045 25.7486 13.0577 25.77 13.0005 25.7827C12.9433 25.7953 12.8964 25.8203 12.8964 25.838C12.8964 25.8558 12.8727 25.8702 12.8437 25.8702C12.7747 25.8702 12.2845 26.3705 12.2527 26.4735C12.2392 26.5172 12.2134 26.5625 12.1954 26.5742C12.1775 26.5859 12.1541 26.6607 12.1435 26.7406C12.1329 26.8203 12.1107 26.8856 12.0941 26.8856C12.0538 26.8856 12.0553 27.3662 12.0957 27.3914C12.1131 27.4023 12.1378 27.4742 12.1508 27.5511C12.1636 27.628 12.1872 27.6909 12.203 27.6909C12.2189 27.6909 12.2422 27.7382 12.2547 27.796C12.2673 27.8538 12.2903 27.901 12.3058 27.901C12.3213 27.901 12.3438 27.9404 12.3557 27.9885C12.3677 28.0367 12.3928 28.0761 12.4115 28.0761C12.4302 28.0761 12.4456 28.0997 12.4456 28.1286C12.4456 28.1575 12.4611 28.1811 12.4802 28.1811C12.4993 28.1811 12.5149 28.2049 12.5149 28.234C12.5149 28.263 12.5461 28.3138 12.5843 28.3468C12.6225 28.3798 12.6536 28.4197 12.6536 28.4355C12.6536 28.4513 12.6926 28.5067 12.7404 28.5587C12.7881 28.6106 12.8271 28.6658 12.8271 28.6813C12.8271 28.697 12.8661 28.7462 12.9138 28.7908C12.9615 28.8354 13.0005 28.8839 13.0005 28.8987C13.0005 28.9134 13.0513 28.9839 13.1132 29.0555C13.1752 29.1269 13.2962 29.2688 13.3821 29.3708C13.4679 29.4727 13.5964 29.621 13.6677 29.7002C13.739 29.7794 13.7976 29.855 13.7978 29.8682C13.798 29.8813 13.8286 29.9018 13.8658 29.9137C13.903 29.9256 13.9439 29.9686 13.9566 30.0092C13.9809 30.0862 16.8799 33.0259 17.0224 33.118C17.0671 33.1469 17.1443 33.2164 17.1939 33.2725C17.2435 33.3285 17.3292 33.4152 17.3844 33.4651C17.4825 33.5538 17.523 33.5953 17.5998 33.6858C17.6545 33.7502 17.8528 33.9233 17.872 33.9233C17.8808 33.9233 18.0217 34.0573 18.1849 34.2209C18.3482 34.3846 18.496 34.5186 18.5134 34.5186C18.5307 34.5186 18.6693 34.6446 18.8213 34.7986C18.9733 34.9527 19.1062 35.0788 19.1167 35.0788C19.1272 35.0788 19.2408 35.1812 19.3691 35.3063C19.4975 35.4316 19.6138 35.5339 19.6277 35.5339C19.6415 35.5339 19.7543 35.6324 19.8784 35.7528C20.1212 35.9883 20.4311 36.2678 20.5583 36.366C20.6016 36.3994 20.7219 36.5095 20.8256 36.6106C20.9294 36.7117 21.023 36.7944 21.0336 36.7944C21.0442 36.7944 21.1215 36.8614 21.2052 36.9433C21.3867 37.1207 21.4547 37.1795 21.478 37.1795C21.4875 37.1795 21.5819 37.2663 21.6876 37.3721C21.7934 37.478 21.8883 37.5647 21.8987 37.5647C21.909 37.5647 21.9519 37.5974 21.994 37.6373C22.0362 37.6772 22.1148 37.7442 22.1688 37.7861C22.2227 37.8281 22.3341 37.9253 22.4165 38.0024C22.4988 38.0794 22.6175 38.1818 22.6803 38.2299C22.7432 38.2781 22.8439 38.3687 22.9043 38.4313C22.9648 38.4939 23.0244 38.5451 23.0368 38.5451C23.0492 38.5451 23.1404 38.6238 23.2393 38.7201C23.3383 38.8165 23.4313 38.8952 23.446 38.8952C23.4607 38.8952 23.5345 38.9582 23.6101 39.0352C23.6856 39.1123 23.7577 39.1753 23.7702 39.1753C23.7827 39.1753 23.8567 39.2384 23.9345 39.3154C24.0124 39.3924 24.0881 39.4555 24.1028 39.4555C24.1175 39.4555 24.1873 39.5105 24.2579 39.5777C24.3285 39.6449 24.4319 39.7355 24.4877 39.7791C24.5435 39.8225 24.6402 39.9054 24.7026 39.9631C24.8887 40.1352 25.1078 40.3111 25.1783 40.3449C25.2147 40.3623 25.2443 40.3898 25.2443 40.4062C25.2443 40.4225 25.2678 40.4358 25.2964 40.4358C25.325 40.4358 25.3485 40.4476 25.3486 40.4621C25.3488 40.4766 25.4073 40.5276 25.4787 40.5756C25.5501 40.6235 25.6163 40.6708 25.6259 40.6806C25.6601 40.7157 25.7831 40.7883 25.8427 40.8086C25.876 40.8199 25.9034 40.8418 25.9034 40.8573C25.9034 40.8728 25.9503 40.8958 26.0077 40.9085C26.0651 40.9213 26.1042 40.9445 26.0947 40.9601C26.0851 40.9757 26.12 40.9993 26.1721 41.0126C26.2242 41.0258 26.2748 41.0472 26.2845 41.0603C26.3116 41.0964 26.7516 41.3111 26.7985 41.3111C26.8213 41.3111 26.8398 41.3262 26.8398 41.3446C26.8398 41.3629 26.8945 41.3884 26.9613 41.401C27.028 41.4136 27.0826 41.438 27.0826 41.4551C27.0826 41.4722 27.1042 41.4862 27.1308 41.4862C27.1572 41.4862 27.2235 41.5097 27.2781 41.5385C27.3328 41.5673 27.4126 41.5909 27.4555 41.591C27.4984 41.5912 27.5336 41.606 27.5336 41.6241C27.5336 41.6422 27.6077 41.668 27.6983 41.6815C27.789 41.6949 27.8721 41.72 27.883 41.7371C27.894 41.7542 27.9837 41.7778 28.0824 41.7896C28.1812 41.8015 28.262 41.8247 28.262 41.8412C28.262 41.8578 28.3243 41.8713 28.4007 41.8713C28.477 41.8713 28.5394 41.8847 28.5394 41.9011C28.5394 42.0389 31.6355 42.0403 31.7808 41.9026C31.7989 41.8855 31.873 41.8713 31.9455 41.8713C32.018 41.8713 32.0773 41.8572 32.0773 41.8398C32.0773 41.8224 32.171 41.7972 32.2854 41.7838C32.3999 41.7704 32.4936 41.7474 32.4936 41.7327C32.4936 41.7181 32.5743 41.6964 32.673 41.6846C32.7717 41.6728 32.8615 41.6491 32.8724 41.6321C32.8834 41.6149 32.9662 41.59 33.0563 41.5766C33.1465 41.5632 33.2294 41.5374 33.2405 41.5192C33.2516 41.5011 33.291 41.4862 33.328 41.4862C33.3651 41.4862 33.3954 41.4714 33.3954 41.4533C33.3954 41.4353 33.4656 41.4098 33.5514 41.3969C33.6373 41.3839 33.7075 41.3605 33.7075 41.3449C33.7075 41.3294 33.7583 41.3057 33.8202 41.2924C33.8823 41.279 33.9486 41.2564 33.9677 41.2423C33.9867 41.2281 34.0843 41.1874 34.1845 41.1519C34.2846 41.1164 34.3665 41.0758 34.3665 41.0619C34.3665 41.048 34.4133 41.0262 34.4706 41.0135C34.5278 41.0008 34.5747 40.9759 34.5747 40.9583C34.5747 40.9405 34.5929 40.926 34.6153 40.926C34.6597 40.926 35.1016 40.7166 35.1296 40.6823C35.1391 40.6706 35.2289 40.6224 35.329 40.5751C35.4292 40.528 35.5111 40.4773 35.5111 40.4626C35.5111 40.4478 35.5346 40.4358 35.5632 40.4358C35.5918 40.4358 35.6152 40.42 35.6152 40.4008C35.6152 40.3815 35.6375 40.3658 35.6648 40.3658C35.692 40.3658 35.7352 40.3461 35.7607 40.322C35.7863 40.298 35.8821 40.2389 35.9736 40.1907C36.0651 40.1426 36.1664 40.0788 36.1985 40.0489C36.2306 40.0191 36.2842 39.9841 36.3175 39.9712C36.351 39.9584 36.3783 39.9333 36.3783 39.9155C36.3783 39.8977 36.4173 39.8733 36.465 39.8612C36.5127 39.8491 36.5517 39.8238 36.5517 39.8049C36.5517 39.786 36.574 39.7705 36.6012 39.7705C36.6284 39.7705 36.6814 39.7311 36.7189 39.683C36.7564 39.6349 36.8033 39.5955 36.823 39.5955C36.8428 39.5955 36.88 39.5758 36.9056 39.5517C36.9313 39.5276 37.0221 39.4536 37.1075 39.3872C37.1929 39.3208 37.2752 39.246 37.2905 39.2209C37.3057 39.1958 37.3354 39.1753 37.3565 39.1753C37.3776 39.1753 37.4943 39.073 37.6159 38.9477C37.7376 38.8226 37.8482 38.7201 37.8621 38.72C37.8977 38.7198 38.1123 38.5141 38.2274 38.3697C38.2811 38.3025 38.4015 38.1608 38.4951 38.0549C38.8702 37.63 38.91 37.5806 38.9101 37.5385C38.9102 37.5143 38.9246 37.4946 38.9422 37.4946C38.9597 37.4946 39.0095 37.4356 39.0529 37.3634C39.0964 37.2912 39.1523 37.2194 39.1772 37.2041C39.2021 37.1887 39.2224 37.1604 39.2224 37.1414C39.2224 37.1222 39.2498 37.0768 39.2831 37.0403C39.3166 37.0039 39.3829 36.8985 39.4306 36.8061C39.4782 36.7137 39.5368 36.617 39.5607 36.5912C39.5845 36.5654 39.604 36.5218 39.604 36.4943C39.604 36.4668 39.6196 36.4442 39.6387 36.4442C39.6578 36.4442 39.6733 36.4207 39.6733 36.3918C39.6733 36.3629 39.6887 36.3392 39.7074 36.3392C39.7261 36.3392 39.7512 36.2998 39.7632 36.2517C39.7751 36.2036 39.7976 36.1642 39.8131 36.1642C39.8286 36.1642 39.8516 36.1169 39.8641 36.0592C39.8767 36.0014 39.9001 35.9541 39.9161 35.9541C39.9322 35.9541 39.9556 35.9068 39.9682 35.849C39.9807 35.7913 40.0028 35.744 40.0173 35.744C40.0318 35.744 40.0728 35.6574 40.1085 35.5514C40.1441 35.4455 40.1855 35.3589 40.2004 35.3589C40.2153 35.3589 40.2375 35.2958 40.2497 35.2188C40.2619 35.1418 40.2842 35.0788 40.2994 35.0788C40.3145 35.0788 40.3368 35.0276 40.349 34.965C40.3712 34.8507 40.3825 34.8189 40.4849 34.5833C40.5155 34.513 40.5405 34.4224 40.5405 34.3819C40.5405 34.3415 40.5547 34.3085 40.5719 34.3085C40.5892 34.3085 40.6141 34.2297 40.6272 34.1334C40.6403 34.0371 40.6652 33.9584 40.6825 33.9584C40.6997 33.9584 40.7139 33.912 40.7139 33.8554C40.7139 33.7988 40.7284 33.7433 40.7462 33.7323C40.7639 33.7212 40.7892 33.6218 40.8024 33.5114C40.8157 33.401 40.8385 33.2948 40.853 33.2755C40.8676 33.2563 40.8909 33.1381 40.9047 33.013C40.9186 32.8878 40.9398 32.7696 40.952 32.7504C40.9641 32.7311 40.9942 32.542 41.019 32.3302C41.0437 32.1184 41.0803 31.8032 41.1005 31.6299C41.1677 31.0512 41.1373 28.6363 41.0627 28.6363C41.0475 28.6363 41.0238 28.4472 41.0102 28.2161C40.9965 27.985 40.9732 27.796 40.9584 27.796C40.9437 27.796 40.9207 27.6743 40.9074 27.5256C40.894 27.3769 40.8696 27.2389 40.8532 27.2189C40.8367 27.1989 40.8125 27.0882 40.7994 26.9728C40.7863 26.8575 40.7617 26.7578 40.7447 26.7514C40.7277 26.745 40.7139 26.6702 40.7139 26.5851C40.7139 26.5001 40.6998 26.4305 40.6826 26.4305C40.6653 26.4305 40.6401 26.265 40.6264 26.0628C40.6128 25.8606 40.5898 25.6952 40.5756 25.6952C40.5447 25.6952 40.4734 24.9084 40.4494 24.3034C40.4401 24.0675 40.4177 23.8744 40.3997 23.8744C40.3801 23.8744 40.3671 23.4978 40.3671 22.9291C40.3671 22.3222 40.3795 21.9838 40.4017 21.9838C40.4227 21.9838 40.4365 21.8327 40.4365 21.6007C40.4365 21.39 40.45 21.2091 40.4667 21.1988C40.4832 21.1884 40.508 20.9905 40.5217 20.759C40.5353 20.5275 40.5588 20.3381 40.5737 20.3381C40.5887 20.3381 40.6116 20.2282 40.6247 20.0939C40.6379 19.9594 40.6632 19.8404 40.6813 19.8292C40.6992 19.8179 40.7139 19.765 40.7139 19.7117C40.7139 19.6583 40.7256 19.6027 40.7399 19.5882C40.7542 19.5738 40.7671 19.5515 40.7686 19.5387C40.781 19.4314 40.8322 19.2285 40.8541 19.2002C40.8689 19.181 40.892 19.1061 40.9054 19.0339C40.9188 18.9617 40.9422 18.9026 40.9573 18.9026C40.9724 18.9026 40.9956 18.8238 41.0088 18.7275C41.0219 18.6313 41.0429 18.5525 41.0556 18.5525C41.083 18.5525 41.1519 18.3975 41.184 18.2636C41.1966 18.2106 41.2209 18.1673 41.2379 18.1673C41.255 18.1673 41.2689 18.1357 41.2689 18.0972C41.2689 18.0586 41.3001 17.9682 41.3383 17.8963C41.3764 17.8244 41.4076 17.7369 41.4076 17.7018C41.4076 17.6667 41.4232 17.6477 41.4423 17.6596C41.462 17.6719 41.477 17.6424 41.477 17.5916C41.477 17.5423 41.4914 17.5021 41.5089 17.5021C41.5265 17.5021 41.5511 17.4547 41.5637 17.397C41.5762 17.3392 41.5997 17.2919 41.6157 17.2919C41.6318 17.2919 41.6552 17.2447 41.6678 17.1869C41.6804 17.1292 41.7037 17.0818 41.7198 17.0818C41.7358 17.0818 41.76 17.0307 41.7734 16.9681C41.7868 16.9055 41.8084 16.8464 41.8213 16.8367C42.0021 16.7019 42.0709 15.5506 41.908 15.3862C41.8808 15.3587 41.8585 15.3193 41.8585 15.2987C41.8585 15.278 41.8468 15.2611 41.8325 15.2611C41.8182 15.261 41.7753 15.2138 41.7371 15.1562C41.699 15.0985 41.6553 15.0512 41.6401 15.0512C41.6249 15.0511 41.5762 15.0117 41.5321 14.9635C41.4879 14.9154 41.434 14.876 41.4123 14.876C41.3907 14.876 41.3729 14.861 41.3729 14.8426C41.3729 14.8242 41.3183 14.7988 41.2515 14.7862C41.1848 14.7736 41.1301 14.7501 41.1301 14.7343C41.1301 14.7183 41.0599 14.6946 40.974 14.6816C40.8882 14.6686 40.8179 14.644 40.8179 14.6269C40.8179 14.6099 40.7821 14.5959 40.7382 14.5959C40.6943 14.5959 40.6389 14.5762 40.615 14.5521C40.5532 14.4898 39.2444 14.4898 39.1825 14.5521C39.1587 14.5762 39.0877 14.5959 39.0248 14.5959C38.9618 14.5959 38.9103 14.6099 38.9103 14.6269C38.9103 14.644 38.8401 14.6686 38.7542 14.6816C38.6683 14.6946 38.5981 14.7188 38.5981 14.7353C38.5981 14.7519 38.5519 14.7757 38.4955 14.7882C38.4391 14.8007 38.3142 14.8492 38.2182 14.896C38.1221 14.9428 38.0278 14.9811 38.0086 14.9811C37.9895 14.9811 37.9738 14.9968 37.9738 15.0161C37.9738 15.0353 37.9532 15.0511 37.9282 15.0511C37.8653 15.0511 37.4376 15.3445 37.2913 15.4879C37.2252 15.5526 37.1201 15.641 37.0577 15.6841C36.9954 15.7272 36.9069 15.8191 36.8612 15.8883C36.8155 15.9574 36.7526 16.0377 36.7213 16.0668C36.6323 16.1494 36.4129 16.4484 36.4129 16.487C36.4129 16.5061 36.3973 16.5217 36.3783 16.5217C36.3592 16.5217 36.3436 16.5453 36.3436 16.5742C36.3436 16.603 36.3297 16.6267 36.3126 16.6267C36.2957 16.6267 36.272 16.6661 36.26 16.7142C36.248 16.7624 36.2229 16.8018 36.2042 16.8018C36.1854 16.8018 36.1701 16.8215 36.17 16.8456C36.1699 16.8696 36.1321 16.9645 36.0859 17.0564C36.0397 17.1482 35.9911 17.2744 35.978 17.3365C35.9648 17.3986 35.9419 17.4652 35.9272 17.4845C35.9125 17.5037 35.889 17.6062 35.875 17.7121C35.861 17.818 35.8345 17.9143 35.816 17.9262C35.7674 17.9573 35.7714 19.2295 35.8202 19.2458C35.8672 19.2617 35.8712 19.7197 35.8249 19.8046C35.8067 19.8381 35.782 19.9875 35.7699 20.1368C35.7579 20.286 35.7337 20.4081 35.7163 20.4081C35.6989 20.4081 35.6845 20.4399 35.6845 20.4787C35.6845 20.5174 35.6702 20.5765 35.6527 20.6099C35.5489 20.8078 35.4765 20.9772 35.4765 21.0219C35.4765 21.0503 35.4608 21.0734 35.4417 21.0734C35.4227 21.0734 35.4071 21.0898 35.4071 21.1097C35.4071 21.1496 34.9055 21.6686 34.8669 21.6686C34.8536 21.6686 34.8083 21.7062 34.7661 21.7521C34.724 21.7979 34.6559 21.8463 34.6148 21.8595C34.5736 21.8726 34.5399 21.8968 34.5399 21.9133C34.5399 21.9297 34.4931 21.9535 34.4359 21.9663C34.3787 21.9789 34.3319 22.0031 34.3319 22.02C34.3319 22.0368 34.277 22.0609 34.2101 22.0737C34.1431 22.0864 34.0797 22.1107 34.0692 22.1278C34.0588 22.1448 34.0122 22.1588 33.9656 22.1588C33.919 22.1588 33.8809 22.1745 33.8809 22.1939C33.8809 22.215 33.7364 22.2288 33.5167 22.2288C33.2971 22.2288 33.1526 22.215 33.1526 22.1939C33.1526 22.1745 33.1127 22.1588 33.0639 22.1588C33.0152 22.1588 32.8912 22.1116 32.7883 22.0538C32.6855 21.996 32.5788 21.9488 32.5511 21.9488C32.5236 21.9488 32.492 21.9251 32.481 21.8962C32.47 21.8673 32.4453 21.8437 32.426 21.8437C32.3818 21.8437 31.9039 21.3711 31.9039 21.3273C31.9039 21.3095 31.8415 21.2384 31.7652 21.1693C31.6888 21.1001 31.6264 21.0266 31.6264 21.0059C31.6264 20.9853 31.564 20.9053 31.4877 20.8283C31.4114 20.7513 31.3489 20.6764 31.3488 20.662C31.3486 20.6475 31.3018 20.5854 31.2447 20.5238C31.1876 20.4623 31.1408 20.402 31.1408 20.3898C31.1408 20.3777 31.094 20.3205 31.0367 20.2627C30.9795 20.205 30.9327 20.1464 30.9327 20.1326C30.9327 20.1188 30.8781 20.0492 30.8113 19.9777C30.7446 19.9063 30.6899 19.8352 30.6899 19.82C30.6899 19.8046 30.6438 19.7535 30.5874 19.7062C30.5309 19.659 30.4841 19.6014 30.4832 19.5781C30.4824 19.555 30.4428 19.4966 30.395 19.4485C30.3474 19.4004 30.3083 19.3484 30.3083 19.3331C30.3082 19.3178 30.2613 19.2549 30.2041 19.1933C30.147 19.1318 30.1003 19.0692 30.1003 19.0544C30.1003 19.0395 30.0639 18.9953 30.0194 18.9562C29.975 18.9171 29.9242 18.8597 29.9067 18.8286C29.8702 18.7637 29.6919 18.5319 29.6147 18.4489C29.5861 18.418 29.5236 18.3343 29.4759 18.2628C29.4282 18.1912 29.3775 18.1327 29.3632 18.1325C29.3489 18.1324 29.3372 18.1144 29.3372 18.0925C29.3372 18.0707 29.3021 18.0193 29.2591 17.9784C29.2162 17.9375 29.1421 17.8452 29.0944 17.7733C29.0467 17.7014 28.9959 17.6425 28.9817 17.6423C28.9673 17.6422 28.9557 17.6185 28.9557 17.5896C28.9557 17.5607 28.944 17.5369 28.9296 17.5369C28.9154 17.5368 28.8417 17.4501 28.7659 17.3443C28.6902 17.2385 28.616 17.1519 28.6012 17.1519C28.5863 17.1519 28.5741 17.1296 28.5741 17.1023C28.5741 17.075 28.5618 17.0475 28.5468 17.041C28.5318 17.0346 28.4655 16.9584 28.3994 16.8718C28.3334 16.7852 28.2707 16.7064 28.2603 16.6967C28.2498 16.6871 28.2034 16.6241 28.1571 16.5567C28.0479 16.3974 28.0207 16.3625 27.9064 16.2336C27.854 16.1745 27.811 16.1122 27.811 16.0954C27.811 16.0784 27.7652 16.0138 27.7091 15.9518C27.4827 15.7012 27.4295 15.6346 27.4295 15.6015C27.4295 15.5824 27.3905 15.5303 27.3428 15.4857C27.2951 15.4411 27.2561 15.3907 27.2561 15.3737C27.2561 15.3567 27.2097 15.2969 27.153 15.2408C27.0963 15.1846 27.0495 15.1189 27.049 15.0949C27.0484 15.0708 27.0363 15.051 27.0219 15.0509C27.0077 15.0507 26.9572 14.9916 26.9097 14.9195C26.8622 14.8475 26.7959 14.763 26.7623 14.7319C26.7286 14.7007 26.7011 14.6613 26.701 14.6443C26.7009 14.6273 26.654 14.5631 26.5969 14.5015C26.5397 14.44 26.493 14.3802 26.493 14.3686C26.493 14.3569 26.454 14.311 26.4063 14.2663C26.3586 14.2217 26.3196 14.1708 26.3196 14.153C26.3196 14.1194 26.1962 13.9611 26.0334 13.7859C25.981 13.7293 25.9381 13.6714 25.9381 13.6569C25.9381 13.6295 25.8197 13.4682 25.7295 13.3726C25.7006 13.342 25.6384 13.262 25.5912 13.1949C25.491 13.0522 25.4296 12.9742 25.3224 12.8531C25.2795 12.8046 25.2443 12.7494 25.2443 12.7303C25.2443 12.7113 25.2075 12.6613 25.1624 12.619C25.1174 12.5769 25.0514 12.4964 25.0159 12.44C24.9803 12.3837 24.9313 12.3249 24.907 12.3096C24.8827 12.2942 24.8628 12.2587 24.8628 12.2308C24.8628 12.2029 24.8511 12.1796 24.8368 12.1792C24.8225 12.1788 24.7562 12.1003 24.6893 12.0049C24.6226 11.9095 24.5563 11.831 24.542 11.8307C24.5277 11.8302 24.5159 11.8132 24.5159 11.7928C24.5159 11.7508 24.3305 11.5017 24.2124 11.3851C24.1696 11.3427 24.1344 11.2938 24.1344 11.2765C24.1344 11.2591 24.0993 11.2052 24.0563 11.1567C23.9456 11.0316 23.8866 10.9545 23.7876 10.8055C23.7399 10.7336 23.6891 10.6748 23.6749 10.6747C23.6605 10.6746 23.6488 10.6574 23.6488 10.6367C23.6488 10.616 23.602 10.5517 23.5448 10.4939C23.4875 10.4362 23.4407 10.3769 23.4407 10.3622C23.4407 10.3475 23.3783 10.2711 23.302 10.1926C23.2257 10.114 23.1632 10.0384 23.1632 10.0246C23.1632 9.9921 22.8068 9.62584 22.7742 9.62486C22.7606 9.62442 22.7043 9.5807 22.6493 9.52771C22.5942 9.47481 22.5137 9.40777 22.4703 9.37889C22.4271 9.35001 22.3713 9.30673 22.3464 9.28262C22.3214 9.2586 22.2843 9.2389 22.2639 9.2389C22.2435 9.2389 22.2268 9.22344 22.2268 9.20454C22.2268 9.18564 22.1877 9.16029 22.1401 9.14819C22.0924 9.13609 22.0534 9.11216 22.0534 9.09502C22.0534 9.07789 22.0338 9.06367 22.01 9.06358C21.9861 9.06349 21.9216 9.03965 21.8666 9.01077C21.8116 8.9818 21.7063 8.94832 21.6325 8.93649C21.5588 8.92456 21.4984 8.90107 21.4984 8.88429C21.4984 8.86742 21.4369 8.85373 21.3616 8.85373C21.2865 8.85373 21.2153 8.83801 21.2035 8.81867C21.1917 8.79941 21.066 8.78369 20.924 8.78369C20.7751 8.78369 20.6659 8.79853 20.6659 8.81867Z" fill="#FCCC2B"/>
<path fill-rule="evenodd" clip-rule="evenodd" d="M27.7607 7.14696C27.7273 7.22874 27.6859 7.32307 27.6688 7.35654C27.5863 7.51773 27.6538 7.67476 27.8243 7.71795C27.8742 7.73067 27.9152 7.75505 27.9152 7.77218C27.9152 7.78941 27.9307 7.80345 27.9496 7.80345C28.0056 7.80345 28.262 7.92286 28.262 7.949C28.262 7.96216 28.3088 7.98336 28.366 7.99599C28.4232 8.00871 28.4701 8.03326 28.4701 8.05066C28.4701 8.06797 28.5091 8.09208 28.5569 8.10418C28.6045 8.11628 28.6436 8.13836 28.6436 8.15329C28.6436 8.16822 28.6709 8.18968 28.7042 8.20098C28.7905 8.23031 28.8989 8.3037 28.9314 8.35493C28.9466 8.37895 28.9746 8.39865 28.9936 8.39865C29.0126 8.39865 29.0702 8.43804 29.1216 8.48617C29.1731 8.53431 29.2347 8.5737 29.2588 8.5737C29.2829 8.5737 29.3026 8.58739 29.3026 8.60408C29.3026 8.62077 29.3621 8.6743 29.435 8.72296C29.5079 8.77163 29.6206 8.86825 29.6854 8.93767C29.7503 9.00709 29.8149 9.06388 29.829 9.06388C29.8652 9.06388 30.4819 9.68116 30.4819 9.71746C30.4819 9.74519 30.5914 9.86911 30.697 9.96078C30.7217 9.98233 30.7654 10.0359 30.794 10.0798C30.8226 10.1236 30.889 10.2051 30.9414 10.2607C30.9939 10.3164 31.0368 10.3703 31.0368 10.3807C31.0368 10.391 31.0563 10.4214 31.0802 10.4482C31.1685 10.5477 31.197 10.5885 31.2195 10.6483C31.2323 10.682 31.2572 10.7096 31.2747 10.7096C31.2923 10.7096 31.3166 10.749 31.3286 10.7971C31.3405 10.8452 31.3656 10.8846 31.3843 10.8846C31.403 10.8846 31.4183 10.9083 31.4183 10.9372C31.4183 10.9661 31.4336 10.9896 31.4524 10.9896C31.4711 10.9896 31.4962 11.029 31.5082 11.0772C31.5202 11.1253 31.5405 11.1647 31.5532 11.1647C31.5661 11.1647 31.6302 11.2671 31.6958 11.3923C31.7614 11.5174 31.8259 11.6199 31.8394 11.6199C31.8528 11.6199 31.874 11.6671 31.8866 11.7249C31.8992 11.7827 31.9225 11.83 31.9386 11.83C31.9547 11.83 31.9781 11.8773 31.9906 11.935C32.0032 11.9928 32.0279 12.04 32.0454 12.04C32.063 12.04 32.0773 12.0637 32.0773 12.0926C32.0773 12.1215 32.093 12.1451 32.1121 12.1451C32.1311 12.1451 32.1467 12.1688 32.1467 12.1978C32.1467 12.2267 32.1779 12.3092 32.2161 12.3811C32.2542 12.4529 32.2855 12.5316 32.2855 12.556C32.2855 12.5804 32.2998 12.6003 32.3174 12.6003C32.335 12.6003 32.3596 12.6475 32.3722 12.7053C32.3848 12.7631 32.4094 12.8104 32.4269 12.8104C32.4445 12.8104 32.4589 12.8498 32.4589 12.8979C32.4589 12.946 32.4732 12.9854 32.4908 12.9854C32.5084 12.9854 32.5332 13.0337 32.5461 13.0928C32.559 13.1519 32.5913 13.2424 32.618 13.2941C32.6447 13.3458 32.6667 13.4148 32.6668 13.4473C32.6669 13.4799 32.6797 13.5144 32.6953 13.5241C32.7109 13.5338 32.7537 13.6372 32.7907 13.7537C32.8276 13.8704 32.868 13.9658 32.8805 13.9658C32.893 13.9658 32.914 14.0446 32.9271 14.1409C32.9403 14.2371 32.9631 14.3159 32.978 14.3159C32.9928 14.3159 33.0152 14.3941 33.0278 14.4895C33.0403 14.585 33.0639 14.6715 33.0802 14.6816C33.0964 14.6918 33.1206 14.7875 33.1338 14.8942C33.1673 15.1644 33.39 15.3767 33.4821 15.2263C33.4939 15.2071 33.5616 15.1913 33.6325 15.1913C33.8209 15.1913 33.9871 14.9115 33.8497 14.8258C33.8325 14.815 33.8076 14.7117 33.7943 14.5961C33.781 14.4805 33.7581 14.3859 33.7433 14.3859C33.7286 14.3859 33.7063 14.3079 33.6937 14.2123C33.6812 14.1168 33.6557 14.0292 33.6371 14.0177C33.6187 14.0062 33.6035 13.9582 33.6035 13.9112C33.6035 13.8642 33.5896 13.8257 33.5728 13.8257C33.5559 13.8257 33.5315 13.7548 33.5186 13.6682C33.5057 13.5815 33.4825 13.5106 33.4671 13.5106C33.4516 13.5106 33.4285 13.4444 33.4156 13.3635C33.4028 13.2826 33.3797 13.2 33.3643 13.1797C33.3489 13.1595 33.3075 13.0602 33.2723 12.9592C33.237 12.8581 33.1978 12.7753 33.1849 12.7753C33.1719 12.7753 33.1515 12.7123 33.1393 12.6353C33.1271 12.5582 33.1029 12.4953 33.0856 12.4953C33.0683 12.4953 33.0434 12.4463 33.0304 12.3865C33.0041 12.2656 32.8385 11.9241 32.7974 11.9059C32.7829 11.8994 32.7711 11.877 32.7711 11.8561C32.7711 11.7937 32.5596 11.3748 32.5282 11.3748C32.5122 11.3748 32.4888 11.3276 32.4762 11.2698C32.4637 11.212 32.4409 11.1647 32.4255 11.1647C32.4101 11.1647 32.3882 11.1371 32.3767 11.1035C32.345 11.0103 32.2164 10.8015 32.1665 10.7619C32.1421 10.7426 32.111 10.6914 32.0974 10.6482C32.0838 10.6049 32.0598 10.5695 32.0441 10.5695C32.0284 10.5695 32.0057 10.5301 31.9938 10.482C31.9818 10.4338 31.9567 10.3944 31.9379 10.3944C31.9192 10.3944 31.9039 10.377 31.9039 10.3557C31.9039 10.3149 31.6976 10.0351 31.6527 10.0151C31.6383 10.0087 31.6264 9.98507 31.6263 9.96264C31.6262 9.94012 31.5794 9.8714 31.5223 9.80984C31.4651 9.74828 31.4183 9.68743 31.4183 9.67445C31.4183 9.66155 31.3559 9.58983 31.2796 9.51503C31.2033 9.44031 31.1409 9.37053 31.1409 9.36011C31.1409 9.33096 31.069 9.24891 30.9027 9.0879C30.8194 9.00736 30.7336 8.92089 30.712 8.89589C30.6037 8.77083 30.2878 8.46904 30.265 8.46886C30.2507 8.46877 30.1784 8.40571 30.1043 8.32861C30.0302 8.25159 29.955 8.18862 29.937 8.18862C29.919 8.18862 29.8676 8.14923 29.8228 8.10109C29.778 8.05296 29.7241 8.01356 29.7031 8.01356C29.682 8.01356 29.6381 7.98203 29.6055 7.94353C29.5727 7.90502 29.5262 7.87349 29.502 7.87349C29.4778 7.87349 29.4384 7.84196 29.4146 7.80345C29.3908 7.76494 29.3552 7.73341 29.3355 7.73341C29.3016 7.73341 29.0969 7.60049 29.0598 7.55429C29.0502 7.54246 29.0034 7.52064 28.9557 7.50581C28.908 7.49097 28.8612 7.46915 28.8516 7.45732C28.8238 7.4227 28.7007 7.34798 28.6349 7.32563C28.6015 7.31433 28.5742 7.29119 28.5742 7.27414C28.5742 7.25718 28.5547 7.24296 28.5308 7.24261C28.507 7.24234 28.3782 7.18714 28.2447 7.12011C27.9133 6.95371 27.8381 6.95795 27.7607 7.14696ZM26.0309 9.59372C25.8628 9.94612 25.873 10.0516 26.0792 10.0973C26.1351 10.1098 26.1809 10.1342 26.1809 10.1517C26.1809 10.1692 26.2434 10.1936 26.3196 10.206C26.3959 10.2182 26.4583 10.2403 26.4583 10.2551C26.4583 10.2697 26.4987 10.292 26.548 10.3045C26.5974 10.317 26.6712 10.3588 26.7121 10.3972C26.753 10.4357 26.8219 10.4761 26.8653 10.4871C26.9086 10.4981 26.9439 10.5194 26.9439 10.5345C26.9439 10.5495 26.9829 10.5718 27.0307 10.5839C27.0784 10.596 27.1174 10.6213 27.1174 10.6402C27.1174 10.6591 27.1346 10.6745 27.1557 10.6745C27.1768 10.6745 27.2532 10.7218 27.3255 10.7796C27.3977 10.8374 27.4676 10.8846 27.4806 10.8846C27.4936 10.8846 27.5511 10.9319 27.6083 10.9896C27.6656 11.0474 27.7246 11.0947 27.7395 11.0947C27.7789 11.0947 28.4362 11.7587 28.5754 11.9392C28.6405 12.0235 28.7136 12.1052 28.738 12.1206C28.7624 12.136 28.7822 12.1685 28.7822 12.193C28.7822 12.2175 28.8213 12.2718 28.8689 12.3137C28.9167 12.3555 28.9557 12.4135 28.9557 12.4425C28.9557 12.4715 28.9685 12.4953 28.9843 12.4953C28.9999 12.4953 29.0479 12.5662 29.0907 12.6528C29.1336 12.7395 29.1795 12.8104 29.1928 12.8104C29.2188 12.8104 29.3372 13.0688 29.3372 13.1257C29.3372 13.1449 29.3511 13.1605 29.3682 13.1605C29.3851 13.1605 29.4098 13.2037 29.4229 13.2564C29.4361 13.3092 29.4572 13.3604 29.47 13.3702C29.516 13.4056 29.6147 13.6228 29.6147 13.6886C29.6147 13.7255 29.6301 13.7557 29.6489 13.7557C29.6678 13.7557 29.6932 13.8187 29.7055 13.8958C29.7176 13.9728 29.7412 14.0358 29.7579 14.0358C29.7745 14.0358 29.7882 14.0713 29.7883 14.1146C29.7885 14.1579 29.8109 14.2366 29.8382 14.2895C29.8656 14.3423 29.8985 14.4568 29.9114 14.5438C29.9243 14.6308 29.9487 14.7105 29.9656 14.7211C29.9825 14.7316 29.9962 14.7856 29.9962 14.8412C29.9962 14.8966 30.0106 14.951 30.0282 14.962C30.0458 14.9729 30.0702 15.0881 30.0825 15.2179C30.0947 15.3477 30.1189 15.4854 30.1362 15.5239C30.1534 15.5624 30.1719 15.649 30.1773 15.7165L30.187 15.839L30.4852 15.8491C30.871 15.8621 30.8832 15.8491 30.8331 15.4811C30.7739 15.0477 30.7535 14.9462 30.7253 14.9462C30.7108 14.9462 30.6882 14.8362 30.6751 14.7019C30.6619 14.5675 30.6374 14.449 30.6206 14.4385C30.6037 14.428 30.5794 14.3488 30.5667 14.2626C30.5538 14.1764 30.5295 14.1059 30.5126 14.1059C30.4957 14.1059 30.4819 14.0783 30.482 14.0446C30.4822 13.9642 30.3679 13.6365 30.3344 13.6215C30.32 13.6151 30.2985 13.5481 30.2866 13.4727C30.2746 13.3973 30.2512 13.3355 30.2346 13.3355C30.218 13.3355 30.2043 13.3171 30.2043 13.2946C30.2043 13.2462 29.9948 12.8008 29.9601 12.7753C29.9469 12.7657 29.9243 12.7191 29.9097 12.6719C29.895 12.6247 29.8617 12.5645 29.8356 12.5382C29.8095 12.5118 29.7881 12.4677 29.7881 12.4402C29.7881 12.4127 29.7726 12.3902 29.7534 12.3902C29.7343 12.3902 29.7188 12.3666 29.7188 12.3377C29.7188 12.3088 29.7042 12.2851 29.6864 12.2851C29.6686 12.2851 29.6431 12.2497 29.6297 12.2064C29.6163 12.1631 29.5957 12.1197 29.584 12.1101C29.5474 12.0801 29.4066 11.8691 29.4066 11.8442C29.4066 11.8313 29.3781 11.7952 29.3432 11.764C29.3082 11.7329 29.2653 11.6817 29.2477 11.6503C29.1542 11.4827 28.413 10.6745 28.353 10.6745C28.3396 10.6745 28.2637 10.6115 28.1843 10.5345C28.1049 10.4574 28.0286 10.3944 28.0147 10.3944C28.0008 10.3944 27.9688 10.3742 27.9436 10.3494C27.9184 10.3247 27.8197 10.2499 27.7244 10.1831C27.629 10.1164 27.5432 10.054 27.5336 10.0443C27.4985 10.0089 27.3758 9.93667 27.3168 9.91662C27.2835 9.90532 27.2561 9.88341 27.2561 9.86796C27.2561 9.85241 27.2093 9.82936 27.1521 9.81673C27.0948 9.80401 27.048 9.77911 27.048 9.76144C27.048 9.74369 27.0285 9.72912 27.0046 9.72903C26.9808 9.72894 26.8365 9.66508 26.6838 9.5871C26.5312 9.50911 26.342 9.43642 26.2635 9.42556L26.1206 9.40577L26.0309 9.59372ZM10.2604 29.0916C10.2604 29.1109 10.2011 29.1266 10.1286 29.1266C10.0561 29.1266 9.9781 29.1455 9.95517 29.1686C9.90486 29.2194 9.89953 29.4989 9.94826 29.5292C9.96733 29.5412 9.98291 29.5894 9.98291 29.6364C9.98291 29.6834 9.99673 29.7218 10.0137 29.7218C10.0306 29.7218 10.0549 29.7927 10.0679 29.8793C10.0807 29.9661 10.1039 30.0369 10.1194 30.0369C10.1348 30.0369 10.1574 30.0993 10.1694 30.1755C10.1815 30.2516 10.2303 30.3879 10.2779 30.4782C10.3255 30.5687 10.3645 30.6718 10.3645 30.7074C10.3645 30.743 10.3788 30.7722 10.3964 30.7722C10.414 30.7722 10.4386 30.8195 10.4512 30.8773C10.4638 30.935 10.4867 30.9823 10.5022 30.9823C10.5177 30.9823 10.5393 31.0181 10.5501 31.0618C10.561 31.1055 10.6017 31.1757 10.6406 31.2179C10.6795 31.26 10.7113 31.3052 10.7113 31.3184C10.7113 31.3644 10.8626 31.6475 10.8872 31.6475C10.9007 31.6475 10.9217 31.6869 10.9337 31.7351C10.9456 31.7832 10.9707 31.8226 10.9894 31.8226C11.0082 31.8226 11.0235 31.8463 11.0235 31.8751C11.0235 31.904 11.0388 31.9277 11.0575 31.9277C11.0762 31.9277 11.1011 31.9659 11.1126 32.0127C11.1243 32.0594 11.1558 32.1062 11.1827 32.1166C11.2096 32.127 11.2316 32.1569 11.2316 32.183C11.2316 32.2092 11.2706 32.2675 11.3183 32.3128C11.366 32.3581 11.405 32.4081 11.405 32.424C11.405 32.4399 11.4674 32.5159 11.5438 32.5929C11.6201 32.6699 11.6826 32.7447 11.6827 32.7592C11.6831 32.8093 12.1664 33.2828 12.5024 33.5622C12.8191 33.8256 12.8564 33.8534 12.8928 33.8534C12.9139 33.8534 12.9312 33.8667 12.9312 33.8829C12.9312 33.8991 12.9858 33.9421 13.0525 33.9784C13.1194 34.0147 13.174 34.0553 13.174 34.0687C13.174 34.082 13.2208 34.1033 13.278 34.116C13.3352 34.1287 13.3821 34.1521 13.3821 34.168C13.3821 34.1839 13.4875 34.2496 13.6162 34.314C13.7449 34.3784 13.8555 34.4429 13.8618 34.4574C13.8682 34.4718 13.8917 34.4841 13.9139 34.4849C13.9362 34.4855 14.0168 34.5165 14.0931 34.5537C14.1695 34.5908 14.2591 34.6218 14.2926 34.6225C14.3259 34.6232 14.3533 34.6394 14.3533 34.6587C14.3533 34.6779 14.3884 34.6942 14.4313 34.6948C14.4742 34.6954 14.5396 34.7191 14.5767 34.7473C14.6137 34.7756 14.6869 34.7987 14.7394 34.7987C14.7918 34.7987 14.8441 34.814 14.8556 34.8328C14.867 34.8515 14.9541 34.8772 15.0491 34.8899C15.1442 34.9026 15.2303 34.9267 15.2406 34.9434C15.3151 35.0652 15.4695 34.909 15.4903 34.6908C15.4993 34.5961 15.5203 34.5187 15.537 34.5187C15.5536 34.5187 15.5673 34.4751 15.5673 34.4221C15.5673 34.306 15.4875 34.2485 15.2825 34.2169C15.2007 34.2043 15.1181 34.1822 15.099 34.1678C15.0799 34.1534 15.0125 34.1304 14.9492 34.1167C14.8859 34.103 14.7923 34.0698 14.7411 34.0429C14.69 34.016 14.6208 33.9938 14.5874 33.9937C14.554 33.9935 14.5267 33.9777 14.5267 33.9585C14.5267 33.9392 14.4964 33.9234 14.4593 33.9234C14.4223 33.9234 14.3831 33.9089 14.3723 33.8911C14.3613 33.8733 14.3058 33.8484 14.2488 33.8358C14.1918 33.8232 14.1451 33.8001 14.1451 33.7845C14.1451 33.7689 14.092 33.746 14.0271 33.7338C13.9622 33.7215 13.9002 33.6882 13.8894 33.6598C13.8786 33.6315 13.8459 33.6083 13.8167 33.6083C13.7875 33.6083 13.7636 33.5963 13.7636 33.5816C13.7636 33.5548 13.6609 33.4916 13.5469 33.4481C13.5134 33.4355 13.4861 33.4111 13.4861 33.3942C13.4861 33.3771 13.4651 33.3632 13.4394 33.3632C13.4137 33.3632 13.3566 33.3317 13.3127 33.2932C13.2687 33.2546 13.2178 33.2232 13.1997 33.2232C13.1815 33.2232 13.1359 33.1838 13.0984 33.1357C13.0608 33.0874 13.0152 33.048 12.9968 33.048C12.9614 33.048 11.9946 32.0847 11.9946 32.0494C11.9946 32.0316 11.8019 31.7681 11.7518 31.7176C11.706 31.6713 11.5784 31.472 11.5784 31.4466C11.5784 31.4308 11.5478 31.3956 11.5104 31.3684C11.4729 31.3411 11.4327 31.2746 11.4209 31.2206C11.4091 31.1665 11.3868 31.1224 11.3713 31.1224C11.3559 31.1224 11.3334 31.083 11.3214 31.0349C11.3094 30.9867 11.2856 30.9473 11.2684 30.9473C11.2512 30.9473 11.2268 30.9 11.2143 30.8422C11.2017 30.7845 11.177 30.7372 11.1594 30.7372C11.1419 30.7372 11.1275 30.7057 11.1275 30.6672C11.1275 30.6287 11.1126 30.5971 11.0944 30.5971C11.0762 30.5971 11.051 30.542 11.0385 30.4746C11.026 30.4072 11.0033 30.352 10.9879 30.352C10.9727 30.352 10.9496 30.2891 10.9368 30.212C10.9239 30.1349 10.8998 30.072 10.8833 30.072C10.8668 30.072 10.8429 30.0166 10.8304 29.949C10.8178 29.8814 10.7936 29.8174 10.7767 29.8069C10.7598 29.7963 10.746 29.7492 10.746 29.7023C10.746 29.6553 10.7324 29.6168 10.7158 29.6168C10.6991 29.6168 10.675 29.5498 10.6621 29.4679C10.6154 29.1699 10.5411 29.0565 10.3925 29.0565C10.3198 29.0565 10.2604 29.0724 10.2604 29.0916ZM7.36485 30.141C7.35339 30.1597 7.26659 30.1853 7.17201 30.198C7.00472 30.2204 7 30.2242 7 30.3377C7 30.4525 7.12564 30.843 7.17359 30.8773C7.18706 30.8869 7.20885 30.9539 7.22206 31.0261C7.23518 31.0983 7.25959 31.1574 7.2763 31.1574C7.29301 31.1574 7.31734 31.2063 7.33029 31.2661C7.35662 31.387 7.52216 31.7285 7.56328 31.7467C7.57781 31.7532 7.58962 31.7756 7.58962 31.7965C7.58962 31.8589 7.80109 32.2778 7.83259 32.2778C7.84851 32.2778 7.87187 32.325 7.88447 32.3828C7.89707 32.4406 7.92165 32.4879 7.93924 32.4879C7.95683 32.4879 7.97118 32.5103 7.97118 32.5379C7.97118 32.5654 7.99069 32.609 8.01457 32.6348C8.03837 32.6606 8.08798 32.7366 8.12464 32.8037C8.16139 32.8707 8.20067 32.9334 8.21204 32.943C8.22342 32.9527 8.25185 32.9999 8.27513 33.048C8.32246 33.1458 8.39525 33.2665 8.4229 33.2932C8.43288 33.3029 8.47041 33.358 8.50637 33.4157C8.54233 33.4735 8.59273 33.5334 8.61828 33.5487C8.64391 33.5642 8.66491 33.5925 8.66491 33.6119C8.66491 33.6473 8.9973 34.115 9.10806 34.2353C9.14096 34.2711 9.21752 34.3613 9.27824 34.4357C9.33896 34.5102 9.44036 34.6336 9.50371 34.71C9.66767 34.9077 10.3985 35.639 10.4322 35.639C10.4477 35.639 10.5228 35.7021 10.5991 35.7791C10.6754 35.8561 10.7514 35.9196 10.7679 35.9202C10.7845 35.9207 10.8436 35.9679 10.8992 36.0252C10.9549 36.0824 11.0195 36.1293 11.0429 36.1293C11.0662 36.1293 11.0944 36.1529 11.1054 36.1818C11.1164 36.2107 11.1425 36.2343 11.1636 36.2343C11.1846 36.2343 11.2236 36.254 11.2502 36.278C11.3454 36.3642 11.4023 36.4094 11.4158 36.4094C11.4232 36.4094 11.5364 36.4803 11.6671 36.5669C11.7978 36.6536 11.9236 36.7245 11.9468 36.7245C11.97 36.7245 11.9941 36.7379 12.0004 36.7543C12.0174 36.7978 12.3978 37.0046 12.4611 37.0046C12.4906 37.0046 12.515 37.0191 12.515 37.0368C12.515 37.0546 12.5645 37.0801 12.6251 37.0935C12.6857 37.1069 12.8019 37.1554 12.8832 37.2014C12.9646 37.2472 13.0634 37.2847 13.1026 37.2847C13.1419 37.2847 13.174 37.3004 13.174 37.3197C13.174 37.339 13.2013 37.3549 13.2347 37.3549C13.268 37.355 13.336 37.3766 13.3856 37.4027C13.4353 37.4289 13.5481 37.4612 13.6363 37.4745C13.7245 37.4879 13.8058 37.5137 13.8169 37.5318C13.8829 37.6397 14.0725 37.5159 14.0747 37.3635C14.0752 37.3201 14.0898 37.2847 14.1068 37.2847C14.1503 37.2847 14.1755 37.0001 14.1386 36.9258C14.1198 36.8882 14.0684 36.8646 14.0051 36.8646C13.9486 36.8646 13.9023 36.8527 13.9023 36.8383C13.9023 36.8239 13.8079 36.7816 13.6923 36.7443C13.5768 36.707 13.4744 36.6637 13.4648 36.648C13.4552 36.6323 13.421 36.6193 13.3887 36.6192C13.3565 36.6191 13.29 36.5979 13.241 36.5722C13.1921 36.5464 13.1063 36.5137 13.0506 36.4995C12.9949 36.4854 12.9412 36.4621 12.9315 36.4478C12.9071 36.4118 12.4668 36.1993 12.4168 36.1993C12.3945 36.1993 12.3762 36.1842 12.3762 36.166C12.3762 36.1476 12.3177 36.1051 12.2461 36.0715C12.1746 36.038 12.1036 35.9899 12.0883 35.9649C12.073 35.9398 12.0379 35.9192 12.0103 35.9192C11.9827 35.9192 11.96 35.9045 11.96 35.8865C11.96 35.8686 11.9248 35.8428 11.8819 35.8293C11.839 35.8158 11.7961 35.795 11.7866 35.7832C11.7537 35.7424 11.4784 35.534 11.4573 35.534C11.4458 35.534 11.38 35.4789 11.3112 35.4115C11.2425 35.3441 11.1743 35.2889 11.1596 35.2889C11.145 35.2889 11.0627 35.218 10.9769 35.1314C10.8911 35.0447 10.8105 34.9738 10.798 34.9738C10.7674 34.9738 10.1911 34.3896 10.1911 34.3587C10.1911 34.3454 10.1052 34.2499 10.0002 34.1465C9.89533 34.0431 9.8095 33.9434 9.8095 33.9248C9.8095 33.9063 9.74703 33.8287 9.67073 33.7525C9.59444 33.6762 9.53205 33.6038 9.53205 33.5915C9.53205 33.5625 9.31455 33.2793 9.28051 33.264C9.26625 33.2575 9.25453 33.2299 9.25453 33.2024C9.25453 33.1749 9.22329 33.1255 9.18514 33.0925C9.147 33.0595 9.11576 33.0124 9.11576 32.9878C9.11576 32.9632 9.10124 32.943 9.08348 32.943C9.06563 32.943 9.04209 32.9143 9.03098 32.8792C9.01996 32.8441 8.98382 32.7841 8.95066 32.7458C8.89318 32.6796 8.84646 32.5998 8.69186 32.304C8.65406 32.2319 8.60918 32.1728 8.59203 32.1728C8.57488 32.1728 8.56079 32.1413 8.56079 32.1027C8.56079 32.0642 8.54688 32.0327 8.52991 32.0327C8.51293 32.0327 8.48826 31.9895 8.47514 31.9368C8.46201 31.884 8.44084 31.8328 8.42798 31.8229C8.39298 31.7961 8.3187 31.6731 8.2956 31.6038C8.2844 31.5701 8.2627 31.5425 8.24739 31.5425C8.23208 31.5425 8.20924 31.4953 8.19665 31.4375C8.18405 31.3797 8.16069 31.3324 8.14459 31.3324C8.12858 31.3324 8.10478 31.2835 8.09174 31.2237C8.06856 31.1167 7.90704 30.7715 7.86426 30.7372C7.85227 30.7276 7.83171 30.6606 7.8185 30.5884C7.80538 30.5161 7.78175 30.4571 7.766 30.4571C7.75034 30.4571 7.72856 30.4018 7.71771 30.3342C7.687 30.1432 7.44464 30.0105 7.36485 30.141Z" fill="black"/>
</svg>
