<svg width="50" height="51" viewBox="0 0 50 51" fill="none" xmlns="http://www.w3.org/2000/svg">
<path d="M19.8699 0.923225C7.57601 3.54864 -0.677651 14.4295 0.0438231 27.0023C0.274695 30.7654 0.794156 32.7491 2.55455 36.3955C4.25723 39.9544 6.21964 42.4339 9.22097 44.826C22.1209 55.1526 41.1967 50.6019 48.0074 35.5787C49.5658 32.1073 49.9987 29.9194 49.9987 25.3104C50.0275 20.4971 49.5947 18.4551 47.7188 14.517C44.3423 7.42841 37.243 2.11925 29.2779 0.689855C26.7384 0.223115 22.6692 0.3398 19.8699 0.923225ZM22.1209 5.67814C22.3807 5.94068 22.4672 8.30355 22.4672 14.517V23.0059L16.0317 29.4819C8.70151 36.833 8.61493 36.8914 7.28742 34.6452C5.23844 31.0863 4.37267 25.3396 5.26729 21.0806C5.52702 19.8554 6.30622 17.6967 7.05655 16.1214C9.39412 11.3374 13.8095 7.5451 19.0042 5.88234C20.9088 5.26974 21.6592 5.2114 22.1209 5.67814ZM30.8652 5.79482C37.5027 7.77847 42.9571 13.5252 44.6886 20.3804C45.7853 24.727 45.2369 29.8028 43.188 33.9159C41.6007 37.0956 41.7162 37.1539 34.1263 29.511L27.6618 23.0059V14.517C27.6618 5.76565 27.7196 5.32808 28.8162 5.32808C29.0759 5.32808 29.9994 5.53228 30.8652 5.79482ZM22.3229 44.3884C22.1498 45.0301 22.0343 45.0593 20.7646 44.9135C17.8787 44.5634 12.9438 41.9963 12.9438 40.8295C12.9438 40.3919 14.5022 38.6125 17.6478 35.4328L22.3229 30.7071L22.4095 37.1831C22.4384 40.7711 22.4095 44.0092 22.3229 44.3884ZM37.1853 40.8003C37.1853 42.4923 28.7585 45.9928 27.9216 44.6801C27.7773 44.4467 27.6618 41.1795 27.6618 37.4165V30.5612L32.4236 35.3745C35.6269 38.6125 37.1853 40.3919 37.1853 40.8003Z" fill="#67399D"/>
</svg>
