<svg width="24" height="30" viewBox="0 0 24 30" fill="none" xmlns="http://www.w3.org/2000/svg">
<path d="M3.52441 11.2246H9.33398V13H1.30078V0.203125H3.52441V11.2246ZM20.8695 6.93555C20.8695 8.18945 20.6527 9.29102 20.2191 10.2402C19.7855 11.1836 19.1644 11.9102 18.3558 12.4199C17.553 12.9238 16.6273 13.1758 15.5784 13.1758C14.5413 13.1758 13.6155 12.9238 12.8011 12.4199C11.9925 11.9102 11.3655 11.1865 10.9202 10.249C10.4808 9.31152 10.2581 8.23047 10.2523 7.00586V6.28516C10.2523 5.03711 10.472 3.93555 10.9114 2.98047C11.3568 2.02539 11.9808 1.2959 12.7835 0.791992C13.5921 0.282227 14.5179 0.0273438 15.5609 0.0273438C16.6038 0.0273438 17.5267 0.279297 18.3294 0.783203C19.138 1.28125 19.762 2.00195 20.2015 2.94531C20.6409 3.88281 20.8636 4.97559 20.8695 6.22363V6.93555ZM18.6458 6.26758C18.6458 4.84961 18.3763 3.7627 17.8372 3.00684C17.304 2.25098 16.5452 1.87305 15.5609 1.87305C14.5999 1.87305 13.847 2.25098 13.3021 3.00684C12.763 3.75684 12.4876 4.82031 12.4759 6.19727V6.93555C12.4759 8.3418 12.7484 9.42871 13.2933 10.1963C13.8441 10.9639 14.6058 11.3477 15.5784 11.3477C16.5628 11.3477 17.3187 10.9727 17.846 10.2227C18.3792 9.47266 18.6458 8.37695 18.6458 6.93555V6.26758ZM11.1094 27.3389C10.6465 27.9424 10.0049 28.3994 9.18457 28.71C8.36426 29.0205 7.43262 29.1758 6.38965 29.1758C5.31738 29.1758 4.36816 28.9326 3.54199 28.4463C2.71582 27.96 2.07715 27.2656 1.62598 26.3633C1.18066 25.4551 0.949219 24.3975 0.931641 23.1904V22.1885C0.931641 20.2549 1.39453 18.7461 2.32031 17.6621C3.24609 16.5723 4.53809 16.0273 6.19629 16.0273C7.62012 16.0273 8.75098 16.3789 9.58887 17.082C10.4268 17.7852 10.9307 18.7988 11.1006 20.123H8.9209C8.6748 18.582 7.78125 17.8115 6.24023 17.8115C5.24414 17.8115 4.48535 18.1719 3.96387 18.8926C3.44824 19.6074 3.18164 20.6592 3.16406 22.0479V23.0322C3.16406 24.415 3.4541 25.4902 4.03418 26.2578C4.62012 27.0195 5.43164 27.4004 6.46875 27.4004C7.60547 27.4004 8.41406 27.1426 8.89453 26.627V24.1221H6.25781V22.4346H11.1094V27.3389ZM23.9456 22.9355C23.9456 24.1895 23.7288 25.291 23.2952 26.2402C22.8616 27.1836 22.2405 27.9102 21.432 28.4199C20.6292 28.9238 19.7034 29.1758 18.6546 29.1758C17.6175 29.1758 16.6917 28.9238 15.8773 28.4199C15.0687 27.9102 14.4417 27.1865 13.9964 26.249C13.557 25.3115 13.3343 24.2305 13.3284 23.0059V22.2852C13.3284 21.0371 13.5482 19.9355 13.9876 18.9805C14.4329 18.0254 15.057 17.2959 15.8597 16.792C16.6683 16.2822 17.5941 16.0273 18.637 16.0273C19.68 16.0273 20.6029 16.2793 21.4056 16.7832C22.2142 17.2812 22.8382 18.002 23.2777 18.9453C23.7171 19.8828 23.9398 20.9756 23.9456 22.2236V22.9355ZM21.722 22.2676C21.722 20.8496 21.4525 19.7627 20.9134 19.0068C20.3802 18.251 19.6214 17.873 18.637 17.873C17.6761 17.873 16.9232 18.251 16.3782 19.0068C15.8392 19.7568 15.5638 20.8203 15.5521 22.1973V22.9355C15.5521 24.3418 15.8245 25.4287 16.3695 26.1963C16.9202 26.9639 17.682 27.3477 18.6546 27.3477C19.639 27.3477 20.3948 26.9727 20.9222 26.2227C21.4554 25.4727 21.722 24.377 21.722 22.9355V22.2676Z" fill="black"/>
</svg>
