<svg width="50" height="50" viewBox="0 0 50 50" fill="none" xmlns="http://www.w3.org/2000/svg">
<path d="M25 47.5C37.4264 47.5 47.5 37.4264 47.5 25C47.5 12.5736 37.4264 2.5 25 2.5C12.5736 2.5 2.5 12.5736 2.5 25C2.5 37.4264 12.5736 47.5 25 47.5Z" fill="#EB0000"/>
<path d="M24.5165 14.71C24.8385 14.71 25.161 14.71 25.4845 14.71C25.605 14.7225 25.726 14.7375 25.8485 14.747C26.7765 14.824 27.6725 15.038 28.53 15.4025C29.7685 15.928 30.817 16.717 31.7245 17.7025C33.139 19.2405 33.9445 21.047 34.1115 23.134C34.1205 23.249 34.1355 23.3635 34.148 23.478C34.148 23.807 34.148 24.136 34.148 24.4655C34.142 24.488 34.1325 24.5105 34.1325 24.533C34.0715 25.703 33.8005 26.822 33.304 27.8835C32.551 29.492 31.4455 30.7995 29.9565 31.776C29.9065 31.808 29.8575 31.8435 29.8055 31.8795C30.3315 32.811 31.1545 33.314 32.1485 33.5835C32.1485 34.106 32.1485 34.6225 32.1485 35.15C31.9775 35.1765 31.8095 35.2055 31.6395 35.229C31.475 35.2525 31.309 35.27 31.144 35.2905C30.9045 35.2905 30.663 35.2905 30.4235 35.2905C30.3885 35.2835 30.3525 35.274 30.3175 35.27C29.845 35.227 29.392 35.1175 28.9725 34.892C28.31 34.5355 27.799 34.02 27.394 33.393C27.309 33.261 27.2305 33.1245 27.158 33.0075C26.7695 33.072 26.3935 33.149 26.0135 33.193C24.879 33.326 23.7545 33.2495 22.651 32.95C20.909 32.4765 19.428 31.565 18.227 30.2205C16.857 28.6845 16.068 26.8875 15.89 24.831C15.8795 24.709 15.865 24.588 15.853 24.466C15.853 24.1505 15.853 23.835 15.853 23.5195C15.8595 23.493 15.866 23.4675 15.869 23.4415C15.921 23.0165 15.945 22.587 16.0265 22.168C16.3965 20.291 17.2615 18.668 18.6255 17.328C20.1655 15.8165 22.0125 14.9385 24.174 14.748C24.2875 14.7365 24.403 14.7225 24.5165 14.71ZM28.439 29.1895C28.457 29.177 28.464 29.173 28.468 29.168C28.48 29.1565 28.49 29.1415 28.5 29.128C29.323 28.037 29.707 26.795 29.7375 25.4405C29.7565 24.5735 29.7535 23.705 29.7395 22.838C29.7325 22.421 29.7045 22.001 29.6385 21.591C29.414 20.18 28.776 18.9835 27.7025 18.0365C26.763 17.2065 25.6575 16.9015 24.4205 17.089C23.507 17.2275 22.753 17.676 22.122 18.335C20.984 19.5245 20.443 20.963 20.408 22.5955C20.389 23.487 20.394 24.3785 20.405 25.2705C20.41 25.6365 20.435 26.004 20.491 26.365C20.6975 27.707 21.275 28.868 22.253 29.816C23.143 30.6795 24.2065 31.0835 25.451 30.9635C25.68 30.941 25.9055 30.8815 26.1555 30.8355C25.579 29.986 24.9115 29.318 23.8635 29.1685C23.8635 28.57 23.8635 27.971 23.8635 27.361C25.68 27.249 27.1975 27.87 28.439 29.1895Z" fill="white"/>
</svg>
