<svg width="50" height="50" viewBox="0 0 50 50" fill="none" xmlns="http://www.w3.org/2000/svg">
<path d="M22.4227 7.37128C15.8866 8.43313 10.6392 12.5775 8.18554 18.6393C5.89688 24.2785 6.83503 31.0826 10.567 35.9795C15.835 42.8867 25.1752 45.1445 32.9381 41.3919C39.6288 38.1651 43.7319 31.0723 43.1134 23.7836C42.9587 22.0001 42.7835 21.1342 42.268 19.5568C40.2371 13.4641 35.0721 8.90736 28.6082 7.52592C27.2474 7.22695 23.8247 7.14447 22.4227 7.37128ZM33.8144 16.2888C33.9278 16.4022 34.0206 16.5672 34.0206 16.6496C34.0206 16.7321 33.0309 18.7836 31.8247 21.2166C30.6082 23.6393 29.567 25.8455 29.4948 26.1239C29.1031 27.7321 27.7422 29.0929 26.134 29.495C25.8556 29.5672 23.6288 30.6187 21.1855 31.8352C15 34.9177 15.1855 35.1032 18.268 28.9177C19.4845 26.4744 20.5361 24.2476 20.6082 23.9692C21.0103 22.3404 22.3299 21.0311 24.0206 20.5878C24.3299 20.5053 26.5361 19.4641 28.9175 18.2682C31.2989 17.0723 33.3299 16.0929 33.433 16.0929C33.5258 16.0826 33.701 16.1754 33.8144 16.2888Z" fill="#3C75C3"/>
<path d="M24.567 22.5877C23.9999 22.6908 23.6288 22.897 23.2268 23.3197C22.7731 23.7939 22.5773 24.3197 22.5773 25.0723C22.5876 26.5465 23.5773 27.5259 25.0721 27.5259C26.536 27.5156 27.536 26.5156 27.536 25.0516C27.5463 23.4434 26.1546 22.2888 24.567 22.5877Z" fill="#3C75C3"/>
</svg>
