<svg width="50" height="50" viewBox="0 0 50 50" fill="none" xmlns="http://www.w3.org/2000/svg">
<path d="M25 50C38.805 50 50 38.805 50 25C50 11.195 38.805 0 25 0C11.195 0 0 11.195 0 25C0 38.805 11.195 50 25 50Z" fill="#FFFC00"/>
<path d="M25.155 37.255C25.085 37.255 25.02 37.255 24.96 37.245C24.915 37.245 24.87 37.255 24.825 37.255C23.275 37.255 22.285 36.55 21.32 35.87C20.66 35.395 20.025 34.96 19.295 34.835C18.94 34.775 18.57 34.745 18.235 34.745C17.61 34.745 17.12 34.845 16.765 34.915C16.55 34.96 16.355 34.995 16.21 34.995C16.06 34.995 15.9 34.96 15.825 34.72C15.765 34.515 15.72 34.31 15.675 34.115C15.57 33.615 15.49 33.305 15.275 33.27C12.82 32.885 12.115 32.37 11.955 32.005C11.935 31.95 11.92 31.9 11.92 31.845C11.91 31.7 12.01 31.575 12.15 31.56C15.925 30.935 17.62 27.08 17.69 26.91C17.69 26.9 17.69 26.9 17.7 26.89C17.93 26.425 17.975 26.015 17.835 25.685C17.575 25.08 16.73 24.8 16.175 24.63C16.04 24.585 15.905 24.55 15.81 24.505C14.695 24.07 14.595 23.615 14.64 23.38C14.71 22.985 15.24 22.71 15.665 22.71C15.78 22.71 15.89 22.73 15.97 22.775C16.47 23.005 16.925 23.13 17.315 23.13C17.85 23.13 18.09 22.905 18.12 22.87C18.1 22.61 18.095 22.345 18.075 22.075C17.96 20.29 17.825 18.07 18.385 16.805C20.08 13.015 23.665 12.72 24.725 12.72C24.75 12.72 25.19 12.71 25.19 12.71H25.255C26.315 12.71 29.91 13.005 31.605 16.805C32.165 18.07 32.035 20.295 31.915 22.075L31.905 22.155C31.885 22.405 31.88 22.645 31.86 22.88C31.885 22.905 32.1 23.11 32.59 23.14C32.965 23.12 33.395 23.005 33.855 22.785C33.99 22.725 34.15 22.705 34.25 22.705C34.41 22.705 34.57 22.73 34.705 22.795H34.715C35.1 22.93 35.34 23.195 35.35 23.475C35.36 23.735 35.155 24.125 34.17 24.52C34.07 24.555 33.94 24.6 33.805 24.645C33.245 24.825 32.405 25.09 32.145 25.7C32 26.03 32.045 26.44 32.28 26.905C32.28 26.915 32.28 26.915 32.29 26.925C32.36 27.085 34.055 30.95 37.83 31.57C37.975 31.595 38.07 31.72 38.06 31.855C38.06 31.91 38.04 31.96 38.025 32.015C37.875 32.38 37.17 32.9 34.705 33.275C34.51 33.3 34.43 33.57 34.305 34.115C34.26 34.31 34.215 34.505 34.155 34.715C34.1 34.895 33.995 34.975 33.805 34.975H33.78C33.645 34.975 33.47 34.95 33.225 34.905C32.805 34.825 32.34 34.745 31.755 34.745C31.405 34.745 31.05 34.77 30.695 34.835C29.955 34.96 29.33 35.395 28.67 35.87C27.7 36.55 26.7 37.255 25.155 37.255Z" fill="white"/>
<path d="M25.245 12.4502H25.185H24.72C23.625 12.4502 19.885 12.7552 18.13 16.7052C17.54 18.0352 17.685 20.2902 17.79 22.1002C17.81 22.3152 17.815 22.5352 17.825 22.7502C17.735 22.8052 17.565 22.8652 17.31 22.8652C16.96 22.8652 16.55 22.7602 16.08 22.5352C15.955 22.4802 15.81 22.4452 15.66 22.4452C15.115 22.4452 14.4649 22.8002 14.3649 23.3352C14.2949 23.7202 14.4649 24.2802 15.705 24.7702C15.82 24.8152 15.9549 24.8602 16.0899 24.9052C16.5999 25.0652 17.375 25.3152 17.58 25.8052C17.685 26.0652 17.64 26.3952 17.455 26.7852C17.455 26.7952 17.445 26.8052 17.445 26.8102C17.375 26.9702 15.7399 30.6902 12.1199 31.2902C11.8449 31.3352 11.6399 31.5852 11.6549 31.8702C11.6649 31.9502 11.6799 32.0402 11.7149 32.1202C11.9899 32.7552 13.1349 33.2252 15.2299 33.5452C15.2999 33.6452 15.3749 33.9752 15.4149 34.1802C15.4599 34.3752 15.5049 34.5902 15.5649 34.8052C15.6249 35.0202 15.7899 35.2802 16.2149 35.2802C16.3849 35.2802 16.59 35.2452 16.82 35.1902C17.17 35.1202 17.65 35.0302 18.24 35.0302C18.57 35.0302 18.92 35.0552 19.255 35.1202C19.935 35.2352 20.505 35.6352 21.165 36.1102C22.12 36.7802 23.19 37.5452 24.83 37.5452C24.875 37.5452 24.92 37.5452 24.965 37.5352C25.02 37.5352 25.09 37.5452 25.16 37.5452C26.8 37.5452 27.87 36.7852 28.825 36.1102C29.495 35.6352 30.065 35.2352 30.735 35.1202C31.085 35.0652 31.42 35.0302 31.75 35.0302C32.32 35.0302 32.765 35.1002 33.17 35.1802C33.42 35.2352 33.625 35.2502 33.775 35.2502H33.795H33.815C34.125 35.2502 34.34 35.0902 34.43 34.7852C34.49 34.5702 34.535 34.3652 34.58 34.1702C34.625 33.9652 34.695 33.6352 34.765 33.5352C36.85 33.2152 38.005 32.7402 38.28 32.1102C38.315 32.0302 38.335 31.9402 38.34 31.8602C38.36 31.5752 38.155 31.3252 37.875 31.2802C34.245 30.6802 32.61 26.9552 32.55 26.8002C32.55 26.7902 32.54 26.7802 32.54 26.7752C32.345 26.3852 32.3 26.0552 32.415 25.7952C32.62 25.3052 33.395 25.0552 33.905 24.8952C34.05 24.8502 34.18 24.8052 34.29 24.7602C35.19 24.4052 35.645 23.9652 35.635 23.4602C35.625 23.0602 35.315 22.7002 34.825 22.5302C34.655 22.4602 34.46 22.4252 34.27 22.4252C34.135 22.4252 33.94 22.4452 33.76 22.5302C33.33 22.7352 32.94 22.8402 32.61 22.8602C32.385 22.8502 32.245 22.8002 32.165 22.7452C32.175 22.5602 32.185 22.3702 32.2 22.1752L32.21 22.0952C32.325 20.2852 32.47 18.0252 31.87 16.7002C30.09 12.7502 26.35 12.4502 25.245 12.4502ZM25.245 13.0002C26.255 13.0002 29.715 13.2702 31.345 16.9252C31.88 18.1302 31.745 20.3152 31.63 22.0652C31.61 22.3402 31.595 22.6102 31.585 22.8702L31.575 22.9752L31.645 23.0552C31.67 23.0902 31.955 23.3752 32.575 23.4052H32.585H32.595C33.005 23.3852 33.47 23.2602 33.97 23.0302C34.04 22.9952 34.14 22.9752 34.245 22.9752C34.36 22.9752 34.485 23.0002 34.595 23.0352L34.615 23.0452C34.885 23.1352 35.06 23.3152 35.07 23.4752C35.07 23.5652 35.01 23.8852 34.07 24.2502C33.98 24.2852 33.855 24.3202 33.72 24.3652C33.115 24.5602 32.195 24.8452 31.88 25.5802C31.7 25.9902 31.755 26.4702 32.025 27.0152C32.13 27.2752 33.87 31.1802 37.77 31.8252C37.77 31.8452 37.76 31.8602 37.75 31.8902C37.69 32.0402 37.26 32.5852 34.645 32.9852C34.235 33.0452 34.135 33.5102 34.02 34.0402C33.975 34.2252 33.94 34.4252 33.875 34.6202C33.855 34.6802 33.855 34.6802 33.785 34.6802H33.76C33.645 34.6802 33.465 34.6552 33.26 34.6202C32.885 34.5502 32.375 34.4602 31.735 34.4602C31.37 34.4602 30.995 34.4952 30.63 34.5502C29.825 34.6852 29.175 35.1502 28.49 35.6302C27.56 36.2802 26.61 36.9602 25.145 36.9602C25.085 36.9602 25.02 36.9602 24.96 36.9502H24.94H24.92H24.815C23.35 36.9502 22.4 36.2702 21.47 35.6202C20.785 35.1302 20.13 34.6752 19.33 34.5402C18.955 34.4802 18.58 34.4502 18.225 34.4502C17.575 34.4502 17.065 34.5502 16.7 34.6202C16.495 34.6652 16.315 34.6902 16.2 34.6902C16.1 34.6902 16.1 34.6802 16.085 34.6202C16.025 34.4252 15.9849 34.2202 15.9399 34.0302C15.8249 33.4952 15.7249 33.0302 15.3149 32.9702C12.6999 32.5702 12.2799 32.0252 12.2099 31.8752C12.1999 31.8502 12.1899 31.8302 12.1899 31.8152C16.095 31.1752 17.83 27.2652 17.935 27.0052C18.205 26.4602 18.245 25.9802 18.08 25.5702C17.77 24.8402 16.8499 24.5552 16.2399 24.3552C16.0949 24.3102 15.9799 24.2752 15.8899 24.2402C15.1049 23.9302 14.8549 23.6152 14.8899 23.4302C14.9349 23.2052 15.3099 22.9852 15.6399 22.9852C15.7099 22.9852 15.7849 22.9952 15.8249 23.0202C16.36 23.2702 16.86 23.4052 17.29 23.4052C17.97 23.4052 18.27 23.0952 18.305 23.0552L18.375 22.9752L18.365 22.8702C18.345 22.6102 18.34 22.3452 18.32 22.0652C18.215 20.3102 18.07 18.1302 18.605 16.9252C20.23 13.2752 23.68 13.0002 24.7 13.0002H25.165C25.21 13.0002 25.225 13.0002 25.245 13.0002Z" fill="black"/>
</svg>
