<svg width="44" height="44" viewBox="0 0 44 44" fill="none" xmlns="http://www.w3.org/2000/svg">
<path d="M11.0686 33.3439C10.7248 33.2751 10.4498 33.2064 10.1061 33.0689C9.76234 32.9314 9.48734 32.8626 9.21234 32.7251C8.59359 32.4501 8.04359 32.1064 7.49359 31.6939C6.39359 30.9376 5.49984 29.9064 4.81234 28.6689C4.12484 27.5001 3.71234 26.1251 3.64359 24.8189C3.57484 24.1314 3.64359 23.5126 3.71234 22.8251C3.78109 22.4814 3.84984 22.2064 3.91859 21.8626C3.98734 21.5189 4.12484 21.2439 4.19359 20.9001L4.26234 21.8626C4.26234 22.2064 4.33109 22.4814 4.39984 22.8251C4.46859 23.4439 4.60609 24.0626 4.74359 24.6126C5.01859 25.7814 5.43109 26.8814 6.04984 27.9126C6.66859 28.9439 7.35609 29.9064 8.24984 30.8001C8.66234 31.2126 9.14359 31.6251 9.62484 32.0376C9.83109 32.2439 10.1061 32.4501 10.3811 32.6564L11.0686 33.3439Z" fill="#42ADE2"/>
<path d="M10.8625 35.8189C10.6562 35.9564 10.3812 36.0251 10.1062 36.0939C9.83125 36.1626 9.625 36.2314 9.35 36.2314C8.86875 36.3001 8.31875 36.3689 7.76875 36.3001C6.7375 36.2314 5.6375 35.9564 4.74375 35.4751C3.78125 34.9939 2.95625 34.2376 2.40625 33.3439C2.13125 32.9314 1.85625 32.4501 1.65 31.9689C1.58125 31.7626 1.5125 31.4876 1.44375 31.2126C1.44375 31.0064 1.375 30.8001 1.375 30.5251C1.58125 30.7314 1.71875 30.8689 1.85625 31.0751C2.0625 31.2814 2.2 31.4876 2.3375 31.6251C2.68125 31.9689 2.95625 32.3126 3.3 32.5876C3.9875 33.2064 4.675 33.7564 5.5 34.1689C6.25625 34.5814 7.15 34.9251 7.975 35.2001C8.3875 35.3376 8.86875 35.4064 9.35 35.5439C9.55625 35.6126 9.83125 35.6126 10.0375 35.6814C10.3813 35.7501 10.5875 35.7501 10.8625 35.8189Z" fill="#42ADE2"/>
<path d="M26.4 2.40625C26.7438 2.475 27.0188 2.6125 27.3625 2.75C27.7063 2.8875 27.9813 3.025 28.2563 3.1625C28.875 3.50625 29.425 3.85 29.975 4.2625C31.075 5.0875 31.9688 6.1875 32.5875 7.425C33.2063 8.6625 33.55 10.0375 33.55 11.3438C33.55 12.0312 33.4813 12.65 33.3438 13.3375C33.275 13.6812 33.2063 13.9562 33.0688 14.3C32.9313 14.6437 32.8625 14.9187 32.725 15.1938L32.6563 14.2313C32.6563 13.8875 32.6563 13.6125 32.5875 13.2687L32.3813 11.4125C32.175 10.2438 31.7625 9.075 31.2125 7.975C30.6625 6.875 29.975 5.9125 29.15 5.01875C28.7375 4.5375 28.2563 4.125 27.8438 3.64375C27.6375 3.4375 27.3625 3.23125 27.0875 3.025L26.4 2.40625Z" fill="#42ADE2"/>
<path d="M32.3812 2.13135C32.6562 2.2001 32.8625 2.26885 33.0687 2.40635C33.275 2.4751 33.55 2.6126 33.7562 2.7501C34.1687 3.0251 34.5812 3.3001 34.9937 3.64385C35.75 4.33135 36.3687 5.15635 36.7125 6.11885C37.125 7.08135 37.2625 8.1126 37.125 9.14385C37.0562 9.6251 36.9187 10.1063 36.7812 10.5876C36.7125 10.7938 36.575 11.0688 36.5062 11.2751C36.3687 11.4813 36.3 11.6876 36.0937 11.8938V10.5188C36.0937 10.0376 36.025 9.6251 36.025 9.2126C35.8875 8.31885 35.75 7.49385 35.4062 6.7376C35.0625 5.9126 34.65 5.2251 34.1687 4.46885C33.8937 4.1251 33.6187 3.7126 33.3437 3.36885C33.2062 3.1626 33.0687 3.0251 32.8625 2.81885C32.725 2.4751 32.5187 2.26885 32.3812 2.13135Z" fill="#42ADE2"/>
<path d="M6.87502 12.3749C5.50002 12.9936 5.01877 14.6436 5.63752 16.0186L14.3 34.0999L19.1125 31.8311L10.45 13.6811C9.83127 12.3061 8.25002 11.6874 6.87502 12.3749Z" fill="#FFE1BD"/>
<path d="M29.6313 26.7436L34.7188 24.3374L24.8188 3.71237C24.1313 2.33737 22.4813 1.71862 21.0376 2.40612C19.6626 3.09362 19.0438 4.74362 19.7313 6.18737L29.6313 26.7436Z" fill="#FFE1BD"/>
<path d="M21.1062 2.3375C20.9687 2.40625 20.8312 2.475 20.6937 2.6125C22 2.26875 23.375 2.8875 23.9937 4.125L33.8937 24.75L34.7875 24.3375L24.8875 3.7125C24.2 2.26875 22.55 1.65 21.1062 2.3375Z" fill="#E6B796"/>
<path d="M19.1126 31.7624L24.4063 29.2186L14.3001 8.18115C13.6126 6.7374 11.8251 6.0499 10.3813 6.7374C8.93757 7.4249 8.31882 9.2124 9.00632 10.6561L19.1126 31.7624Z" fill="#FFE1BD"/>
<path d="M10.3813 6.80627C10.2438 6.87502 10.1063 6.94377 9.96875 7.08127C11.275 6.73752 12.7875 7.35627 13.4062 8.66252L19.6625 21.7938L21.175 22.6875L14.3 8.25002C13.6125 6.73752 11.8938 6.11877 10.3813 6.80627Z" fill="#E6B796"/>
<path d="M23.5813 27.5685L28.8751 25.0248L18.7688 3.98729C18.0813 2.54354 16.2938 1.85604 14.8501 2.61229C13.4063 3.29979 12.7876 5.08729 13.4751 6.53104L23.5813 27.5685Z" fill="#FFE1BD"/>
<path d="M14.85 2.54382C14.7125 2.61257 14.575 2.75006 14.4375 2.81881C15.7437 2.47506 17.2562 3.09382 17.875 4.40007L24.9562 19.2501L26.4688 20.1438L18.7687 3.98757C18.0812 2.47507 16.2938 1.85632 14.85 2.54382Z" fill="#E6B796"/>
<path d="M6.87502 12.3751C6.73752 12.4438 6.60002 12.5126 6.46252 12.6501C7.70002 12.3063 9.00627 12.9251 9.55627 14.1626L14.7125 24.9563L16.225 25.8501L10.45 13.7501C9.83127 12.3063 8.25002 11.6876 6.87502 12.3751Z" fill="#E6B796"/>
<path d="M41.7999 10.3128C39.9437 8.86901 36.9187 10.4503 35.4062 15.4003C34.3749 18.8378 34.2374 19.869 32.0374 20.9003L30.7999 18.3565C30.7999 18.3565 11.2749 27.7753 12.0312 29.2878C12.0312 29.2878 14.3687 36.5753 18.3562 39.944C24.2687 45.0315 38.0874 39.6003 38.7062 26.469C39.0499 18.8378 43.7937 11.894 41.7999 10.3128Z" fill="#FFE1BD"/>
<path d="M41.8 10.3125C41.4563 10.0375 41.0438 9.90005 40.6313 9.8313C40.7 9.90005 40.8375 9.90005 40.9063 9.9688C42.9688 11.55 40.8375 15.1938 39.6688 18.4938C38.7063 21.1063 37.8813 23.7875 38.0188 26.4001C38.5688 37.8126 27.0875 43.2438 20.2125 41.1813C26.95 44 39.4625 38.6376 38.9125 26.7438C38.775 24.1313 39.5313 21.5875 40.5625 18.8375C41.6625 15.5375 43.7938 11.8938 41.8 10.3125Z" fill="#E6B796"/>
<path d="M32.6563 20.625C28.3938 21.1062 22.1375 27.225 26.5375 33.8937C23.3063 27.1562 28.6 22.6188 31.9688 21.0375C32.3125 20.7625 32.6563 20.625 32.6563 20.625Z" fill="#E6B796"/>
</svg>
