<svg width="50" height="50" viewBox="0 0 50 50" fill="none" xmlns="http://www.w3.org/2000/svg">
<circle cx="25" cy="25" r="25" fill="#FFF101"/>
<path d="M17.9688 31.5063C17.6125 32.2188 17.6125 32.9313 17.6125 32.9313C17.7313 34 19.0375 34.8313 19.0375 34.8313L23.7875 26.875C24.1438 26.1625 23.7875 25.5688 23.7875 25.5688C22.7188 24.025 21.2938 24.5 21.2938 24.5L17.9688 31.5063ZM15.1187 15H20.225C21.8875 15 24.8563 15.2375 26.4 18.4438L34 34.2375C33.1688 35.0688 31.7438 34.95 31.0313 34L24.3813 24.8563C23.3125 23.4313 21.2938 23.1938 19.9875 24.3813L18.0875 26.0438C17.2562 26.7563 16.0687 26.7563 15.2375 26.0438L15 25.8063L16.7813 23.55C17.9688 22.0063 18.0875 19.75 17.0187 18.0875L15.1187 15Z" fill="#4F504F"/>
</svg>
