<svg width="50" height="50" viewBox="0 0 50 50" fill="none" xmlns="http://www.w3.org/2000/svg">
<path d="M22.7539 0.0974712C14.0527 0.937315 6.47461 6.14239 2.63672 13.9158C1.07422 17.0799 0.332037 19.824 0.0781307 23.4178C-0.156244 26.6893 0.371099 30.449 1.51368 33.5545C1.95313 34.7557 3.14454 37.2068 3.76954 38.1834C5.80079 41.3768 8.88672 44.4432 11.9629 46.3182C17.7637 49.8436 24.6973 50.869 31.2598 49.1795C35.4492 48.1053 39.1797 46.0057 42.3535 42.9295C50.3516 35.2147 52.2656 23.3006 47.1191 13.408C45.8984 11.0643 44.3457 9.00372 42.3535 7.06036C38.5937 3.40802 33.8672 1.06427 28.6621 0.283018C27.1875 0.0584087 24.1504 -0.0294819 22.7539 0.0974712ZM34.375 15.7322C36.1719 16.1424 37.7441 17.8221 38.0762 19.6678C38.2227 20.4588 38.2227 29.5408 38.0762 30.3318C37.7441 32.1775 36.1719 33.8572 34.375 34.2674C33.7695 34.4041 16.2305 34.4041 15.625 34.2674C13.8281 33.8572 12.2559 32.1775 11.9238 30.3318C11.7773 29.5408 11.7773 20.4588 11.9238 19.6678C12.2559 17.8416 13.8281 16.1424 15.5859 15.7322C16.1328 15.6053 33.8184 15.6053 34.375 15.7322Z" fill="#FF0000"/>
<path d="M21.582 25V28.9941L22.6855 28.3594C23.2812 27.998 24.8047 27.1191 26.0547 26.3965C27.2949 25.6738 28.3203 25.0391 28.3203 25C28.3203 24.9609 27.2949 24.3262 26.0547 23.6035C24.8047 22.8809 23.2812 22.002 22.6855 21.6406L21.582 21.0059V25Z" fill="#FF0000"/>
</svg>
